<svg width="80" height="80" viewBox="0 0 80 80" fill="none" xmlns="http://www.w3.org/2000/svg">
<ellipse cx="40" cy="39.9002" rx="40" ry="39.9002" fill="#388ECA"/>
<g clip-path="url(#clip0_977_2768)">
<path d="M41.125 48.4975H38.875V53.9492H41.125V48.4975Z" fill="white"/>
<path d="M32.9619 55.3495L33.7119 53.0995H46.2879L47.0379 55.3495H32.9619Z" fill="white"/>
<path d="M24.6227 48.754C23.4865 48.754 22.5625 47.83 22.5625 46.6938V29.7865C22.5625 28.6503 23.4865 27.7263 24.6227 27.7263H55.378C56.5142 27.7263 57.4382 28.6503 57.4382 29.7865V46.693C57.4382 47.8293 56.5142 48.7533 55.378 48.7533H24.6227V48.754Z" fill="white"/>
<path d="M55.3772 28.2888C56.203 28.2888 56.875 28.9608 56.875 29.7865V46.6938C56.875 47.5195 56.203 48.1915 55.3772 48.1915H24.6227C23.797 48.1915 23.125 47.5195 23.125 46.6938V29.7865C23.125 28.9608 23.797 28.2888 24.6227 28.2888H55.3772ZM55.3772 27.1638H24.6227C23.1805 27.1638 22 28.3443 22 29.7865V46.6938C22 48.136 23.1805 49.3165 24.6227 49.3165H55.378C56.8202 49.3165 58.0007 48.136 58.0007 46.6938V29.7865C58 28.3443 56.8195 27.1638 55.3772 27.1638Z" fill="white"/>
<path d="M48.5177 43.2655V42.0235C47.6409 41.9837 46.7912 41.749 46.2939 41.461L46.6869 39.9302C47.2367 40.2302 48.0077 40.5055 48.8582 40.5055C49.6037 40.5055 50.1137 40.2182 50.1137 39.6947C50.1137 39.1975 49.6952 38.8832 48.7269 38.5562C47.3274 38.0852 46.3719 37.4312 46.3719 36.163C46.3719 35.0117 47.1834 34.1095 48.5829 33.835V32.5922H49.8639V33.7435C50.7407 33.7832 51.3294 33.9647 51.7607 34.1747L51.3812 35.653C51.0414 35.509 50.4399 35.2075 49.4972 35.2075C48.6474 35.2075 48.3722 35.5735 48.3722 35.9402C48.3722 36.3715 48.8304 36.646 49.9419 37.0652C51.4982 37.615 52.1259 38.3335 52.1259 39.5117C52.1259 40.6757 51.3017 41.6695 49.7979 41.9312V43.2647H48.5177V43.2655Z" fill="#388ECA"/>
<path d="M39.8312 34.72H38.8224V32.443C38.8224 32.1648 38.5967 31.9383 38.3177 31.9383H33.5679C33.2897 31.9383 33.0632 32.164 33.0632 32.443V34.72H32.0544V32.443C32.0544 31.6083 32.7332 30.9295 33.5679 30.9295H38.3177C39.1524 30.9295 39.8312 31.6083 39.8312 32.443V34.72Z" fill="#388ECA"/>
<path d="M30.1391 34.129L27.8718 45.0783H44.0141L41.7468 34.129H30.1391Z" fill="#388ECA"/>
<path d="M33.5043 37.9968C33.0183 37.9968 32.6238 37.6023 32.6238 37.1155C32.6238 36.6288 33.0183 36.2343 33.5043 36.2343C33.9903 36.2343 34.3848 36.6288 34.3848 37.1155C34.3848 37.6015 33.991 37.9968 33.5043 37.9968ZM38.3808 37.9968C37.8948 37.9968 37.5003 37.6023 37.5003 37.1155C37.5003 36.6288 37.8948 36.2343 38.3808 36.2343C38.8668 36.2343 39.2613 36.6288 39.2613 37.1155C39.2613 37.6015 38.8668 37.9968 38.3808 37.9968Z" fill="white"/>
</g>
<defs>
<clipPath id="clip0_977_2768">
<rect width="48" height="48" fill="white" transform="translate(16 16)"/>
</clipPath>
</defs>
</svg>
