<svg width="80" height="80" viewBox="0 0 80 80" fill="none" xmlns="http://www.w3.org/2000/svg">
<ellipse cx="40" cy="40.0997" rx="40" ry="39.9002" fill="#388ECA"/>
<path d="M35.2426 39.4672L23.575 51.0921C23.3835 51.2837 23.1561 51.4356 22.9058 51.5393C22.6556 51.643 22.3873 51.6963 22.1165 51.6963C21.8456 51.6963 21.5773 51.643 21.3271 51.5393C21.0768 51.4356 20.8495 51.2837 20.6579 51.0921C20.4664 50.9006 20.3144 50.6732 20.2107 50.4229C20.1071 50.1727 20.0537 49.9045 20.0537 49.6336C20.0537 49.3627 20.1071 49.0945 20.2107 48.8442C20.3144 48.594 20.4664 48.3666 20.6579 48.175L32.3255 36.5501L35.2426 39.4672Z" fill="#388ECA"/>
<path d="M38.9935 37.6185L36.6485 39.9629C36.4044 40.2069 36.0734 40.344 35.7282 40.344C35.3831 40.344 35.0521 40.2069 34.808 39.9629L31.7872 36.942C31.5431 36.6979 31.406 36.3669 31.406 36.0218C31.406 35.6766 31.5431 35.3456 31.7872 35.1016L34.1315 32.7565L38.9935 37.6185Z" fill="#388ECA"/>
<path d="M57.1875 51.6875H39.3125V55.8125H57.1875V51.6875Z" fill="#388ECA"/>
<path d="M38.5996 54.4375H57.9004C58.4407 54.4375 58.9588 54.6521 59.3409 55.0341C59.7229 55.4162 59.9375 55.9343 59.9375 56.4746V59.9375H36.5625V56.4746C36.5625 55.9343 36.7771 55.4162 37.1591 55.0341C37.5412 54.6521 38.0593 54.4375 38.5996 54.4375Z" fill="#388ECA"/>
<path d="M33.7622 37.9877L20.6584 51.0915C21.0452 51.4781 21.5697 51.6953 22.1166 51.6953C22.6635 51.6953 23.188 51.4781 23.5748 51.0915L35.2424 39.4672L33.7622 37.9877Z" fill="#388ECA"/>
<path d="M41.375 58.5625H38.625V55.8125L41.375 58.5625Z" fill="white"/>
<path d="M57.1875 51.6875H55.8125V54.4375H57.1875V51.6875Z" fill="#D9DAE2"/>
<path d="M57.9004 54.4375H56.5254C56.7929 54.4374 57.0579 54.49 57.305 54.5924C57.5522 54.6947 57.7768 54.8448 57.966 55.0339C58.1552 55.2231 58.3052 55.4477 58.4076 55.6949C58.5099 55.9421 58.5625 56.207 58.5625 56.4746V59.9375H59.9375V56.4746C59.9375 56.207 59.8849 55.9421 59.7826 55.6949C59.6802 55.4477 59.5302 55.2231 59.341 55.0339C59.1518 54.8448 58.9272 54.6947 58.68 54.5924C58.4329 54.49 58.1679 54.4374 57.9004 54.4375Z" fill="#388ECA"/>
<path d="M37.1346 40.4489L38.9345 38.6498L37.9624 37.6776L36.1625 39.4768C36.0473 39.5918 35.8911 39.6564 35.7283 39.6564C35.5655 39.6564 35.4094 39.5918 35.2942 39.4768L32.2733 36.4559C32.1583 36.3407 32.0937 36.1846 32.0937 36.0218C32.0937 35.859 32.1583 35.7029 32.2733 35.5876L33.9302 33.9301L32.9581 32.9579L31.3012 34.6155C31.0025 34.9104 30.8063 35.2934 30.7416 35.7081C30.6768 36.1229 30.747 36.5474 30.9416 36.9193L20.1719 47.689C19.6562 48.2047 19.3665 48.9042 19.3665 49.6336C19.3665 50.363 19.6562 51.0625 20.1719 51.5782C20.6877 52.0939 21.3872 52.3837 22.1165 52.3837C22.8459 52.3837 23.5454 52.0939 24.0611 51.5782L34.8308 40.8085C35.2027 41.0032 35.6273 41.0733 36.042 41.0086C36.4567 40.9438 36.8397 40.7477 37.1346 40.4489ZM23.0876 50.6061C22.9615 50.7404 22.8098 50.8481 22.6413 50.9226C22.4728 50.9972 22.291 51.0371 22.1068 51.04C21.9226 51.0429 21.7396 51.0088 21.5689 50.9396C21.3981 50.8705 21.243 50.7677 21.1127 50.6374C20.9824 50.5072 20.8796 50.352 20.8105 50.1813C20.7413 50.0105 20.7072 49.8276 20.7101 49.6433C20.7131 49.4591 20.753 49.2774 20.8275 49.1089C20.9021 48.9404 21.0097 48.7886 21.1441 48.6625L31.8388 37.9664L33.7837 39.9113L23.0876 50.6061Z" fill="white"/>
<path d="M57.9004 53.75H57.875V51.6875C57.875 51.5052 57.8026 51.3303 57.6736 51.2014C57.5447 51.0724 57.3698 51 57.1875 51H39.3125C39.1302 51 38.9553 51.0724 38.8264 51.2014C38.6974 51.3303 38.625 51.5052 38.625 51.6875V53.75H38.5996C37.8771 53.7505 37.1844 54.0378 36.6736 54.5486C36.1628 55.0594 35.8755 55.7521 35.875 56.4746V59.9375C35.875 60.1198 35.9474 60.2947 36.0764 60.4236C36.2053 60.5526 36.3802 60.625 36.5625 60.625H59.9375C60.1198 60.625 60.2947 60.5526 60.4236 60.4236C60.5526 60.2947 60.625 60.1198 60.625 59.9375V56.4746C60.6245 55.7521 60.3372 55.0594 59.8264 54.5486C59.3156 54.0378 58.6229 53.7505 57.9004 53.75ZM40 52.375H56.5V53.75H40V52.375ZM59.25 59.25H37.25V56.4746C37.2505 56.1168 37.3929 55.7739 37.6459 55.5209C37.8989 55.2679 38.2418 55.1255 38.5996 55.125H57.9004C58.2582 55.1255 58.6011 55.2679 58.8541 55.5209C59.1071 55.7739 59.2495 56.1168 59.25 56.4746V59.25Z" fill="white"/>
<path d="M47.3955 32.1323C45.5843 31.5286 43.9386 30.5114 42.5886 29.1615C41.2386 27.8115 40.2215 26.1658 39.6178 24.3546L37.2246 21.9359L28.5415 30.7793L30.8673 33.1051C32.6785 33.7088 34.3242 34.7259 35.6742 36.0759C37.0242 37.4258 38.0413 39.0716 38.645 40.8828L41.0066 43.2821L49.7117 34.4484L47.3955 32.1323Z" fill="#027DE5"/>
<path d="M47.3955 32.1323C45.5843 31.5286 43.9386 30.5114 42.5886 29.1615C41.2386 27.8115 40.2215 26.1658 39.6178 24.3546L37.2246 21.9359L28.5415 30.7793L30.8673 33.1051C32.6785 33.7088 34.3242 34.7259 35.6742 36.0759C37.0242 37.4258 38.0413 39.0716 38.645 40.8828L41.0066 43.2821L49.7117 34.4484L47.3955 32.1323Z" fill="white"/>
<path d="M43.8713 35.7251C42.0599 35.1214 40.414 34.1043 39.0639 32.7542C37.7138 31.4041 36.6966 29.7581 36.0929 27.9467L33.6997 25.5288L28.5435 30.7806L30.8672 33.1051C32.6784 33.7088 34.3241 34.7259 35.6741 36.0758C37.0241 37.4258 38.0412 39.0716 38.6449 40.8827L41.0065 43.2821L46.1792 38.0331L43.8713 35.7251Z" fill="white"/>
<path d="M49.3399 34.0768L40.5895 42.8272C40.0525 43.3642 40.0525 44.2348 40.5895 44.7718C41.1264 45.3087 41.997 45.3087 42.534 44.7718L51.2844 36.0213C51.8214 35.4844 51.8214 34.6138 51.2844 34.0768C50.7475 33.5398 49.8769 33.5398 49.3399 34.0768Z" fill="white"/>
<path d="M47.396 32.1325L38.6455 40.883L40.5901 42.8275L49.3405 34.0771L47.396 32.1325Z" fill="#388ECA"/>
<path d="M37.6726 22.4099L28.9221 31.1603L30.8667 33.1049L39.6171 24.3544L37.6726 22.4099Z" fill="#388ECA"/>
<path d="M35.7281 20.465L26.9776 29.2154C26.4407 29.7524 26.4407 30.623 26.9776 31.16C27.5146 31.6969 28.3852 31.6969 28.9222 31.16L37.6726 22.4095C38.2096 21.8725 38.2096 21.0019 37.6726 20.465C37.1357 19.928 36.2651 19.928 35.7281 20.465Z" fill="white"/>
</svg>
