<svg width="80" height="80" viewBox="0 0 80 80" fill="none" xmlns="http://www.w3.org/2000/svg">
<ellipse cx="40" cy="39.9002" rx="40" ry="39.9002" fill="#388ECA"/>
<path d="M54.5626 21.2853L53.203 19.1067C53.5215 18.9034 53.7343 18.5485 53.7343 18.1431C53.7343 17.5117 53.2231 17 52.5913 17H27.0712C25.8804 17 24.7952 17.4853 24.016 18.2658C23.2355 19.0431 22.7307 20.1309 22.7307 21.3199V59.236C22.7307 61.3144 24.4164 63 26.4948 63H54.0981C55.8492 63 57.2693 61.5812 57.2693 59.8308V24.4091C57.2693 22.8167 56.0909 21.5138 54.5626 21.2853ZM30.6327 33.2024L33.1479 36.1803C33.3456 36.4151 33.6767 36.4604 33.8869 36.2824L33.9901 36.1961C34.2003 36.0179 34.2129 35.6837 34.014 35.449L31.4849 32.4541C30.975 31.8505 31.1891 31.3608 31.5403 31.0643C31.8915 30.7678 32.4101 30.6388 32.92 31.2425L35.4491 34.2373C35.6467 34.4721 35.9791 34.5167 36.1893 34.3387L36.2913 34.2524C36.5015 34.0749 36.5141 33.7407 36.3152 33.5059L33.7999 30.5274C32.8872 29.4467 34.3084 28.3099 35.1998 29.3661C36.2685 30.6313 37.5753 32.179 37.5753 32.179C39.2232 34.1165 39.2295 34.9749 39.0495 36.164C38.9047 37.122 38.6642 37.8031 39.6865 39.0141L40.0113 39.398L38.5774 41.0956L38.0121 40.4278C36.99 39.2167 36.2787 39.3395 35.3094 39.3225C34.1071 39.3011 33.2624 39.1487 31.6284 37.2007C31.6284 37.2007 30.3217 35.6529 29.2529 34.3877C28.3617 33.3321 29.7199 32.1211 30.6327 33.2024ZM35.4025 57.2703H34.5905V54.8149L33.7848 56.5194H33.2044L32.3748 54.8054V57.2704H31.5641V52.9429H32.342L33.4939 55.3964L34.6231 52.9429H35.4024V57.2703H35.4025ZM39.4712 53.69H37.4507V54.7186H39.1742V55.46H37.4507V56.5232H39.4712V57.2703H36.64V52.9429H39.4712V53.69ZM43.8017 57.2703H43.0854L41.3104 54.5674V57.2703H40.4997V52.9429H41.216L42.9909 55.64V52.9429H43.8017V57.2703ZM41.1858 44.1855L42.6197 42.4872L46.8432 47.4894L45.1702 48.9038L41.1858 44.1855ZM48.1399 55.7816C48.1399 56.0069 48.0984 56.2159 48.019 56.4028C47.9384 56.5904 47.8251 56.7528 47.6829 56.885C47.5406 57.0165 47.3707 57.1204 47.1781 57.1947C46.9867 57.2676 46.7778 57.3048 46.5575 57.3048C46.3384 57.3048 46.1294 57.2676 45.9368 57.1947C45.7442 57.1204 45.5756 57.0159 45.4358 56.8843C45.2948 56.7521 45.1828 56.5904 45.1035 56.4028C45.0229 56.2159 44.9827 56.0069 44.9827 55.7816V52.9429H45.7934V55.7527C45.7934 56.0063 45.8626 56.2065 45.9999 56.3468C46.1383 56.489 46.3208 56.5577 46.5575 56.5577C46.7943 56.5577 46.978 56.4885 47.119 56.3462C47.26 56.2039 47.328 56.0094 47.328 55.7526V52.9429H48.14L48.1399 55.7816ZM49.9803 33.2981C49.4037 34.7036 48.3676 37.2824 47.2094 38.6552C44.5155 42.0341 44.4789 38.9731 42.2583 41.5248L36.0269 48.9038L34.3614 47.4964L34.3337 47.5127C34.3337 47.5127 34.3412 47.5032 34.3525 47.49C34.6156 47.1791 38.3217 42.7906 41.5106 39.0134C44.6653 35.2777 47.2988 32.1582 47.854 31.5017C48.9921 30.1528 50.8805 31.1101 49.9803 33.2981ZM25.1037 21.3709V21.3199C25.1037 20.8194 25.3177 20.319 25.6903 19.9471C26.0617 19.5745 26.5501 19.3724 27.0712 19.3724H50.5719L51.8195 21.3709H25.1037Z" fill="white"/>
</svg>
