<svg width="80" height="80" viewBox="0 0 80 80" fill="none" xmlns="http://www.w3.org/2000/svg">
<ellipse cx="40" cy="39.9002" rx="40" ry="39.9002" fill="#388ECA"/>
<g clip-path="url(#clip0_977_2828)">
<path d="M29.7778 29.7778C30.1167 29.7778 30.4417 29.6431 30.6813 29.4035C30.9209 29.1639 31.0556 28.8389 31.0556 28.5V20.8333C31.0556 20.4944 30.9209 20.1694 30.6813 19.9298C30.4417 19.6902 30.1167 19.5555 29.7778 19.5555C29.4389 19.5555 29.1139 19.6902 28.8743 19.9298C28.6346 20.1694 28.5 20.4944 28.5 20.8333V28.5C28.5 28.8389 28.6346 29.1639 28.8743 29.4035C29.1139 29.6431 29.4389 29.7778 29.7778 29.7778Z" fill="white"/>
<path d="M50.2221 29.7778C50.561 29.7778 50.886 29.6431 51.1256 29.4035C51.3653 29.1639 51.4999 28.8389 51.4999 28.5V20.8333C51.4999 20.4944 51.3653 20.1694 51.1256 19.9298C50.886 19.6902 50.561 19.5555 50.2221 19.5555C49.8832 19.5555 49.5582 19.6902 49.3186 19.9298C49.079 20.1694 48.9443 20.4944 48.9443 20.8333V28.5C48.9443 28.8389 49.079 29.1639 49.3186 29.4035C49.5582 29.6431 49.8832 29.7778 50.2221 29.7778Z" fill="white"/>
<path d="M58.2083 24.6667H53.0972V28.5C53.0972 29.2455 52.801 29.9606 52.2738 30.4877C51.7466 31.0149 51.0316 31.3111 50.2861 31.3111C49.5405 31.3111 48.8255 31.0149 48.2983 30.4877C47.7711 29.9606 47.475 29.2455 47.475 28.5V24.6667H32.5888V28.5C32.5888 29.2455 32.2927 29.9606 31.7655 30.4877C31.2383 31.0149 30.5233 31.3111 29.7777 31.3111C29.0322 31.3111 28.3172 31.0149 27.79 30.4877C27.2628 29.9606 26.9666 29.2455 26.9666 28.5V24.6667H21.8555C21.5514 24.6632 21.2497 24.7207 20.9683 24.8359C20.6868 24.9511 20.4313 25.1215 20.2169 25.3371C20.0025 25.5528 19.8334 25.8092 19.7198 26.0913C19.6062 26.3734 19.5504 26.6754 19.5555 26.9794V55.5761C19.5504 55.8748 19.6042 56.1716 19.7139 56.4495C19.8235 56.7273 19.9868 56.9809 20.1945 57.1957C20.4021 57.4105 20.65 57.5822 20.9241 57.7012C21.1981 57.8201 21.4929 57.8839 21.7916 57.8889H58.2083C58.507 57.8839 58.8018 57.8201 59.0758 57.7012C59.3498 57.5822 59.5978 57.4105 59.8054 57.1957C60.0131 56.9809 60.1764 56.7273 60.286 56.4495C60.3957 56.1716 60.4495 55.8748 60.4444 55.5761V26.9794C60.4495 26.6807 60.3957 26.384 60.286 26.1061C60.1764 25.8282 60.0131 25.5746 59.8054 25.3598C59.5978 25.1451 59.3498 24.9733 59.0758 24.8544C58.8018 24.7354 58.507 24.6716 58.2083 24.6667ZM50.1455 38.1855L37.7894 50.5416L31.0555 43.7567C30.7572 43.4285 30.5956 42.9988 30.6038 42.5554C30.612 42.112 30.7895 41.6885 31.0997 41.3717C31.41 41.0548 31.8297 40.8686 32.2729 40.8512C32.716 40.8337 33.149 40.9863 33.4833 41.2778L37.8022 45.5966L47.6666 35.7322C47.8285 35.5703 48.0208 35.4418 48.2323 35.3542C48.4439 35.2666 48.6707 35.2215 48.8997 35.2215C49.1287 35.2215 49.3554 35.2666 49.567 35.3542C49.7786 35.4418 49.9708 35.5703 50.1327 35.7322C50.2947 35.8941 50.4231 36.0864 50.5107 36.2979C50.5984 36.5095 50.6435 36.7363 50.6435 36.9653C50.6435 37.1943 50.5984 37.421 50.5107 37.6326C50.4231 37.8442 50.2947 38.0364 50.1327 38.1983L50.1455 38.1855Z" fill="white"/>
</g>
<defs>
<clipPath id="clip0_977_2828">
<rect width="46" height="46" fill="white" transform="translate(17 17)"/>
</clipPath>
</defs>
</svg>
