<svg width="80" height="80" viewBox="0 0 80 80" fill="none" xmlns="http://www.w3.org/2000/svg">
<ellipse cx="40" cy="39.9002" rx="40" ry="39.9002" fill="#388ECA"/>
<path d="M44.0034 34.2618L43.2139 36.8428C43.9187 37.0681 44.434 37.76 44.434 38.5796C44.434 38.9902 44.3034 39.3677 44.0866 39.672L46.1436 41.3515C46.712 40.5864 47.0479 39.6246 47.0479 38.5782C47.0465 36.5313 45.756 34.8145 44.0034 34.2618Z" fill="white"/>
<path d="M42.2951 40.5045C41.3591 40.4959 40.6027 39.6835 40.6027 38.693C40.6027 37.704 41.3577 36.8915 42.2951 36.8844C42.4716 36.8829 42.6396 36.9102 42.8018 36.9619L43.5869 34.3853C43.1778 34.2561 42.7443 34.19 42.2979 34.2001C39.9869 34.2475 38.1423 36.2614 38.1423 38.6916C38.1423 41.1232 39.9854 43.14 42.2979 43.1874C43.6802 43.2175 44.9219 42.54 45.7186 41.462L43.6702 39.7839C43.3515 40.2246 42.8563 40.5088 42.2951 40.5045Z" fill="white"/>
<path d="M60.2855 35.5982C62.9999 34.546 62.9999 34.4441 62.9999 34.1714V32.0441C62.9999 31.7713 62.9999 31.6565 60.2841 30.689L60.1893 30.6546L59.8061 29.7459L59.8463 29.6541C61.0018 27.0373 60.9214 26.9598 60.729 26.7703L59.1931 25.2674C59.13 25.2057 59.0194 25.1612 58.9233 25.1612C58.8343 25.1612 58.5759 25.1612 56.3022 26.1904L56.2117 26.2306L55.2773 25.853L55.2399 25.7597C54.1705 23.1128 54.0586 23.1128 53.7944 23.1128H51.6212C51.3528 23.1128 51.2336 23.1128 50.2446 25.764L50.2073 25.8602L49.2757 26.2406L49.1867 26.2033C47.6493 25.5545 46.7522 25.2258 46.5182 25.2258C46.4249 25.2258 46.3115 25.2688 46.2484 25.3305L44.7081 26.8363C44.5129 27.0287 44.4325 27.109 45.6455 29.6713L45.6885 29.766L45.3067 30.6732L45.212 30.7091C44.9034 30.8283 44.6364 30.9345 44.3938 31.0307C44.3033 31.0665 43.7651 31.4168 43.4277 31.6292L36.3496 31.2417L33.9151 42.9118H33.9137L33.8663 42.9189C33.2778 41.9199 32.1811 41.3514 30.6523 41.3514H29.9834C29.0863 42.2271 27.5173 42.8142 25.7202 42.8142C23.923 42.8142 22.3541 42.2285 21.4569 41.3514H20.788C18.4296 41.3514 17.0789 42.6835 17.0789 44.9056C17.0789 47.1291 17.0071 53.2038 17.0071 54.4154C17.0071 55.6269 16.8621 56.8886 17.9071 56.8886C18.2932 56.8886 19.522 56.8886 21.1153 56.8886C22.6354 56.8886 24.0953 56.8886 25.4345 56.8886C25.6197 56.8886 25.825 56.8886 26.0044 56.8886C27.7212 56.8886 29.148 56.8886 29.9691 56.8886C30.1155 56.8886 30.2174 56.8886 30.3236 56.8886C30.3696 56.8886 30.4385 56.8886 30.4758 56.8886C31.8107 56.8886 32.8356 56.8886 33.1773 56.8886C33.3194 56.8886 33.4529 56.8886 33.5318 56.8886C34.5783 56.8886 34.4318 55.6269 34.4318 54.4154C34.4318 54.2288 34.429 53.9144 34.4275 53.5297H62.9655V51.599H34.4118C34.406 51.055 34.4003 50.4736 34.3945 49.8822L37.1147 50.9229L50.5719 48.7827L51.9198 43.1902H53.882C54.1547 43.1902 54.2696 43.1902 55.2586 40.5376L55.2959 40.4428L56.229 40.0653L56.3179 40.1012C57.8539 40.7514 58.751 41.0802 58.9836 41.0802C59.0754 41.0802 59.1917 41.0385 59.2534 40.9768L60.7936 39.4682C60.9889 39.2744 61.0678 39.1954 59.8534 36.636L59.8104 36.5399L60.1908 35.6355L60.2855 35.5982ZM37.0257 32.3326L51.1016 33.2728L48.0211 46.2793L34.8323 42.5472L37.0257 32.3326ZM34.3615 44.9056C34.3615 44.508 34.3041 44.1491 34.218 43.8089L34.2682 43.8003L45.4316 46.9884L40.3329 47.7104L34.3629 45.7669C34.3629 45.4439 34.3615 45.1496 34.3615 44.9056ZM34.3687 46.5549L35.9089 47.0688L34.3744 47.2985C34.3716 47.043 34.3701 46.7932 34.3687 46.5549ZM53.5332 36.5097L54.3442 33.1408L53.5289 32.5723L49.8858 48.1152L37.2051 49.9698V49.9641L34.3874 48.9334C34.3845 48.6636 34.3816 48.4009 34.3802 48.1368L37.2496 49.166L49.1049 47.5755L52.7609 32.1359L49.4982 31.9594C49.5369 31.8144 49.5786 31.6709 49.5886 31.6493C50.1571 30.4981 51.36 29.7014 52.7523 29.7014C54.6945 29.7014 56.2706 31.2488 56.2706 33.1522C56.2706 34.7901 55.0993 36.1609 53.5332 36.5097Z" fill="white"/>
<path d="M19.3224 34.0953C19.3095 34.1786 19.2922 34.2618 19.2822 34.3465C18.8903 37.9983 21.4727 41.284 25.0412 41.6701C28.6111 42.0577 31.8365 39.3978 32.2327 35.7461C32.2916 35.1819 32.2743 34.6293 32.1997 34.0924C32.6188 34.0896 32.8786 34.0838 32.9361 34.0752C33.3911 34.0178 33.7543 33.9848 33.7916 33.4824C33.7988 32.812 33.7801 32.9197 33.7901 32.8206C33.8016 32.2407 33.4614 32.3082 33.0853 32.268C32.7093 32.2278 32.2485 32.2852 32.2485 32.2852C32.2485 32.2852 31.1647 24.9989 24.4239 26.1889C22.4086 26.5449 21.0808 27.3961 20.208 28.4124C21.9291 27.5569 23.9588 27.1464 25.7244 27.3889C27.4082 27.6215 28.7288 28.4024 29.58 29.644C29.013 29.2234 28.3771 28.8933 27.6824 28.678C26.989 28.2689 26.2527 28.0708 25.6397 27.9861C23.6043 27.6961 21.2057 28.3392 19.43 29.5593C18.2917 31.7283 18.6219 34.0924 18.6219 34.0924C18.6219 34.0924 18.8846 34.0924 19.3224 34.0953ZM20.4808 34.4757C20.4937 34.3479 20.5167 34.2231 20.5411 34.0982C23.2641 34.1025 28.2364 34.1111 30.9839 34.0996C31.0686 34.5891 31.0901 35.0972 31.0327 35.6154C30.7083 38.6069 28.0771 40.7873 25.1704 40.4715C22.2593 40.1572 20.1578 37.4671 20.4808 34.4757Z" fill="white"/>
</svg>
