<svg width="80" height="80" viewBox="0 0 80 80" fill="none" xmlns="http://www.w3.org/2000/svg">
<ellipse cx="40" cy="40.0997" rx="40" ry="39.9002" fill="#388ECA"/>
<g clip-path="url(#clip0_184_1031)">
<path d="M20 31.25V53.75C20 55.75 21.7508 57.5 23.75 57.5H25V27.5H23.75C21.7508 27.5 20 29.25 20 31.25ZM56.25 27.5H55V57.5H56.25C58.2492 57.5 60 55.7492 60 53.75V31.25C60 29.25 58.25 27.5 56.25 27.5ZM50 23.75C50 21.7508 48.25 20 46.25 20H33.75C31.75 20 30 21.7508 30 23.75V27.5H27.5V57.5H52.5V27.5H50V23.75ZM33.75 23.75H46.25V27.5H33.75V23.75ZM47.5 44.375C47.5 44.7188 47.2188 45 46.875 45H42.5V49.375C42.5 49.7168 42.2168 50 41.875 50H38.125C37.7812 50 37.5 49.7188 37.5 49.375V45H33.125C32.7812 45 32.5 44.7188 32.5 44.375V40.625C32.5 40.2812 32.7812 40 33.125 40H37.5V35.625C37.5 35.2812 37.7812 35 38.125 35H41.875C42.2188 35 42.5 35.2812 42.5 35.625V40H46.875C47.2188 40 47.5 40.2812 47.5 40.625V44.375Z" fill="white"/>
</g>
<defs>
<clipPath id="clip0_184_1031">
<rect width="40" height="39.9002" fill="white" transform="translate(20 20.1496)"/>
</clipPath>
</defs>
</svg>
