<svg width="100" height="100" viewBox="0 0 100 100" fill="none" xmlns="http://www.w3.org/2000/svg">
<path d="M6.25 31.25H17.1875L25 21.875L28.125 31.25L32.8125 37.5L29.6875 45.3125L26.5625 50H21.875V53.125L26.5625 59.375L39.0625 62.5L29.6875 84.375L25 85.9375V68.75L17.1875 60.9375L10.9375 40.625H4.6875V34.375L6.25 31.25Z" fill="#388ECA"/>
<path d="M48.4375 35.9375L45.3125 40.625L40.625 43.75L46.875 46.875L39.0625 51.5625L42.1875 56.25L50 57.8125V64.0625L53.125 68.75H56.25L59.375 59.375V53.125H64.0625L67.1875 57.8125L71.875 53.125L73.4375 56.25V60.9375L85.9375 64.0625L81.25 57.8125L79.6875 53.125L84.375 48.4375V40.625L95.3125 37.5V32.8125L79.6875 25H75L57.8125 34.375L53.125 31.25H48.4375V35.9375Z" fill="#388ECA"/>
<path d="M78.125 78.125V73.4375L82.8125 70.3125H89.0625L92.1875 75V79.6875L84.375 76.5625L78.125 78.125Z" fill="#388ECA"/>
<path d="M35.9375 15.625H45.3125V23.4375L39.0625 32.8125L34.375 25L31.25 23.4375V15.625H35.9375Z" fill="#388ECA"/>
<path d="M75.0564 45.725C75.0236 45.6078 71.7455 33.9703 63.1549 27.8344C52.8877 20.5016 37.9564 23.3781 37.8064 23.4078L37.1924 20.3438C37.8564 20.2109 53.6111 17.1781 64.9689 25.2922C74.4814 32.0859 77.9268 44.3828 78.0689 44.9031L75.0564 45.725Z" fill="#3A4249"/>
<path d="M75.4598 46.4203C75.3848 46.3453 67.7863 38.9734 52.9691 37.4922C37.9785 35.9891 27.2832 40.4547 27.177 40.4984L25.9473 37.6266C26.4098 37.4281 37.4363 32.8 53.2816 34.3828C69.277 35.9828 77.3332 43.8734 77.6676 44.2078L75.4598 46.4203Z" fill="#3A4249"/>
<path d="M88.7217 74.4125L86.2779 72.4641C86.3451 72.3781 93.0623 63.8141 90.7045 56.7438C87.9232 48.4 76.4826 46.8766 76.3686 46.8625L76.1795 46.8281C76.0967 46.8078 67.3732 44.7641 53.6732 49.9016C41.8061 54.3516 34.2123 66.3328 34.1373 66.4531L31.4873 64.7969C31.817 64.2688 39.7279 51.7922 52.5764 46.9735C66.6467 41.7 75.7545 43.5235 76.8467 43.7735C78.1279 43.95 90.3811 45.8891 93.6701 55.7547C96.5654 64.4438 89.042 74.0094 88.7217 74.4125Z" fill="#3A4249"/>
</svg>
