<svg width="100" height="94" viewBox="0 0 100 94" fill="none" xmlns="http://www.w3.org/2000/svg">
<path d="M24.4919 92.2087V63.1209L0 49.3466L24.4919 92.2087Z" fill="url(#paint0_linear_942_1478)"/>
<path d="M69.7859 59.7539L50 23.7748L30.2144 59.7539H69.7859Z" fill="url(#paint1_linear_942_1478)"/>
<path d="M73.1272 0.235321H26.8726L49.9998 16.7518L73.1272 0.235321Z" fill="url(#paint2_linear_942_1478)"/>
<path d="M75.5078 63.1209V92.2087L99.9999 49.3466L75.5078 63.1209Z" fill="url(#paint3_linear_942_1478)"/>
<path d="M76.307 3.18988L52.7759 19.9955L74.2112 58.9759L99.9189 44.5129L76.307 3.18988Z" fill="url(#paint4_linear_942_1478)"/>
<path d="M23.6926 3.18988L0.0805664 44.5129L25.7885 58.9759L47.228 19.9955L23.6926 3.18988Z" fill="url(#paint5_linear_942_1478)"/>
<path d="M71.2565 64.0054H28.7432V93.7647H71.2565V64.0054Z" fill="url(#paint6_linear_942_1478)"/>
<defs>
<linearGradient id="paint0_linear_942_1478" x1="12.2459" y1="49.3466" x2="12.2459" y2="92.2087" gradientUnits="userSpaceOnUse">
<stop stop-color="#388ECA"/>
<stop offset="0.480769" stop-color="#246EAE"/>
<stop offset="1" stop-color="#0F4C8F"/>
</linearGradient>
<linearGradient id="paint1_linear_942_1478" x1="50.0001" y1="23.7748" x2="50.0001" y2="59.7539" gradientUnits="userSpaceOnUse">
<stop stop-color="#388ECA"/>
<stop offset="0.480769" stop-color="#246EAE"/>
<stop offset="1" stop-color="#0F4C8F"/>
</linearGradient>
<linearGradient id="paint2_linear_942_1478" x1="49.9999" y1="0.235321" x2="49.9999" y2="16.7518" gradientUnits="userSpaceOnUse">
<stop stop-color="#388ECA"/>
<stop offset="0.480769" stop-color="#246EAE"/>
<stop offset="1" stop-color="#0F4C8F"/>
</linearGradient>
<linearGradient id="paint3_linear_942_1478" x1="87.7539" y1="49.3466" x2="87.7539" y2="92.2087" gradientUnits="userSpaceOnUse">
<stop stop-color="#388ECA"/>
<stop offset="0.480769" stop-color="#246EAE"/>
<stop offset="1" stop-color="#0F4C8F"/>
</linearGradient>
<linearGradient id="paint4_linear_942_1478" x1="76.3474" y1="3.18988" x2="76.3474" y2="58.9759" gradientUnits="userSpaceOnUse">
<stop stop-color="#388ECA"/>
<stop offset="0.480769" stop-color="#246EAE"/>
<stop offset="1" stop-color="#0F4C8F"/>
</linearGradient>
<linearGradient id="paint5_linear_942_1478" x1="23.6543" y1="3.18988" x2="23.6543" y2="58.9759" gradientUnits="userSpaceOnUse">
<stop stop-color="#388ECA"/>
<stop offset="0.480769" stop-color="#246EAE"/>
<stop offset="1" stop-color="#0F4C8F"/>
</linearGradient>
<linearGradient id="paint6_linear_942_1478" x1="49.9998" y1="64.0054" x2="49.9998" y2="93.7647" gradientUnits="userSpaceOnUse">
<stop stop-color="#388ECA"/>
<stop offset="0.480769" stop-color="#246EAE"/>
<stop offset="1" stop-color="#0F4C8F"/>
</linearGradient>
</defs>
</svg>
