<svg width="100" height="100" viewBox="0 0 100 100" fill="none" xmlns="http://www.w3.org/2000/svg">
<g clip-path="url(#clip0_977_2689)">
<path d="M70.8335 32.1125V66.6666C71.9835 66.6666 72.9169 67.6 72.9169 68.75C72.9169 69.9 71.9835 70.8334 70.8335 70.8334V98.7793L99.3919 70.2209C99.7835 69.8293 100 69.3 100 68.7459V2.94159L70.8335 32.1125ZM83.3335 70.8334H79.1669C78.0169 70.8334 77.0835 69.9 77.0835 68.75C77.0835 67.6 78.0169 66.6666 79.1669 66.6666H83.3335C84.4835 66.6666 85.4169 67.6 85.4169 68.75C85.4167 69.9 84.4835 70.8334 83.3335 70.8334ZM93.7501 70.8334H91.6667C90.5167 70.8334 89.5833 69.9 89.5833 68.75C89.5833 67.6 90.5167 66.6666 91.6667 66.6666H93.7501C94.9001 66.6666 95.8335 67.6 95.8335 68.75C95.8335 69.9 94.9001 70.8334 93.7501 70.8334Z" fill="#388ECA"/>
<path d="M31.2502 0C30.6961 0 30.1668 0.220898 29.7752 0.608398L1.2168 29.1666H29.1668C29.1668 28.0166 30.1002 27.0832 31.2502 27.0832C32.4002 27.0832 33.3336 28.0166 33.3336 29.1666H67.8877L97.0543 0H31.2502ZM33.3336 20.8334C33.3336 21.9834 32.4002 22.9168 31.2502 22.9168C30.1002 22.9168 29.1668 21.9834 29.1668 20.8334V16.6666C29.1668 15.5166 30.1002 14.5832 31.2502 14.5832C32.4002 14.5832 33.3336 15.5166 33.3336 16.6666V20.8334ZM33.3336 8.3334C33.3336 9.4834 32.4002 10.4168 31.2502 10.4168C30.1002 10.4168 29.1668 9.4834 29.1668 8.3334V6.25C29.1668 5.1 30.1002 4.1666 31.2502 4.1666C32.4002 4.1666 33.3336 5.1 33.3336 6.25V8.3334Z" fill="#388ECA"/>
<path d="M31.25 35.4166C30.1 35.4166 29.1666 34.4832 29.1666 33.3332H0V97.9166C0 99.0666 0.933398 100 2.0834 100H66.6668V70.8334C65.5168 70.8334 64.5834 69.9 64.5834 68.75C64.5834 67.6 65.5168 66.6666 66.6668 66.6666V33.3334H33.3334C33.3334 34.4834 32.4 35.4166 31.25 35.4166ZM29.1666 41.6666C29.1666 40.5166 30.1 39.5832 31.25 39.5832C32.4 39.5832 33.3334 40.5166 33.3334 41.6666V45.8332C33.3334 46.9832 32.4 47.9166 31.25 47.9166C30.1 47.9166 29.1666 46.9832 29.1666 45.8332V41.6666ZM29.1666 54.1666C29.1666 53.0166 30.1 52.0832 31.25 52.0832C32.4 52.0832 33.3334 53.0166 33.3334 54.1666V58.3332C33.3334 59.4832 32.4 60.4166 31.25 60.4166C30.1 60.4166 29.1666 59.4832 29.1666 58.3332V54.1666ZM8.1541 94.7916L6.6791 96.2666C6.2707 96.675 5.7375 96.875 5.2041 96.875C4.6707 96.875 4.1375 96.6709 3.7291 96.2666C2.9166 95.4541 2.9166 94.1332 3.7291 93.3207L5.2041 91.8457C6.0166 91.0332 7.3375 91.0332 8.15 91.8457C8.9625 92.6584 8.9666 93.9791 8.1541 94.7916ZM16.8166 86.1291L13.9291 89.0166C13.5207 89.425 12.9875 89.625 12.4541 89.625C11.9207 89.625 11.3875 89.4209 10.9791 89.0166C10.1666 88.2041 10.1666 86.8832 10.9791 86.0707L13.8666 83.1832C14.6791 82.3707 16 82.3707 16.8125 83.1832C17.625 83.9959 17.6291 85.3166 16.8166 86.1291ZM25.475 77.4709L22.5875 80.3584C22.1791 80.7668 21.6459 80.9668 21.1125 80.9668C20.5791 80.9668 20.0459 80.7627 19.6375 80.3584C18.825 79.5459 18.825 78.225 19.6375 77.4125L22.525 74.525C23.3375 73.7125 24.6584 73.7125 25.4709 74.525C26.2834 75.3375 26.2916 76.6541 25.475 77.4709ZM54.1666 66.6666H58.3332C59.4832 66.6666 60.4166 67.6 60.4166 68.75C60.4166 69.9 59.4832 70.8334 58.3332 70.8334H54.1666C53.0166 70.8334 52.0832 69.9 52.0832 68.75C52.0834 67.6 53.0166 66.6666 54.1666 66.6666ZM41.6666 66.6666H45.8332C46.9832 66.6666 47.9166 67.6 47.9166 68.75C47.9166 69.9 46.9832 70.8334 45.8332 70.8334H41.6666C40.5166 70.8334 39.5832 69.9 39.5832 68.75C39.5834 67.6 40.5166 66.6666 41.6666 66.6666ZM35.4125 68.75C35.4125 69.9 34.4834 70.8334 33.3334 70.8334H32.1125L31.25 71.6959C30.8416 72.1043 30.3084 72.3043 29.775 72.3043C29.2416 72.3043 28.7084 72.1002 28.3 71.6959C27.4875 70.8834 27.4875 69.5625 28.3 68.75L29.1625 67.8875V66.6666C29.1625 65.5166 30.0959 64.5832 31.2459 64.5832C32.3959 64.5832 33.3293 65.5166 33.3293 66.6666C34.4791 66.6666 35.4125 67.6 35.4125 68.75Z" fill="#FEA500"/>
<path d="M68.6191 68.2H61.6191V82H41.4191V68.2H15.7191V54L42.8191 10.6H61.6191V53.8H68.6191V68.2ZM41.4191 45.5C41.4191 44.7667 41.4191 43.8333 41.4191 42.7C41.4858 41.5 41.5191 40.3333 41.5191 39.2C41.5858 38.0667 41.6525 37.1 41.7191 36.3C41.7858 35.5 41.7858 35.0667 41.7191 35H41.2191C40.5525 36.4667 39.9858 37.7 39.5191 38.7C39.1191 39.6333 38.6525 40.7667 38.1191 42.1L33.1191 53.8H41.4191V45.5Z" fill="#1E1E1E" fill-opacity="0.5"/>
</g>
<defs>
<clipPath id="clip0_977_2689">
<rect width="100" height="100" fill="white"/>
</clipPath>
</defs>
</svg>
