<svg width="100" height="100" viewBox="0 0 100 100" fill="none" xmlns="http://www.w3.org/2000/svg">
<g clip-path="url(#clip0_977_2678)">
<path d="M70.8335 32.1125V66.6666C71.9835 66.6666 72.9169 67.6 72.9169 68.75C72.9169 69.9 71.9835 70.8334 70.8335 70.8334V98.7793L99.3919 70.2209C99.7835 69.8293 100 69.3 100 68.7459V2.94159L70.8335 32.1125ZM83.3335 70.8334H79.1669C78.0169 70.8334 77.0835 69.9 77.0835 68.75C77.0835 67.6 78.0169 66.6666 79.1669 66.6666H83.3335C84.4835 66.6666 85.4169 67.6 85.4169 68.75C85.4167 69.9 84.4835 70.8334 83.3335 70.8334ZM93.7501 70.8334H91.6667C90.5167 70.8334 89.5833 69.9 89.5833 68.75C89.5833 67.6 90.5167 66.6666 91.6667 66.6666H93.7501C94.9001 66.6666 95.8335 67.6 95.8335 68.75C95.8335 69.9 94.9001 70.8334 93.7501 70.8334Z" fill="#388ECA"/>
<path d="M31.2502 0C30.6961 0 30.1668 0.220898 29.7752 0.608398L1.2168 29.1666H29.1668C29.1668 28.0166 30.1002 27.0832 31.2502 27.0832C32.4002 27.0832 33.3336 28.0166 33.3336 29.1666H67.8877L97.0543 0H31.2502ZM33.3336 20.8334C33.3336 21.9834 32.4002 22.9168 31.2502 22.9168C30.1002 22.9168 29.1668 21.9834 29.1668 20.8334V16.6666C29.1668 15.5166 30.1002 14.5832 31.2502 14.5832C32.4002 14.5832 33.3336 15.5166 33.3336 16.6666V20.8334ZM33.3336 8.3334C33.3336 9.4834 32.4002 10.4168 31.2502 10.4168C30.1002 10.4168 29.1668 9.4834 29.1668 8.3334V6.25C29.1668 5.1 30.1002 4.1666 31.2502 4.1666C32.4002 4.1666 33.3336 5.1 33.3336 6.25V8.3334Z" fill="#388ECA"/>
<path d="M31.25 35.4166C30.1 35.4166 29.1666 34.4832 29.1666 33.3332H0V97.9166C0 99.0666 0.933398 100 2.0834 100H66.6668V70.8334C65.5168 70.8334 64.5834 69.9 64.5834 68.75C64.5834 67.6 65.5168 66.6666 66.6668 66.6666V33.3334H33.3334C33.3334 34.4834 32.4 35.4166 31.25 35.4166ZM29.1666 41.6666C29.1666 40.5166 30.1 39.5832 31.25 39.5832C32.4 39.5832 33.3334 40.5166 33.3334 41.6666V45.8332C33.3334 46.9832 32.4 47.9166 31.25 47.9166C30.1 47.9166 29.1666 46.9832 29.1666 45.8332V41.6666ZM29.1666 54.1666C29.1666 53.0166 30.1 52.0832 31.25 52.0832C32.4 52.0832 33.3334 53.0166 33.3334 54.1666V58.3332C33.3334 59.4832 32.4 60.4166 31.25 60.4166C30.1 60.4166 29.1666 59.4832 29.1666 58.3332V54.1666ZM8.1541 94.7916L6.6791 96.2666C6.2707 96.675 5.7375 96.875 5.2041 96.875C4.6707 96.875 4.1375 96.6709 3.7291 96.2666C2.9166 95.4541 2.9166 94.1332 3.7291 93.3207L5.2041 91.8457C6.0166 91.0332 7.3375 91.0332 8.15 91.8457C8.9625 92.6584 8.9666 93.9791 8.1541 94.7916ZM16.8166 86.1291L13.9291 89.0166C13.5207 89.425 12.9875 89.625 12.4541 89.625C11.9207 89.625 11.3875 89.4209 10.9791 89.0166C10.1666 88.2041 10.1666 86.8832 10.9791 86.0707L13.8666 83.1832C14.6791 82.3707 16 82.3707 16.8125 83.1832C17.625 83.9959 17.6291 85.3166 16.8166 86.1291ZM25.475 77.4709L22.5875 80.3584C22.1791 80.7668 21.6459 80.9668 21.1125 80.9668C20.5791 80.9668 20.0459 80.7627 19.6375 80.3584C18.825 79.5459 18.825 78.225 19.6375 77.4125L22.525 74.525C23.3375 73.7125 24.6584 73.7125 25.4709 74.525C26.2834 75.3375 26.2916 76.6541 25.475 77.4709ZM54.1666 66.6666H58.3332C59.4832 66.6666 60.4166 67.6 60.4166 68.75C60.4166 69.9 59.4832 70.8334 58.3332 70.8334H54.1666C53.0166 70.8334 52.0832 69.9 52.0832 68.75C52.0834 67.6 53.0166 66.6666 54.1666 66.6666ZM41.6666 66.6666H45.8332C46.9832 66.6666 47.9166 67.6 47.9166 68.75C47.9166 69.9 46.9832 70.8334 45.8332 70.8334H41.6666C40.5166 70.8334 39.5832 69.9 39.5832 68.75C39.5834 67.6 40.5166 66.6666 41.6666 66.6666ZM35.4125 68.75C35.4125 69.9 34.4834 70.8334 33.3334 70.8334H32.1125L31.25 71.6959C30.8416 72.1043 30.3084 72.3043 29.775 72.3043C29.2416 72.3043 28.7084 72.1002 28.3 71.6959C27.4875 70.8834 27.4875 69.5625 28.3 68.75L29.1625 67.8875V66.6666C29.1625 65.5166 30.0959 64.5832 31.2459 64.5832C32.3959 64.5832 33.3293 65.5166 33.3293 66.6666C34.4791 66.6666 35.4125 67.6 35.4125 68.75Z" fill="#FEA500"/>
<path d="M65.1191 26.1C65.1191 29.5 64.3858 32.4333 62.9191 34.9C61.5191 37.3 59.6858 39.3 57.4191 40.9C55.1525 42.4333 52.6858 43.6 50.0191 44.4V44.7C55.3525 45.3667 59.5191 47.1 62.5191 49.9C65.5191 52.6333 67.0191 56.5333 67.0191 61.6C67.0191 65.4667 66.0191 69.0333 64.0191 72.3C62.0191 75.5667 58.9191 78.1667 54.7191 80.1C50.5191 82.0333 45.1191 83 38.5191 83C33.8525 83 30.0191 82.6667 27.0191 82C24.0191 81.2667 21.0525 80.3 18.1191 79.1V63.1C21.0525 64.7 24.0191 65.9 27.0191 66.7C30.0858 67.4333 32.8191 67.8 35.2191 67.8C39.2858 67.8 41.9858 67.1333 43.3191 65.8C44.7191 64.4667 45.4191 62.6667 45.4191 60.4C45.4191 58.8 45.0858 57.4333 44.4191 56.3C43.7525 55.1 42.4525 54.2 40.5191 53.6C38.6525 53 35.8858 52.7 32.2191 52.7H28.6191V38.2H32.3191C35.3191 38.2 37.7858 37.9 39.7191 37.3C41.6525 36.6333 43.0858 35.7333 44.0191 34.6C44.9525 33.4667 45.4191 32.1667 45.4191 30.7C45.4191 28.7667 44.7525 27.3667 43.4191 26.5C42.1525 25.5667 40.7191 25.1 39.1191 25.1C37.1191 25.1 35.2191 25.4 33.4191 26C31.6191 26.6 30.0858 27.2667 28.8191 28C27.5525 28.6667 26.6858 29.2333 26.2191 29.7L18.2191 16.8C20.1525 15.4667 22.1858 14.2667 24.3191 13.2C26.5191 12.0667 29.1191 11.2 32.1191 10.6C35.1191 9.93333 38.7191 9.6 42.9191 9.6C49.8525 9.6 55.2858 11.0667 59.2191 14C63.1525 16.9333 65.1191 20.9667 65.1191 26.1Z" fill="#1E1E1E" fill-opacity="0.5"/>
</g>
<defs>
<clipPath id="clip0_977_2678">
<rect width="100" height="100" fill="white"/>
</clipPath>
</defs>
</svg>
