<?xml version="1.0" encoding="UTF-8"?>
<svg id="Layer_1" data-name="Layer 1" xmlns="http://www.w3.org/2000/svg" viewBox="0 0 1644.15 1999.81">
  <defs>
    <style>
      .cls-1 {
        fill: #fefefe;
      }

      .cls-1, .cls-2, .cls-3, .cls-4, .cls-5, .cls-6, .cls-7, .cls-8, .cls-9, .cls-10, .cls-11, .cls-12, .cls-13, .cls-14, .cls-15, .cls-16, .cls-17, .cls-18, .cls-19, .cls-20, .cls-21, .cls-22, .cls-23, .cls-24, .cls-25, .cls-26, .cls-27, .cls-28, .cls-29, .cls-30, .cls-31, .cls-32, .cls-33, .cls-34, .cls-35, .cls-36, .cls-37, .cls-38, .cls-39, .cls-40 {
        stroke-width: 0px;
      }

      .cls-2 {
        fill: #faf9f7;
      }

      .cls-3 {
        fill: #3b7729;
      }

      .cls-4 {
        fill: #3a7728;
      }

      .cls-5 {
        fill: #fcfcfb;
      }

      .cls-6 {
        fill: #e2d6b5;
      }

      .cls-7 {
        fill: #3b7829;
      }

      .cls-8 {
        fill: #2b2a29;
      }

      .cls-9 {
        fill: #87ac7d;
      }

      .cls-10 {
        fill: #3c782a;
      }

      .cls-11 {
        fill: #a3bf9b;
      }

      .cls-12 {
        fill: #3a7628;
      }

      .cls-13 {
        fill: #a27e14;
      }

      .cls-14 {
        fill: #f2f2f1;
      }

      .cls-15 {
        fill: #85aa7a;
      }

      .cls-16 {
        fill: #fdfdfc;
      }

      .cls-17 {
        fill: #79a26c;
      }

      .cls-18 {
        fill: #faf9f6;
      }

      .cls-19 {
        fill: #fafafa;
      }

      .cls-20 {
        fill: #bfd3b9;
      }

      .cls-21 {
        fill: #357423;
      }

      .cls-22 {
        fill: #3b782a;
      }

      .cls-23 {
        fill: #8baf81;
      }

      .cls-24 {
        fill: #5d8f4e;
      }

      .cls-25 {
        fill: #e7dec4;
      }

      .cls-26 {
        fill: #739e66;
      }

      .cls-27 {
        fill: #fcfcfa;
      }

      .cls-28 {
        fill: #fefefd;
      }

      .cls-29 {
        fill: #f9f9f9;
      }

      .cls-30 {
        fill: #a27f14;
      }

      .cls-31 {
        fill: #fbfbfb;
      }

      .cls-32 {
        fill: #d4c393;
      }

      .cls-33 {
        fill: #719d64;
      }

      .cls-34 {
        fill: #fdfdfd;
      }

      .cls-35 {
        fill: #e3d8b9;
      }

      .cls-36 {
        fill: #3a7729;
      }

      .cls-37 {
        fill: #558946;
      }

      .cls-38 {
        fill: #fcfcfc;
      }

      .cls-39 {
        fill: #6a975c;
      }

      .cls-40 {
        fill: #87ab7c;
      }
    </style>
  </defs>
  <path class="cls-13" d="M720.09,1999.81q-9.57-9.8-.81-21.49c14.57-19.32,31.58-36.04,52.19-48.93.8-.5,1.52-1.14,3.11-2.34-14.25-2.01-27.59-1.84-40.93-.63-29.95,2.71-58.16,12.53-86.53,21.6-20.77,6.64-41.45,13.49-63.27,16.05-30.65,3.59-58.86-3.3-85.05-19.25-5.63-3.43-11.25-6.91-16.89-11.79,10.97-.93,21.18-1.58,31.34-2.7,30.31-3.34,60.16-9.46,90.12-14.98,43.39-7.99,86.75-16.26,131.02-17.64,28.58-.89,56.94.82,84.71,8.28,1.98.53,3.77.67,5.83.11,32.06-8.6,64.73-9.69,97.64-7.76,47.19,2.77,93.32,12.52,139.64,20.99,26.7,4.88,53.39,9.7,80.44,12.23,6.26.59,12.55.82,19.3,1.25-1.1,2.35-3.05,3.07-4.56,4.18-37.43,27.49-78.53,34.29-123.16,22.19-27.01-7.33-53.26-17.07-80.23-24.48-26.7-7.33-53.76-11.2-81.5-8.04-.6.07-1.18.2-2.43.42,6.4,4.65,12.38,8.77,18.12,13.19,15.7,12.09,28.8,26.68,40.29,42.76,5.34,7.48,3.7,12.4-5.25,15.92-1.96.98-4.25-.39-6.17.86h-1c-21.99-9.15-41.71-21.97-60.19-36.89-9.05-7.3-18.18-14.53-28.46-20.18-4.04-2.22-7.35-1.96-11.15.29-10.06,5.96-19.31,13.04-28.39,20.33-16.81,13.49-34.41,25.65-54.37,34.1-2.16.92-4.28,1.84-6.67,1.82-1.91.26-3.91-.56-5.74.52h-1Z"/>
  <path class="cls-32" d="M984.95,1.81c.37-.6.74-1.2,1.11-1.81.33,0,.67,0,1,0-.06,1.4.36,2.92-.99,4.01-.88-.48-1.03-1.32-1.12-2.2Z"/>
  <path class="cls-30" d="M1036.04,347.93c-8.78,20.4-19.53,39.66-33.41,57.07-16.2,20.32-35.18,37.6-57.07,51.63-21.45,13.75-44.62,23.67-69.35,29.61-12.85,3.09-25.96,4.88-39.23,5.97-23.95,1.96-47.42-.65-70.5-6.38-34.88-8.67-66.05-24.83-93.45-48.29-25.27-21.64-45.03-47.39-59.31-77.38-1.93-4.05-3.75-8.16-5.62-12.24-3.74-11.71-7.98-23.26-10.58-35.32-11.33-52.5-5.65-103.06,18.03-151.24,25.08-51.01,64.23-87.68,116.14-110.64,10.45-4.62,21.19-8.67,32.83-10.45-42.58,26.49-72.18,63.07-85.74,111.44-13.6,48.48-8.69,95.54,15.62,139.75,39.05,71,116.06,107.91,194.66,95.47,73.87-11.69,152.05-78.5,156.45-177.44,2.67,7.37,3.46,14.1,4.37,20.73,5.37,39.03,1.21,77.02-12.8,113.89-.47,1.23-.71,2.54-1.06,3.81Z"/>
  <path class="cls-30" d="M984.95,1.81c1.11.36.85,1.42,1.12,2.2-7.45,29.86-14.83,59.74-22.46,89.55-.89,3.47.06,5.01,2.81,6.83,24.82,16.49,49.56,33.12,74.3,49.74,1.33.9,3,1.45,4.08,3.73-10.13.73-19.96,1.46-29.8,2.16-21.59,1.53-43.17,3.13-64.77,4.49-3.47.22-4.72,1.57-5.62,4.8-8.12,29.17-16.43,58.28-24.69,87.42-.32,1.11-.65,2.22-1.1,3.74-2.08-1.78-2.47-4.1-3.29-6.11-11.08-27.3-22.19-54.58-33.03-81.97-1.34-3.38-2.96-3.98-6.25-3.84-30.11,1.26-60.23,2.33-90.35,3.46-1.29.05-2.58,0-5.24,0,7.45-6.28,13.97-11.8,20.52-17.29,17.6-14.77,35.17-29.6,52.88-44.24,2.66-2.2,3.02-3.98,1.84-7.14-10.41-27.91-20.63-55.88-30.9-83.84-.61-1.66-1.11-3.36-2.01-6.11,6.42,3.98,11.9,7.35,17.35,10.76,21.32,13.33,42.67,26.61,63.9,40.07,2.68,1.7,4.42,1.77,6.95-.24,24.52-19.46,49.14-38.79,73.74-58.16Z"/>
  <path class="cls-30" d="M.15,985.91c-.04-2.32-.07-4.65-.11-6.97,0-7.36,0-14.71,0-22.07.04-3.32.07-6.64.11-9.97,1.71-17.5,2.77-35.09,6.4-53.92,8.24,16.25,20.58,27.52,31.95,39.6,6.07,6.45,11.74,13.16,16.2,20.86,7.56,13.05,11.4,27.25,13.38,42.07.29,2.14.65,4.28.98,6.41,1.28,1.34.08,3.14.78,4.42,0-1.38-.76-2.98.48-4.4,1.62-9.84,2.88-19.75,5.97-29.3,4.43-13.67,11.49-25.73,21.18-36.37,12.27-13.49,26.41-25.42,35.97-41.89,1.12,8.66,2.37,17.3,3.34,25.98,3.88,34.58,4.21,69.09-2.37,103.45-7.02,36.68-21.7,70.11-42.69,100.86-5.92,8.67-12.39,16.92-18.91,25.14-2.28,2.87-3.33,3.43-6.05.17C27.75,1103.22,4.4,1050.07.5,988.88c-.06-.99-.23-1.98-.35-2.97Z"/>
  <path class="cls-30" d="M1644.14,769.97c-.04,2.65-.09,5.31-.13,7.96-1.83,22.44-5.18,44.58-11.93,66.16-10.68,34.15-28.06,64.6-50.3,92.43-7.35,9.19-7.38,9.11-14.67.02-24.01-29.96-42.22-62.95-52.55-100.09-7.83-28.15-10.54-56.87-9.86-86,.47-20.17,2.65-40.18,5.49-60.14.18-1.28.57-2.54,1.12-4.9,9.87,19.07,25.89,31.79,38.89,47.07,13.77,16.18,20.1,35.39,22.77,56.09.23,1.81.57,3.61.86,5.41,1.19,1.41.61,2.95.42,4.31.85-1.2-.45-3.04.84-4.33,1.6-9.67,2.85-19.37,5.83-28.79,4.18-13.23,10.82-24.96,20.02-35.31,12.55-14.12,27.23-26.42,36.69-44.51,3.64,18.54,4.63,36.11,6.39,53.58.04,3.32.07,6.65.11,9.97,0,7.02.01,14.05.02,21.07Z"/>
  <path class="cls-30" d="M.16,777.93c-.05-2.65-.1-5.31-.15-7.96,0-6.69,0-13.39,0-20.08.05-3.65.1-7.31.15-10.96,1.68-17.48,2.79-35.02,6.37-53.61,9.73,18.64,24.95,31.17,37.77,45.74,16.01,18.21,22.38,40.1,24.62,63.62.16,1.65.33,3.3.64,6.42,1.14-8.15,1.86-14.91,3.06-21.57,3.7-20.52,12.51-38.41,27.09-53.55,11.86-12.31,24.6-23.97,33.63-39.38.76,5.31,1.59,10.6,2.28,15.92,4.24,32.49,5.72,65.06,1.4,97.65-5.05,38.19-17.98,73.58-38.51,106.21-7.91,12.57-16.76,24.43-26.05,36-2.1,2.62-3.11,2.88-5.42.09-22.67-27.48-41.01-57.44-52.67-91.23-7.86-22.79-12.25-46.3-13.87-70.33-.07-.99-.23-1.98-.34-2.97Z"/>
  <path class="cls-13" d="M1644.15,977.95c-.04,2.65-.08,5.31-.12,7.96-.04.93-.09,1.85-.13,2.78-1.29,3.66.59,7.6-1.03,11.23-2.34,18.34-5.74,36.44-11.42,54.08-11.65,36.18-30.82,68.07-55.05,97.12-1.81,2.17-2.62,1.54-4.07-.18-33.44-40.02-56.36-84.95-64.28-136.96-5.67-37.24-3.72-74.35,1.62-111.41.39-2.71.06-5.61,1.96-8.64,9.21,17.56,24.04,30,36.74,44.22,14.89,16.67,21.84,36.64,24.62,58.39.23,1.81.57,3.61.87,5.41,1.29,2.45.46,4.99.48,7.11.85-2.03-.62-4.76.76-7.13,1.58-9.68,2.84-19.39,5.82-28.82,4.17-13.24,10.8-24.97,20.01-35.33,12.55-14.11,27.25-26.4,36.72-44.62,3.62,18.7,4.65,36.27,6.39,53.75.04,3.32.07,6.65.11,9.97,0,7.03.01,14.05.02,21.08Z"/>
  <path class="cls-30" d="M.15,569.95c-.04-2.32-.08-4.64-.12-6.97,0-7.69,0-15.38,0-23.07.04-2.99.08-5.98.11-8.97,1.73-17.45,2.79-34.99,6.36-53.53,9.84,18.88,25.44,31.47,38.31,46.38,13.84,16.04,20.56,35.07,23.21,55.77.36,2.8.72,5.61,1.08,8.41,1.26,2.13.05,4.45.57,6.17.32-1.74-.56-4.05.53-6.19,2.07-17.1,5.24-33.85,13.86-49.13,5.21-9.24,12.1-17.11,19.37-24.68,10.61-11.03,21.56-21.77,29.12-36.14,1.74,3.07,1.54,5.89,1.91,8.5,5.75,40.25,7.68,80.51.08,120.77-7.18,38.07-22.56,72.62-44.68,104.28-5.53,7.92-11.54,15.47-17.55,23.03-1.86,2.34-2.77,2.96-5.06.21-26.44-31.73-46.53-66.87-57.67-106.82-5.3-18.98-7.89-38.43-9.45-58.04Z"/>
  <path class="cls-30" d="M1644.14,562.98c-.04,2.32-.08,4.65-.12,6.97-1.53,16.57-3.38,33.08-7.28,49.32-7.02,29.26-18.92,56.38-35.05,81.72-7.53,11.81-15.94,22.96-24.82,33.79-1.75,2.14-2.71,2.65-4.79.16-31.34-37.64-53.57-79.7-62.6-128.21-6.33-34.03-5.96-68.22-2.06-102.46.97-8.57,2.18-17.11,3.76-25.79,7.32,12.44,16.91,22.74,26.79,32.83,6.17,6.3,12.25,12.69,17.35,19.95,10.42,14.84,15.31,31.61,17.62,49.33.24,1.81.61,3.6.92,5.4,1.27,1.42.35,3.14.63,4.69-.17,1.56.4,3.19-.41,4.68.88-1.47.25-3.1.44-4.65.27-1.57-.61-3.29.62-4.73,2.21-16.37,5.31-32.47,13.63-47.09,4.48-7.86,10.13-14.77,16.26-21.38,11.48-12.37,24.26-23.67,32.57-40.21,3.72,18.66,4.65,36.2,6.43,53.64.03,2.99.07,5.98.1,8.97,0,7.69.01,15.38.02,23.07Z"/>
  <path class="cls-30" d="M1575.02,1212.9c1.68-15.83,4.61-31.29,13.17-45.13,4.07-6.58,9.28-12.15,14.85-17.45,11.28-10.73,23.52-20.62,31.34-36.03,2.55,14.61,4.04,27.92,5.15,41.26,2.27,27.38,1.24,54.54-5.28,81.38-7.31,30.09-21.18,57.01-39.03,82.03-5.8,8.13-12.23,15.8-18.29,23.75-1.59,2.08-2.59,3-4.77.36-19.8-24.07-37.05-49.64-47.55-79.28-7.07-19.96-10.47-40.55-10.98-61.69-.65-26.94,2.94-53.49,6.77-80.04.09-.62.44-1.21,1-2.68,8.18,16.11,22.07,26.38,33.47,38.86,11.78,12.9,15.8,28.99,18.06,45.71.4,2.97.74,5.95,1.11,8.92.97,1.83.22,3.79.45,5.46.39-1.65-.53-3.64.55-5.44Z"/>
  <path class="cls-13" d="M70.13,1212.87c1.16-9.93,2.39-19.84,5.36-29.43,3.4-11,8.94-20.67,17.22-28.84,10.85-10.72,22.77-20.55,30.72-34.38,1.17,8.01,2.5,16.01,3.47,24.05,3.38,27.99,5.58,55.99,1.46,84.13-4,27.3-13.95,52.33-28.2,75.76-8.23,13.54-17.66,26.25-27.84,38.39-1.4,1.67-2.27,3.61-4.73.65-23.95-28.8-44.06-59.77-54.88-96.03-7.55-25.3-10.04-51.18-8.86-77.52.78-17.5,2.81-34.84,5.35-52.14.09-.58.21-1.16.44-2.4,3.45,4.86,6.37,9.23,9.56,13.39,6.12,7.99,13.82,14.45,21.28,21.06,16.45,14.57,24.75,33.05,27.55,54.42.39,2.97.76,5.95,1.13,8.92,1.12,1.8.07,3.79.54,5.27.27-1.5-.5-3.47.44-5.3Z"/>
  <path class="cls-30" d="M1564.03,1384.51c17.82-31.38,44.81-54.49,69.64-80.36.71,4.81-.28,9.15-.62,13.43-2.9,36.64-8.22,72.79-22.93,106.91-17.51,40.6-46.83,69.38-87.2,87.13-2.62,1.15-3.68.49-4.91-1.91-14.05-27.29-24.97-55.57-27.53-86.49-1.5-18.09.48-35.95,4.73-53.53,6.43-26.62,16.9-51.87,26.72-77.33.17-.43.53-.78.8-1.17,1.66.34,1.34,1.82,1.63,2.79,3.31,11.15,8.61,21.36,15.5,30.61,13.21,17.73,22.42,36.93,24.17,59.93Z"/>
  <path class="cls-30" d="M10.89,1304.04c11.83,13.64,25.1,25.45,37.35,38.27,12.18,12.74,21.64,27.65,32.3,43.23,1.05-9.56,2.34-17.7,4.69-25.63,2.76-9.35,7.11-17.96,12.66-25.92,9.33-13.37,18.69-26.7,22.75-43.27.78.68,1.28.9,1.42,1.26,9.94,25.77,20.43,51.35,27.06,78.28,9.53,38.68,4.75,76-10.4,112.38-3.84,9.22-8.13,18.24-12.61,27.17-1.27,2.52-2.47,2.83-4.96,1.74-46.17-20.2-76.66-54.66-92.97-102.04-10.32-29.99-14.72-61.08-17.14-92.53-.29-3.82-.58-7.63-.84-11.45-.02-.26.24-.54.69-1.49Z"/>
  <path class="cls-30" d="M169.02,1454.2c2.64,4.02,4.45,6.72,6.2,9.46,16.07,25.1,32.37,50.06,44.96,77.2,18.16,39.15,23.31,79.9,15.54,122.31-1.81,9.89-1.92,9.97-11.21,5.94-30.95-13.41-60.73-28.82-87.5-49.68-34.68-27.03-58.11-61.88-72.82-102.96-1.05-2.93-1.99-5.9-3.33-9.86,3.1,1.84,5.29,3.18,7.51,4.46,8.19,4.74,17.12,7.59,26.41,8.65,23.29,2.66,40.73,15.3,56.09,31.78,1.79,1.93,3.56,3.87,6.21,5.5-.38-2.46-.68-4.94-1.17-7.38-3.18-16.07-1.73-31.83,3.21-47.32,4.85-15.19,9.69-30.36,9.89-48.11Z"/>
  <path class="cls-13" d="M1475.27,1454.36c-.29,19.6,6.44,36.25,11.24,53.32,4.24,15.07,4.32,30.22,1.11,45.47-.27,1.28-.41,2.58-.75,4.79,4.59-4.6,8.54-8.57,12.5-12.54,13.94-13.95,30.19-23.22,50.11-25.69,11.86-1.47,22.91-5.61,33.57-12.19-1.72,4.89-3.37,9.82-5.18,14.68-20.18,54.07-57.03,93.47-106.84,121.52-18.01,10.14-36.55,19.18-55.58,27.25-5.34,2.26-5.13,2.29-6.32-3.49-10.9-53.12-.43-102.44,26.09-149.03,11.79-20.71,24.69-40.71,37.49-60.78.44-.68.99-1.29,2.54-3.31Z"/>
  <path class="cls-30" d="M430.25,1822.71c-5.84-5.45-11.82-10.75-17.08-16.8-9.16-10.53-15.1-22.59-18.22-36.18-3.08-13.41-5.9-26.92-11.92-39.92,7.72,3.7,15.5,7.27,23.14,11.13,23.21,11.7,46.29,23.58,66.7,40,26.68,21.47,44.9,48.83,57.13,80.51,3.54,9.17,6.48,18.54,9.34,27.93.79,2.59.81,4-2.44,4.29-40.46,3.63-80.47,2.66-119.49-10.49-30.8-10.38-57.54-27.54-82.2-48.28-6.62-5.57-12.99-11.42-19.44-17.1.36-.55.53-1.02.67-1.01,16.13,1.18,31.85-1.98,47.59-4.65,20.81-3.52,40.41.07,59.17,9.29,1.64.81,3.3,1.58,4.95,2.37,2.47.79,5,1.47,6.87,3.38.25.08.45.27.57.53.15-.27.03-.45-.38-.55-1.62-1.56-4.16-2.04-4.97-4.46Z"/>
  <path class="cls-30" d="M1215.96,1823.78c17.35-8.82,35.46-14.69,55.21-12.63,11.75,1.23,23.4,3.3,35.09,5.05,7.25,1.08,14.54.57,23.05.49-3.67,3.4-6.5,6.09-9.4,8.7-23.15,20.83-48.01,39.14-76.81,51.56-36.42,15.7-74.63,20.17-113.88,18.12-7.15-.37-14.29-.9-21.43-1.36-2.38-.15-4.16-.32-3.15-3.79,8.39-28.82,19.59-56.25,38.24-80.19,15.28-19.61,34.28-34.85,55.46-47.5,19.46-11.63,39.84-21.52,60.31-31.21.81-.39,1.59-1.34,3.09-.42-7.52,13.88-9.95,29.41-13.93,44.45-4.62,17.46-15.41,30.75-28.35,42.64-1.84,1.69-3.68,3.37-5.52,5.05-.31,1.39-1.47,1.98-2.52,2.67-.96.66-1.86,1.4-2.78,2.01.19.11.23-.11.35-.13.95-.74,1.94-1.38,2.92-2.03,1.18-.97,2.89-.45,4.06-1.45Z"/>
  <path class="cls-30" d="M1366.17,1712.02c21.95-16.35,46.88-23.13,73.95-23.28,11.31-.06,22.51-1.52,34.49-3.85-4.47,8.23-9.43,15.04-14.46,21.78-26.39,35.4-59.14,62.53-101.18,77.49-27.32,9.73-55.58,13.21-84.45,12.5-2.03-.05-3.57-.06-3.12-2.95,4.77-30.6,12.38-60.26,27.73-87.54,14.46-25.7,34.35-46.49,57.4-64.5,9.55-7.46,19.4-14.48,30.87-21.77-5.71,15.85-3.26,30.81-2.92,45.7.34,14.83-5.48,27.54-14.45,38.99-1.64,2.1-3.35,4.14-5.03,6.21-.53,1.95-2.19,2.93-3.55,4.09-.58.21-.2-.54-.27.11-.04.4.24.41.33-.05,1.5-1.12,2.72-2.6,4.67-2.94Z"/>
  <path class="cls-30" d="M279.17,1710.82c-7.23-8.57-13.76-17.55-17.15-28.45-2.52-8.12-2.45-16.39-1.97-24.73.71-12.26,1.66-24.56-3.51-37.81,12.55,7.91,23.19,15.55,33.46,23.7,26.59,21.12,48.37,46.12,62.51,77.34,10.53,23.26,16.34,47.8,20.25,72.88.37,2.35-.55,2.88-2.64,2.93-38.94,1-76.25-5.59-111-23.93-37.57-19.82-65.64-49.56-88.14-85.03-.44-.69-1.02-1.34-.42-2.7,17.65,4.09,35.9,3.2,53.9,5.21,19.88,2.23,37.37,10.37,53.53,21.78,1.63.24,2.66,1.39,3.76,2.45.36.29.74.57,1.13.82-.27-.35-.68-.55-1.02-.86-1.18-1.01-2.21-2.11-2.7-3.61Z"/>
  <path class="cls-30" d="M68.67,347.32c7.74,11.23,13.99,23.28,19.05,35.91,21.38,53.33,12.95,103.29-17.33,150.74-1.6,2.51-2.43,2.53-4.02.03-19.94-31.24-31.58-64.89-28.9-102.4,2.18-30.6,13.52-58.09,30.07-83.61.16-.24.55-.33,1.13-.66Z"/>
  <path class="cls-30" d="M1575.55,536.51c-10.75-15.97-19-32.74-24.44-50.85-12.17-40.47-6.95-79.23,11.75-116.61,3.28-6.55,6.88-12.92,10.79-19.12,1.52-2.41,2.24-3.35,4.17-.25,19.31,30.91,31.11,63.98,28.97,100.98-1.59,27.49-10.71,52.65-24.68,76.16-1.91,3.22-3.53,6.72-6.57,9.69Z"/>
  <path class="cls-4" d="M1466.38,354.38q0-6.43-6.39-6.43c-141.32,0-282.63,0-423.95-.01-2.91,1.34-3.57,4.29-4.64,6.82-7.87,18.73-18.52,35.88-31.36,51.46-26.55,32.24-59.15,56.33-98.6,70.84-32.87,12.09-66.7,17.03-101.53,13.42-32.69-3.38-63.61-12.94-91.99-29.71-42.99-25.39-75.12-60.65-95.36-106.5-1.04-2.37-1.68-5.15-4.45-6.36-141.32.01-282.63.04-423.95-.07-4.81,0-6.38.82-6.38,6.12.16,275.81.12,551.61.15,827.42,0,37.05,3.02,73.86,9.33,110.39,10.78,62.45,30.35,121.97,58.77,178.62,28.06,55.92,63.46,106.7,106.28,152.29,65.41,69.67,142.34,122.53,231.01,158.3,66.88,26.98,136.41,41.94,208.35,45.4,64.31,3.1,127.8-3.3,190.17-19.38,82.28-21.21,157.54-57.36,225.47-108.34,69.46-52.13,126.35-115.69,170.46-190.58,30.61-51.98,53.42-107.21,68.46-165.61,13.69-53.18,20.15-107.28,20.14-162.18-.02-275.31,0-550.61,0-825.92ZM1296.85,1179.59c0,73.8-15.51,144.14-48.08,210.43-36.43,74.16-88.65,135-156.45,182.28-56.42,39.34-118.55,65.11-186.25,77.38-44.22,8.02-88.72,9.65-133.35,4.96-59.07-6.21-115.12-22.88-167.83-50.38-79.29-41.36-142.3-100.31-188.79-176.62-35.58-58.4-57.3-121.75-65.23-189.77-2.42-20.72-3.44-41.5-3.44-62.32-.04-214.45-.03-428.9-.02-643.36,0-7.25-.87-6.42,6.33-6.42,156.3-.02,312.59-.01,468.89-.01s311.92,0,467.88,0q6.34,0,6.34,6.48c0,215.79,0,431.57,0,647.35Z"/>
  <path class="cls-34" d="M294.92,876.13c-19.65-4.98-39.27-10.06-58.97-14.85-3.52-.86-4.84-2.1-4.77-5.89.21-12.07.02-12.12,11.59-15.05,16.13-4.09,32.28-8.11,48.41-12.19,1.35-.34,3.01-.11,4.1-2.05-19.54,0-38.79-.16-58.04.12-4.73.07-6.28-.98-6.08-5.94.41-10.32.12-10.33,10.56-10.33,23.82,0,47.64.08,71.46-.09,3.76-.03,4.95,1,4.75,4.76-.3,5.81-.26,11.66,0,17.48.13,3.13-1,4.29-3.97,5.05-17.73,4.56-35.4,9.34-53.17,14.07.41,1.79,1.93,1.52,3.04,1.81,16.41,4.34,32.8,8.79,49.27,12.86,3.86.95,5.08,2.57,4.84,6.42-.34,5.31-.34,10.67,0,15.98.26,4.09-.99,5.34-5.19,5.31-23.49-.2-46.97-.1-70.46-.1-11.06,0-10.84,0-11.11-11.29-.11-4.36,1.41-5.16,5.38-5.12,17.65.2,35.31.09,52.97.09h5.45c-.02-.35-.04-.71-.06-1.06Z"/>
  <path class="cls-34" d="M1073.09,1663.8c9.13,15.87,18.19,31.79,27.48,47.57,1.77,3,1.51,4.33-1.56,6.07-10.3,5.83-10.25,5.96-16.19-4.32-11.75-20.32-23.41-40.69-35.28-60.94-1.8-3.07-1.41-4.45,1.69-6.03,5.18-2.65,10.26-5.55,15.14-8.72,2.78-1.81,4.44-1.47,6.73.85,12.15,12.33,24.48,24.48,36.75,36.69,2.99.63,1.31-1.37,1.35-2.4-4.29-16.06-8.48-32.15-12.94-48.17-.95-3.42-.64-5.33,2.8-7.04,5.5-2.73,10.75-6,16-9.22,2.06-1.26,3.05-.92,4.24,1.16,13.33,23.24,26.71,46.45,40.18,69.61,1.25,2.15.74,2.99-1.19,4.22-11.06,7.07-10.99,7.11-17.64-4.39-7.88-13.63-15.83-27.23-23.74-40.85-.65-.46-1.33-.89-1.66-1.61-.28.6.28,1,.27,1.51.13,1.05-.26,2.17.48,3.12,4.14,14.83,8.2,29.68,12.44,44.49,3.7,12.92,3.72,12.77-7.63,19.42-2.82,1.65-4.23.97-6.22-1.11-13.45-14.02-27.02-27.94-40.55-41.89-.56-.23-1.04-.68-1.7-.59.34.82-.07,1.86.76,2.53Z"/>
  <path class="cls-34" d="M398.32,1564.05c15.67-7.35,31.39-14.61,46.98-22.14,3.15-1.52,4.94-1.25,7.06,1.57,3.6,4.78,7.58,9.3,11.52,13.81,1.68,1.92,2.21,3.08-.22,5.1-20.38,16.92-40.64,33.97-60.86,51.08-2.22,1.88-3.34,1.58-5.17-.52-8.25-9.43-8.31-9.36,1.27-17.43,12.1-10.2,24.18-20.41,36.27-30.62.4-1.2,1.14-2.09,2.27-2.56-.21-.26-.28.12-.43.09-1.11,1.01-2.73.57-3.87,1.43-16.79,8.08-33.63,16.05-50.31,24.35-3.42,1.7-5.12,1.11-7.38-1.66-7.56-9.3-7.64-9.2-.7-18.89,9.78-13.64,19.53-27.3,29.29-40.96.23-.38.66-.81.19-1.2-.39-.32-.87.12-1.32.15-14.01,11.7-28.13,23.27-41.96,35.18-3.33,2.87-4.94,2.83-7.66-.66-6.69-8.56-6.88-8.43,1.37-15.36,18.11-15.21,36.28-30.34,54.29-45.67,2.73-2.32,4.23-2.78,6.59.41,3.55,4.81,7.49,9.37,11.54,13.78,2,2.17,1.85,3.63.21,5.94-10.22,14.38-20.28,28.88-30.39,43.35-.3,1.25.11,1.79,1.43,1.43Z"/>
  <path class="cls-34" d="M1153.02,1610.87c12.11,13.97,24.14,28.01,36.4,41.85,2.67,3.02,3.49,4.74-.23,7.78-8.55,6.97-8.34,7.19-15.73-1.32-15.51-17.86-30.98-35.76-46.61-53.51-2.3-2.61-2.34-4.02.46-6.19,4.47-3.47,8.76-7.2,12.81-11.15,2.6-2.54,4.46-2.76,7.57-.58,13.51,9.45,27.23,18.6,40.9,27.81,1.28.86,2.37,2.26,4.79,2.18-2.74-5.62-5.32-10.95-7.94-16.26-5.44-11.05-10.81-22.15-16.42-33.11-1.41-2.76-1.11-4.37,1.29-6.3,4.8-3.86,9.44-7.93,13.97-12.11,2.01-1.86,3.19-2.02,5.12.22,17.29,20.06,34.67,40.05,52.13,59.97,1.98,2.26,1.43,3.39-.54,5.18-9.2,8.4-9.13,8.44-17.11-.71-10.18-11.67-20.4-23.31-30.6-34.96-1.19-.39-1.88-1.35-2.58-2.24-.54-.32.37-.57-.19-.24-.51.3.33.4.26.72.93,1.17.38,2.79,1.26,3.96,8.21,16.33,16.35,32.7,24.69,48.97,1.46,2.84,1.35,4.48-1.19,6.67-9.54,8.23-9.45,8.34-19.61,1.28-13.93-9.68-27.85-19.37-41.77-29.05-.73-.31-1.55-.47-2.12-1.04.02.03-.29-.2-.29-.2,0,0,.16.35.19.37.57.58.72,1.35,1.1,2Z"/>
  <path class="cls-34" d="M277.39,1055.21c-.33.37-.75.68-.95,1.1-5.63,11.44-13.09,15.53-24.78,13.59-10.56-1.76-18.44-9.93-19.54-21.1-1.57-15.95-.58-31.97-.86-47.96-.06-3.72,2.53-2.78,4.49-2.79,22.99-.04,45.99-.02,68.98-.02,3.33,0,6.67.11,10-.04,2.44-.11,3.19.89,3.15,3.21-.24,13.82.31,27.65-.45,41.48-.6,10.81-4.94,18.99-15.61,22.63-8.9,3.03-16.52-.28-24.43-10.09Z"/>
  <path class="cls-34" d="M492.32,1632.05c1.6,3.64,3.36,7.02,3.64,10.92,1.17,16.37-18.05,29.13-33.23,22.03-7.34-3.43-13.21-8.95-19.5-13.84-7.23-5.62-14.2-11.58-21.42-17.2-2.25-1.75-2.33-2.86-.53-5.07,16.75-20.51,33.38-41.11,50.03-61.69,1.18-1.45,2.04-2.96,4.27-1.06,11.53,9.83,24,18.54,34.8,29.22,6.15,6.08,8.41,13.48,5.87,21.95-2.3,7.69-7.54,12.43-15.33,14.13-2.68.58-5.52.42-8.59.62Z"/>
  <path class="cls-34" d="M1386.88,626.86c9.44-14.06,24.42-19.6,37.86-29.34,0,7.46.07,13.83-.05,20.19-.03,1.72-1.89,2.18-3.08,3.01-8.64,5.96-17.25,11.95-25.97,17.79-6.28,4.21-7.06,10.45-6.88,17.18.08,3.07,2.32,2.26,3.97,2.27,9.33.06,18.67.17,27.99-.05,3.35-.08,4.16,1.02,4.18,4.24.09,13.43.19,13.43-12.96,13.43-22.99,0-45.99-.08-68.98.08-3.72.03-4.86-.96-4.77-4.74.36-14.15-.25-28.32.7-42.47,1.16-17.37,14.71-27.34,31.03-22.64,6.69,1.92,11.37,6.12,14.07,12.46,1.09,2.55,1.79,5.26,2.9,8.61Z"/>
  <path class="cls-34" d="M629.14,1713.74c9.47,14.39,9.27,30.36,12.95,46.26-6.33-2.55-11.67-4.81-17.1-6.83-2.32-.86-2.65-2.59-3.09-4.62-2.2-10.24-4.63-20.44-6.74-30.69-1.52-7.38-6.89-10.52-13.17-12.99-2.75-1.08-3.08.91-3.75,2.55-3.57,8.78-7.21,17.54-10.59,26.39-1.07,2.81-2.21,3.68-5.07,2.22-2.8-1.43-5.8-2.53-8.8-3.52-2.93-.96-3.77-2.12-2.44-5.36,9.89-23.99,19.61-48.04,29.2-72.16,1.35-3.39,2.51-4.19,6.06-2.64,12.95,5.67,26.34,10.29,39.08,16.47,14.08,6.83,18.71,19.14,12.3,32.53-4.47,9.34-12.82,14.07-23.12,13.07-1.63-.16-3.26-.39-5.72-.68Z"/>
  <path class="cls-34" d="M1308.76,1465.48c15.44-6.78,31.12-3.77,47.66-4.71-3.81,6.1-7.07,11.24-10.26,16.44-1.1,1.8-2.82,1.47-4.44,1.53-9.65.38-19.3.73-28.95,1.09-2.84.11-5.69.3-8.34,1.37-5,2.02-8.37,6.3-9.58,10.9-.78,2.97,4.46,4.02,7.06,5.76,6.37,4.25,12.91,8.25,19.47,12.19,2.31,1.39,3.02,2.56,1.22,4.99-2.66,3.59-4.29,9.48-7.63,10.6-3.47,1.16-7.59-3.72-11.35-6.05-19.38-12.03-38.66-24.22-58.08-36.17-2.94-1.81-3.42-3.07-1.46-6.05,7.8-11.81,14.69-24.2,22.98-35.69,9.62-13.33,22.99-15.57,35.29-5.92,7.56,5.94,10.22,13.68,8.1,23.05-.46,2.05-1.02,4.08-1.68,6.67Z"/>
  <path class="cls-34" d="M1394.42,1038.95c-17.51,0-34.5-.11-51.47.09-3.74.04-4.81-.96-4.76-4.73.13-11.54-.04-11.54,11.35-11.54,23.48,0,46.95.1,70.43-.11,4.04-.04,4.55,1.29,5.05,5.01,1.25,9.28-2.12,14.68-10.43,19.23-14.87,8.14-29,17.64-43.43,26.59-.27.17-.5.41-.8.67,1.17,1.64,2.79.85,4.11.86,15.32.07,30.64.14,45.96-.03,3.48-.04,4.51.93,4.5,4.45-.05,11.83.09,11.83-11.55,11.83-23.48,0-46.96-.08-70.44.08-3.76.03-4.34-1.17-4.84-4.74-1.28-9.18,2.27-14.34,10.38-18.73,14.32-7.76,27.94-16.82,41.82-25.39,1.34-.83,3.07-1.26,4.13-3.53Z"/>
  <path class="cls-34" d="M1392.64,1194.42c-1.04-.69-1.6-1.04-2.12-1.42-2.1-1.53-6.52-.81-6.6-3.42-.13-4.19,1.44-8.47,2.52-12.65.42-1.64,1.84-.84,2.92-.52,4.33,1.25,8.73,2.44,12.49,4.96,2.28,1.53,3.52.94,4.86-.99,1.99-2.87,4.2-5.61,6.05-8.57,1.19-1.91,2.17-2.18,3.82-.65,1.22,1.13,2.62,2.06,3.93,3.08,7.19,5.6,7.53,5.9,1.55,12.89-3.77,4.4-4.22,7.17-.89,12.49,7.19,11.49,7.09,24.21,1.18,36.32-6.91,14.16-24.71,17.63-36.97,7.73-3.82-3.08-6.82-6.87-9.08-11.17-1.25-2.38-2.3-2.78-4.4-.94-2.64,2.31-5.72,4.02-9,5.29-9.85,3.84-19.41.01-23.55-9.73-3.25-7.65-3.4-15.63-.66-23.43,2.42-6.89,7.22-11.56,14.65-12.84,7.94-1.37,13.85,2.27,18.68,8.15q5.63,6.86,12.58,1.62c2.61-1.98,5.18-4,8.02-6.2Z"/>
  <path class="cls-34" d="M971.92,1705.45c-.05-19.77,9.93-33.52,26.87-39.7,25.01-9.13,45.87,1,55.48,26.9,4.69,12.62,6.59,25.37-.56,37.59-8.99,15.35-23.54,21.83-40.63,21.92-16.18.08-26.79-9.35-33.93-23.2-4.25-8.24-7.12-16.84-7.22-23.5Z"/>
  <path class="cls-34" d="M738.19,1781.14c-22.24.59-39.85-12.07-43.41-32.01-2.97-16.58,1.97-43.42,22.55-53.5,15.6-7.64,30.73-4.68,44.63,3.97,13.13,8.17,17.36,21.32,16.45,36.28-.48,7.86-2.22,15.45-5.58,22.64-6.88,14.72-18.4,22.27-34.63,22.62Z"/>
  <path class="cls-34" d="M274.56,1172.45c12.98,0,25.95.12,38.93-.08,3.53-.05,4.53,1.06,4.44,4.51-.29,10.64-.38,21.29-.33,31.93.09,20.8-12.83,31.62-29.86,34.69-12.13,2.19-24.19,2.03-35.83-2.71-10.67-4.35-17.38-12.27-19.4-23.56-2.5-14.01-.83-28.22-1.2-42.34-.09-3.36,2.57-2.4,4.32-2.41,12.98-.07,25.95-.04,38.93-.04Z"/>
  <path class="cls-34" d="M1381.56,1004.34c-13,0-26-.04-38.99.03-2.62.01-4.44-.13-4.35-3.62.28-10.99.44-21.99.35-32.98-.16-21.13,13.67-31.86,30.06-34.58,11.66-1.94,23.27-1.97,34.49,2.29,12.76,4.84,19.77,14.37,21.13,27.81,1.29,12.62.3,25.31.61,37.97.08,3.46-2.12,3.09-4.31,3.09-13,0-26,0-38.99,0Z"/>
  <path class="cls-34" d="M1373.55,1293.19c-2.8,12.01-5.38,23.72-8.34,35.33-1.01,3.97-.13,5.62,3.95,6.25,4.43.68,8.83,1.75,13.12,3.05,3.62,1.1,5.14.45,5.98-3.58,2.68-12.87,5.91-25.63,8.75-38.46.67-3.01,1.47-4.04,4.93-3.17,10.2,2.54,10.26,2.33,7.95,12.32-3.86,16.71-7.8,33.4-11.53,50.13-.68,3.04-1.43,4.02-4.87,3.2-25.27-6.01-50.58-11.81-75.92-17.52-3.25-.73-4.34-1.8-3.5-5.3,4.36-18.13,8.58-36.3,12.61-54.5.71-3.19,2-3.49,4.79-2.9,10.54,2.2,10.54,2.11,8.04,12.67-2.41,10.21-4.68,20.45-7.22,30.63-.84,3.35-.67,5.27,3.41,5.7,3.45.36,6.92,1.19,10.22,2.31,3.61,1.23,4.5-.25,5.2-3.47,2.45-11.39,5.31-22.7,7.73-34.1.65-3.09,1.79-3.86,4.68-2.99,2.7.82,5.49,1.37,8.26,1.96,1.64.35,2.42,1.07,1.76,2.45Z"/>
  <path class="cls-34" d="M564.4,1685.29c-.88-.49-1.91-1.04-2.92-1.62-10.09-5.83-20.22-11.58-30.22-17.55-2.57-1.53-3.91-1.55-5.37,1.33-2.41,4.74-5.09,9.37-7.96,13.84-1.69,2.64-1.18,3.82,1.46,5.3,11.6,6.53,23.04,13.36,34.65,19.87,2.89,1.62,3.73,2.82,1.83,5.99-5.34,8.93-5.17,8.99-14.19,3.76-14.68-8.52-29.35-17.07-44.12-25.42-2.85-1.61-3.75-2.66-1.84-5.91,13.22-22.54,26.28-45.17,39.19-67.89,1.75-3.09,3.04-2.85,5.66-1.32,15.93,9.35,31.89,18.65,48.01,27.68,3.44,1.93,3.41,3.35,1.57,6.41-5.16,8.53-5.02,8.61-13.46,3.73-9.36-5.42-18.78-10.75-28.05-16.31-2.8-1.68-4.51-1.96-6.11,1.44-2.04,4.34-6.88,8.87-6.23,12.58.68,3.89,7.45,5.25,11.56,7.72,6.99,4.2,14.01,8.36,21.2,12.2,3.18,1.7,3.49,3.29,1.47,6.06-1.46,2-2.49,4.32-3.78,6.46-.48.8-.82,1.92-2.32,1.64Z"/>
  <path class="cls-34" d="M1302.62,1545.49c-.54.67-1.15,1.46-1.79,2.22-12.52,14.94-25.09,29.83-37.51,44.84-1.83,2.21-2.94,2.26-5.11.43-20.22-17.11-40.5-34.14-60.86-51.07-2.35-1.95-1.92-3.1-.23-5.1,12.16-14.36,24.27-28.77,36.28-43.27,1.84-2.23,2.93-2.79,5.45-.66,8.38,7.07,8.47,6.93,1.44,15.28-6.76,8.03-13.38,16.17-20.28,24.07-2.22,2.54-2.59,4.12.38,6.25,3.9,2.8,7.54,8.37,11.27,8.35,3.91-.02,6.45-6.45,9.6-10.06,5.47-6.28,10.87-12.63,16.02-19.17,1.99-2.53,3.2-2.3,5.47-.41,8.18,6.8,8.27,6.72,1.38,14.98-6.19,7.42-12.28,14.92-18.68,22.16-2.32,2.62-1.75,3.91.72,5.79,3.97,3.02,7.84,6.22,11.46,9.65,2.56,2.43,4.05,2.2,6.26-.52,8.3-10.21,16.98-20.11,25.21-30.37,2.47-3.09,4.05-3.03,6.54-.38,1.7,1.81,3.8,3.24,5.71,4.84.63.53,1.32,1.03,1.26,2.16Z"/>
  <path class="cls-34" d="M262.98,1404.45c-.77.29-1.28-.11-1.65-.69-.27-.42-.41-.91-.64-1.35q-6.99-12.94,6.39-18.87c20.85-9.26,41.73-18.44,62.48-27.93,3.59-1.64,4.98-.94,6.02,2.5,1.19,3.94,5.46,7.87,4.1,11.31-1.36,3.45-6.98,3.82-10.71,5.59-5.26,2.5-10.59,4.88-15.96,7.13-2.46,1.03-3.24,2.05-1.94,4.78,3.85,8.12,7.53,16.33,10.97,24.64,1.26,3.03,2.54,3.03,5.19,1.78,7.83-3.69,15.87-6.95,23.68-10.67,3.02-1.44,4.4-.91,5.48,2.18,1.1,3.13,2.48,6.2,4.05,9.13,1.32,2.46.49,3.43-1.8,4.45-24.21,10.73-48.39,21.51-72.53,32.37-2.55,1.15-3.84.82-4.82-1.84-1.54-4.19-5.33-8.78-4.46-12.29.81-3.3,7.13-3.95,11.02-5.78,6.33-2.96,12.71-5.85,19.18-8.5,2.71-1.11,2.96-2.34,1.8-4.83-3.78-8.16-7.5-16.35-10.95-24.65-1.28-3.09-2.71-2.91-5.27-1.72-8.91,4.13-17.93,8.04-26.9,12.04-.91.41-1.82.82-2.73,1.23Z"/>
  <path class="cls-34" d="M1426.22,798.54c-.13,12.93-3.01,24.51-15.42,31.42-3.39,1.89-7.08,2.8-10.81,3.74-2.8.71-3.59-.48-3.68-2.93-.05-1.33-.22-2.66-.34-3.98-.26-2.81-1.32-5.86-.58-8.38.85-2.89,4.76-2.22,7.18-3.5,9.78-5.17,12.31-22.78,4.23-30.42-5.19-4.91-12.11-3.63-15.08,2.95-2.88,6.41-3.88,13.41-5.91,20.09-1.9,6.23-4.02,12.36-8.94,17.03-11.28,10.72-29.06,8.03-35.82-5.97-6.21-12.86-5.85-26.26.21-39.1,3.57-7.55,10.28-11.51,18.62-12.66,2.39-.33,3.38.37,3.35,2.83-.03,2.33.08,4.68.4,6.98.62,4.45.21,7.7-5.21,9.15-4.35,1.17-6.1,5.29-6.69,9.73-.65,4.88-.44,9.65,1.64,14.18,1.26,2.75,3.3,4.63,6.54,4.56,2.99-.07,4.79-1.81,6.15-4.36,3.5-6.56,4.29-13.97,6.7-20.87.99-2.82,1.78-5.72,2.89-8.5,4.56-11.42,12.84-16.92,24.66-16.51,11.08.38,20.11,7.35,23.71,18.25,1.75,5.29,2.23,10.74,2.19,16.27Z"/>
  <path class="cls-34" d="M229.9,600.16c.14-10.59,1.8-20.62,10.34-28.11,4.64-4.08,10.15-6.16,16.17-7.29,2.61-.49,3.2.56,3.39,2.74.32,3.65.69,7.3,1.16,10.93.27,2.05-.54,2.82-2.49,3.48-12.33,4.19-17.18,14.77-12.45,26.94,1.83,4.7,5.02,7.96,10.34,8.06,5.27.1,7.46-3.7,8.97-7.99,2.99-8.48,4.13-17.51,7.76-25.8,5.13-11.7,15.4-17.64,26.67-15.2,8.14,1.76,13.73,6.81,16.55,14.48,4.36,11.89,4.2,23.91-.91,35.54-3.47,7.9-10.08,12.12-18.48,13.68-2.6.49-4.21.09-4.02-3.07.1-1.65-.07-3.34-.29-4.98-.71-5.11-.76-8.86,5.71-11.34,8.09-3.1,8.84-21.57,1.83-26.76-3.22-2.39-7.14-1.63-9.44,2.01-1.6,2.53-2.68,5.32-3.52,8.23-2.27,7.83-3.92,15.84-7.13,23.38-4.05,9.51-11.11,14.7-21.49,15.19-10.6.51-18.84-3.61-24.17-12.87-3.77-6.55-4.52-13.85-4.5-21.26Z"/>
  <path class="cls-34" d="M231.29,1163.11c0-5.99.09-11.29-.04-16.58-.05-2.19,1.27-2.82,2.89-3.43,4.67-1.77,9.29-3.66,14-5.31,2.25-.79,2.98-2.05,2.95-4.4-.12-9.32-.15-18.65.01-27.97.05-2.67-.91-4-3.4-4.56-1.13-.25-2.2-.75-3.3-1.14-13.46-4.83-13.35-4.83-13.19-19.2.04-3.42.77-3.92,3.9-2.67,16.08,6.4,32.22,12.62,48.35,18.91,10.23,3.99,20.43,8.07,30.71,11.91,2.74,1.02,3.75,2.38,3.77,5.39.06,14.42.14,14.39-13.47,19.83-21.94,8.77-43.86,17.58-65.8,26.36-2.28.91-4.57,1.77-7.39,2.86Z"/>
  <path class="cls-34" d="M335.6,1539.64c-2.92-4.63-5.75-9.27-8.74-13.81-1.13-1.72-.18-2.75.73-3.96,3.01-3.99,5.91-8.06,9.04-11.95,1.49-1.85,1.57-3.26.26-5.28-5.05-7.83-10-15.74-14.8-23.73-1.36-2.27-2.81-2.81-5.28-2.18-4.51,1.15-9.11,1.94-13.65,3.02-2.44.58-4.02.05-5.29-2.29-1.82-3.36-3.86-6.63-6.08-9.74-1.88-2.64-.71-3.27,1.76-3.74,28.13-5.3,56.26-10.61,84.37-16,2.3-.44,3.89-.02,4.88,2.16.14.3.32.58.5.86q7.65,12-.74,23.47c-14.25,19.49-28.48,39-42.76,58.47-1.15,1.57-2,3.46-4.2,4.69Z"/>
  <path class="cls-34" d="M231.28,979q0-9.28,8.52-12.49,11.23-4.23,11.23-16.16c0-6.49-.09-12.98.05-19.47.05-2.39-.75-3.58-3.05-4.32-4.59-1.48-9.09-3.22-13.6-4.92-1.31-.5-3.11-.57-3.12-2.65-.01-4.99-.32-10.01.1-14.97.26-3.03,2.5-.92,3.66-.48,13.05,4.99,26.06,10.08,39.08,15.15,13.18,5.12,26.31,10.35,39.56,15.29,3.14,1.17,4.27,2.67,4.24,6.11-.12,13.92.02,13.92-12.96,19.13-22.69,9.1-45.38,18.19-68.07,27.3-5.64,2.27-5.63,2.29-5.64-4.03,0-1.17,0-2.33,0-3.5Z"/>
  <path class="cls-34" d="M231.29,800.08c0-5.23.11-10.38-.05-15.53-.07-2.39,1.25-3.1,3.11-3.77,4.38-1.59,8.65-3.52,13.08-4.93,2.92-.93,3.74-2.55,3.68-5.48-.17-8.83-.22-17.67.02-26.49.09-3.31-1.16-4.71-4.15-5.6-4.3-1.29-8.44-3.09-12.71-4.49-2.25-.74-3.18-1.95-3.03-4.36.19-2.99.04-6,.05-9,0-6.26.01-6.29,5.64-4.1,21.41,8.34,42.81,16.7,64.22,25.05,1.24.48,2.48.98,3.72,1.46q13.9,5.4,13.03,20.49c-.1,1.83-.4,3.08-2.34,3.85-27.7,10.99-55.37,22.04-83.06,33.07-.13.05-.32-.03-1.21-.15Z"/>
  <path class="cls-34" d="M1369.98,848.24c10.16-.08,20.33-.13,30.45.83,14.3,1.36,22.14,8.34,24.81,22.38,1.6,8.4,1.53,16.95-.61,25.29-3.11,12.11-12.11,19.21-27.27,19.84-18.63.77-37.3.38-55.95.58-2.39.02-3.05-.83-3.19-3.18-.86-14.2-.92-14.17,13.18-14.2,13.99-.03,27.99.1,41.97-.22,14.05-.32,20.7-9.41,17.36-23.14-1.5-6.18-5.54-9.88-12.55-10.17-11.48-.47-22.97-.4-34.46-.5-7.33-.06-14.66-.09-21.99.03-2.56.04-3.39-.79-3.52-3.41-.69-14.14-.77-14.14,13.28-14.14,6.16,0,12.33,0,18.49,0Z"/>
  <path class="cls-34" d="M1342.51,1438.1c-15.11-.97-28.44-5.79-39.3-15.91-18.65-17.39-13.61-50.84,9.13-62.59.59-.3,1.19-.58,1.81-.83,5.05-1.98,11.71-4.35,15.17-1.21,3.24,2.94-.42,9.6-.67,14.66-.1,2.14-1.87,1.83-3.38,1.9-8.62.37-14.41,4.72-17.15,12.83-2.84,8.39-1.18,15.96,5.68,21.7,9.09,7.62,19.88,11.45,31.65,11.91,8.19.32,15.15-4.85,18.16-12.47,3-7.61,1.29-15.33-5.76-21.04-3.81-3.09-4.23-5.22-.66-8.36.86-.76,1.48-1.79,2.21-2.7,5.64-7.03,5.61-6.99,11.74-.58,10.89,11.38,11.91,24.4,6.13,38.33-6.44,15.55-18.32,23.52-34.78,24.35Z"/>
  <path class="cls-34" d="M892.01,1727c-.55-35.84,38.32-46.82,57.64-35.52,5.23,3.06,8.94,7.34,11.98,12.4,1.01,1.68.77,2.73-1.09,3.45-1.39.54-2.74,1.21-4.1,1.83-2.73,1.23-5.36,3.17-8.2,3.53-3.49.45-3.93-3.79-6.02-5.68-10.5-9.46-29.15-3.41-31.96,10.87-2.47,12.58.37,24.56,6.95,35.42,4.26,7.02,12.49,9.76,20.52,7.85,7.96-1.89,13.18-7.63,14.13-16.68.43-4.06,1.73-5.14,5.52-4.26,2.42.56,4.95.81,7.43.83,4,.02,5.24,1.23,4.64,5.65-4,29.24-37.57,35.09-54.59,25.97-13.28-7.12-18.96-19.04-21.75-32.9-.85-4.22-1.47-8.54-1.11-12.75Z"/>
  <path class="cls-34" d="M286.51,1283.63c34.69-1.05,46.42,36.79,36.2,56.22-2.81,5.34-6.95,9.25-11.94,12.46-1.94,1.25-2.9.85-3.74-1.15-.7-1.69-1.53-3.34-2.49-4.89-2.92-4.75-4.41-8.42,1.57-12.95,5.72-4.33,6.05-11.52,3.73-18.4-2.57-7.64-7.85-12.59-15.78-13.53-12.3-1.46-23.92,1.39-34.24,8.26-6.84,4.55-9.47,12.76-7.28,20.8,2.17,7.93,7.66,12.58,15.68,13.31,5.13.47,7.13,2.18,5.82,7.23-.08.32-.05.66-.07,1-.72,11.25-.94,11.41-11.82,8.49-15.33-4.12-25.71-19.16-25.27-36.62.42-16.86,9.76-29.77,26.2-35.91,7.53-2.82,15.32-4.51,23.43-4.32Z"/>
  <path class="cls-34" d="M793.2,1741.73c0-13.16.05-26.31-.04-39.47-.02-2.82.45-4.11,3.85-3.95,16.97.78,33.96,1.35,50.95,1.73,3.72.08,4.79,1.05,4.56,4.87-.6,10.05-.41,10.07-10.65,9.72-9.32-.32-18.65-.58-27.97-1.06-2.84-.15-3.85.72-3.79,3.6.09,4.33.02,8.68-.39,12.98-.32,3.32,1.16,3.89,3.99,3.94,9.33.2,18.65.74,27.97.85,3.37.04,4.15,1.16,3.94,4.43-.66,10.65-.53,10.63-11.25,10.14-6.82-.31-13.67-.26-20.47-.87-4.17-.37-5,1.2-5.03,4.96-.07,9.16-.7,18.31-.81,27.48-.04,3.3-1.06,4.45-4.36,4.07-3.13-.36-6.33-.44-9.48-.3-3.19.14-3.81-1.19-3.77-4.16.17-12.98.07-25.97.07-38.96h2.68Z"/>
  <path class="cls-34" d="M1372.48,560.92c-10.45-6.1-20.1-11.9-29.92-17.39-3.12-1.74-4.71-3.66-4.35-7.39.35-3.63.22-7.33.04-10.98-.2-3.95,1.15-3.7,3.88-1.95,14.3,9.16,28.69,18.17,42.98,27.35,2.5,1.61,4.98,2.3,7.93,2.26,9.32-.13,18.65.07,27.98-.12,3.12-.06,3.86.99,3.9,3.98.17,13.38.19,14.29-12.97,13.15-16.45-1.41-30.51,2.55-43.53,12.68-8.24,6.41-17.64,11.32-26.44,17.03-3.06,1.99-3.34,1.21-3.83-2.16-1.66-11.52,1.6-19.44,13.18-24.06,7.27-2.9,13.68-7.93,21.16-12.42Z"/>
  <path class="cls-34" d="M1388.58,729.88c-10.48,0-20.97.12-31.45-.07-3.26-.06-4.36.86-4.21,4.17.25,5.81-.07,11.65.13,17.47.1,2.95-.66,4.05-3.83,4.12-10.93.25-10.93.38-10.93-10.46,0-17.97.09-35.95-.08-53.92-.03-3.52,1.02-4.48,4.49-4.45,10.29.08,10.3-.07,10.3,10.02,0,3.49.3,7.02-.08,10.48-.47,4.37,1.36,5.18,5.35,5.14,20.3-.19,40.61.05,60.91-.2,4.57-.06,5.91,1.14,5.78,5.76-.32,11.93-.09,11.93-11.9,11.93-8.15,0-16.31,0-24.46,0Z"/>
  <path class="cls-34" d="M274.4,649.68c12.82,0,25.63.09,38.44-.06,3.16-.04,4.29.71,4.32,4.11.1,13.33.22,13.33-12.94,13.33-17.97,0-35.95.09-53.92-.08-3.53-.03-4.49,1.02-4.43,4.48.2,11.48-.02,22.97.14,34.45.04,3.22-.49,4.71-4.26,4.69-10.47-.07-10.47.12-10.47-10.38,0-15.31.13-30.63-.09-45.93-.06-3.81,1.07-4.75,4.77-4.69,12.81.23,25.63.09,38.44.09Z"/>
  <path class="cls-5" d="M1381.89,1108.07c12.64,0,25.29.13,37.92-.08,3.71-.06,5.2.61,5.13,4.82-.21,12.88,0,12.88-13,12.88-22.79,0-45.58-.09-68.36.09-3.96.03-5.5-.73-5.42-5.11.22-12.6.02-12.6,12.79-12.6,10.31,0,20.63,0,30.94,0Z"/>
  <path class="cls-34" d="M274.62,534.6c12.99,0,25.97.08,38.96-.06,3.11-.03,4.34.64,4.37,4.1.12,13.33.26,13.33-12.99,13.33-22.81,0-45.62-.1-68.42.09-3.98.03-5.45-.72-5.36-5.07.26-12.39.05-12.39,12.48-12.39,10.32,0,20.64,0,30.97,0Z"/>
  <path class="cls-21" d="M349.46,524.09h946.22c0,.16,0,.32,0,.48H349.28c.06-.16.12-.32.19-.48Z"/>
  <path class="cls-40" d="M1073.09,1663.8c-1.53-1.45-2.45-3.21-3.09-5.59,2.18.8,3.26,2.06,4.04,3.65-.94.34-.82,1.2-.95,1.94Z"/>
  <path class="cls-39" d="M1191.11,1576.8c.72.96,1.45,1.91,2.17,2.87-1.05.38-1.1,1.31-1.25,2.2-1.19-1.01-1.64-2.43-2.15-3.82-.31-1.14.22-1.44,1.24-1.25Z"/>
  <path class="cls-26" d="M433.13,1563.86c.99-1.25,2.48-1.6,3.86-2.16,1.07-.3,1.34.19,1.13,1.16-.98.69-1.97,1.37-2.95,2.06-.37-.95-1.27-.87-2.04-1.05Z"/>
  <path class="cls-37" d="M1109.19,1672.57c.54,1.49,1.08,2.97,1.68,4.63-1.88-.03-2.5-1.08-3.03-2.23,1.02-.48,1.11-1.48,1.35-2.4Z"/>
  <path class="cls-33" d="M402.9,1525.66c.77-1.33,1.8-2.32,3.96-2.78-.69,1.8-1.29,3.1-2.83,3.82-.38-.35-.75-.7-1.13-1.04Z"/>
  <path class="cls-9" d="M1152.06,1607.82c.69.64,1.38,1.28,2.08,1.92-.37.38-.75.75-1.12,1.13-.71-.64-1.42-1.29-2.13-1.93-.16-.94.12-1.44,1.17-1.12Z"/>
  <path class="cls-24" d="M1115.97,1635.9c.31.67.62,1.35.93,2.02-1.09.77-.61,2.01-.91,3.02-.85-.8-.93-1.88-1.06-2.94-.35-1.04-.86-2.17,1.04-2.1Z"/>
  <path class="cls-17" d="M398.32,1564.05c-.75.88-2.04,1.9-2.75,1.14-.93-1,.39-1.92,1.32-2.57.48.48.95.95,1.43,1.43Z"/>
  <path class="cls-8" d="M817.55,554.12c148.14,0,296.29.02,444.43-.11,4.67,0,6.1.89,6.09,5.89-.14,207.81.1,415.61-.24,623.42-.12,73.2-17.5,142.43-51.8,207.26-34.61,65.42-82.33,119.22-143.14,161.39-55.34,38.38-116.26,62.98-182.69,73.98-47.07,7.8-94.27,8.24-141.31.69-99.08-15.91-183.93-59.87-254.01-131.72-55.23-56.63-92.76-123.48-113.06-199.94-9.8-36.89-14.58-74.51-14.61-112.64-.13-207.31-.07-414.61-.05-621.92,0-7.12-.92-6.3,6.46-6.3,147.98-.01,295.96-.01,443.94-.01Z"/>
  <path class="cls-15" d="M1115.97,1635.9c-.9.43-.84,1.33-1.04,2.1-1.04-1.35-1.19-2.93-1.24-4.75,1.7.22,1.82,1.59,2.28,2.65Z"/>
  <path class="cls-11" d="M438.12,1562.85c-.38-.38-.75-.77-1.13-1.16,1.04-.57,2.08-1.14,3.37-1.85-.04,1.97-1.19,2.44-2.24,3Z"/>
  <path class="cls-23" d="M1191.11,1576.8c-.41.42-.83.83-1.24,1.25-.91-1.1-1.86-2.19-1.49-3.85,1.43.42,2.15,1.44,2.73,2.6Z"/>
  <path class="cls-20" d="M1152.06,1607.82c-.39.37-.78.75-1.17,1.12-.83-.51-2.05-1.45-1.46-2.09,1-1.1,1.89.19,2.63.98Z"/>
  <path class="cls-4" d="M245.83,1030.14c.46-5.01-1.76-10.74.91-13.59,2.71-2.89,8.5-.84,12.93-.91,9.34-.15,9.37-.05,9.33,9.38-.03,5.99.22,12-.87,17.94-1.09,5.91-4.83,9.2-10.58,9.31-6.1.11-10.24-3.08-11.08-9.22-.6-4.43-.47-8.97-.65-12.91Z"/>
  <path class="cls-4" d="M303.07,1028.45c0,3.82.27,7.66-.06,11.46-.52,5.98-3.8,9.07-9.14,9.19-5.34.12-8.89-2.81-9.85-8.55-1.23-7.42-.5-14.92-.7-22.39-.05-2,.94-2.58,2.74-2.57,4.82.04,9.64.09,14.45-.02,2.19-.05,2.92.79,2.84,2.92-.13,3.32-.03,6.64-.03,9.97h-.25Z"/>
  <path class="cls-4" d="M480.21,1638.9c-.12,8.42-9.15,13.75-16.49,9.42-7.33-4.33-13.47-10.33-20.17-15.54-1.39-1.08-1.32-2-.25-3.29,3.93-4.75,7.81-9.54,11.64-14.37,1.11-1.4,2.03-1.29,3.29-.24,6.38,5.34,13.17,10.21,18.84,16.37,2,2.18,3.16,4.66,3.15,7.65Z"/>
  <path class="cls-4" d="M500.23,1609.27c-.07,7.09-7.16,11.82-13.48,8.88-7.6-3.53-13.33-9.78-19.88-14.82-1.6-1.24-.48-2.31.35-3.33,3.02-3.75,6.08-7.45,9.06-11.23,1.08-1.37,1.96-2,3.59-.61,5.67,4.86,11.51,9.51,17.11,14.44,1.99,1.75,3.38,4.11,3.25,6.68Z"/>
  <path class="cls-4" d="M1353.16,643.96c0-3.49-.18-7,.04-10.47.42-6.68,4.13-10.45,10.19-10.63,6.29-.2,9.94,2.98,10.91,9.73,1.09,7.61.46,15.28.66,22.92.05,2.05-.98,2.52-2.78,2.5-5.49-.05-10.98-.09-16.47,0-2.3.04-2.79-1.09-2.75-3.07.08-3.66.02-7.32.02-10.98h.18Z"/>
  <path class="cls-4" d="M642.43,1689.84c-.1,7.56-6.13,12.37-13.38,10.42-7.54-2.03-14.65-5.26-21.89-8.14-1.81-.72-2.16-1.52-1.37-3.35,2.17-5.02,4.2-10.1,6.15-15.22.72-1.9,1.51-2.64,3.62-1.72,6.85,2.96,13.83,5.62,20.64,8.67,3.87,1.73,6.33,4.78,6.23,9.35Z"/>
  <path class="cls-4" d="M1284.33,1448.01c8.67-.09,14.23,7.57,11.31,14.4-3.2,7.5-7.97,14.13-12.19,21.07-.82,1.34-1.65,1.95-3.18.97-4.89-3.12-9.79-6.24-14.75-9.24-1.86-1.13-1.41-2.22-.49-3.64,4.04-6.27,7.96-12.62,12.09-18.83,1.92-2.88,4.82-4.45,7.21-4.73Z"/>
  <path class="cls-36" d="M1412.68,1219.69c-.12,9.97-9.31,15.5-18.25,10.98-3.04-1.54-5.33-3.87-7.3-6.62-1.54-2.14-1.59-3.57.72-5.32,5.29-4.02,10.42-8.27,15.5-12.56,1.97-1.67,3.2-1.68,4.74.56,2.7,3.95,4.45,8.15,4.6,12.96Z"/>
  <path class="cls-10" d="M1348.7,1213.74c.09-5.07,3.38-8.76,7.7-8.64,2.92.08,10.51,6.78,10.41,9.18-.08,1.86-8.86,7.81-11.58,7.85-3.86.05-6.61-3.49-6.52-8.39Z"/>
  <path class="cls-4" d="M989.64,1703.29c-.15-12.18,5.12-19.94,14.4-23.61,9.53-3.76,18.45-2.02,25.09,5.34,6.8,7.53,10.42,16.63,11.28,26.66.92,10.8-4.72,19.5-14.44,23.23-9.7,3.72-19.78,1.14-26.45-7.29-6.14-7.76-9.5-16.72-9.88-24.33Z"/>
  <path class="cls-4" d="M712.03,1740.9c.35-8.76,1.85-17.21,6.89-24.66,5.1-7.54,13.81-10.88,23.23-8.96,9.63,1.96,16.26,8.16,17.89,17.24,1.89,10.56-.1,20.64-5.24,29.9-5.3,9.53-14.91,13.44-25.01,10.95-10.41-2.57-17.06-10.62-17.74-21.46-.06-1,0-2,0-3Z"/>
  <path class="cls-4" d="M274.75,1189.83c8.16,0,16.32.12,24.48-.06,3.06-.07,4.12.87,3.95,3.96-.29,5.48.02,10.98-.68,16.45-.93,7.18-4.74,12.22-11.51,14.28-11.58,3.52-23.29,3.43-34.84-.49-5.4-1.84-8.45-5.8-9.46-11.26-1.25-6.76-.56-13.62-.72-20.44-.07-2.99,2.1-2.42,3.82-2.43,8.33-.03,16.65-.01,24.98-.01Z"/>
  <path class="cls-4" d="M1381.41,986.9c-8.33,0-16.66-.08-24.99.05-2.57.04-3.62-.73-3.47-3.4.3-5.49.14-11,.62-16.47.7-8.03,5.31-13.29,12.96-15.32,10.49-2.78,21.16-2.74,31.59.27,7.94,2.29,11.37,7.13,11.86,15.93.29,5.15-.02,10.33.24,15.49.16,3.06-1.19,3.54-3.82,3.5-8.33-.13-16.66-.05-24.99-.05Z"/>
  <path class="cls-10" d="M297.58,1119.14c-10.75,3.99-19.97,7.34-29.13,10.85-2.66,1.02-3.11.08-3.07-2.34.11-5.66.03-11.32.04-16.99,0-1.51-.18-3.32,2.32-2.42,9.48,3.44,18.95,6.91,29.83,10.89Z"/>
  <path class="cls-3" d="M368.75,1467.81c-7,9.08-13.17,17.06-19.31,25.07-1.15,1.5-2,1.35-2.95-.2-3.14-5.09-6.26-10.19-9.52-15.2-1.39-2.14-.59-2.87,1.51-3.3,9.57-1.99,19.14-4.02,30.27-6.36Z"/>
  <path class="cls-22" d="M297.48,944.69c-10.71,4-20.01,7.47-29.31,10.95-1.91.71-2.78.17-2.76-1.96.05-5.83.11-11.66-.02-17.49-.07-2.97,1.29-2.86,3.4-2.07,9.04,3.36,18.1,6.67,28.69,10.57Z"/>
  <path class="cls-7" d="M296.02,757.43c-9.15,3.41-18.3,6.81-27.44,10.23-1.92.72-3.2.7-3.17-1.93.07-5.82.07-11.65,0-17.47-.03-2.48,1.03-2.79,3.09-2.03,9.17,3.39,18.37,6.72,27.55,10.07l-.03,1.12Z"/>
  <path class="cls-13" d="M1099.8,1033.36c-27.2,13.98-54.4,27.94-81.59,41.93-23.51,12.1-47.01,24.24-70.51,36.36-41.55,21.43-83.15,42.77-124.6,64.38-5.19,2.71-8.95,3.1-14.42-.05-62.65-36.17-125.5-71.98-188.3-107.88-18.48-10.56-36.97-21.11-55.46-31.66-1.42-.81-2.9-1.53-4.35-2.29-.26-3.16-.04-6.33-.02-9.49.19-23.14-.9-46.27-1.32-69.4-.28-15.14-.17-30.29-.74-45.42-1.27-34.1-1.37-68.23-2.22-102.33-.4-16.15-.12-32.3-.81-48.43-1.18-27.44-1.4-54.9-1.95-82.35-.04-2-.11-4.03-.77-5.93-3.28-9.41-7.31-18.53-11.28-28.82-.29,5.02-2.08,8.44-3.68,11.82-5.32,11.18-7.16,22.76-7.37,35.23-.49,27.78-1.16,55.57-1.88,83.35-.76,29.28-1.31,58.57-2,87.85-.69,29.28-1.02,58.58-2.11,87.84-.72,19.29.24,38.63-1.77,57.87-.19,1.81-.06,3.7-1.59,5.09-12.47-6.99-24.98-13.9-37.4-20.98-33.97-19.37-67.87-38.85-101.88-58.15-2.92-1.66-3.78-3.52-3.77-6.72.07-118.32.11-236.64-.08-354.96,0-5.43,2.47-5.3,6.29-5.3,253.8.04,507.6.04,761.4.04,35.33,0,70.66.08,105.99-.11,4.49-.02,5.52,1.28,5.52,5.62-.11,125.65-.1,251.31-.03,376.96,0,3.36-.78,5.37-3.98,7.01-36.03,18.39-71.96,36.95-107.95,55.42-1.72.88-3.31,2.36-5.52,1.9-2.29-1.57-2.18-4.05-2.11-6.33.58-19-1.12-37.94-1.07-56.93.06-20.15-.81-40.29-1.3-60.42-.36-14.65-.15-29.31-.74-43.94-1.18-29.28-1.37-58.58-2.11-87.87-.66-26.12-1.76-52.24-1.84-78.38,0-3.02-.18-6.02-1.34-8.84-3.41-8.32-6.5-16.77-10.52-25.91-4.36,13.79-11.4,25.56-11.42,40.23-.02,14.45-.1,28.96-.62,43.43-1.25,34.78-1.41,69.58-2.24,104.36-.36,15.15-.23,30.3-.76,45.44-1.15,32.95-1.4,65.91-2.24,98.86-.36,14.15-.51,28.29-.67,42.44-.06,5.18-.91,10.29-.88,15.45Z"/>
  <path class="cls-4" d="M553.1,1447.98c-3.69,1.56-7.57.64-11.37.88-18.05,1.12-36.13,2.02-53.18,9.03-.31.13-.64.19-.95.31-8.77,3.53-8.64,3.43-14.34-4.01-14.57-19.02-28.04-38.75-39.87-59.61-2.23-3.93-.85-5.39,2.4-7.04,16.78-8.5,33.55-17.04,50.26-25.67,35.03-18.08,70.01-36.25,105.04-54.31,21.3-10.98,42.69-21.77,64-32.72,34.04-17.48,68.07-35.01,102.08-52.55,17.6-9.08,35.23-18.11,52.71-27.42,3.87-2.06,6.93-1.98,10.64.17,18.83,10.94,37.76,21.71,56.65,32.53,22.21,12.73,44.42,25.46,66.63,38.18,27.12,15.53,54.24,31.07,81.37,46.57,24.25,13.86,48.54,27.66,72.79,41.51,26.99,15.42,53.97,30.88,80.95,46.31,3.75,2.15,7.47,4.37,11.34,6.3,2.53,1.26,3.03,2.58,1.5,5.03-11.08,17.79-23.89,34.32-36.46,51.06-6.59,8.77-15.01,11.03-24.68,12.34-20.48,2.77-41.08,3.82-61.65,2.7-9.76-.53-19.58.06-29.33-1.43-3.67-.56-3.96-2.22-3.42-4.99,1.76-9.11,3.75-18.18,5.28-27.33,1.12-6.67,2.3-13.44.5-20.2-1.16-4.35-3.23-7.74-7.97-9.36-13.6-4.67-27.66-4.12-41.52-3.07-22.2,1.69-43.84,6.98-65.32,12.69-16.99,4.52-33.94,9.26-51.24,12.45-5.96,1.1-12.01,2.67-18.21.65-3.49-1.13-5.56-3.19-6.71-6.68-3.14-9.55-3.95-19.49-4.85-29.38-.8-8.78-1.94-17.47-4.27-25.96-1.74-6.37-6.48-10.23-13.05-10.7-5.3-.38-6.72-4-6.64-8.23.1-5.45.99-10.88,1.41-16.33.7-9.15-2.53-17.51-12.4-17.96-5.28-.24-10.52-1.19-15.77-1.87-2.13-.27-4.24-.86-6.38-.96-2.62-.12-3.78-1.1-4.09-3.85-1.34-11.85-2.93-23.69-5.94-35.25-2.01-7.75-4.99-15.09-9.7-21.73-2.04-2.87-3.27-3.12-5.5-.43-8.05,9.71-14.02,20.52-17.81,32.57-6.4,20.35-8.69,41.48-11.84,62.44-.37,2.45-.96,3.85-3.53,4.59-10.37,2.96-18.06,9.03-21.65,19.54-.84,2.44-2.5,2.35-4.73,2.26-12.92-.55-25.71.47-37.24,6.95-11.97,6.73-19.05,16.76-18.93,31.06.07,8,.03,16-.04,23.99-.01,1.58.68,3.37-.89,4.68-1.76-1.73-1.44-3.99-1.46-6.12-.06-7.82-.09-15.65,0-23.47.05-3.66-1.43-4.71-4.9-3.89-8.08,1.93-15.76,4.9-21.49,11-4.81,5.11-9.63,6.35-16.43,4.49-11.99-3.27-24.4-3.31-36.68-1.86-8.82,1.04-14.16,9.09-12.57,17.87.27,1.48.68,2.96-.56,4.23Z"/>
  <path class="cls-4" d="M610.11,1179.66c-5.91-6.95-13.04-10.56-20.6-13.7-5.66-2.35-11.42-4.88-15.52-9.74-2.23-2.64-4.25-2.17-6.97-.87-2.91,1.39-3.39,3.5-2.75,6.13,2.59,10.75,6.58,20.92,13.01,30.02,7.91,11.19,17.94,19.92,30.2,26.14,4.92,2.5,5.9,5.48,5.41,14.54-3.15-1.02-3.85-4.37-6.2-6.06-5.32-3.83-11.11-6.66-17.07-9.22-5.68-2.44-11.1-5.24-15.69-9.51-1.65-1.54-3.33-3.41-5.87-3.44-3.92-.05-6.33,2.98-5.53,6.75,5.99,28.54,22.36,49.2,47.92,62.76,3.05,1.62,4.45,3.68,4.62,6.95.18,3.44-2.73,3.84-4.82,4.92-32.98,17.04-65.99,34.02-98.99,51.04-3.99,2.06-7.93,4.22-11.87,6.38-2.71,1.49-4.48,1.45-4.24-2.33.56-9-1.22-17.91-1.1-26.9.04-2.66.57-4.47,2.89-6.3,20.64-16.3,34.69-36.95,40.46-62.85,1.73-7.77,3.14-15.6,2.81-23.66-.11-2.53-.72-4.18-3.3-4.72-2.63-.56-5.77-2.83-7.78.22-7.38,11.24-18.93,17.5-29.26,25.26-2.76,2.08-5.32,4.43-8.23,6.88-1.15-3.61-.81-6.18,2.49-8.55,26.25-18.81,41.2-44.5,45.81-76.33.36-2.46.23-4.99.65-7.43.39-2.23-1.15-2.72-2.51-2.96-2.87-.5-6.01-4.4-8.61-.79-7.28,10.1-17.88,15.69-28.12,21.85-3.99,2.4-7.79,5.09-11.23,8.25-1.76,1.63-2.73,1.68-3-1.11-.48-4.8.72-8.32,4.93-11.51,23.19-17.61,36.18-41.09,39.06-70.09.58-5.84-1.18-7.79-7.1-8.67-1.69-.25-3.03.19-3.93,1.53-6.19,9.25-16.14,13.6-25.02,19.36-2.5,1.62-4.93,3.36-7.41,5.03-.89.6-1.53,2.16-2.88,1.32-1.13-.71-.55-2.13-.65-3.25-.3-3.4.54-6.32,2.39-9.39,8.61-14.24,11.52-29.65,9.85-46.29-1.27-12.62-4.42-24.49-10.44-35.56-2.13-3.91-5.02-7.41-7.6-11.07-2.02-2.88-3.41-2.5-5.42.41-9.83,14.25-15.27,30.06-17.86,47.06-1.76,11.58-1.27,22.87,3.16,33.76,2.29,5.62,5.74,10.52,11.09,13.77,2.96,1.79,4.52,4.25,3.84,7.84-.74,3.92,1.75,7.75.28,12.67-7.94-10.5-19.49-14.16-30.19-19.19-5.78-2.72-11.13-6.05-15.38-10.85-3.67-4.15-6.19.25-9.16,1.02-2.99.77-2.18,2.86-1.75,5.14,3.68,19.51,12.51,36.45,26.12,50.7,6.99,7.31,14.9,14.01,24.18,18.19,7.68,3.46,10.02,8.98,9.84,16.56-.02,1,0,1.99,0,4.26-9.14-12.72-22.49-17.27-35.03-23.1-5.95-2.77-11.51-6.18-15.66-11.28-3.64-4.48-6.4-.72-9.51.36-3.19,1.1-2.85,3.31-2.26,6.05,4.54,21.15,13.71,39.93,28.95,55.35,8.18,8.27,17.23,15.76,27.96,20.57,6.53,2.93,9.38,7.39,8.58,14.35-.18,1.57.54,3.24-.69,5.11-9.42-13.28-24.59-16.4-38.14-22.26-5.43-2.35-10.5-5.16-14.59-9.32-3.82-3.89-6.58-.53-9.81.6-3.73,1.31-2.23,3.99-1.6,6.17,9.62,33.76,30.01,58.42,62.19,72.89,4.18,1.88,5.44,4.27,5.89,8.9.88,9.1-.11,18.29,1.6,27.32.47,2.48-.19,4.36-2.79,5.69-17.49,8.94-34.93,17.97-52.3,27.13-3.14,1.66-4.51,1.04-6.03-2.08-12.72-26.25-23.11-53.35-30.79-81.52-5.33-19.56-8.75-39.47-11.72-59.47-1.31-8.84-1.96-17.83-2.2-26.77-2.31-86.28-.46-172.57-1.05-258.85,0-1.33.06-2.67,0-4-.15-2.99,1.24-2.98,3.32-1.78,11.97,6.87,23.93,13.74,35.91,20.6,22.22,12.72,44.44,25.44,66.66,38.16,26.98,15.44,53.97,30.89,80.96,46.31,22.09,12.62,44.21,25.18,66.29,37.82,26.26,15.03,52.46,30.15,78.73,45.17,20.2,11.56,40.45,23.03,60.68,34.53,9.97,5.67,19.91,11.4,29.94,16.97,3.38,1.88,2.17,2.88-.34,4.16-11.42,5.83-22.8,11.73-34.21,17.57-30.53,15.63-61.09,31.21-91.6,46.88-15.1,7.76-30.1,15.72-45.2,23.47-1.42.73-3.35,3.01-4.71,1.12-1.56-2.18,0-4.51,2.08-5.92,7.24-4.89,13.33-10.94,18.73-17.77,10.58-13.36,16.88-28.44,18.78-45.4.47-4.19,1.58-8.26-4.69-9.01-1.81-.21-2.9-.4-4.18,1.24-5.22,6.67-12.15,11.29-19.41,15.41-3.78,2.14-7.39,4.43-10.49,7.54-2.31,2.32-3.69,1.38-4.18-1.6-.49-2.95.54-5.14,2.96-6.87,18.47-13.16,28.58-31.46,32.69-53.41.46-2.44.5-4.95.83-7.41.24-1.74-.72-2.53-2.16-2.75-2.42-.36-5.18-3.48-7.23-.45-6.56,9.74-17.89,13.03-26.36,20.13-2.22,1.86-2.78.75-2.86-1.5-.1-2.85.15-5.41,1.84-8.02,7.86-12.17,9.24-25.64,7.54-39.73-1.25-10.36-3.79-20.22-9.62-29.03-1.98-2.99-3.68-7.53-6.99-7.69-3.13-.16-4.16,4.73-5.72,7.53-6.56,11.74-10.58,24.21-11.2,37.85-.48,10.57.53,20.44,7.28,29.04.41.52.71,1.3,1.25,1.53,8.77,3.79,6.53,11.39,6.66,19.11Z"/>
  <path class="cls-4" d="M827.64,1186.53c.63-1.64,1.91-1.83,2.91-2.33,29.33-15.05,58.68-30.04,88-45.1,32.87-16.89,65.71-33.83,98.55-50.76,20.57-10.6,41.13-21.19,61.68-31.83,23.79-12.32,47.56-24.69,71.35-37.02,1.08-.56,2.68-1.94,3.19.19,1.95,8.1,9.28,10.49,15.09,14.31,14.3,9.38,30.08,13.87,47.26,12.91,3.58-.2,4.74.58,3.45,4.48-7.01,21.15-8.61,43.13-6.78,65.02,2.98,35.6.81,71.2,1.72,106.78.08,3.27-1.45,4.32-4.38,4.73-8.64,1.19-8.83,1.26-8.61-7.66.5-19.98-1.24-39.91-1.04-59.88.01-1.27.63-3-.61-3.73-1.59-.95-2.7.88-3.83,1.63-23.55,15.64-47.03,31.38-70.58,47.01-1.87,1.24-3.85,3.96-5.94,2.98-2.27-1.07-.92-4.22-.93-6.42-.11-15.16-.05-30.32-.08-45.49,0-1.27.63-2.92-.63-3.73-1.43-.92-2.4.74-3.42,1.39-32.8,20.9-65.55,41.88-98.36,62.75-2.24,1.43-4.68,4.61-7.16,3.22-2.52-1.41-1.28-5.2-1.39-7.98-.73-18.09-1.43-36.19-2.07-54.28-.11-3.21-.98-3.76-3.8-1.95-12.58,8.09-25.27,16.01-37.9,24.03-22.31,14.16-44.64,28.29-66.86,42.6-2.42,1.56-4.15,1.33-6.34.07-17.15-9.86-34.33-19.67-51.49-29.51-3.7-2.12-7.36-4.29-11-6.41Z"/>
  <path class="cls-34" d="M1006.87,1475.05c-3.44,3.91-6.07,6.83-8.64,9.81-23.01,26.72-41.03,56.16-48.86,91-.96,4.28-2.61,3.43-5.36,2.14-42.03-19.58-85.64-34.94-130.09-47.94-43.79-12.8-88.18-23.25-132.71-33.11-1.28-.28-2.55-.64-3.8-1.45,54.77-.91,109.47-2.95,164.11-6.1,54.8-3.15,109.5-7.71,165.35-14.36Z"/>
  <path class="cls-34" d="M1099.8,1033.36c-2.28-.86-1.34-2.8-1.31-4.3,1.61-80.27,3.25-160.53,4.92-240.8.79-37.8,1.65-75.6,2.5-113.4.03-1.49-.09-3.11.43-4.44,3.91-10.06,7.97-20.06,12.57-30.16,4.26,13.37,12.84,24.97,13.13,39.8,1.59,80.77,3.49,161.53,5.34,242.29.68,29.8,1.51,59.6,2.27,89.41-.97,1.67-2.65,2.35-4.26,3.18-11.87,6.12-23.73,12.28-35.6,18.42Z"/>
  <path class="cls-34" d="M521.07,1011.04c.76-30.63,1.56-61.27,2.28-91.9,1.7-72.93,3.36-145.86,5.04-218.79.07-2.83.61-5.7.29-8.48-2.14-18.8,5.76-35,13.46-52.28,3.08,7.64,5.71,14.76,8.81,21.66,3.06,6.82,4.12,13.79,4.26,21.26,1.96,103.74,4.13,207.48,6.25,311.22.25,11.99.56,23.98.71,35.97.02,1.52,1.31,3.86-1.61,4.45-11.79-6.79-23.6-13.56-35.38-20.37-1.42-.82-2.75-1.82-4.11-2.74Z"/>
  <path class="cls-34" d="M775.45,1436.88c-18.15,0-36.3-.08-54.44.07-3.17.03-4.28-.62-4.15-4.05.57-14.64.74-29.3,1.24-43.95.35-10.36,13.15-23.99,25.4-26.69,10.92-2.4,22.15-2.48,33.28-3.04,9.48-.48,19.06-.8,28.17,2.5,15.18,5.51,26.84,14,28.62,31.97,1.23,12.47,1.52,24.91,1.54,37.4,0,3.46-2.05,3.18-4.22,3.18-18.48,0-36.96,0-55.44,0,0,.86,0,1.72,0,2.59Z"/>
  <path class="cls-34" d="M889.67,1577.14c-10.77,6-21.23,2.21-31.26.23-35.11-6.94-69.2-3.78-102.65,8.43-1.65.6-3.24,1.58-5.01-.19-5.58-5.56-12.44-5.36-19.61-4.31-10.81,1.59-20.7,6.14-31.06,9.18-5.26,1.54-10.61,2.8-15.94,4.12-7.28,1.8-14.28,1.68-21.33-1.66-8.56-4.06-17.47-7.36-26.2-11.07-3.71-1.58-6.98-3.86-9.73-6.85-1.73-1.88-2.01-3.13.98-4.08,13.56-4.29,27.43-6.86,41.61-7.75,5.27-.33,9.5,1.84,12.06,6.46,1.46,2.63,3.47,3.91,6.23,4.34,9.68,1.52,18.7,1.76,27.21-5.21,10.35-8.48,23.18-11.39,36.39-11.9,6.03-.23,11.13,2.54,14.16,7.86,1.6,2.82,3.14,3,5.95,2.18,17.88-5.24,35.76-10.59,54.24-13.34,8.4-1.25,16.82-2.09,24.88,2.27,2.53,1.37,5.82,1.25,8.71,2.03,12.06,3.26,22.05,9.77,30.37,19.26Z"/>
  <path class="cls-12" d="M1181.61,1004.49c.5-1.83,2-2.32,3.3-2.99,22.48-11.58,45.02-23.07,67.43-34.8,4.46-2.34,4.74-.74,4.74,3.22-.07,71.12-.07,142.25,0,213.37,0,3.76-1.21,6.27-4.62,7.97-1.35-3.9.65-7.37.54-10.98-.45-15.12-.48-30.26-1.11-45.37-.71-16.73-1.52-33.48-3-50.16-1.7-19.12-9.59-35.69-22.43-50-12-13.38-26.39-23.1-43.23-29.28-.59-.22-1.1-.66-1.63-.98Z"/>
  <path class="cls-34" d="M951.99,1599.66c-11.26,4.12-21.81,7.32-32.59,9.04-5.17.82-10.79-1.49-16.25-2.02-28.44-2.8-56.53-.02-84.42,5.63-6.68,1.35-13.37,2.68-19.95,4.43-17.34,4.61-34.41,1.08-51.52-1.36-8.82-1.26-17.17-3.95-24.67-8.96-2.08-1.4-3.91-3-5.63-5.32,12.51-3.81,24.98-5.74,37.51-7.28,25.05-3.07,50.38-4.6,75.3-1.47,26.2,3.3,51.82.29,77.68-1.57,11.84-.85,23.65-.78,34.96,3.77,3.09,1.24,6.03,2.69,9.56,5.12Z"/>
  <path class="cls-34" d="M862.79,1462.9c17.28-8.46,34.93-15.32,52.87-21.46,26.53-9.08,53.57-16.01,81.48-19.31,7.88-.93,15.63-.64,23.12,2.23,4.66,1.78,7.5,5,7,10.25-.46,4.83-2.01,8.36-7.54,10.29-31.65,11.02-64.47,14.96-97.64,16.62-18.13.9-36.3.95-54.45,1.38-1.61.04-3.22,0-4.83,0Z"/>
  <path class="cls-34" d="M791.3,1551.25c-6.22.15-12.23-1.06-18.17-2.83-11.94-3.55-23.53-3.49-35.73.5-9.25,3.03-18.74,5.33-27.86,8.96-7.16,2.85-14.04.41-20.69-2.71-6.01-2.82-11.61-6.47-18.03-8.49-4.21-1.33-7.84-.71-11.38,1.59-2.65,1.73-5.36,3.38-7.91,5.24-7.83,5.73-16.13,6.34-24.33,1.43-6.55-3.92-12.47-3.77-19.3-.62-8.72,4.02-17.53,2.94-25.74-2.15-3.11-1.93-6.13-4.02-9.26-5.91-1.7-1.03-2.02-2.46-1.91-4.24.13-2.17,1.83-2.02,3.24-2.33,6.03-1.35,11.92-2.13,18.18-.31,5.48,1.6,11.22,1.73,15.36-3.8,1.48-1.99,3.28-.92,4.72.43,6.68,6.3,16.03,6.73,23.76,10.75,2.85,1.48,5.91,0,8.41-1.82,3.91-2.83,7.81-5.69,11.54-8.75,5.53-4.55,11.56-5.69,18.19-3.04,3.85,1.54,7.67,3.22,11.37,5.1,8.9,4.53,17.82,5.13,26.8.45,5.09-2.65,10.33-4.55,16.11-4.91,1.64-.1,3.37-.39,4.87-1.03,16.88-7.14,33.31-3.57,49.62,2.04,4.71,1.62,9.26,3.77,14.18,4.71,6.04,1.15,2.78,5.78,3.33,8.86.64,3.58-2.4,2.72-4.38,2.84-1.66.1-3.33.02-4.99.02Z"/>
  <path class="cls-34" d="M553.1,1447.98c-.19-1.13-.12-2.38-.6-3.35-2.35-4.77-.93-8.38,2.01-12.68,3.77-5.51,8.08-7.76,14.68-7.98,13.22-.43,26.3-.14,39.1,3.45,2.83.79,4.51-.01,6.48-2.06,7.85-8.14,17.36-13.26,28.63-15.09,3.2-.52,4.02.37,3.97,3.5-.2,10.65-.15,21.31-.19,31.96-24.86,2.85-49.83,3.11-74.81,2.74-6.42-.1-12.88.8-19.27-.49Z"/>
  <path class="cls-34" d="M1110.18,1509.09c-7.06,5.9-13.04,10.87-18.99,15.88-.97.82-2.06,1.03-3.24,1.01-23.02-.35-45.79,3.42-68.76,3.97-8.67.21-17.29-.06-25.84-1.74-2.68-.53-3.67-1.3-2.59-4.21,1.34-3.62,2.42-7.3,5.57-9.83,3.09-2.48,5.81-4.08,10.59-2.7,9.57,2.76,19.52.6,29.27-.24,21.71-1.87,43.34-4.89,65.22-3.27,2.46.18,4.89.62,8.77,1.13Z"/>
  <path class="cls-1" d="M1223.97,1219.21c-4.41-47.57.65-93.9,4.84-140.47,4,6.21,9.27,11.53,9.3,19.92.12,29.64.68,59.27.9,88.91.04,5.3-.78,10.61-1.23,15.91-.13,1.51-.44,2.94-1.62,4.07-3.96,3.75-7.89,7.53-12.19,11.65Z"/>
  <path class="cls-34" d="M677,1441.77c-4.65,0-9.32-.22-13.96.07-3.21.2-3.96-.93-3.83-3.95.38-8.79.62-17.6.64-26.4,0-3.48,1.89-5.22,4.33-7.2,7.08-5.76,14.67-10.36,23.83-11.72,7.21-1.07,10.53,1.66,10.47,8.78-.11,12.32-2.18,24.5-3.02,36.76-.17,2.47-1.35,2.96-3.51,2.91-4.98-.1-9.97-.03-14.96-.03,0,.26,0,.51,0,.77Z"/>
  <path class="cls-34" d="M1009.8,1501.66c5.51-6.23,10.43-11.82,15.39-17.37.71-.79,1.46-2.21,2.73-.71,4.83,5.7,11.47,5.23,17.93,5.3,13.52.14,26.83-2.1,40.23-3.42,13.41-1.32,26.82-2.72,40.32-1.64,2.46.2,4.96.23,7.65,1.5-4.07,5.41-9.1,9.7-13.84,14.25-.97.94-1.99.82-3.21.52-20.67-5.06-41.33-1.94-62,.15-14.7,1.49-29.39,3.66-45.19,1.42Z"/>
  <path class="cls-34" d="M1070.5,1540.25c-7.71,6.01-15.71,11.02-23.86,15.81-.9.53-2.27.48-3.4.38-11.3-1.01-22.64-.64-33.95-.63-10.52.01-20.93-1.14-31.37-1.99-3.35-.27-3.86-1.36-2.69-4.34,2.24-5.74,6.94-8.74,12.02-11.39.53-.28,1.38-.38,1.9-.15,8.75,3.79,17.73,1.75,26.61.97,15.41-1.35,30.79-3.55,46.28-1.08,2.75.44,5.56.75,8.45,2.42Z"/>
  <path class="cls-34" d="M476.01,1028.48c6.91,12.3,9.57,24.49,9.84,37.23.22,10.6-1.6,20.79-6.37,30.47-2.12,4.3-3.73,3.41-6.31.78-4.82-4.9-6.79-11.07-7.52-17.58-1.99-17.59,2.66-33.91,10.37-50.91Z"/>
  <path class="cls-34" d="M568.14,1513.31c7.37-4.27,14.87-5.59,22.55-6.06,19.44-1.2,38.54,1.8,57.58,5.14,2.28.4,5.79-.72,6.33,3.29.49,3.64-.88,6.57-3.8,8.68-4.21,3.04-7.97,4.65-13.37.94-7.74-5.32-17.25-5.75-26.41-6.25-9.31-.51-18.65-.54-27.96-1-5.13-.25-10.28-.86-14.92-4.74Z"/>
  <path class="cls-34" d="M429.75,1245.59c9.97,5.48,19.7,7.84,28.52,12.37,12.64,6.5,17.15,18.28,19.73,31.19.55,2.74.8,5.55,1.34,9.39-23.23-11.55-39.36-28.38-49.59-52.95Z"/>
  <path class="cls-34" d="M428.77,1176.47c9.73,4.71,18.71,8.6,27.25,13.31,11.92,6.56,15.98,18.13,17.93,30.7.53,3.38.62,6.83.99,11.15-22.3-12.88-37.51-30.49-46.18-55.15Z"/>
  <path class="cls-34" d="M528.08,1234.15c-2.96,23.87-17.93,50-35.89,62.17,0-8.37-.5-15.8.14-23.14.63-7.27,3.91-13.62,9.3-18.83,7.82-7.55,17.74-12.21,26.45-20.2Z"/>
  <path class="cls-34" d="M489.88,1229.58c-.34-7.32-1.17-13.49-.78-19.58.55-8.61,4.45-15.79,11.19-21.46,8.16-6.87,18.08-10.94,27.32-18.44-5.41,25.06-17.9,43.89-37.73,59.49Z"/>
  <path class="cls-38" d="M471.37,1162.44c-15.98-6.62-34.4-28.31-39.9-47.37,9.51,5.82,20.05,7.93,27.96,15.01,9.57,8.56,10.99,20.25,11.95,32.36Z"/>
  <path class="cls-34" d="M486.44,1160.15c-.33-6.64-1.17-12.61-.77-18.49.44-6.34,3.97-11.55,8.72-15.75,7.01-6.2,15.68-9.83,23.38-15.51-.37,14.48-15.76,38.97-31.34,49.75Z"/>
  <path class="cls-38" d="M612.9,1099.14c8.13,17.92,10.61,35.69,2.39,54.06-1.57,3.51-3,3.66-5.49.82-2.02-2.3-3.57-4.81-4.54-7.64-4.18-12.25-.31-36.72,7.64-47.24Z"/>
  <path class="cls-38" d="M611.37,1263.86c-18.26-10.54-30.49-24.82-37.55-44.83,8.14,3.96,15.66,7,22.56,11.11,12.4,7.39,14.02,19.96,15,33.72Z"/>
  <path class="cls-38" d="M654.09,1214.36c-4.21,19.92-14.42,35.05-29.75,47.28-3.24-15.53-1.77-26.24,9.87-34.49,6.21-4.4,12.8-8.26,19.88-12.79Z"/>
  <path class="cls-31" d="M783.14,1355.6c-5.99,0-11.98-.12-17.96.05-2.63.08-3.35-.81-3.45-3.39-.39-10.14-.48-10.14,9.66-10.14s19.97.13,29.95-.07c3.12-.06,3.89.9,3.9,3.93.04,9.64.17,9.64-9.62,9.64-4.16,0-8.32,0-12.48,0v-.02Z"/>
  <path class="cls-28" d="M1222.39,1273.78c-2.16-1.14-1.3-3.19-1.32-4.86-.08-9.05-.1-18.1,0-27.15.03-2.59-.61-4.17-3.49-4.02,3.53-1.19,6.31-3.4,8.97-5.97,9.47-9.13,19.07-18.12,28.63-27.14.08-.08.3,0,1.29,0-.9,10.04-1.8,20.02-2.69,30-.22,2.42-1.96,2.23-3.66,2.23-8.16-.01-16.32-.02-24.48,0-1.73,0-3.72-.59-3.66,2.48.22,11.48.28,22.96.4,34.44Z"/>
  <path class="cls-38" d="M1025.98,1567.3c-12,10.72-26.09,10.61-40.08,10.78-4.49.05-8.98-.32-13.47-.52-3.48-.15-5.06-1.36-3.86-5.3.8-2.61,1.57-5.02,3.55-6.97,1.29-1.27,2.51-2.02,4.4-1.23,9.04,3.78,18.61,3.1,28.07,3.22,6.93.09,13.86.02,21.39.02Z"/>
  <path class="cls-38" d="M607.84,1207.76c-15.02-8.97-25.68-21.17-31.83-37.91,24.17,8.24,33.67,19.58,31.83,37.91Z"/>
  <path class="cls-38" d="M646.81,1165.36c-4.08,16.85-12.49,29.8-25.5,40.27-3.58-21.55-.52-25.54,25.5-40.27Z"/>
  <path class="cls-19" d="M769.67,1312.27q0,8.6-8.59,8.6t-8.72-8.49q0-9.38,9.36-9.38,7.95,0,7.95,9.27Z"/>
  <path class="cls-31" d="M645.09,1502.85c-2.5,0-5.02.24-7.48-.06-2.93-.36-6-1.73-5.98-4.94.01-3.24,2.87-5.48,5.96-5.74,5.29-.44,10.65-.25,15.97-.07,2.78.09,4.26,2.24,4.12,4.72-.16,2.78-.92,5.81-4.59,6.08-2.65.2-5.32.04-7.99.04v-.02Z"/>
  <path class="cls-38" d="M1234.66,1255.04c0-9.08,0-9.15,9.11-9.05,6.37.07,6.29-1.51,4.97,6.11-.48,2.78-1.25,5.52-1.55,8.31-.32,3.01-1.46,4.19-4.72,4.14-7.8-.12-7.81.07-7.81-9.51Z"/>
  <path class="cls-29" d="M994.77,1583.19c-10.84,5.54-20.94,9.11-31.06,12.55-1.8.61-4.89,1.22-5.71-1.88-.81-3.03,3.46-9.37,6.46-8.93,9.77,1.41,19.04-3.1,30.31-1.74Z"/>
  <path class="cls-14" d="M694.7,1524.48c-3.63,0-7.31.72-10.87-.45-1.05-.35-2.56-.38-2.51-1.85.04-1.08,1.3-1.44,2.26-1.65,7.04-1.59,14.16-.76,21.25-.51.87.03,2.05.66,1.97,1.86-.1,1.54-1.43,2.44-2.68,2.53-3.13.23-6.28.07-9.43.07Z"/>
  <path class="cls-34" d="M833.99,758.95c1.93,16.27.82,32.62,1.09,48.93.06,3.44.55,5.17,4.55,5.88,8.49,1.5,13.9,7.8,16.77,15.12,3.45,8.82,9.86,13.41,17.55,17.81,50.88,29.13,101.59,58.56,152.37,87.87,1.11.64,2.09,1.72,4.4,1.26,0-3.13-.07-6.43.01-9.73,1.85-70.95,3.73-141.9,5.55-212.86.07-2.72.56-5.23,1.59-7.75,3.72-9.06,7.31-18.17,11.44-28.49,3.15,7.76,5.59,14.53,8.61,21.01,3.46,7.41,4.63,15.11,4.85,23.2,1.37,50.3,2.89,100.59,4.4,150.88.83,27.81,1.82,55.62,2.54,83.43.09,3.36,1.35,5.07,4.12,6.57,6,3.25,11.79,6.91,17.8,10.14,2.61,1.4,2.74,2.52,1.11,4.9-15.08,21.98-30.12,43.98-44.99,66.11-2.25,3.35-3.46,2.1-5.53.11-29.14-28.1-58.34-56.16-87.52-84.22-33.14-31.88-66.28-63.76-99.45-95.61-2.07-1.99-3.86-4.03-4.82-6.83-.63-1.86-1.71-3.62-2.84-5.26-7.82-11.36-22.55-11.64-29.14.53-5.27,9.73-13.03,16.67-20.58,24.06-44.78,43.83-88.21,88.99-132.61,133.18-13.58,13.52-27.37,26.83-40.95,40.34-2.16,2.15-3.22,2.45-5.12-.36-14.89-22.1-29.89-44.14-45.02-66.09-1.94-2.82-1.31-4.2,1.42-5.1,10.89-3.59,12.87-11.25,13.07-22.12,1.03-55.13,3.02-110.25,4.72-165.37.81-26.31,1.7-52.62,2.56-78.93.03-.99-.03-2.07.32-2.96,3.98-10.17,8.03-20.32,12.67-30.51,4.6,13.98,13.02,26.22,13.34,41.86,1.53,74.46,3.77,148.9,5.77,223.35.02.78.15,1.57.32,3.18,5.43-3.29,10.37-6.25,15.27-9.25,52.41-32.1,104.3-65.06,157.52-95.84,2.45-1.42,4.01-3.21,5.03-5.86,1.99-5.15,4.72-9.92,8.26-14.19,3.28-3.97,7.26-7.1,12.42-7.77,3.57-.46,4.05-2.1,4.1-5.21.27-16.81-.83-33.65,1.19-50.42,1.11-.59,1.37.39,1.84.98Z"/>
  <path class="cls-34" d="M681.02,1014.81c28.69-28.79,57.37-57.59,86.07-86.38,17.76-17.82,35.56-35.6,53.3-53.44.81-.81,1.26-1.98,1.58-2.51,2.53.69,1.98,1.9,2,2.75.42,20.15.78,40.31,1.21,60.46.05,2.42,0,4.33-2.66,5.74-46.78,24.81-93.51,49.73-140.25,74.62-1.11.26-1.44-.25-1.25-1.27Z"/>
  <path class="cls-34" d="M983.93,1016.03c-30.58-16.26-61.16-32.51-91.73-48.77-15.88-8.45-31.73-16.95-47.62-25.37-2.16-1.15-3.7-2.2-3.62-5.19.55-20.98.89-41.97,1.32-62.95,0-.28.26-.55.39-.82,1.32-.4,1.74.78,2.37,1.41,46.28,46.31,92.54,92.63,138.8,138.96.47.47.87,1,1.3,1.51.19,1.01-.12,1.52-1.23,1.23Z"/>
  <path class="cls-5" d="M811.23,1006.39c0-14.65.08-29.31-.06-43.96-.03-3.23.47-4.73,4.26-4.68,9.25.13,9.25-.08,9.25,9.17,0,27.98-.07,55.95.08,83.93.02,3.91-.61,5.62-5.06,5.45-8.45-.33-8.46-.06-8.46-8.44,0-13.82,0-27.64,0-41.47Z"/>
  <path class="cls-16" d="M841.71,1006.36c0-14.64.07-29.27-.06-43.91-.03-3.19.44-4.74,4.24-4.7,9.09.12,9.1-.09,9.1,9.23,0,28.11-.08,56.22.09,84.33.02,3.99-1.13,5.06-5.01,4.96-8.34-.23-8.35-.03-8.35-8.5,0-13.81,0-27.61,0-41.42Z"/>
  <path class="cls-16" d="M884.99,1014.9c0,12.16-.12,24.32.07,36.47.06,3.51-.59,5.01-4.57,4.91-8.72-.21-8.72.02-8.72-8.67,0-23.15.09-46.3-.08-69.45-.03-3.93.67-5.61,5.1-5.44,8.2.33,8.21.05,8.21,8.2,0,11.33,0,22.65,0,33.98Z"/>
  <path class="cls-16" d="M781.22,1013.9c0-12.16.1-24.32-.06-36.48-.04-3.27.56-4.73,4.31-4.68,9.02.11,9.02-.09,9.02,8.94,0,22.99-.1,45.97.09,68.96.03,4.16-.69,5.9-5.36,5.66-7.98-.4-8-.08-8-7.92,0-11.49,0-22.99,0-34.48Z"/>
  <path class="cls-5" d="M915.89,1024.92c0,8.98-.09,17.96.05,26.94.05,3.03-.52,4.42-4.05,4.42-9.42,0-9.42.18-9.42-9.46,0-16.3.09-32.6-.07-48.9-.03-3.64.56-5.33,4.83-5.18,8.65.31,8.66.04,8.66,8.72,0,7.82,0,15.63,0,23.45Z"/>
  <path class="cls-5" d="M750.33,1024.4c0-9.14.13-18.29-.07-27.43-.07-3.3.98-4.21,4.25-4.19,9.23.05,9.23-.11,9.23,9.16,0,16.46-.08,32.92.06,49.38.03,3.42-.46,5.06-4.52,4.97-8.96-.21-8.96.03-8.96-8.94,0-7.65,0-15.3,0-22.95Z"/>
  <path class="cls-27" d="M732.91,1034.09c0,6-.18,12,.07,17.99.14,3.38-1.08,4.19-4.29,4.19-9.25-.01-9.25.13-9.25-9.15,0-10.33.11-20.66-.06-30.98-.05-3.29,1.01-4.23,4.29-4.22,9.23.04,9.23-.12,9.23,9.18,0,4.33,0,8.66,0,12.99Z"/>
  <path class="cls-5" d="M933.32,1033.7c0-6,.11-12-.05-17.99-.07-2.79.86-3.7,3.7-3.78,9.82-.28,9.82-.39,9.82,9.61,0,9.99-.17,19.99.09,29.98.1,3.75-.97,4.85-4.74,4.76-8.82-.19-8.83,0-8.83-8.59,0-4.66,0-9.33,0-13.99Z"/>
  <path class="cls-5" d="M966,1042.57c0-3.65.08-7.29-.03-10.94-.07-2.16.81-2.75,2.9-2.92,10.34-.85,10.33-.91,10.33,9.45,0,4.81-.15,9.62.05,14.41.12,2.88-.99,3.59-3.73,3.66-9.53.24-9.53.34-9.53-9.2,0-1.49,0-2.98,0-4.47Z"/>
  <path class="cls-5" d="M700.25,1042.88v3.98c0,10.37,0,10.3-10.37,9.37-2.09-.19-2.91-.83-2.89-2.96.08-7.12.09-14.25,0-21.37-.03-2.37.89-3.04,3.2-3.19,10.07-.64,10.07-.71,10.07,9.2,0,1.66,0,3.31,0,4.97Z"/>
  <path class="cls-2" d="M1007.73,1048.54c0,8.52-.28,8.66-10.67,7.7-2.11-.19-3-.87-2.88-2.99.1-1.83,0-3.66.02-5.49.13-8.31-1.29-7.44,7.38-7.46,7.27-.02,6.03-.59,6.14,8.24Z"/>
  <path class="cls-18" d="M672.01,1048.46c0,7.6-3.66,10.62-11.32,7.39-4.72-1.99-1.12-7.93-1.96-12-.39-1.91.02-3.73,2.72-3.56.82.05,1.65,0,2.48,0q8.07-.04,8.07,8.18Z"/>
  <path class="cls-25" d="M833.99,758.95l-1.84-.98c-.24-2.08-.2-4.14.57-6.67,1.81,2.63,1.35,5.17,1.27,7.65Z"/>
  <path class="cls-35" d="M983.93,1016.03c.41-.41.82-.82,1.23-1.23,1.21.58,2.21,1.37,2.62,2.84-1.75.46-2.8-.57-3.85-1.61Z"/>
  <path class="cls-6" d="M681.02,1014.81c.42.42.83.84,1.25,1.27-.86,1.09-2.02,1.6-3.81,1.87.25-1.75,1.4-2.44,2.57-3.13Z"/>
  <path class="cls-8" d="M1055.06,1273.62c-7.15,0-14.31-.1-21.45.05-2.82.06-3.74-.86-3.7-3.71.15-9.81.14-19.63,0-29.44-.04-2.74.62-3.76,3.57-3.73,14.47.14,28.94.11,43.41.02,2.54-.02,3.5.65,3.46,3.34-.14,9.98-.15,19.96,0,29.94.05,3.01-1.19,3.62-3.84,3.57-7.15-.13-14.3-.04-21.45-.04Z"/>
  <path class="cls-8" d="M1152.25,1273.62c-6.16,0-12.32-.11-18.47.06-2.83.08-4.19-.44-4.12-3.76.21-9.98.14-19.97.03-29.95-.02-2.33.61-3.18,3.06-3.16,12.98.11,25.96.1,38.94,0,2.4-.02,3.15.76,3.13,3.14-.1,10.15-.13,20.3.02,30.45.04,2.86-1.26,3.28-3.62,3.25-6.32-.09-12.65-.03-18.97-.03Z"/>
  <path class="cls-31" d="M1055.69,1264.46q-13.28,0-13.27-12.07c.02-7.44-.69-6.36,6.34-6.42,4.83-.04,9.67.17,14.49-.07,3.32-.16,5.15.63,4.51,4.32-.06.32.02.67-.01,1-.35,4.25,1.85,9.67-.99,12.45-2.63,2.57-7.95.38-11.07.78Z"/>
  <path class="cls-31" d="M1152.11,1245.97q10.02,0,10.02,10.17,0,8.32-8.43,8.32-11.51,0-11.51-10.24,0-8.25,9.92-8.25Z"/>
</svg>