<?xml version="1.0" encoding="UTF-8"?>
<svg id="Layer_1" data-name="Layer 1" xmlns="http://www.w3.org/2000/svg" viewBox="0 0 1038.8 862.49">
  <defs>
    <style>
      .cls-1 {
        fill: #fefefe;
      }

      .cls-1, .cls-2, .cls-3, .cls-4, .cls-5, .cls-6, .cls-7, .cls-8, .cls-9, .cls-10, .cls-11, .cls-12, .cls-13, .cls-14, .cls-15, .cls-16, .cls-17, .cls-18, .cls-19 {
        stroke-width: 0px;
      }

      .cls-2 {
        fill: #125172;
      }

      .cls-3 {
        fill: #fdfefe;
      }

      .cls-4 {
        fill: #135172;
      }

      .cls-5 {
        fill: #f5f8f9;
      }

      .cls-6 {
        fill: #fcfdfd;
      }

      .cls-7 {
        fill: #005172;
      }

      .cls-8 {
        fill: #fafbfc;
      }

      .cls-9 {
        fill: #085676;
      }

      .cls-10 {
        fill: #f6f9fa;
      }

      .cls-11 {
        fill: #005171;
      }

      .cls-12 {
        fill: #fbfcfc;
      }

      .cls-13 {
        fill: #2c94b3;
      }

      .cls-14 {
        fill: #f4f8f9;
      }

      .cls-15 {
        fill: #fdfdfd;
      }

      .cls-16 {
        fill: #fafbfb;
      }

      .cls-17 {
        fill: #fcfcfd;
      }

      .cls-18 {
        fill: #fcfcfc;
      }

      .cls-19 {
        fill: #015172;
      }
    </style>
  </defs>
  <path class="cls-18" d="M524.23,0c92.19.31,180.36,31.93,255.24,97.78,68.62,60.35,111.18,136.05,127.08,226.22,12.92,73.3,5.19,144.61-22.07,213.88-2.01,5.1-4.48,6.88-9.98,6.72-14.49-.43-29.01-.3-43.51-.06-4.74.08-5.08-1.21-3.17-5.11,13.51-27.53,23.26-56.39,28.21-86.62,17.75-108.51-8.51-205.1-81.22-287.84-50.44-57.4-114.07-93.49-189.23-107.54-153.85-28.76-299.57,37.81-373.18,172.17-33.09,60.4-45.77,125.37-39.52,193.99,3.72,40.77,14.39,79.6,32.51,116.33,2.14,4.34.6,4.62-3.18,4.59-15.47-.13-30.94-.15-46.41.02-3.43.04-5.02-1.06-6.32-4.27-23.73-58.3-32.97-118.81-27.61-181.49,7.71-90.17,42.6-168.55,104.26-234.55,56.88-60.88,126.6-99.57,208.36-116.33,27.19-5.57,54.67-7.73,89.75-7.89Z"/>
  <path class="cls-18" d="M519.65,531.98c143.96,0,287.92.06,431.88-.04,34-.02,59.97,16.4,77.08,51.37,6.8,13.89,10.01,29.17,10.07,45.14.17,45.88.16,91.76.03,137.64-.15,50.99-36.26,94.68-79.38,96.31-1.62.06-3.23.08-4.85.08-289.94,0-579.88.01-869.82,0-40.53,0-73.65-30.97-82.5-76.97-1.44-7.48-1.97-15.06-1.95-22.74.06-42.77.83-85.58-.17-128.32-1.29-54.93,35.28-103,87.13-102.73,144.16.74,288.32.26,432.48.26Z"/>
  <path class="cls-11" d="M519.49,569.39c131.05,0,262.1.04,393.15-.03,30.95-.02,54.59,12.63,70.17,39.57,6.19,10.7,9.12,22.47,9.17,34.77.15,35.34.15,70.68.03,106.02-.13,39.28-33,72.92-72.26,74.18-1.47.05-2.94.06-4.42.06-263.94,0-527.88.01-791.82,0-36.9,0-67.05-23.86-75.1-59.28-1.31-5.76-1.79-11.6-1.78-17.51.05-32.95.76-65.91-.16-98.84-1.17-42.31,32.11-79.33,79.32-79.13,131.23.57,262.47.2,393.7.2Z"/>
  <path class="cls-7" d="M526.72,13.32c87.75.3,171.68,30.4,242.95,93.08,65.32,57.45,105.83,129.5,120.96,215.33,12.3,69.77,4.94,137.65-21,203.59-1.91,4.86-4.27,6.55-9.5,6.39-13.79-.41-27.61-.28-41.41-.05-4.51.07-4.84-1.16-3.02-4.87,12.86-26.2,22.14-53.67,26.85-82.45,16.9-103.29-8.1-195.22-77.31-273.98-48.02-54.64-108.58-88.99-180.12-102.36-146.44-27.38-285.15,35.99-355.22,163.89-31.5,57.49-43.57,119.33-37.61,184.65,3.54,38.81,13.7,75.77,30.94,110.73,2.04,4.13.57,4.4-3.02,4.37-14.73-.12-29.45-.15-44.18.02-3.26.04-4.78-1.01-6.02-4.06-22.58-55.5-31.38-113.09-26.28-172.76,7.34-85.83,40.55-160.44,99.24-223.26,54.14-57.95,120.5-94.78,198.33-110.73,25.88-5.3,52.04-7.36,85.43-7.51Z"/>
  <path class="cls-2" d="M427.5,236.34c23.22,24.21,45.24,47.18,67.27,70.14,53.37,55.64,106.7,111.31,160.21,166.82,3.54,3.67,4.29,5.69.06,9.28-6.02,5.1-11.65,10.73-17.06,16.48-2.61,2.77-3.91,1.83-5.99-.37-9.6-10.17-19.58-19.99-28.9-30.41-3.85-4.3-5.99-3.67-9.6.01-9.79,9.98-19.92,19.64-29.97,29.37-33.85,32.8-83.11,34.89-119.16,5.07-38.46-31.82-41.66-92.59-6.64-128.28,7.73-7.88,15.94-15.29,23.66-23.18,2.57-2.64,3.89-2.05,6.04.27,5.87,6.35,11.82,12.64,18.01,18.67,2.42,2.36,1.88,3.59-.25,5.59-7.38,6.93-14.68,13.94-21.85,21.09-20.72,20.68-21.51,54.47-1.84,75.26,20.92,22.11,53.92,23.56,76.24,3,11.91-10.97,23.25-22.54,34.99-33.69,2.16-2.05,1.4-3.02-.24-4.72-39.54-41.11-79.03-82.26-118.53-123.42-7.9-8.23-15.8-16.46-23.66-24.73-1.23-1.29-2.82-2.34-2.81-4.52.04-15.38.02-30.77.02-47.72Z"/>
  <path class="cls-13" d="M501.85,181.15c29.94.11,57.13,18.59,68.36,46.49,11.39,28.3,4.57,61.05-17.06,81.93-4.63,4.47-9.33,8.89-13.87,13.46-1.98,1.99-3.29,2.67-5.61.12-6.06-6.67-12.4-13.1-18.79-19.45-1.95-1.94-1.74-3.07.16-4.82,4.88-4.47,9.7-9.03,14.36-13.73,16.01-16.13,16.56-41.19,1.36-57.18-15.64-16.45-40.27-17.1-57.43-1.42-4.89,4.47-9.65,9.08-14.31,13.79-1.99,2.02-3.27,2.15-5.3-.03-6.13-6.61-12.47-13.02-18.73-19.52-1.13-1.18-2.57-2.16-.62-4.01,12.25-11.6,23.4-24.53,40-30.54,8.93-3.23,18.02-5.01,27.47-5.08Z"/>
  <path class="cls-13" d="M595.53,274.92c26.33,6.57,45.55,21.38,58.07,44.57,18.49,34.24,11.89,76.72-15.68,104.23-2.73,2.73-4.35,3.52-7.31.19-5.61-6.32-11.65-12.27-17.66-18.23-2-1.99-2.13-3.16.05-5.26,27.91-26.77,20.4-72.49-14.72-89.04-1.63-.77-2.8-1.47-2.79-3.52.05-10.81.02-21.63.02-32.96Z"/>
  <path class="cls-2" d="M241.77,319.69c13.1,4.16,24.75,8,36.5,11.52,3.55,1.06,4.08,2.51,2.75,5.82-1.17,2.92-1.45,5.2-5.85,3.71-14.57-4.97-29.3-9.48-44.03-13.99-3.38-1.04-4.33-2.15-3.36-6.02,1.52-6.07,4.65-8.95,10.77-10.37,12.81-2.97,25.43-6.79,39.63-10.67-12.14-3.81-22.87-7.44-33.76-10.47-4.83-1.34-6.05-3.13-4.08-7.88,1.24-2.99,2.32-3.32,5.19-2.37,14.97,4.95,29.98,9.77,45.05,14.39,3.01.92,3.36,1.83,2.73,4.91-1.26,6.1-4.15,9.08-10.52,10.48-13.4,2.95-26.56,7.01-41.02,10.93Z"/>
  <path class="cls-2" d="M337.77,186.57c1.32,5.75,2.6,10.73,3.54,15.77.43,2.31,1.47,2.99,3.68,2.92,4.5-.13,9.01-.04,14.95-.04-5.09,4.72-7.56,10.31-14.68,9.1-3.57-.6-2.21,2.57-2.31,4.22-.68,11.43-11.97,21.32-22.25,19.36-8.66-1.64-13.77-8.93-12.29-18.45.6-3.88.31-5.14-4.11-5.44-8.71-.59-14.06-8.11-12.31-16.11,1.85-8.46,11.97-15.9,19.06-14.01,6.9,1.84,10.1,7.3,9.78,16.33-.06,1.59-1.65,4.22,1.05,4.61,3.39.49,6.97.25,10.37-.3.97-.16.09-2.39-.41-3.48-3.11-6.7.84-10.46,5.94-14.51Z"/>
  <path class="cls-2" d="M422.42,135.6c9.65.52,14.21,3.92,16.07,11.67,1.47,6.15-1.8,13.03-8.85,16.74-6.79,3.56-14.02,6.27-20.95,9.57-2.21,1.06-2.77.21-3.53-1.59-6.39-15.17-12.84-30.3-19.28-45.44-.88-2.07-1.16-3.45,1.67-4.5,6.17-2.29,12.07-5.28,18.23-7.6,9.69-3.66,17.69.07,20.14,8.88,1.29,4.63-.98,8.13-3.5,12.26Z"/>
  <path class="cls-2" d="M229.91,466.26c0-15.74,8.24-25.13,22.85-28.25,12.35-2.63,25.16,4.05,30.18,16.58,2.84,7.1,4.38,14.71,6.59,22.07.82,2.71-1.06,3.13-2.82,3.61-15.71,4.28-31.44,8.5-47.15,12.8-1.55.43-2.88.94-3.38-1.18-2.19-9.24-5.8-18.17-6.28-25.63Z"/>
  <path class="cls-2" d="M623.64,168.06c-10.91-.01-19.8-6.16-29.53-9.76-2.35-.87-.94-2.5-.48-3.59,6.25-15.08,12.63-30.1,18.88-45.18.99-2.39,2.12-2.91,4.53-1.82,6.35,2.87,12.96,5.21,19.17,8.32,12.11,6.08,17.47,17.78,14.33,30.3-3.4,13.58-13.38,21.64-26.89,21.73Z"/>
  <path class="cls-2" d="M765.88,286.94c-5.16,7.53-10.21,14.9-15.32,22.37-6.36-8.71-6.35-8.89-.37-16.86,2.86-3.82,5.44-7.89,8.59-11.45,2.61-2.94,1.59-5.46-.09-7.92-2-2.93-3.92.01-5.61.68-4.59,1.82-9.08,3.94-13.48,6.2-4.03,2.07-4.08-1.28-5.05-3.4-.89-1.94-3.09-3.73.77-5.47,14.86-6.72,29.6-13.71,44.33-20.72,2.03-.96,3.22-1.2,4.26,1.2,2.99,6.89,6.88,13.41,8.95,20.66,1.61,5.64,1.96,11.44-2.78,15.94-4.48,4.25-9.79,6.28-16.14,4.65-3.4-.87-5.33-3.58-8.06-5.87Z"/>
  <path class="cls-2" d="M505.52,146.49q-10.82,2.84-16.66-4.98c-2.86-3.83-6.04-7.46-8.48-11.53-2.12-3.54-4.8-2.69-7.57-1.87-3.27.97-1.02,3.39-.86,5,.5,4.93,1.27,9.83,2.17,14.71.69,3.72-1.39,4.38-4.31,4.54-2.67.15-5.11,1.21-5.69-3.36-1.98-15.84-4.45-31.61-6.92-47.38-.4-2.56.01-3.86,2.65-4.12,7.3-.71,14.44-2.72,21.83-2.68,8.49.05,13.75,3.45,15.78,10.2,2.44,8.12.45,13.94-7.13,18.67-2.96,1.85-1.06,2.78-.02,4.07,4.93,6.12,9.9,12.22,15.2,18.74Z"/>
  <path class="cls-2" d="M766.52,339.76c1.32,7.23,2.46,14.5,4.06,21.66.69,3.1-.29,4.06-3.08,4.16-2.19.07-4.91,2.37-5.69-2.15-1.77-10.31-3.82-20.58-5.89-30.84-.53-2.63.41-3.47,2.9-3.94,16.06-3.01,32.09-6.16,48.12-9.31,2.01-.39,2.94.08,3.34,2.28,1.85,10.3,3.81,20.58,5.89,30.84.63,3.1-1.65,3.09-3.23,3-1.86-.1-4.76,2.87-5.57-1.54-1.22-6.68-2.85-13.29-3.82-20.01-.49-3.38-1.62-3.61-4.65-2.99-9.23,1.9-9.29,1.75-7.68,11,.63,3.62,1.19,7.27,2.19,10.79,1.14,4-.31,5.35-4.19,6.08-4.4.83-4.24-1.8-4.72-4.62-.95-5.61-2.16-11.18-3.23-16.77-.24-1.24-.07-2.93-1.96-2.64-3.99.62-7.95,1.43-11.89,2.28-1.56.34-1.08,1.64-.9,2.7Z"/>
  <path class="cls-4" d="M817.98,407.5c-.39,5.87-.95,11.74-1.09,17.62-.09,3.65-2.25,3.08-4.46,2.78-2.14-.3-4.93.54-4.54-3.52.62-6.4.58-12.87,1.23-19.27.36-3.55-.89-4.27-4.16-4.39-9.02-.34-9.01-.5-9.59,8.59-.24,3.67-.76,7.34-.72,11.01.04,3.45-.43,5.17-4.73,5.1-4.58-.07-4.5-2.29-4.25-5.5.43-5.5.58-11.02,1.09-16.51.27-2.89-.69-3.63-3.56-3.86-11.54-.91-11.49-1.04-11.93,10.75-.16,4.22-.8,8.45-.71,12.66.08,3.72-1.48,4.11-4.66,3.78-2.87-.29-4.78-.32-4.44-4.21.88-10.07,1.45-20.18,1.89-30.28.13-2.94,1.07-3.69,3.91-3.52,15.97.98,31.95,1.83,47.93,2.62,2.86.14,3.85,1.18,3.51,4.06-.48,4.01-.63,8.07-.92,12.1.07,0,.13,0,.2.01Z"/>
  <path class="cls-2" d="M574.88,152.06c-10.73-.42-10.92-.37-13.28-9.9-.81-3.27-2.32-4.62-5.47-4.81-2.74-.17-5.48-.49-8.21-.89-10.49-1.54-10.58-1.61-15.83,7.6-3.3,5.78-7.68,1.61-12.69,2.03,5.63-9.9,10.82-19.02,16.02-28.13,3.99-7,8.17-13.9,11.9-21.04,1.64-3.15,3.85-3.1,6.75-3.05,3.01.05,4.12,1.56,4.86,4.07,5.25,17.91,10.55,35.81,15.95,54.13Z"/>
  <path class="cls-4" d="M241.02,365.51c5.33,0,10.67-.16,16,.03,11.55.42,19.73,9.31,19.89,21.43.18,12.89-7.84,22.43-19.76,22.67-11.21.23-22.43-.37-33.64-.35-4.75,0-3.41-3.2-3.52-5.7-.11-2.45-.3-4.44,3.62-4.24,10.46.51,20.96.53,31.44.49,7.2-.02,11.86-4.18,12.51-10.62.81-7.96-3.96-13.57-12.02-13.86-10.29-.37-20.58-.72-30.88-.73-3.79,0-4.58-1.35-4.36-4.84.2-3.33.36-5.55,4.75-5.21,5.29.42,10.65.1,15.98.1v.83Z"/>
  <path class="cls-2" d="M691.64,150.11c8.91.09,19.12,7.78,21.68,16.18.66,2.17.67,3.52-2.07,3.77-3.72.34-7.77,2.31-8.86-4-.44-2.56-3.19-4.45-5.68-5.72-2.98-1.52-6-1.87-8.63.79-2.45,2.47-2.37,5.27-.71,8.08,1.77,3,3.68,5.92,5.54,8.87,4.81,7.65,4.58,14.17-.72,20.24-5.2,5.96-12.87,7.45-20.54,3.76-7.07-3.4-12.36-8.45-14.42-16.37-.6-2.29-.77-4.28,2.23-4.12,2.6.14,6.53-3.16,7.56,1.99.99,4.97,3.62,8.35,8.2,10.2,2.89,1.17,5.79,1.13,8.23-1.15,2.51-2.35,2.65-5.34,1.23-8.11-1.92-3.74-4.42-7.18-6.5-10.84-6.49-11.45.54-23.7,13.46-23.57Z"/>
  <path class="cls-4" d="M731.85,192.85q6.61-5.99,12.11.89c6.43,8.04,12.69,16.24,19.41,24.04,2.81,3.26.89,4.37-1.2,6.42-2.6,2.54-3.94,1.8-5.96-.73-2.56-3.22-4.41-8.79-8.24-8.75-3.21.03-6.41,4.39-9.55,6.91-7.74,6.22-15.6,12.3-23.09,18.81-3.39,2.95-4.42.69-6.24-1.5-1.93-2.33-3.39-3.77.13-6.44,9.81-7.44,19.1-15.56,28.87-23.07,3.67-2.82,3.91-4.84.69-8.05-2.59-2.57-4.64-5.67-6.92-8.53Z"/>
  <path class="cls-4" d="M811.24,460.6c-.68,2.11-1.37,4.2-2.01,6.3-3.04,9.99-6.28,19.92-8.97,29.99-1.02,3.81-2.62,3.25-5.46,2.52-3.16-.82-4.28-1.89-3.18-5.3,1.29-4.03,4.9-8.91,2.53-12.1-2.03-2.73-7.63-2.79-11.66-4.03-9.28-2.85-18.51-5.91-27.87-8.46-3.96-1.08-3.22-2.99-2.19-5.62.94-2.39.57-5.46,5.13-3.93,12.15,4.08,24.51,7.5,36.71,11.43,3.19,1.03,4.6.52,5.27-2.82.58-2.86,1.7-5.6,2.54-8.41.4-1.35.27-3.5,2.1-3.31,2.29.24,4.49,1.34,6.69,2.2.27.11.25.97.37,1.52Z"/>
  <path class="cls-3" d="M577.93,657.38c0-17.65.06-35.3-.06-52.94-.02-3.21.26-4.82,4.28-4.88,4.35-.06,4.15,2.11,4.14,5.07-.05,20.06.03,40.13-.11,60.19-.01,2.03,1.68,5.61-1.85,5.88-3.49.27-7.63,2.04-10.54-2.23-7.99-11.69-16.17-23.24-24.27-34.84-4.82-6.91-9.65-13.82-15.5-22.21,0,5.16,0,8.7,0,12.23,0,13.62.06,27.24-.05,40.86-.02,2.85,1.74,6.71-4.21,6.61-5.58-.1-3.92-3.68-3.94-6.37-.09-19.51-.1-39.02.03-58.53.01-2.12-1.57-5.78,1.35-6.16,3.76-.48,8.2-2.08,11.39,2.67,8.7,12.97,17.78,25.7,26.71,38.51,3.86,5.54,7.74,11.06,11.62,16.58l1.02-.45Z"/>
  <path class="cls-3" d="M706.14,737.25c0-10.3.12-20.61-.07-30.91-.06-3.41.57-4.95,4.45-4.74,8.99.48,18.03-.45,27.02.6,19.25,2.24,31.65,16.82,30.92,36.34-.74,19.8-13.79,33.61-33,34.49-8.63.4-17.3-.04-25.94.2-3.27.09-3.44-1.43-3.42-3.96.1-10.67.04-21.34.04-32.02Z"/>
  <path class="cls-1" d="M364.51,751.2c0,2.94,0,5.89,0,8.83,0,9.06,0,9.09-8.94,12.01-11.35,3.7-22.74,4.33-33.99-.22-15.22-6.16-24.19-22.74-21.62-39.51,2.73-17.84,16.09-30.68,33.46-32.04,9.57-.75,18.75.39,26.69,6.43,1.39,1.06,4.32,2.36,1.37,4.45-1.95,1.39-2.42,6.34-7.06,2.71-10.41-8.13-24.09-7.99-34.24-.33-10.36,7.82-14.28,22.5-9.41,35.3,4.52,11.89,16.13,19.13,29.2,18.21,15.13-1.07,16.03-2.02,16.03-16.91,0-1.47-.15-2.96.03-4.41.42-3.4-.51-5.14-4.37-4.65-2.53.32-5.15-.09-7.72.1-3.01.22-4.57-.22-4.59-4.01-.02-3.98,1.92-3.94,4.73-3.88,5.33.12,10.69.29,16-.05,3.86-.25,4.68,1.3,4.49,4.74-.25,4.4-.06,8.83-.06,13.24Z"/>
  <path class="cls-3" d="M613.94,740.49c6.73,10.97,13.12,21.38,19.6,31.94q-9.36,1.65-13.76-5.73c-4.43-7.39-8.92-14.75-13.4-22.12-1.69-2.79-9.4-4.93-12.02-3.35-1.42.86-.86,2.3-.86,3.49-.05,8.27-.22,16.54.06,24.8.12,3.58-1.52,3.82-4.26,3.67-2.4-.13-4.6.45-4.57-3.44.17-21.5.13-43,.02-64.5-.02-3.09,1.26-3.67,3.94-3.61,7.89.17,15.79-.16,23.67.68,11.75,1.24,17.95,6.47,18.99,16.2,1.16,10.87-3.52,17.61-14.75,21.26-.69.22-1.4.38-2.67.72Z"/>
  <path class="cls-1" d="M309.28,634.99c0-10.29.09-20.57-.06-30.86-.04-3.06.32-4.72,4.06-4.47,10.42.67,20.95-1.09,31.3,1.1,17.78,3.76,27.93,18.2,26.87,37.95-.91,17.1-13.41,30.46-30.68,31.86-9.31.76-18.72.18-28.08.43-3.23.09-3.48-1.53-3.46-4.05.08-10.65.03-21.31.03-31.96Z"/>
  <path class="cls-3" d="M210.34,740.56c6.64,10.82,13.13,21.39,19.67,32.05-6.89,1.89-11.18.07-14.33-6.32-3.71-7.54-8.57-14.51-12.95-21.72-1.76-2.9-9.13-4.88-11.95-3.28-1.7.97-.99,2.61-1,3.94-.07,8.09-.21,16.18.04,24.26.11,3.52-1.58,3.68-4.3,3.73-2.84.05-4.22-.34-4.2-3.78.16-21.32.08-42.64.09-63.95,0-1.76-.49-3.86,2.47-3.82,9.54.1,19.16-.69,28.57,1.24,10.09,2.06,14.98,7.63,15.42,16.61.51,10.24-3.42,16.04-13.27,19.58-1.2.43-2.42.83-4.27,1.45Z"/>
  <path class="cls-15" d="M243.41,737.62c0-10.49.09-20.97-.06-31.46-.04-3.07.34-4.65,4.08-4.58,12.32.24,24.65.17,36.97.03,3.09-.03,4.13.9,4.14,4.06.01,3.19-1.07,4.09-4.13,4.04-9.38-.15-18.77.1-28.14-.14-3.47-.09-4.45,1.03-4.25,4.37.27,4.58.34,9.21-.02,13.79-.3,3.91,1.4,4.5,4.76,4.42,8.27-.2,16.56,0,24.83-.1,2.69-.03,4.47.05,4.38,3.69-.08,3.4-1.06,4.37-4.45,4.27-8.27-.25-16.56.06-24.83-.15-3.38-.09-4.95.53-4.7,4.41.36,5.68.25,11.41.03,17.1-.12,3.1.83,4.09,3.98,4.03,9.93-.19,19.87.07,29.8-.15,3.37-.08,4.36.83,4.37,4.26,0,3.54-1.64,3.69-4.35,3.67-12.69-.09-25.39-.2-38.08.06-3.86.08-4.47-1.34-4.41-4.72.19-10.3.07-20.6.07-30.9Z"/>
  <path class="cls-1" d="M524.81,737.64c0-10.48.17-20.97-.09-31.45-.09-3.73,1.12-4.64,4.67-4.58,11.77.2,23.54.12,35.31.04,2.85-.02,4.81,0,4.8,3.92-.01,3.7-1.51,4.15-4.59,4.1-9.19-.16-18.39.08-27.59-.12-3.41-.07-4.53,1.04-4.34,4.41.26,4.4.29,8.84,0,13.23-.26,3.77.8,5.15,4.81,5.01,8.45-.31,16.92.04,25.38-.16,3.19-.08,3.95,1,3.99,4.04.04,3.22-1.09,3.99-4.11,3.93-8.64-.18-17.29.05-25.93-.12-3.03-.06-4.27.69-4.13,3.96.25,5.88.25,11.78,0,17.65-.14,3.31,1.21,3.95,4.18,3.91,9.93-.15,19.86.05,29.79-.12,3.14-.05,4.58.45,4.49,4.12-.08,3.36-1.35,3.83-4.23,3.8-12.69-.13-25.38-.22-38.07.05-3.87.08-4.47-1.34-4.4-4.71.19-10.3.07-20.6.07-30.9Z"/>
  <path class="cls-1" d="M647.27,737.53c0-10.48.11-20.97-.07-31.45-.05-3.26.71-4.54,4.26-4.47,12.14.21,24.28.18,36.42.01,3.14-.04,4.08.92,4.08,4.05,0,3.13-.95,4.07-4.07,4.01-9.38-.18-18.76.07-28.14-.13-3.41-.07-4.51,1.04-4.31,4.41.27,4.4.3,8.84,0,13.23-.26,3.76.8,5.16,4.81,5.01,8.45-.31,16.92.03,25.38-.16,3.08-.07,4.07.8,4.05,3.96-.02,3.09-.86,4.09-4.02,4.01-8.64-.2-17.29.09-25.93-.15-3.42-.09-4.47.92-4.3,4.33.28,5.5.27,11.04,0,16.55-.17,3.54.82,4.79,4.55,4.69,9.74-.26,19.49-.06,29.24-.11,2.66-.01,4.9-.39,4.83,3.76-.06,3.63-1.32,4.17-4.48,4.13-12.69-.16-25.38-.18-38.07.01-3.36.05-4.4-.8-4.33-4.25.23-10.48.08-20.97.08-31.45Z"/>
  <path class="cls-1" d="M655.68,672.79c-6.98-.06-13.52-1.5-18.81-6.42-1.45-1.35-4.31-3.01-.96-4.97,2.05-1.2,3.2-6.05,7.29-1.81,5.83,6.05,14.06,7.04,21.3,3.45,4.44-2.2,7.27-5.61,7.3-10.76.03-5.04-2.82-8.26-7.25-10.05-5.1-2.05-10.37-3.69-15.47-5.74-10.14-4.07-14.2-10.01-13.6-19.54.53-8.45,6.42-15.5,15.56-17.84,9.08-2.32,17.92-1.81,25.59,4.37,1.09.88,4.17,2.16,1.34,4-2.04,1.32-2.97,6.65-7.18,2.65-5.84-5.55-12.64-5.25-19.51-2.52-4.27,1.7-6.65,5.19-6.81,9.85-.17,4.74,2.16,8.18,6.44,9.98,5.23,2.2,10.62,4,15.92,6.05,8.12,3.15,13.86,8.19,14,17.7.2,13.11-9.65,21.59-25.13,21.6Z"/>
  <path class="cls-1" d="M473.17,626.08c0,7.54.39,15.11-.08,22.63-.98,15.45-11.16,24.24-27.22,24.07-15.02-.16-25.26-9.45-25.8-24.42-.55-15.08-.13-30.18-.4-45.27-.07-3.95,2.24-3.24,4.59-3.39,2.61-.16,3.98.29,3.94,3.48-.18,12.7-.12,25.4-.03,38.1.02,3.11.25,6.27.84,9.32,1.82,9.47,8.24,14.49,17.97,14.37,9.3-.11,15.58-5.32,17.24-14.61.61-3.42.88-6.94.91-10.42.11-11.96.14-23.93-.03-35.89-.05-3.19.53-4.5,4.14-4.46,3.49.03,4.34,1.08,4.23,4.4-.24,7.36-.07,14.72-.07,22.09-.08,0-.15,0-.23,0Z"/>
  <path class="cls-1" d="M430.56,700.08c6.07-.14,11.7,1.27,16.44,5.17,1.21,1,4.54,2.15,1.69,4.37-1.9,1.48-3.01,6.39-7.23,2.42-5.23-4.92-11.57-5.12-18.06-2.98-4.78,1.58-7.6,4.9-8.02,10.08-.41,5.09,2.02,8.54,6.42,10.5,4,1.79,8.21,3.14,12.35,4.6,14.04,4.94,19.14,11.96,17.08,23.57-1.86,10.46-11.94,17.55-24.87,17.18-6.9-.2-13.57-1.58-18.73-6.67-1.09-1.08-4.5-2.52-1.33-4.43,2.11-1.27,3.25-6.69,7.63-2.18,6.03,6.2,16.03,7.07,22.8,2.68,4.03-2.61,6.09-6.18,5.68-11.11-.38-4.61-3.02-7.38-7.07-8.95-4.61-1.79-9.33-3.28-13.95-5.05-12.21-4.68-16.53-11.3-14.77-22.41,1.47-9.29,10.05-16.04,21.19-16.65.92-.05,1.84-.09,2.76-.13Z"/>
  <path class="cls-17" d="M490.58,741.91c0,9.02-.17,18.04.08,27.05.1,3.49-1.01,4.34-4.35,4.31-3.19-.03-4.45-.59-4.41-4.2.2-18.03-.06-36.07.2-54.11.07-4.43-1.26-5.68-5.5-5.37-4.94.35-9.94-.05-14.9.13-2.95.11-3.3-1.41-3.19-3.76.11-2.2-.41-4.37,3.16-4.34,16.38.13,32.76.13,49.14,0,3.49-.03,3.13,1.96,3.27,4.24.18,2.77-.55,4.03-3.63,3.88-4.96-.24-9.96.26-14.9-.16-4.35-.36-5.19,1.33-5.07,5.28.28,9.01.09,18.03.09,27.05Z"/>
  <path class="cls-6" d="M819.73,706.8c0,9.55.05,19.1-.04,28.66-.02,1.9,1.18,4.7-2.73,4.59-3.98-.11-2.42-3.03-2.44-4.8-.13-11.03-.14-22.06,0-33.09.02-1.8-1.54-4.79,2.27-5.03,2.98-.19,5.44-.25,6.9,3.55,3.4,8.88,7.44,17.52,11.25,26.25.42.95.99,1.84,1.85,3.4,4.49-10.18,8.97-19.56,12.71-29.22,1.53-3.95,3.92-4.41,7.18-3.94,3.67.52,1.84,3.55,1.87,5.31.19,11.21.14,22.43.05,33.64-.01,1.52,1.11,3.82-2.16,3.95-3.29.13-2.87-1.96-2.87-3.97,0-7.9.04-15.81-.04-23.71-.02-1.69.62-3.55-1.07-5.72-4.35,10.07-8.5,19.73-12.7,29.36-.68,1.56-.61,3.83-3.12,3.95-2.7.13-2.53-2.39-3.18-3.86-4.34-9.81-8.5-19.7-12.73-29.57-.33.08-.67.17-1,.25Z"/>
  <path class="cls-17" d="M391.35,737.81c0,10.49-.12,20.99.07,31.48.06,3.16-.9,4.19-4.01,3.94-2.61-.21-4.87.4-4.83-3.78.21-21.17.17-42.34.02-63.51-.03-3.44,1-4.4,4.37-4.37,3.18.04,4.55.58,4.46,4.22-.25,10.67-.09,21.35-.09,32.03Z"/>
  <path class="cls-12" d="M688.34,616.25c.08-12.56,9.91-22.22,22.48-22.12,12.53.1,22.33,9.9,22.39,22.36.05,12.57-10.29,22.73-22.88,22.49-12.5-.24-22.07-10.14-21.99-22.72Z"/>
  <path class="cls-17" d="M788.79,721.1c0-4.97-.21-9.95.07-14.91.2-3.5-1.11-4.59-4.43-4.3-2.56.22-5.15.01-7.73.03-1.68.01-2.19-.88-2.17-2.43.02-1.55.54-2.39,2.22-2.38,9.57.02,19.14.02,28.71,0,1.56,0,2.34.5,2.39,2.2.05,1.89-.66,2.76-2.56,2.62-.37-.03-.74-.01-1.1,0q-10.47.51-10.47,10.88c0,7.91-.02,15.83.01,23.74,0,1.96.08,3.63-2.77,3.5-2.73-.13-2.14-1.97-2.16-3.5-.05-5.15-.02-10.31-.02-15.46Z"/>
  <path class="cls-5" d="M612.46,650.57c-2.75,0-5.51-.16-8.24.04-2.9.21-4.18-.46-4.19-3.8,0-3.49,1.58-3.81,4.35-3.74,5.68.14,11.36.19,17.04-.02,3.09-.11,3.57,1.3,3.68,3.94.13,3.02-1.07,3.8-3.84,3.62-2.92-.2-5.86-.04-8.79-.04Z"/>
  <path class="cls-14" d="M394.08,650.57c-2.74,0-5.48-.1-8.22.03-2.8.13-4.77.12-4.63-3.84.13-3.49,1.65-3.75,4.37-3.68,5.48.13,10.96.19,16.43-.02,3.11-.12,4.08.92,4.11,4.03.03,3.07-1.18,3.71-3.86,3.52-2.73-.19-5.48-.04-8.22-.04Z"/>
  <path class="cls-5" d="M499.1,650.57c-2.56,0-5.12-.06-7.67.02-2.47.07-4.51.32-4.48-3.46.03-3.68,1.61-4.16,4.65-4.07,5.66.17,11.33.22,16.98,0,3.49-.14,3.06,1.97,3.23,4.21.2,2.68-.79,3.52-3.4,3.35-3.09-.2-6.21-.05-9.31-.05Z"/>
  <path class="cls-15" d="M325.91,214.17c.37,0,.78-.11,1.1.02,2.35.92,6.27-2.25,7.12,2.28,1.03,5.48-2.6,10.82-7.74,11.62-4.31.67-7.62-1.17-8.98-5.4-2.13-6.66-.18-8.51,8.5-8.51Z"/>
  <path class="cls-8" d="M312.91,199.14c-.02,4.18-.34,6.9-4.74,6.51-3.83-.34-7.29-1.26-7.12-5.75.14-3.74,2.35-6.73,6.57-6.67,4.34.07,5.1,3.4,5.29,5.9Z"/>
  <path class="cls-15" d="M428.87,150.78c-.14,1.66-1.02,3.43-2.56,4.85-3.88,3.57-9.22,6.91-13.53,6.16-4.06-.71-4.03-7.85-6.35-11.89-1.07-1.86.52-2.35,1.52-2.76,3.89-1.59,7.77-3.33,11.82-4.37,4.87-1.26,9.22,2.61,9.09,8.02Z"/>
  <path class="cls-17" d="M417.46,128.9c-.19,1.99-.85,3.91-2.48,5.24-1.26,1.03-2.63,2.07-4.13,2.63-2.82,1.05-6.51,4.32-8.25,2.65-2.66-2.56-3.5-7.03-5.05-10.71-.17-.39-.07-1.07.17-1.44,1.53-2.35,13.35-5.4,15.9-4.14,2.35,1.16,3.36,3.24,3.84,5.76Z"/>
  <path class="cls-1" d="M239.25,467.07c-.08-9.78,4.29-15.65,12.69-18.32,8.73-2.77,15.87-.52,20.78,6.57.31.45.61.92.89,1.38,2.52,4.12,5.02,9,4.47,13.28-.72,5.56-7.45,3.94-11.48,5.39-6.51,2.35-13.44,3.53-20.05,5.66-3.2,1.03-4.26.03-4.91-2.83-.93-4.1-2.3-8.1-2.39-11.13Z"/>
  <path class="cls-1" d="M641.17,138.85c.01,14.28-11.05,22.66-24.91,18.85-11.97-3.29-12-3.34-7.28-14.51,2.85-6.75,6.03-13.38,8.44-20.28,1.47-4.19,3.31-4.32,6.74-2.56,3.74,1.92,7.76,3.27,11.02,6.08,3.81,3.29,6.06,7.29,5.99,12.42Z"/>
  <path class="cls-15" d="M784.65,275.85c.09,4.18-2.95,7.3-7.14,7.31-3.91.01-11.05-8.88-11.37-14.16-.08-1.24,10.23-7.23,12.2-7.1,1.73.12,6.22,10.06,6.31,13.95Z"/>
  <path class="cls-6" d="M471.29,119.42c-4.57-1.76-2.79-7.77-2.96-11.64-.28-6.41,5.89-3.52,9.08-3.97,7.5-1.07,10.55,1.24,10.74,6.67.19,5.41-4.52,8.2-16.86,8.95Z"/>
  <path class="cls-16" d="M557.89,129.11c-6-.73-11.06-1.34-16.81-2.03,3.65-7.18,6.99-13.77,10.91-21.49,2.13,8.51,3.93,15.7,5.9,23.52Z"/>
  <path class="cls-7" d="M714.65,737.25c0-7.73.13-15.47-.06-23.19-.08-3.2.57-4.71,4.2-4.52,7.51.4,15.1-.56,22.49,1.58,12.05,3.48,18.2,12.64,18.05,26.91-.14,13.72-6.66,22.96-18.55,26.07-7.78,2.03-15.74,1.02-23.63,1.25-2.99.09-2.48-2.05-2.48-3.79-.03-8.1-.01-16.2-.02-24.3Z"/>
  <path class="cls-7" d="M593.48,721.43q0-12.36,12.57-11.72c2.74.15,5.54.28,8.17.96,5.77,1.49,8.14,5.18,8.19,11.35.05,5.81-3.3,8.68-8.33,10.07-5.91,1.64-12,1.12-18.04,1.25-2.46.05-2.61-1.27-2.57-3.11.06-2.93.02-5.87.02-8.8Z"/>
  <path class="cls-7" d="M317.66,635.38c0-7.9.1-15.8-.05-23.69-.05-2.89.47-4.41,3.86-4.2,6.94.43,13.94-.53,20.86.98,13.45,2.94,20.69,13.12,20.22,28.59-.42,14.06-8.5,23.82-21.8,25.48-6.53.81-13.2.47-19.79.77-2.79.13-3.36-1.22-3.33-3.68.1-8.08.04-16.16.04-24.24Z"/>
  <path class="cls-7" d="M189.78,721.15q-.05-11.88,11.84-11.48c2.74.1,5.52.23,8.2.77,5.77,1.17,9.04,5.18,9.12,10.74.08,5.82-2.83,9.51-8.75,11-5.76,1.45-11.65,1.07-17.51,1.16-2.12.03-2.98-.74-2.92-2.84.08-3.12.02-6.23.02-9.35Z"/>
  <path class="cls-19" d="M729.25,616.45c-.02,10.64-8.25,19.27-18.45,19.34-10.19.06-18.49-8.48-18.62-19.19-.13-10.6,8.15-19.21,18.47-19.2,10.38.01,18.62,8.45,18.6,19.06Z"/>
  <path class="cls-10" d="M721.47,629.06c-2.43.98-4.12.67-5.28-1.55-.68-1.3-1.45-2.57-2.36-3.71-1.71-2.13-2.25-6.38-6.06-5.16-3.41,1.09-.87,4.72-1.62,7.08-.42,1.34,1.04,3.57-1.68,3.81-3.03.27-2.43-2.03-2.44-3.75-.04-6.25.08-12.49-.06-18.74-.06-2.78.73-4.13,3.72-3.86,3.46.31,6.95-.35,10.4.65,3.04.88,4.66,2.87,5.08,5.82.41,2.92-.23,6.04-3.07,7.05-4.02,1.43-2.82,3.12-1.19,5.43,1.58,2.23,3,4.56,4.54,6.92Z"/>
  <path class="cls-9" d="M708.66,615.32c-3.18.82-2.27-2.29-2.58-4.81-.46-3.78,1.46-4.26,4.5-4,3.17.27,6.83.11,6.5,4.64-.33,4.43-4.2,3.69-8.42,4.17Z"/>
</svg>