<?xml version="1.0" encoding="UTF-8"?>
<svg id="Layer_1" data-name="Layer 1" xmlns="http://www.w3.org/2000/svg" viewBox="0 0 2057.75 951.84">
  <defs>
    <style>
      .cls-1 {
        fill: #dddb00;
      }

      .cls-1, .cls-2, .cls-3, .cls-4 {
        stroke-width: 0px;
      }

      .cls-2 {
        fill: #fbc200;
      }

      .cls-3 {
        fill: #016ca9;
      }

      .cls-4 {
        fill: #006ca8;
      }
    </style>
  </defs>
  <path class="cls-4" d="M1002.65,951.84c.08-3.94.44-7.9.16-11.82-.26-3.78.82-4.99,4.8-4.93,15.29.24,30.58.08,45.88.07,1.55,0,3.11.09,4.63-.11,5.55-.71,9.53-5.23,9.36-10.5-.17-5.34-4.3-9.72-9.96-9.85-10.13-.24-20.28.04-30.41-.2-15.37-.36-26.32-13.69-23.65-28.52,1.93-10.72,11.29-19.41,22.2-19.6,19.07-.32,38.15-.08,57.22-.18,2.46-.01,3.13.82,3.26,3.24.75,13.46.82,13.45-12.62,13.45-14.26,0-28.52.03-42.79,0-3.98-.01-7.17,1.23-8.5,5.25-1.69,5.12,1.91,9.55,8.09,9.67,9.1.19,18.22-.05,27.32.17,15.4.36,26.02,9.25,28.2,23.33,1.98,12.8-5.83,24.52-19.64,29.5-.6.22-1.11.68-1.66,1.02h-61.9Z"/>
  <path class="cls-4" d="M1127.48,951.84c.1-21.46.17-42.91.35-64.37.02-2.78-1.38-2.99-3.53-2.97-8.25.06-16.5-.14-24.75.09-3.46.1-4.28-1.08-4.29-4.4-.06-13.28-.17-13.27,12.82-13.27,21.48,0,42.97.1,64.45-.09,4.06-.04,5.67.68,5.57,5.23-.28,12.46-.05,12.46-12.68,12.46-5.16,0-10.32.21-15.46-.07-3.58-.19-4.69.94-4.66,4.58.17,19.41.09,38.82.06,58.22,0,1.53-.22,3.06-.34,4.59h-17.54Z"/>
  <path class="cls-3" d="M970.67,951.84c-.08-27.27-.13-54.55-.28-81.82-.01-2.59,1.07-3.03,3.37-3.15,14.24-.76,14.22-.81,14.25,13.44.05,23.84.14,47.69.21,71.53h-17.54Z"/>
  <path class="cls-4" d="M1355.47,951.84c-.05-24.05-.11-48.1-.15-72.16-.02-13.07,0-12.95-13.35-12.85-3.39.02-4.33,1.01-4.3,4.35.16,16.84.09,33.68.04,50.52,0,1.61.57,3.35-.75,5.32-1.14-1.51-2.18-2.79-3.12-4.14-8.89-12.86-17.69-25.79-26.68-38.58-4.03-5.74-6.62-13.86-12.54-16.53-5.89-2.65-13.83-.58-20.86-.92-3.66-.18-4.63,1.08-4.61,4.65.14,24.91.08,49.83.05,74.74,0,1.87-.26,3.74-.4,5.61h17.54c1.05-13.16.22-26.35.44-39.52.11-6.64.02-13.28.02-19.77,1.7-.49,1.96.53,2.38,1.14,12.78,18.46,25.55,36.94,38.3,55.42.56.82,1.41,1.55,1.16,2.73h26.82Z"/>
  <path class="cls-4" d="M922.2,912.53c-2.13-2.42-2.27-3.83-.05-6.31,10.52-11.78,20.83-23.75,31.16-35.7.8-.93,2.37-1.57,1.75-3.61-6.28,0-12.62.13-18.96-.06-2.87-.09-4.77.9-6.6,3.05-7.68,9.02-15.5,17.92-23.34,26.8-.92,1.04-1.46,2.76-3.63,2.7v-19.58c0-13.38,0-13.26-13.65-12.99-3.24.06-4,1.08-3.98,4.16.13,26.95.11,53.9.14,80.85h17.54v-32.22c1.46-.83,1.89.45,2.47,1.11,8.56,9.76,17.1,19.54,25.61,29.34.41.47.54,1.18.81,1.77h24.76c-11.32-13.12-22.57-26.3-34.02-39.31Z"/>
  <path class="cls-4" d="M408.41,689.36c0-39.68-.22-79.37.06-119.05.47-66.28,46.14-122.29,110.93-136.52,10.29-2.26,20.72-3.05,31.23-3.04,58.45,0,116.9.06,175.34-.12,4.72-.01,5.61,1.39,5.56,5.76-.24,19.58-.23,39.17,0,58.75.05,4.2-1.28,5.04-5.21,5.03-46.59-.13-93.17-.33-139.76,0-38.71.28-66.78,18.24-84.06,52.81-4.97,9.94-7.28,20.68-8.03,31.76-.44,6.53-.48,6.53,5.85,6.53,68.76,0,137.53,0,206.29,0,6.88,0,13.76.11,20.63-.05,2.92-.07,4.28.45,4.26,3.88-.16,20.61-.19,41.23.02,61.84.04,4.1-2.12,3.81-4.83,3.81-22.18-.03-44.35-.02-66.53-.02-53.46,0-106.93.06-160.39-.1-4.49-.01-5.72,1.04-5.7,5.64.18,49.82.04,99.64.23,149.46.02,4.58-1.15,5.67-5.66,5.62-24.92-.23-49.85-.25-74.78.01-4.7.05-5.59-1.34-5.57-5.75.17-42.09.1-84.18.11-126.26Z"/>
  <path class="cls-1" d="M1083.68,241.69c1.53,2.41,4.03,1.53,6.1,1.6,42.95,1.47,85.84,4.15,128.65,7.76,66.1,5.57,131.93,13.38,197.41,24.16,76.37,12.57,151.87,28.94,226.16,50.71,79.33,23.24,156.44,52.22,229.9,90.34,65.9,34.19,127.45,74.71,181.37,126.14,1.24,1.18,2.67,2.15,4.48,3.59-3.12.92-4.5-.67-6.04-1.46-64.98-33.42-131.12-64.27-199.39-90.45-95.61-36.65-194.06-62.87-294.86-80.54-70.11-12.29-140.68-20.92-211.58-27.13-66.96-5.87-134.02-9.86-201.18-12.35-17.86-.66-35.73-1.27-53.59-1.91-2.44.31-3.79-1.38-5.09-2.94-3.85-4.62-7.64-9.29-11.28-14.07-4.11-5.39-3.34-7.38,3.26-8.2,20.97-2.61,41.98-4.84,62.99-7.09,32.79-3.51,65.55-7.29,98.34-10.81,19.11-2.05,38.21-4.27,56.58-6.07-60.09-6.72-121-13.23-181.87-20.04-11.09-1.24-22.19-2.51-33.3-3.56-2.85-.27-6.52.03-7.92-2.76-1.55-3.07,1.59-5.34,3.38-7.47,2.26-2.68,3.64-6.35,7.5-7.45Z"/>
  <path class="cls-1" d="M965.74,332.16c-70.79,1.91-141.51,5.4-212.13,10.67-68.55,5.11-136.87,12.42-204.88,22.53-152.16,22.61-298.8,63.99-438.75,128.29-35.14,16.14-69.9,33.01-104.3,50.66-1.65.84-3.33,1.61-5.67,1.62,4.83-4.58,9.55-9.28,14.49-13.74,60.07-54.23,128.11-96.29,200.91-131.03,103.85-49.56,213.11-82.76,325.3-106.99,69.41-14.99,139.45-26.11,209.97-34.3,51.21-5.95,102.54-10.58,154.02-13.41,20.93-1.15,41.88-2.09,62.82-3.14,2.05-.1,4.14-.04,6.06-.97,5.26,2.24,7.78,7.05,10.47,11.55,1.66,2.77-.61,4-2.98,4.62-4.68,1.23-9.52,1.37-14.29,1.87-42.37,4.44-84.69,9.37-127.05,13.85-25.96,2.75-51.89,5.88-77.86,8.54-.68.07-1.36.19-1.52.11,17,1.61,34.47,3.69,51.97,5.56,29.38,3.14,58.73,6.56,88.11,9.72,25.96,2.79,51.93,5.57,77.85,8.68,7.31.88,8.01,2.72,3.44,8.58-3.48,4.47-7.04,8.89-10.64,13.27-1.38,1.69-2.62,3.74-5.33,3.45Z"/>
  <path class="cls-4" d="M789.69,891.99c-1.91-14.61-13.29-25.44-27.74-25.61-18.88-.21-37.77-.48-56.65.43-3.86.19-3.45,2.29-3.45,4.72,0,22.84.04,45.69-.03,68.53-.01,3.92.52,7.88-.41,11.78h18.57c-.96-8.04-.04-16.11-.48-24.15-.18-3.29,1.06-4.02,4.13-3.98,11.86.15,23.72.04,35.58.07,3.46,0,6.87-.34,10.18-1.33,13.13-3.94,22.02-17.31,20.3-30.45ZM761.16,907.22c-6.35.28-12.72.06-19.08.06v.03c-6.19,0-12.38-.1-18.57.05-2.72.06-4.12-.52-4.01-3.65.2-5.83.17-11.68.01-17.52-.08-2.73.93-3.51,3.58-3.48,12.55.11,25.1-.04,37.65.11,7.3.09,12.64,5.46,12.63,12.24,0,6.52-5.14,11.87-12.21,12.18Z"/>
  <path class="cls-4" d="M874.7,949.85c-9.25-26.74-18.57-53.45-27.78-80.2-.77-2.24-2.06-2.79-4.2-2.76-6.52.09-13.05.13-19.57-.03-2.6-.06-4.02.68-4.91,3.27-9.31,27.26-18.73,54.47-28.11,81.7h17.54c1.74-5.17,3.58-10.31,5.2-15.52.73-2.34,1.99-3.12,4.44-3.09,10.25.13,20.5.04,30.75.07,1.46,0,3.29-.47,3.89,1.55,1.68,5.68,4.55,11,5.25,16.98h17.54c0-.66.18-1.39-.03-1.98ZM837.31,915.72c-5.14,0-10.29-.02-15.43-.05-.33,0-.66-.17-1.64-.43,4.06-11.67,7.98-22.93,12.43-35.73,3.66,10.48,6.84,19.51,9.98,28.56q2.66,7.64-5.34,7.65Z"/>
  <path class="cls-4" d="M1235.4,869.65c-.75-2.2-2.02-2.81-4.19-2.77-6.35.1-12.71.23-19.05-.04-3.39-.15-4.71,1.19-5.76,4.26-8.76,25.63-17.71,51.21-26.59,76.8-.44,1.27-1.23,2.49-.74,3.94h17.54c.78-5.83,3.52-11.05,5.16-16.61.59-1.98,2.1-1.95,3.69-1.95,10.49.01,20.97.07,31.46-.05,2.33-.03,3.37.88,4.03,2.97,1.65,5.23,3.44,10.42,5.18,15.63h17.54c-9.43-27.39-18.88-54.78-28.26-82.19ZM1231.28,915.72c-6.69-.01-13.38-.03-20.07,0-1.86.01-2.48-.63-1.84-2.46,3.78-10.77,7.52-21.55,11.79-33.8,4.28,12.32,8.07,23.26,11.88,34.19.61,1.76-.33,2.06-1.76,2.05Z"/>
  <path class="cls-4" d="M1139.17,629.12c-1.33-.9-2.63-1.84-4.25-2.98,1.93-1.26,3.35-2.19,4.77-3.11,43.53-28.04,60.71-80.84,40.06-126.04-16.34-35.78-45.38-55.98-83.47-63.72-17.51-3.56-35.31-1.65-52.99-2.07-2.91,2.38-2.37,5.92-2.71,8.98-1.84,16.45-3.61,32.91-5.2,49.39-.47,4.94-2.63,10.07-.05,15.08,1.41,1.38,3.33,1.74,5.03,2.53,18.32,8.51,29.7,22.4,30.7,42.88,1.31,26.99-22.15,50.58-49.73,50.67-43.84.14-87.67.05-131.51.03-7.04,0-7.34-.29-7.34-7.18-.03-27.83-.01-55.66,0-83.49,0-1.2.01-2.4.1-3.61.15-2.27,1.39-3.36,3.63-3.51,1.89-.12,3.78-.11,5.67-.11,40.4,0,80.8.01,121.2-.03,2.87,0,5.89.55,8.46-1.4.72-1.04.9-2.23.78-3.44-2.11-20.97-4.11-41.96-6.76-62.87-.19-1.49-.29-3.14-1.97-3.93-74.1,0-148.21.02-222.31-.08-3.9,0-5.66.4-5.66,5.1.14,126.8.13,253.6.04,380.4,0,3.49.77,4.68,4.49,4.67,95.59-.12,191.19-.08,286.78-.18,17.82-.02,34.89-4.05,50.66-12.28,36.51-19.06,59.1-48.26,60.48-90.32,1.27-38.81-17.29-67.95-48.89-89.4ZM1032.86,749.65c-5.51,1.45-11.12,2.08-16.82,2.08-43.3-.02-86.59-.07-129.89.1-4.24.02-5.06-1.32-5.04-5.23.15-30.56.18-61.12-.02-91.68-.03-4.37,1.27-5.36,5.46-5.33,22.33.2,44.67.1,67,.1v.11c22.33,0,44.69-.57,67,.17,20.07.67,36.05,9.88,46.05,27.56,16.06,28.38-.51,63.39-33.74,72.13Z"/>
  <path class="cls-4" d="M1648.4,815.91c-33.22-48.67-66.41-97.35-99.76-145.93-2.58-3.75-1.99-4.74,2.19-5.69,12.02-2.73,23.25-7.6,33.28-14.69,40.68-28.76,57.61-68.39,51.89-117.43-6.68-57.39-55.86-100.87-113.47-100.94-96.27-.11-192.55,0-288.82-.13-4.41,0-5.28,1.32-5.28,5.48.11,126.44.11,252.89,0,379.33,0,4.2.95,5.49,5.31,5.46,28.02-.2,56.05-.23,84.07.02,4.83.04,5.52-1.6,5.51-5.87-.14-47.42-.04-94.83-.18-142.25-.01-4.18.9-5.5,5.31-5.47,31.8.2,63.61.2,95.41,0,4.33-.03,6.74,1.4,9.13,4.91,32.72,48.18,65.63,96.23,98.37,144.39,2.06,3.03,4.16,4.27,7.89,4.25,35.59-.15,71.17-.08,106.76-.11,1.66,0,3.39.44,5.38-.67-1.01-1.59-1.95-3.16-2.98-4.66ZM1469.57,609.48c-47.41.38-94.83.09-142.25.23-3.62.01-4.16-1.32-4.15-4.47.09-34.34.13-68.67-.05-103.01-.02-4.15,1.48-4.71,5.06-4.69,23.88.13,47.76.07,71.64.07,0,.1,0,.19,0,.29,23.88,0,47.78-.74,71.62.19,29.65,1.16,51.97,27.13,51.38,58.19-.56,29.56-23.5,52.96-53.26,53.2Z"/>
  <path class="cls-2" d="M1299.08,281.75c-10.85-1.15-21.72-2.19-32.57-3.38-11.18-1.22-22.34-2.61-33.51-3.85-10.51-1.18-21.03-2.21-31.54-3.38-11.34-1.25-22.68-2.6-34.03-3.85-10.67-1.17-21.37-2.22-32.04-3.39-11.35-1.24-22.69-2.53-34.03-3.84-8.63-1-17.25-2.11-25.89-3.05-2.88-.32-2.66-1.27-1.15-3.16,3.19-3.99,6.25-8.11,9.36-12.18,18.14-22.46,36.26-44.92,54.4-67.39-.33-.3-.66-.61-.99-.92-27.42,21.97-54.82,43.92-83.02,66.51-8.44-80.6-16.79-160.25-25.14-239.89-.34.02-.67.05-1,.07-8.35,79.67-16.7,159.34-25.16,240.03-29.2-23.66-57.62-46.67-86.05-69.69l-.81.84c19.22,23.7,38.44,47.39,57.66,71.09,2.95,3.76,5.89,7.53,8.88,11.26,1.53,1.92,1.95,2.88-1.28,3.53-3.57.71-7.14.69-10.7,1.09-11.51,1.3-23.03,2.63-34.55,3.89-10.51,1.16-21.04,2.2-31.55,3.37-11.19,1.24-22.35,2.62-33.53,3.85-10.86,1.19-21.73,2.19-32.58,3.4-13.89,1.56-27.76,3.31-41.65,4.83-11.02,1.21-22.13,1.85-33.08,3.49-3.22.49-7-.53-11.11,2.42,9.13.92,17.07,1.63,24.99,2.53,17.28,1.95,34.54,4.09,51.82,6,13.9,1.53,27.84,2.71,41.74,4.26,20.34,2.27,40.63,4.79,60.97,7.07,16.43,1.84,32.9,3.51,49.35,5.17,2.77.28,2.88,1.19,1.33,3.13-5.51,6.94-10.52,14.29-16.9,20.52-.32,2-1.88,3.23-3.03,4.68-13.95,17.43-27.92,34.84-41.88,52.26-.87,1.08-1.62,2.27-2.44,3.41,1.67-.39,2.76-1.19,3.81-2.02,23.32-18.68,46.64-37.38,69.96-56.06,1.06-.86,2.07-1.85,3.26-2.5,4.45-2.44,7.91-.72,8.42,4.09,1.18,11.09,2.42,22.17,3.54,33.26,1.27,12.54,2.52,25.09,3.77,37.64v.13s17.39,159.38,17.39,159.38l16.82-157.38.23-2.14c2.47-23.47,4.94-46.96,7.42-70.43.56-5.22,3.89-7.06,8.53-4.62,1.2.63,2.2,1.64,3.26,2.5,23.91,19.35,47.79,38.72,71.71,58.05,1.21.97,2.22,2.46,4.83,2.63-10.44-12.87-20.48-25.04-30.27-37.42-6.69-8.46-14.19-16.29-19.96-25.47-6.64-5.77-11.03-13.44-16.85-19.92-1.68-1.87-1.8-3.61,1.77-3.76,4.59-.18,9.18-.78,13.75-1.3,11-1.23,22-2.58,33.01-3.77,10.85-1.18,21.73-2.12,32.57-3.32,13.88-1.56,27.74-3.38,41.62-4.91,13.9-1.54,27.83-2.83,41.72-4.31,15.08-1.62,30.15-3.3,45.22-5.02,6.46-.73,12.9-1.63,19.79-2.51-1.57-2.24-3.24-1.42-4.63-1.57Z"/>
</svg>