<?xml version="1.0" encoding="UTF-8"?>
<svg id="Layer_1" data-name="Layer 1" xmlns="http://www.w3.org/2000/svg" xmlns:xlink="http://www.w3.org/1999/xlink" viewBox="0 0 303.02 337.62">
  <defs>
    <style>
      .cls-1 {
        fill: url(#linear-gradient);
      }

      .cls-1, .cls-2, .cls-3, .cls-4, .cls-5, .cls-6, .cls-7, .cls-8 {
        stroke-width: 0px;
      }

      .cls-2 {
        fill: #fff;
      }

      .cls-3 {
        fill: url(#linear-gradient-2);
      }

      .cls-4 {
        fill: url(#linear-gradient-3);
      }

      .cls-5 {
        fill: url(#radial-gradient);
      }

      .cls-6 {
        fill: url(#linear-gradient-4);
      }

      .cls-7, .cls-8 {
        fill: #006037;
      }

      .cls-8 {
        fill-rule: evenodd;
      }
    </style>
    <linearGradient id="linear-gradient" x1="58.1" y1="132.43" x2="244.95" y2="132.43" gradientUnits="userSpaceOnUse">
      <stop offset="0" stop-color="#6bb39e"/>
      <stop offset="1" stop-color="#008076"/>
    </linearGradient>
    <radialGradient id="radial-gradient" cx="198.23" cy="133.92" fx="154.07" fy="133.92" r="57.2" gradientUnits="userSpaceOnUse">
      <stop offset="0" stop-color="#6bb39e"/>
      <stop offset="1" stop-color="#4ba7c6"/>
    </radialGradient>
    <linearGradient id="linear-gradient-2" x1="219.05" y1="87.21" x2="83.99" y2="87.21" gradientUnits="userSpaceOnUse">
      <stop offset="0" stop-color="#089592"/>
      <stop offset="1" stop-color="#106b64"/>
    </linearGradient>
    <linearGradient id="linear-gradient-3" x1="58.1" y1="133.92" x2="151.52" y2="133.92" gradientUnits="userSpaceOnUse">
      <stop offset="0" stop-color="#8fbc3f"/>
      <stop offset="1" stop-color="#008076"/>
    </linearGradient>
    <linearGradient id="linear-gradient-4" x1="86.96" y1="180.63" x2="216.08" y2="180.63" gradientUnits="userSpaceOnUse">
      <stop offset="0" stop-color="#057a83"/>
      <stop offset="1" stop-color="#0088ca"/>
    </linearGradient>
  </defs>
  <rect class="cls-7" x="68.3" y="296.64" width="160.49" height="40.98"/>
  <g>
    <circle class="cls-1" cx="151.52" cy="132.43" r="93.43"/>
    <path class="cls-5" d="M219.05,67.88l-67.53,67.53,64.56,64.56c17.79-17.01,28.87-40.98,28.87-67.53,0-25.04-9.85-47.78-25.9-64.56Z"/>
    <path class="cls-3" d="M151.52,135.41l67.53-67.53c-17.01-17.79-40.98-28.87-67.53-28.87s-50.52,11.08-67.53,28.87l67.53,67.53Z"/>
    <path class="cls-4" d="M83.99,67.88c-16.04,16.77-25.9,39.52-25.9,64.56,0,26.55,11.08,50.52,28.87,67.53l64.56-64.56-67.53-67.53Z"/>
    <path class="cls-6" d="M86.96,199.96c16.77,16.04,39.52,25.9,64.56,25.9s47.78-9.85,64.56-25.9l-64.56-64.56-64.56,64.56Z"/>
    <path class="cls-2" d="M142.31,91.22c-2.12-2.07-3.72-4.47-4.66-7.29-2.92-8.69,1.34-18.15,9.8-21.76.18-.08.35-.16.52-.24.66-.25,1.32-.49,1.98-.74.02.04.05.08.07.12-.45.36-.89.73-1.35,1.09-3.24,2.52-5.26,5.78-5.95,9.85-1.32,7.82,3.89,15.54,11.67,17.28,6.27,1.4,12.42-1.07,16.13-6.46.32-.46.74-.86,1.1-1.28.16.1.12.2.09.28-1.03,2.8-2.14,5.55-4.16,7.82-2.63,2.96-5.86,4.92-9.76,5.66-5.69,1.09-10.76-.3-15.16-4.08-.1-.09-.21-.16-.32-.24ZM162.97,69.4c-1.25.63-2.51,1.23-3.74,1.9-.44.24-.68.17-1.01-.17-1-1.04-2.03-2.04-3.05-3.06h.01c-.11.2-.04.42,0,.62.2,1.28.38,2.55.62,3.82.07.37-.01.55-.35.71-1.19.58-2.37,1.2-3.55,1.8-.14.07-.35.09-.38.33,1.35.21,2.7.44,4.05.62.55.08.93.2.92.88,0,.42.12.84.19,1.25.16.96.32,1.93.5,3.03.61-1.18,1.14-2.22,1.67-3.27.65-1.28.64-1.27,2.04-1.03,1.15.2,2.3.36,3.49.54-.07-.27-.25-.36-.38-.5-.91-.92-1.82-1.84-2.75-2.74-.27-.26-.3-.45-.13-.78.66-1.28,1.29-2.58,1.94-3.87-.03-.03-.05-.07-.08-.1Z"/>
    <path class="cls-2" d="M136.17,206.13c-3.11-1.05-5.3-3.07-6.45-6.17-.25-.67-.4-1.37-.49-2.08-.02-.12-.13-.39.12-.35.44.07.42-.25.49-.49,2.61-9.01,5.21-18.02,7.82-27.03.12-.43.12-.58-.4-.5-.53.07-1.08.04-1.62.01-.34-.01-.45.11-.42.43.02.17,0,.35,0,.52,0,.21.04.44-.31.4-.27-.03-.54,0-.51-.42.06-.96.1-1.93.13-2.89,0-.29.09-.42.4-.4.33.02.65,0,.98-.02,3.04,0,6.08.01,9.13.03.26,0,.43-.08.45-.33.07-.76.53-.97,1.21-.92.23.02.48.03.45-.34-.02-.22.13-.24.3-.24.23,0,.46-.02.69,0,.3.02.44-.08.39-.39-.05-.34.07-.51.44-.46.27.04.31-.14.31-.36,0-.33.01-.66,0-.98-.02-.36,0-.67.49-.6.05,0,.16-.03.16-.04-.13-.67.91-.82.69-1.55-.06-.19-.11-.47.12-.64q.78.07.79.85c0,.28-.09.62.38.59.04.59.73.71.88,1.16.12.36.04.8.02,1.21-.01.27.06.41.35.37.35-.05.45.14.41.44-.04.36.16.39.46.41.38.03.9-.26,1.02.48.03.18.5.14.75.13.44-.03.66.16.71.56.08.56.39.67.92.66,3.19-.03,6.37,0,9.56-.02.41,0,.54.08.57.53.07.88.09,1.77.1,2.65,0,.28.04.52-.39.54-.43.01-.35-.25-.36-.49-.05-.88-.05-.87-.93-.88-.52,0-1.04.01-1.56-.04-.49-.04-.47.16-.37.53.48,1.63.95,3.26,1.43,4.89,2.19,7.36,4.38,14.73,6.57,22.09.1.33.07.76.67.56.31-.1.18.21.16.35-.26,2.16-1.12,4.05-2.66,5.59-2.86,2.86-6.3,3.78-10.14,2.56-3.77-1.2-6-3.91-6.74-7.81-.05-.24-.37-.72.32-.72.17,0,.18-.31.23-.49,2-6.92,4-13.84,6.01-20.76.65-2.24,1.29-4.47,1.96-6.79-.72,0-1.39,0-2.06,0-2.08-.03-4.17-.05-6.25-.1-.5-.01-.61.16-.61.63,0,2.3-.01,4.59-.03,6.89-.04,5.21-.04,10.42-.13,15.63-.07,4.28-.06,8.57-.11,12.85,0,.44.02.77.58.74.54-.03.13.52.38.65.21.11.65-.14.58.38-.05.37.13.47.47.44.14-.01.36-.04.3.21-.1.38.09.44.39.4.34-.05.4.19.41.42.01.42.22.52.59.45.21-.04.42-.04.63-.05.27-.01.54-.06.54.37,0,.42-.28.34-.51.34-2.78,0-5.56,0-8.34,0-.21,0-.42.01-.64.02-1.04,0-2.09,0-3.13-.02-.2,0-.49.12-.47-.3.02-.33.1-.5.47-.42.19.04.38.02.57.05.47.07.86.05.82-.58,0-.02,0-.05.01-.06.43-.19.79-.47,1.09-.83.03-.04.21,0,.22-.01.15-.47.56-.72.84-1.06.14-.17.18-.41.46-.42.36,0,.49-.16.49-.53-.06-5.52-.1-11.04-.15-16.56-.03-3.65-.06-7.3-.09-10.94-.02-2.74-.05-5.48-.08-8.22,0-.23.04-.46-.33-.46-2.97,0-5.94,0-8.99,0,.61,2.07,1.18,3.99,1.75,5.91,2.14,7.25,4.29,14.5,6.43,21.75.1.32.1.7.66.51.34-.11.19.23.17.38-.43,3.04-1.92,5.41-4.51,7.07-2.53,1.62-5.27,1.9-8.15,1.14ZM162.1,176.19s-.07-.01-.1-.02c-.27.92-.54,1.83-.8,2.75-1.78,6.18-3.57,12.36-5.36,18.53-.11.37-.07.48.34.53,1.8.23,3.6.39,5.41.46.42.02.52-.09.52-.5-.02-1.79,0-3.59,0-5.38,0-5.46,0-10.92,0-16.38ZM138.02,176.3s-.06-.01-.1-.02c-.05.14-.1.27-.14.41-.72,2.5-1.44,4.99-2.16,7.49-1.27,4.4-2.54,8.8-3.82,13.2-.12.4-.09.56.39.62,1.72.21,3.45.37,5.18.45.55.02.66-.13.66-.65-.02-6.98-.01-13.97-.01-20.95v-.55ZM140.11,177.39s-.06.01-.09.02c0,.05,0,.09,0,.14,0,6.78,0,13.55,0,20.33,0,.08,0,.16,0,.23-.03.28.11.36.38.35,1.78-.05,3.54-.22,5.3-.42.49-.06.47-.24.36-.62-1.73-5.83-3.45-11.67-5.18-17.51-.25-.84-.51-1.68-.76-2.51ZM164.17,177.35s-.06,0-.1,0c0,6.89,0,13.78,0,20.66,0,.37.13.44.47.43,1.66-.04,3.31-.21,4.96-.39.78-.09.78-.11.54-.9-1.3-4.41-2.61-8.83-3.91-13.24-.65-2.19-1.3-4.38-1.95-6.57Z"/>
    <path class="cls-2" d="M212.29,151.21c-.17-.06-.33-.09-.5.02-1.77,1.07-3.76,1.45-5.75,1.78-2.87.48-5.78.61-8.69.55-1.17-.02-2.34-.12-3.51-.18-2.44-.31-4.89-.59-7.21-1.51-1.74-.68-2.05-1.25-1.52-3.04.14-.47.09-.7-.38-.91-.89-.38-.8-1.21-.7-1.95.06-.41-.05-.54-.41-.64-.24-.06-.47-.18-.69-.28-1.2-.54-1.43-1.08-1.22-2.38.23-1.41.99-2.15,2.4-2.44,2.8-.56,5.62-.95,8.47-1.03,1.12-.03,2.23-.07,3.35-.11.83.04,1.65.09,2.48.11,1.66.03,3.31.2,4.95.41.77.1.76.13,1.17-.55-.95-.27-1.88-.56-2.77-1-.44-.22-.71-.54-.79-1.06-.14-.95.14-1.81.54-2.62.28-.56.98-.63,1.53-.83.34-.12.71-.17,1.06-.26.56-.15,1.16-.1,1.74-.38-.44-.27-.82-.49-.92-1.03-.18-.99.12-1.89.53-2.73.28-.57.99-.61,1.53-.83.14-.06.29-.09.44-.12,2.09-.47,4.21-.74,6.33-.94.23,0,.46.02.69,0,1.52-.16,3.04-.16,4.56-.15,2.97.02,5.93.19,8.87.68,1.12.28,2.25.51,3.3,1.01.97.47,1.02,1.42,1.1,2.3.07.8-.3,1.38-1.04,1.75-1.02.51-2.1.83-3.19,1.11-.37.09-.53.11-.23.51.34.47.48,1.05.53,1.62.08.91-.21,1.66-1.2,2.09.82.25,1.55.45,2.25.7,1.2.42,1.71,1.11,1.73,2.4,0,.41.13.59.51.72,1.44.48,2.12,1.76,1.74,3.25-.08.32-.05.49.24.71,1.19.88.97,3.25-.33,3.89-1.75.86-3.64,1.22-5.54,1.53-.45.07-.91.15-1.36.22-2.67.24-5.35.33-8.03.24-2.04-.07-4.07-.3-6.08-.64ZM229.88,150.02c.97-.11,1.87-.44,2.75-.83.87-.38,1.12-1.11.71-1.97-.07-.15-.14-.29-.34-.18-.97.56-2.08.68-3.13.98-1.57.25-3.16.37-4.75.53-1.97.04-3.94.08-5.91.12-2.41-.1-4.83-.23-7.27-.63.22.71.46,1.36.42,2.06-.01.21.16.23.32.25,2.16.35,4.33.63,6.53.58.19.03.38.08.57.08,1.78,0,3.57-.05,5.34-.23.32-.03.65-.03.97-.08,1.27-.18,2.55-.28,3.78-.68ZM228.04,133.01c.89-.12,1.71-.44,2.52-.79.86-.37,1.11-1.21.66-2.04-.08-.14-.14-.2-.3-.11-.9.52-1.92.66-2.9.94-1.61.26-3.24.41-4.87.58-2.16.13-4.32.11-6.49.12-1.57-.15-3.16-.14-4.73-.35-1.89-.26-3.8-.42-5.54-1.3-.12-.06-.21-.14-.34.02-.57.71-.31,1.84.52,2.19,1.5.64,3.08.99,4.68,1.24,1.79.28,3.59.48,5.4.48,2.17.09,4.33.08,6.49-.19,1.65-.11,3.29-.31,4.88-.78ZM227.8,144.7c-1.61.25-3.24.3-4.87.45-1.78-.06-3.55.12-5.33.13-2-.03-4-.09-5.99-.35-.34-.05-.46.05-.34.41.12.37.2.75.17,1.13-.02.24.08.36.31.39,1.94.31,3.88.57,5.85.58,1.67.13,3.34.03,5.01,0,.11,0,.22-.05.33-.08,1.64-.03,3.26-.21,4.86-.57,1.35-.16,2.63-.55,3.87-1.07.89-.37,1.17-1.12.74-2-.08-.16-.15-.26-.34-.16-1.34.69-2.82.85-4.27,1.13ZM226.52,141.42c-1.73.23-3.47.43-5.21.53-2.01.11-4.02.06-6.02.08-2.19-.15-4.37-.25-6.6-.62.22.59.4,1.11.42,1.64.01.38.15.54.51.63,1.86.47,3.77.54,5.67.63,2.01.04,4.02.11,6.02-.12,1.76-.12,3.51-.3,5.22-.77,1.01-.15,1.98-.48,2.91-.89.8-.36,1.08-1.26.63-1.99-.08-.14-.17-.21-.32-.12-1,.57-2.15.69-3.23,1ZM205.09,152.2c1.9-.2,3.76-.59,5.51-1.36.88-.39,1.01-.75.76-1.69-.11-.4-.2-.62-.67-.32-.4.26-.89.36-1.35.49-1.4.38-2.83.53-4.26.73l-5.45.32c-2.43-.04-4.86-.07-7.27-.34-2.03-.23-4.07-.39-5.94-1.34-.16-.08-.26-.08-.37.11-.52.92-.26,1.8.71,2.16,4.16,1.54,8.49,1.76,12.87,1.69,1.02.08,2.04-.06,3.05-.13.8-.06,1.61-.07,2.4-.29ZM197.67,143.69c-1.82-.01-3.63-.03-5.45-.04-1.42-.12-2.84-.19-4.25-.38-1.67-.22-3.37-.4-4.88-1.27-.09-.05-.19-.1-.24.02-.21.52-.34,1.07-.26,1.63.06.41.43.46.72.58,2.85,1.18,5.87,1.5,8.9,1.7,1.82.12,3.63.22,5.45.01,2-.01,3.97-.23,5.92-.65,1.27-.17,2.47-.55,3.66-1.01,1.18-.46,1.05-1.08.79-1.97-.09-.29-.2-.31-.44-.17-.52.29-1.1.43-1.68.6-.77.23-1.59.23-2.34.53-1.97.14-3.94.28-5.9.42ZM220.15,136.72c-.38.02-.76.04-1.15.07-2.09.17-4.18.1-6.27.12-1.94-.13-3.89-.18-5.82-.48-1.52-.24-3.07-.4-4.45-1.17-.26-.14-.32-.05-.41.17-.51,1.26-.32,1.7.96,2.18.07.03.14.06.22.08,3.08,1.06,6.27,1.38,9.5,1.5,2,.08,4,.03,6-.13.47-.04.96,0,1.42-.19,2.26-.16,4.46-.59,6.55-1.49.74-.32.85-.56.75-1.36-.04-.29-.11-.57-.29-.83-.55.27-1.12.5-1.72.67-1.74.47-3.52.63-5.29.83ZM203.58,146.63c-1.07.05-2.15.1-3.22.15-1.48.06-2.95.13-4.43.19-.26-.1-.53-.05-.8-.05-3.16,0-6.3-.24-9.4-.95-.24-.06-.56-.3-.74-.03-.18.27-.12.64-.04.96.07.29.39.35.63.45,3.32,1.34,6.81,1.68,10.35,1.75.3.12.61.08.91.08,2.25.03,4.5-.09,6.74-.35.22-.03.45-.07.67-.1,1.81-.26,3.61-.6,5.31-1.32,1.02-.43,1.2-.93.82-1.96-.09-.25-.18-.34-.45-.19-.8.45-1.7.61-2.58.81-1.24.28-2.51.36-3.77.56ZM189.48,119.68c-.32-.16-.54-.13-.83.09-.63.5-1.33.93-1.95,1.44-2.76,2.27-5.69,4.32-8.5,6.53-2.76,2.17-5.57,4.28-8.37,6.4-.27.2-.3.37-.17.67.48,1.09.94,2.2,1.38,3.31.16.39.29.44.64.17,2.78-2.08,5.58-4.13,8.38-6.2,3.46-2.56,6.92-5.11,10.38-7.67.23-.17.43-.33.77-.16,1.57.78,3.16,1.53,4.74,2.29,1.22.57,2.46,1.1,3.65,1.73.58.31.99.23,1.51-.1,4.06-2.54,8.14-5.05,12.21-7.58.15-.09.3-.17.45-.25,2.15-1.35,4.3-2.69,6.45-4.04,2.41-1.51,4.83-3.01,7.25-4.51.13-.08.28-.13.41-.2.25-.28.67-.33.95-.75-.53,0-.96,0-1.39,0-1.51,0-3.02.08-4.51,0-1.28-.08-2.33.28-3.39.98-1.88,1.25-3.83,2.37-5.76,3.55-1.51.95-3.03,1.91-4.54,2.85-3.12,1.94-6.25,3.88-9.38,5.81-.26.16-.49.35-.84.17-1.64-.81-3.29-1.59-4.94-2.38-1.53-.72-3.07-1.43-4.6-2.16Z"/>
    <path class="cls-2" d="M83.92,115.43c.46-.85,1.11-.79,1.92-.52,2.74.9,5.33,2.04,7.37,4.17,1.3,1.36,2.21,2.95,2.76,4.75.15.5.09,1.03.09,1.55.03,4.63.05,9.26.07,13.89-.05,0-.11-.01-.16-.02-.86-1.79-1.69-3.6-2.81-5.26-1.45-2.15-3.29-3.92-5.28-5.54-.34-.27-.67-.55-1.06-.76-2.36-1.6-4.98-2.57-7.75-3.16-.77-.16-1.55-.27-2.45-.42.34-.43.66-.82.98-1.22,1.97-2.44,4.05-4.77,6.09-7.15.09-.1.16-.21.24-.32ZM113.55,142.15c4.15-.05,8.3.05,12.45.1,1.56.02,1.53.05,1.57-1.37.02-.54-.16-.63-.64-.64-2.89,0-5.79-.04-8.68-.07-1.56-.02-3.13-.04-4.69-.06-1.36,0-2.73,0-4.09,0-2.23-.02-4.46-.05-6.69-.08-.42,0-.85,0-1.27,0-.44,0-.97-.12-1.3.08-.29.18-.07.75-.1,1.15-.13,1.51-1.23,2.61-2.74,2.73-1.55.12-2.77-.71-3.1-2.17-.1-.43-.12-.88-.1-1.32.01-.42-.1-.56-.55-.56-2.55.01-5.1,0-7.64-.03-2.08-.02-4.17-.07-6.25-.1-.23,0-.46.03-.69.02-3.78-.04-7.56-.08-11.34-.11-1.4-.01-1.38,0-1.4,1.42,0,.41.08.56.53.56,3.49.01,6.98.05,10.48.09,2.2.02,4.4.06,6.59.09,2.62.01,5.24.03,7.86.03.38,0,.51.12.61.49.53,2.12,2.3,3.51,4.48,3.58,2.38.07,4.37-1.22,4.98-3.33.17-.6.45-.71.96-.61,3.59.04,7.18.08,10.78.12ZM77.7,135.89c-2.52-.06-5.05-.13-7.57-.2-.48-.01-1.08-.19-1.41.03-.36.25-.1.89-.15,1.36,0,.06,0,.12-.01.17-.08.31.04.42.35.41.46,0,.92.02,1.39.03,3.14.09,6.28.17,9.42.26,2.25.04,4.51.09,6.76.13,1.41.03,1.11.32,1.21-1.2.05-.75.01-.75-.74-.77-1.98-.05-3.97-.1-5.95-.15-1.1-.03-2.19-.05-3.29-.08ZM85.28,129.27c-3.07-1.52-6.35-2.32-9.71-2.82-1.4-.21-1.37-.22-1.6,1.15-.09.53.06.68.58.74,1.51.16,3.01.42,4.48.83.97.18,1.9.48,2.82.81,2.12.76,4.14,1.68,5.74,3.34.3.31.45.91.86.9.41-.02.8-.42,1.22-.61.38-.18.39-.34.15-.68-.84-1.21-1.99-2.06-3.16-2.91-.46-.25-.91-.5-1.37-.73ZM78.8,131.79c-2.35-.33-4.69-.66-7.04-1-.43-.06-.75-.13-.74.53,0,.33,0,.73-.15,1.06-.14.3.01.33.23.36,1.72.24,3.44.47,5.16.71,1.58.23,3.16.47,4.74.7.99.12,1.98.25,2.97.37.48.06,1.06.32,1.4.14.41-.22.19-.91.33-1.37.11-.38.03-.53-.39-.59-2.09-.28-4.18-.59-6.27-.89-.08,0-.15,0-.23,0ZM100.32,119.72c-1.41,1.84-2.37,3.79-2.3,6.24.11,3.93,0,7.87,0,11.8,0,.52-.1,1.05,0,1.7.12-.27.19-.42.26-.58,1.13-2.5,2.44-4.89,4.27-6.96,2.46-3.02,5.55-5.14,9.19-6.47.6-.22,1.21-.37,1.82-.56,1.25-.4,2.56-.55,3.93-.79-.19-.25-.33-.43-.48-.6-1.19-1.43-2.39-2.86-3.58-4.29-1.18-1.37-2.37-2.74-3.54-4.12-.31-.37-.62-.47-1.1-.33-2.11.62-4.15,1.38-6,2.59-.83.78-1.76,1.46-2.46,2.38ZM123.95,137.71c1.65-.04,1.64-.01,1.56-1.67-.02-.31-.12-.39-.41-.38-1.6.06-3.2.1-4.79.14-2.21.05-4.43.1-6.64.15-2.04.06-4.08.13-6.12.17-1.14.03-1.14.01-1.12,1.15.02.9.02.88.94.85,2.06-.06,4.12-.1,6.18-.15,3.47-.09,6.93-.19,10.4-.27ZM118.76,128.43c.45-.07,1.05,0,1.32-.27.29-.29-.05-.87-.04-1.33,0-.04-.01-.08,0-.11.02-.39-.15-.45-.53-.41-2.01.25-3.98.66-5.94,1.14-2.02.63-4.02,1.32-5.84,2.42-1.35.81-2.56,1.78-3.47,3.09-.19.27-.24.44.12.61.36.17.7.4,1.05.61.18.11.31.15.48-.07,1.92-2.57,4.72-3.65,7.65-4.52,1.7-.59,3.45-.88,5.22-1.16ZM121.96,132.86c1.25-.17,1.25-.14,1.1-1.4-.09-.77-.09-.76-.87-.65-2.88.4-5.76.8-8.64,1.2-1.24.18-2.48.34-3.72.54-.49.08-1.19-.05-1.41.29-.21.32.1.95.11,1.44.02.43.2.43.55.38,1.48-.22,2.97-.41,4.46-.62,2.8-.4,5.6-.81,8.41-1.19Z"/>
  </g>
  <path class="cls-8" d="M62.8,224.25h0s.95,8.53,11,12.7c-.32-.78-6.78-5.83-11-12.7M272,81.08h0c-.46-.92-.2-2.45.63-3.03l-.63,3.03ZM257.65,79.18h0c-.07.41-.19-.67-.19-.67l-3.7-1.92-2.03-3.82c1.91.34,3.09,1.91,4.23,3.05.75-.18,1.01-.45,1.3-.92l-.2-.67c-.1-1.17.51-2.32,1.45-2.37l-.86,7.31ZM250.76,80.17h0l-.27-.25c.49-.44.59-1.06,1.21-1.05,1.18-.21,2.38,0,3.29.69l-4.23.61ZM270.49,84.4h0c-.72-1.19-2.29-2.92-1.47-4.05l.82,2.46c-.03.73.49,1.35.99,1.44l1-.99,3.41-.56-4.74,1.69ZM263.89,85.54h0l-.2-.04.14-.81c-.6-1.26-1.02-3.02-.12-4.02l.19,4.87ZM268.03,95.62h0c-3.71-1.29-7.74-3.68-9.35-7.54,3.68,2.02,7.92,3.19,9.06,6.75l.28.79ZM273.86,100.12h0l-.26.27.31-5.94.7.12-.75,5.54ZM31.45,79.34h0l-.49-3.06c.8.62,1,2.17.49,3.06ZM45.88,78.11h0l-.53-7.34c.93.09,1.49,1.27,1.34,2.44l-.22.66c.26.49.5.77,1.25.98,1.19-1.08,2.44-2.61,4.36-2.86l-2.2,3.72-3.79,1.75s-.17,1.07-.21.66ZM52.71,79.42h0l-4.21-.81c.94-.65,2.16-.8,3.32-.53.63.02.7.64,1.16,1.1l-.27.24ZM32.8,82.72h0l-4.65-1.91,3.38.73.95,1.01c.5-.06,1.04-.65,1.05-1.38l.92-2.42c.77,1.15-.87,2.83-1.65,3.97ZM39.35,84.17h0l.41-4.85c.85,1.03.35,2.77-.31,4.01l.1.82-.21.03ZM34.75,94.05h0c.18-.23.25-.45.31-.77,1.3-3.5,5.6-4.48,9.37-6.32-1.79,3.78-5.92,5.98-9.68,7.1ZM28.72,98.26h0l-.5-5.57.71-.1.03,5.95-.24-.29ZM19.57,97.92h0l-1.9-1.72.43-3.33c.85-.32,1.06-1.4,1.8-1.4.73,2.25.73,4.51-.32,6.45ZM14.18,99.32h0l-.31.11c-2.32-.86-3.48-2.79-4.01-5.05l5.07,2.26.53,1.6c-.84.33-1.06.75-1.27,1.08ZM281.67,106.86h0l-.1.02c-.29-1.36-1.06-2.52-1.52-4.18-.24-1.7-.91-4.96.21-6.3l2.31,5.44c-.55.44-1.28.05-1.69.68l.79,4.34ZM286.69,107.13h0c.07.31-.79-.17-.75-.5.21-1.04,1.74-2.01,1.3-3.13l-.36-.69c-.33-.04-.58-.21-.79-.17-.58.35-.51.66-.97.54l.66-2,4.37-2.36c-.07,3.31-2.86,5-3.59,7.68l.13.64ZM265.99,103.61h0c-2.64-1.93-6.02-4.08-7.82-7.41,0-.65-.42-1.29-.74-1.4-.43,0-.53,0-.85-.1l-.85-1.51c4.55,2.26,8.25,5.16,11.31,9.56l-1.05.85ZM31.2,104.04h0c-.33,1.08-.21,0-.33,0l1.91-3.55c4.12-4.07,8.67-7.19,13.85-9.45-4.02,6.55-10.78,7.63-15.43,13ZM11.22,106.19h0l-.21.12c-.42-.34-.63-.34-.63-.76.95-.86,1.37-2.37,2.64-2.8.43.11.53.11.53.21.1,1.07,1.37,1.5.63,2.25l-2.96.97ZM274.03,107.81h0l-.74-1.9.74,1.9ZM290.61,112.44h0l-.45-.12c-1.15-.31-3.09-1.32-2.85-2.25l1.81.38.55-.45c.04-.33-.02-.66-.05-.75-.23-.61-.65-.52-.64-.97,1.13-.35,2.37-.06,3.22.42l2.23,1.94-3.83,1.8ZM43.99,109.09h0c-.73,0-1.37-.86-1.79-1.28-.43-2.58,1.79-3.87,3.17-4.94.53,0,.64.31.74.64l-2.12,5.58ZM268.74,111.03h0c-.53-.22-1.48-.22-1.48-.76.52-.11.21-.86.63-.86l.85,1.62ZM259.54,111.03h-.21c-.85-.54-1.59-1.62-2.33-2.48,0-1.82-1.58-3.76-.52-4.94,2.01,1.29,3.17,4.94,3.07,7.42ZM263.46,111.03h0c-.43.64-.95-.11-.95-.43v-.98l3.9-3-2.96,4.41ZM9.65,139.48h0l-.31.11-2.33-2.47-.21-2.57c1.59-.33,2.96.75,3.7,2.25.53,1.18-.43,2.04-.85,2.68ZM4.97,143.46h0c-.53-.1-1.28-.43-1.59-1.06.1-.44.42-.54.53-.86l4.76-.54c.42-.22,1.05-.75,1.05,0-1.05,1.39-2.85,2.46-4.75,2.46ZM9.65,149.58h-.31c-.32-2.26.1-4.19,1.27-5.69.64-.43.21,0,.64,0,.53,1.82.73,4.19-.64,5.37-.42.22-.74.22-.95.33ZM38.71,111.25h0l-.32.1-2.33-2.47-.21-2.57c1.58-.34,2.96.74,3.7,2.24.52,1.19-.43,2.05-.84,2.69ZM273.81,113.61h0l-.53-.11c-.43-1.72-1.58-2.47-2.64-3.87-1.16-1.5-2.43-3.31-1.58-4.93,2.33,2.36,4.13,5.04,5.28,8.8l-.53.11ZM41.88,113.5h0l-.31.11c-.43-.33-.53-.65-.75-1.07.75-.21.75-.96,1.38-1.5.52.21.52.64.73,1.07-.21.75-.73,1.07-1.05,1.4ZM23.7,113.17h0l-.11.33-7.5-6.77c.21-.11.52-.32,1.26-1.07.64-.22,1.8-.86,2.22-.11l4.13,7.62ZM46.42,113.93h0c-.74-.21-1.27-.43-1.27-1.07,0-.43.1-.53.21-.75l5.17-.43-4.12,2.26ZM260.71,114.25h0c-.43.11-.43-.21-.43-.32.1-.43.43-.75.74-.75.42.11.85.54.52,1.08h-.84ZM252.78,114.25h0c-1.38-.54-2.54-.75-3.07-1.72l6.35-1.5c.85.32,1.58,1.07,1.69,1.82-.11.43-.11.86-.75,1.07l-4.23.32ZM269.48,116.18h0l-3.49-.64-1.37-1.93c.21,0,1.06-.75,1.79-.75,2.12,0,4.23.86,5.5,2.59l-2.43.74ZM33.95,116.72h0c-.53-.11-1.27-.43-1.59-1.07.11-.43.43-.54.54-.86l4.75-.54c.43-.21,1.07-.75,1.07,0-1.07,1.4-2.86,2.47-4.76,2.47ZM46.42,120.48h0l-3.49-3.32-.31-1.51,1.05-.21c.43.1.85.53,1.59.85,1.16.65,1.9,2.58,1.47,4.09l-.31.1ZM31.94,120.48h0l-.42.11c-1.06-.86-1.48-2.36-2.43-3.22h-.74l-.74.53c-.74.43-.1,1.93-.95,1.82.74-4.94,1.16-9.24,4.96-12.67.43-.43,1.28-1.93,1.8-.74l1.27,5.47c-2.64.65-4.65,2.58-6.02,4.19l4.44,3.33c-.21.76-.95,1.08-1.16,1.18ZM255.32,121.34h0c-.53.21.21-.75.1-1.29,1.06-1.5,1.16-3.87,3.07-4.09l.74.32c.31.43.11.11.31.43l-.21.75c-.64,1.61-1.9,3.54-4.02,3.87ZM38.71,121.34h-.32c-.32-2.25.1-4.18,1.27-5.69.64-.43.21,0,.64,0,.53,1.82.74,4.18-.64,5.37-.42.22-.74.22-.95.32ZM265.25,121.78h0l-.1.31-2.43-1.28-1.17-3.34c.33-.1.43-.43.43-.75l1.48-.54,1.79,5.6ZM33.42,123.28h0c-.52.2-.52-.22-.52-.22.52-.97,1.06-1.51,1.48-2.04.63-.1.74-.54,1.38-.54l.31,2.36-2.65.44ZM23.38,123.28h0l-.11.32-4.12-11.28c.1,0,.74.64,1.27.96,2.22,2.37,3.7,6.55,2.96,10ZM28.56,125.1h0l-.22.32c-.21-.43-.21-.75-.42-1.39.32-.75.42-2.69,1.16-2.25-.1,1.28.22,2.46-.52,3.32ZM274.34,126.39h0c-.31-.22-.74-1.94-.31-2.36.31.64.63,1.71.31,2.36ZM30.88,126.93h0c-.84.11,0-.75,0-.75.43-.32,1.17-.75,1.81-.65.1.33,0,.65,0,.65l-1.81.75ZM26.02,129.83h0c-.1-.44-.31-1.41,0-1.72.32.53,0,1.18,0,1.72ZM284.18,130.36h0l-.42.11,8.77-11.92c-1.27,5.05-3.17,8.8-6.55,11.92l-1.79-.11ZM273.81,130.15h0v.33l-2.85-3.12c.21-.43-.11-.75.21-1.07l.85.32,1.79,3.54ZM281.85,137.02h0l-.1.33c.1-1.93.53-4.3,1.9-5.37l-.22,3.01c-.31.43-.42.53-.73.53l-.85,1.5ZM22.21,137.78h0v.32l-4.55-9.02c-.31-.21-.42-.43-1.05-.65-3.6-4.83-6.87-9.45-7.93-15.14,4.76,8.39,11.73,14.08,13.53,24.5ZM278.79,138.85h0l-.21.32c-3.06-6.77-.1-15.58-5.07-20.09-.42.21-1.05.75-1.05,1.39l-.1,1.83-.64.1c-.43-1.5-3.38-2.69-2.44-4.19l4.55-.85c1.27,1.61,2.44,3.65,3.07,6.23,1.48,2.36,1.27,4.83,1.48,7.63-.64,2.57.85,5.27.43,7.63ZM15.77,138.85h0c-.11.43-.85,0-.85-.22-.74-1.61-.64-3.65.74-5.16.21-.43,1.17-1.5,1.27-.43l-1.16,5.8ZM287.45,139.82h-.63c-.73-1.72-1.9-4.4-.85-6.23.74.43,1.17.86,1.48,1.4l1.17,4.3-1.17.54ZM283.01,139.82h-.1c.42-.65.42-1.72,1.16-1.72,0,.53.53,1.5.11,1.72h-1.16ZM293.47,140.14h0l-.31.22c-.84-.54-.84-1.51-1.48-1.72-.31-.86.32-1.61.43-2.36,1.16-.32,2.64-3.01,3.81-2.04l-.95,4.62-1.48,1.29ZM26.02,141.86h0c-.74-4.19.64-9.35,3.06-12.47,3.07.44,5.92-1.93,7.09-4.18.42-.11.74-.11,1.06-.11l4.12-2.04c-1.27,3.55-5.07,6.23-7.72,9.34-2.75,2.68-5.39,6.13-7.61,9.46ZM11.96,143.15h-.42l-.32-1.29,1.48-1.3.53.54c.32.55.21,1.29-.22,1.72-.21.32-.63.32-1.06.32ZM290.2,143.9h0c-.74-.11-1.27-.43-1.48-1.07.32-.86.64-1.29,1.17-1.61h.63l.74,2.36-1.05.32ZM17.35,144.33h0c-.74-.11-1.26-.54-1.48-1.18.22-.64-.21-1.29.32-1.83l4.23-.86c.63.11.63.43,1.17.43.31.43.95.97.63,1.5l-4.86,1.93ZM285.23,144.66h0c-.42,0-1.05-.44-1.8-.44-.52-.43-1.58-.75-1.47-1.71.31-.11.63-.11,1.05-.22,1.48-.43,2.64.43,3.28,1.29l-.32.97-.74.11ZM295.49,144.97h0l-1.8-.64c.21-.75-.11-1.93.53-2.47.11,0,.53-.21.95-.32,1.9.32,4.02.11,5.07,1.61l-4.76,1.83ZM25.71,148.95h0c.95-6.99,7.08-12.68,11.62-17.19-3.91,5.91-8.77,10.75-11.62,17.19ZM16.61,151.85h-.32c-1.27-1.07-1.9-1.83-2.43-3.22,0-1.19-.42-2.48.53-3.12,1.06.43,1.8.97,2.22,1.72l.31,4.62h-.31ZM276.68,151.85h0l-9.94-16.86c5.19,4.83,9.09,9.34,9.94,16.86ZM295.06,152.6h0l-.31.21c-.42-.21-.74-.21-1.06-.21-.63,0-.85-.75-1.59-1.4-1.06-1.18-1.16-3.54-.43-4.94.74,0,1.59.43,2.22.97l1.16,5.37ZM286.71,152.71h0l-.63.11c-.75-1.93-.75-4.18.21-5.58.84-.33,1.16-1.07,1.69-1.72.63.43,1.17.97,1.17,1.72l-.53,4.62-.63.54-1.27.31ZM22.64,153.03h0l-.1.11-3.38-6.24,4.12-1.5-.63,7.63ZM44.94,153.89h0l-.53-1.29-.74-.33c-.63.12-.63.43-1.05.33-.53-3.65,1.8-6.77,4.12-8.6,1.17,3.23-.31,7.32-1.79,9.89ZM279.84,154.32h-.31l1.69-8.38c.95.75,2.43.32,2.84,1.29l-.64,2.15-3.59,4.94ZM260.59,159.1h0l-.18.27-.44-.45c-1.13-2.21-1.74-5.32-1.22-7.27.09.18.69.18,1.05.7,1.92,1.68,3.14,4.44,2.96,6.92-.61-.35-.87-.88-1.39-.81-.35.19-.44.28-.61.45l-.17.18ZM37.23,154.75h0l-.21.32-1.16-8.59.63-.21.74.64c1.69,1.73,2.75,5.06,2.33,7.42-.43-.53,0-1.29-.64-1.72l-.52-.33c-.42.12-.64.33-.75.33-.42.54-.63,1.61-.42,2.15ZM49.38,159.9h0l-1.48-.54c-.53-.53.31-1.18.1-1.71,0-.97-1.9-1.4-1.59-1.93l6.34,1.18c-.63,1.5-1.9,2.68-3.38,3ZM42.52,157.2h0l-1.05.27c-.79-1.07-1.84-1.07-1.84-1.87h2.89c.54.27,0,1.08,0,1.6ZM265.74,164.6h0c-.35.44-.44-.26-.44-.44.26-.08.35-.62.7-.62.26.62.52.89.96,1.06h-1.22ZM35.11,161.52h0l-.31.1c-.64-.75-2.12-.53-2.12-1.5l3.9-.22-1.48,1.62ZM257.88,165.67h-.26l-.96-.52-2.45-2.57,4.55-.09c.09.35.09.62,0,.89.26,1.32,1.92,1.06,2.26,2.04l-3.14.26ZM291.26,162.27h0c-.63-.21-1.37-.32-1.37-.97l6.23-2.47c-.31.43-.95.86-1.37,1.83-.85.64-2,1.83-3.49,1.61ZM269.27,162.27h0c-.63-.32-1.05-.97-1.05-1.39l3.49-.11-2.44,1.5ZM279.53,162.6h0l-.32-.11c.1-3.99,1.9-6.77,4.54-9.25l-.1,1.51c.21.64.84,1.07,1.58,1.07l4.66-2.04.63-.64,4.44,2.68c0,.33-.21.65-.21.75-1.59.86-2.96,2.04-5.29,2.79-2.33,2.58-6.55,1.51-9.93,3.23ZM266.6,167.09h-.35c-.17-.36-.26-.53-.17-.8.87-.18,1.75.27,2.18.44-.34.44-1.13.36-1.66.36ZM47.91,166.89h0c-2.22-.43-4.44-.54-6.03-2.8-.42-.85-1.17-2.14-.42-2.9l3.27,2.47c.43,0,.54-.21.64-.33l.53-1.07,3.07,4.62h-1.06ZM258.4,170.9h0l-.17.08s-.09-.26-.09-.62c.35-1.06.7-2.04,1.66-2.31l.96.72,1.57-.45c-.18.8-1.14,1.77-1.92,2.22l-2.01.36ZM38.92,168.72h-.21l1.26-3.44,1.91,2.05c-1.06.53-1.58,1.5-2.96,1.39ZM265.03,171.87h0l-.26.27c-.7-.44-1.31-.54-1.57-1.16.26-.97.7-1.68,1.22-2.3l.61,3.19ZM38.39,173.23h0c-.42,0-.42-.32-.42-.54.21-.54.42-.97.74-1.29.42-.11.95-.64,1.26-.11-.42.86-.84,1.61-1.58,1.93ZM35.32,174.41h0v.11c-.74-1.83-1.91-3.86-.95-5.26.43.21,1.06.75,1.06,1.4l-.11,3.76ZM34.69,178.6h0c0-.65-.42-.75-.52-1.07.21-.33.42-.33.52,0v1.07ZM32.16,179.56h0v.33c-1.91-3.01-3.6-5.38-5.71-8.17-3.81-3.87-8.04-8.7-13.64-8.7l1.37-1.07c1.91-.65,3.81,0,5.71.75,1.58.97,3.48,1.72,4.86,2.91,3.38,3.86,5.71,8.92,7.41,13.96ZM274.34,181.07h-.1c1.16-2.79,2.01-5.91,4.12-7.84l-4.02,7.84ZM30.88,182.68h0v.21l-6.13-9.45,6.13,9.24ZM275.2,184.4h0l-.21.11c2-4.3,4.33-8.06,6.24-12.79,1.37-1.94,2.43-3.87,5.07-3.87-1.91,6.23-6.34,11.7-11.1,16.54ZM38.39,184.72h0l-.32.22-.84-7.09c.42-.75,1.17-.97,1.49-1.83,3.06-1.62,4.01-5.05,4.96-7.95l5.29,1.83.1.76c-2.01,6.23-8.46,8.38-10.68,14.07ZM20.42,187.08h0l-.11.11-1.9-1.08c-.31-.43-.63-.74-.63-1.28l3.6.86-.95,1.4ZM279.21,189.55h-.32c.64-.75,1.06-1.5,1.79-2.68,1.48-.97,3.91-3.22,5.82-2.15l-2.33,4.3c-.32-.75-.53-.97-1.16-1.08l-3.8,1.61ZM268,189.77h0c.74-6.55,4.34-15.68,8.14-21.38,3.07-3.98,7.93-5.7,13.32-4.62,2.86,1.18,4.23,4.08,4.75,7.2-.53-1.4-1.05-3-2.54-4.2-2.96-1.82-6.55-1.5-9.93.12-8.15,4.4-9.3,15.25-13.75,22.88ZM39.56,191.48h0c-.84-6.65,4.65-11.27,8.98-15.14-.74,6.87-8.46,8.81-8.98,15.14ZM263.24,192.02h0v.11l-7.82-14.82c3.49,4.4,7.82,8.38,7.82,14.71ZM16.61,196.33h0l-3.49-1.19c1.48-1.93,3.49-3.87,6.45-3.87l-.1.75c.22.54.43.86.95.96l1.48-.74-3.91,4.08h-1.38ZM285.23,197.62h0c-1.05-.22-1.8-.97-2.32-1.72.1-.43.74,0,.84,0,.74-.21,1.06-.75,1.16-1.08v-.75l-3.49-2.05h4.86c2.32,1.19,3.6,3.12,3.91,5.37l-4.97.22ZM250.46,197.62h0l-.42-.22c-1.69-1.83-1.8-5.59-1.05-7.53,1.58,1.52,3.16,3.01,3.38,5.7-.64.11-1.38-.11-1.59.32l-.53.75c0,.43.22.75.22.97ZM46.42,198.15h0v.11c-1.9-1.93-2.33-5.48-1.9-8.16l2.33,4.73-.43,3.33ZM257,198.36h0c.21,1.08-.42-1.29-.52-.43-.63-.11-1.16.21-1.38-.32.21-1.94,1.06-5.16,2.33-5.59l-.43,6.34ZM22.64,199.75h0l-.32.12c-.73-.86-1.16-2.79-.11-3.44.74.33,1.37.76,1.9.22l1.38-3.33.43,1.5c-1.06,1.94-1.48,4.19-3.28,4.94ZM281.75,202.45h0l-.52.31c-1.17-.75-2.12-1.5-2.33-2.68.42-.64,1.38-.64,1.38-1.28.21-.54-.32-1.94.21-1.72l1.27,5.37ZM248.23,202.76h0l-5.28-2.47c.31-.1.53-.42,1.05-.54,1.69-.96,3.59-.96,5.07.12l-.85,1.07c.32,1.07,1.06,1.51,1.9,1.82h-1.9ZM48.22,202.76h-.21l-.95-3.22,1.16-.1c1.17-4.19.54-9.57,5.28-11.17,1.59,4.18-.73,8.38-3.06,11.17l.1.75.64.64h.74l1.27-1.39c2.11-1.08,4.44-.75,6.45,0v.75l-4.22,2.26c-2.54-1.07-5.19-1.07-7.19.31ZM263.46,204.06h-.21l3.49-8.16,3.49-4.84,4.02,1.39c-.21,2.26-1.79,3.97-2.96,5.91-2.22,2.47-4.86,4.62-7.82,5.7ZM45.9,204.49h0l-.21.33c-.32-.43-.42-.65-.85-1.08-2.22-2.9-4.44-7.08-2.96-11.17l4.02,11.92ZM257.43,208.14h0c-.43.1-.43-.21-.43-.32.32-.43.32-.75.43-1.07l-.95-1.51c3.07-3.86,3.39-9.56,3.6-13.96,3.17,4.83,1.8,10.1.21,15.04l-2.85,1.82ZM257.43,213.62h0l-.43-.11v-2.48l12.48-7.83c-1.27,2.36-3.17,3.87-5.29,5.47-.42,0-.74.33-.95.33-1.37,2.25-3.59,3.76-5.81,4.62ZM63.02,217.06h0v.1l-1.16-3.22c.42-1.39,1.58-2.59,2.53-3.32.74-.12,1.16-1.19,1.69-.54.21,2.9-1.16,5.36-3.07,6.98ZM60.38,217.59h0c-.43.33-1.26-.21-1.8-.21l-2.11-4.08,3.17,1.82.74,2.47ZM241.78,218.99h-.21l1.38-4.19,2.63-.86c-.84,2.04-1.9,4.19-3.8,5.05ZM238.82,220.28h0l-.1.21c-.74-.32-1.06-1.07-1.48-1.82-.74-1.94-1.06-4.73.1-6.55l1.16.75,1.48,3-.85,4.3-.32.11ZM51.18,225.22h0l-10.78-7.3-.53.42c.74,2.58,4.12,3.77,5.39,6.02-3.17-.43-5.29-3.01-7.82-5.37-3.49-3.76-8.88-8.16-15.22-6.87l5.29-2.04c.32-.55,0-.76.32-1.08,9.62,2.25,15.22,11.93,23.36,16.22ZM47.59,225.86h0c-.42,0-.74-.32-.74-.42l.74.42ZM27.6,226.62h0c-2.64-1.18-5.71-2.26-6.02-5.27l6.34,5.27h-.32ZM242.21,226.62h0l-.43.32c2.96-5.37,7.72-11.28,13.21-14.07l-.42,2.58c-4.33,2.68-8.56,7.3-12.36,11.17ZM274.24,228.23h0l-.31.11c.73-4.62,5.71-5.15,8.67-7.73.11,2.58-1.8,4.4-3.06,5.79l-5.29,1.83ZM83.11,228.23h0l-.42.11-1.27-.54c-.96-2.58-.64-5.8.32-7.95.21.33.52.43.95,1.08,1.05,2.04,2.11,4.72,1.05,6.98l-.63.32ZM237.77,229.83h0l-.21.33c.95-2.69,2.12-4.94,2.86-7.84.31-.76,1.9-1.4,2.54-1.08l-5.19,8.59ZM241.78,230.37h0l-.32.11c1.59-2.25,4.55-4.51,6.03-6.76,2.33-2.05,4.54-4.63,7.19-5.38-1.9,6.66-8.24,8.81-12.89,12.03ZM220.64,230.37h0l-.31.11-1.91-.86c-.32-.65,0-1.29-.32-1.82,0-2.58.74-5.27,2.54-6.45,1.58,2.69,1.69,6.56,0,9.02ZM87.44,231.35h0l-.31-.11c.31-1.5-1.06-1.93-.85-3.11.21-.32.42-.75,1.16-1.4,1.48-1.07,4.33-1.93,6.02-1.18-1.38,2.79-3.39,4.83-6.02,5.8ZM215.46,232.1h0c-2.33,0-4.66,0-5.82-1.72l-.53-3.98c1.69.22,3.28.76,4.86,1.4,1.49.43,2.22,1.93,2.22,3.11-.31.65-.41.76-.73,1.19ZM79.51,232.31h0c-1.16-.21-2.43-.54-3.81-1.08-1.27-.86-2.43-2.68-2.11-3.86h4.22c1.38.75,2.12,1.93,2.44,3.23l-.74,1.72ZM45.68,232.74h0l-.1.11c-.21-.54-.21-.75.1-1.5.43-2.04-1.69-3.44-1.69-4.62l14.27,8.44-7.84-3.72-4.73,1.29ZM223.28,233.49h-.21l-.85-1.07c.33-.65.33-1.51,1.06-2.05,2.01-1.5,5.29-2.14,7.51-1.5,0,0-.31.22-.53.76-2.01,2.04-3.91,4.41-6.98,3.86ZM83.11,233.92h0c-.74,0-.85-.76-.95-1.07.1-.75,0-1.5.21-1.94.63-.31,1.48-.43,2.11-.11l.43,1.29-.74,1.39-1.06.43ZM238.93,234.46h0c3.39-1.18,7.72-4.4,11.31-7.3,9.63-6.34,15.75-14.6,27.91-16.54,1.38.21,3.6.31,3.81,1.93l-.21.75c-3.28-.32-6.66.64-9.3,2.15-11.42,5.9-19.77,15.58-33.52,19.01ZM218.74,235.74h0l-.64-.21c-.74-.43-1.05-1.62-.74-2.37.43-.43,1.37-.85,2.11-.64l.53,1.72c-.1.75-.75,1.3-1.27,1.5ZM89.66,235.96h0l-2.53-1.51c-.32-.42,0-.97.31-1.29l4.97.12c.84.32,1.9.96,1.59,1.93l-4.33.75ZM261.55,237.36h0c-.52,0-.94-.32-1.47-.32,0,0-.1-.33-.43-.76-.53-2.36.43-5.05,2.54-6.55l-.64,7.63ZM210.07,238.21h0c-1.05-.42-2.22-.42-2.64-1.5.31-.1.84-.86,1.58-1.61,1.79-1.07,4.44-1.07,6.13-.43.53,1.07-.1,2.25-.74,2.47l-4.33,1.06ZM35.43,238.97h0l-2.01-1.18-1.8-2.05,4.24-1.07c.95.31,1.37,1.17,2.54,1.6.74.33,1.69-.1,2.32-.54l.11-.75c-.85-2.14-1.27-5.36,0-7.29l2.22,2.14c.31,1.83.31,4.2-.84,5.6l-1.8.97c-.74.65-.43,2.47-1.48,2.58h-3.49ZM46.85,239.3h0l-.43-.22c.31-1.28-.52-1.93-.74-3.11,1.48-1.72,3.8-2.47,6.24-2.36v1.08c-.96,2.47-2.96,3.76-5.07,4.62ZM42.93,240.37h-.31c-.53-.65-.53-1.83,0-2.47.74,0,1.05.54,1.37,1.08-.21.64-.64.75-.64,1.07l-.42.32ZM255.32,240.91h0l-3.18-1.61-1.26-3.86,5.29,1.72.31.65-1.16,3.11ZM75.7,240.91h-.53c-.42-2.36,1.69-4.3,2.96-5.7l1.79-.43c.53.43,1.27.97,1.49,1.62-1.49,2.25-3.38,3.97-5.71,4.51ZM264.94,241.55h0l-1.48-.75.74-2.25c.43-.33.74-.43,1.48-.75,2.54-1.19,5.6-.65,7.4.75-.22.53-.53.53-.64.85-2.23,1.51-4.86,2.37-7.5,2.15ZM244.75,241.55h0l-.53-.21,1.8-5.37c-.11-.43-.74-.53-.74-.97l2.54-1.39,2.43,6.98-5.49.97ZM81.2,241.34h0l-.74-.43c.31-.44.53-.54.96-.54-.21.43.1.75-.21.97ZM259.23,242.3h0c-.53-.22-1.06-.64-1.27-.75-.21-.75,0-1.72.53-1.83l2.22-.33c.42.33.73.97.73,1.4-.31.75-.84,1.29-1.47,1.5h-.74ZM226.77,242.51h0c-2.01-.43-3.38-2.47-4.86-4.3-.21-.53-.74-1.6-.11-2.25l.74-.22c.85.54,1.48.43,2.43.86,1.8,1.19,2.65,3.76,2.97,5.91h-1.17ZM70.63,242.51h0c-3.49-1.61-4.54-5.37-7.4-7.08,3.27,1.18,7.29,1.93,9.51,4.29-.42,1.18-1.06,2.04-2.12,2.79ZM237.55,242.84h-.21c-.32-.53,0-1.18.21-1.29l4.97-1.83c-.42,1.18-1.8,2.04-2.54,2.79l-2.43.32ZM221.49,242.84h-.31v-1.29c.63-.32,1.05.22,1.05.75-.31.43-.42.53-.73.53ZM232.91,243.6h0c-.64,0-.95-.76-1.69-1.08-.74-.75-1.8-1.61-1.16-2.47l13.75-4.3c-2.75,2.8-7.73,2.47-9.1,6.34-1.05.22-1.05,1.4-1.8,1.51ZM79.2,245.09h0l-4.23-1.61,1.69-.65c1.16.76,2.54,1.17,3.39,2.25h-.84ZM216.52,245.42h-.32l.21-6.45c.54-.43.85-.86,1.59-.86l.52.43c.54,2.36.95,4.94-.95,6.23-.63.21-.63.65-1.05.65ZM124.13,245.09h0l.32-.75c-.21-.43,0-.74-.21-1.07-.1-.43-.52-.43-.74-.75,0,0,0-.21.22-.75,1.16-1.94,2.95-3.33,4.97-3.87v.65c-.64,3-2.23,5.47-4.55,6.55ZM115.46,245.09h0l-.42.33-3.7-5.7c.43.1.64.1,1.37.43,1.69.75,2.86,2.36,3.06,4.18-.21.43-.21.65-.32.75ZM87.65,245.09h0l-.21.33-3.59-4.3v-4.72l.74-.43h.75c1.79,2.58,3.38,6.01,2.32,9.13ZM120.85,245.42h0l-.21.32-1.48-4.51c-.43-.11-.74-.11-1.06,0l-.63.43c-1.28-2.8-.53-6.23.74-8.59,2.64,3.54,2.11,8.05,2.96,12.03l-.32.33ZM188.71,246.6h0l-.21.11.21-.86c-.1-.86-.84-.86-.95-1.51,1.26-1.28,3.17-3,4.86-2.57l-3.91,4.83ZM184.49,246.71h0l-.31.21-.42-1.07.31-1.84c-.64-.85-1.59-.53-2.01-1.17,0-2.47,0-5.69,2.01-7.3,2,3.44.73,7.63.42,11.17ZM33.95,246.92h0c-.32,0-.85-.33-.85-.75,1.06-2.9,3.48-4.51,6.55-4.95.42.43,1.16.75,1.05,1.29-.63.65-1.16,1.39-1.58,2.26-1.06,1.4-3.27,2.25-5.18,2.15ZM246.76,247.14h-.12l-1.9-3.12,3.91-.42-1.48,3.33-.42.21ZM250.03,247.67h-.32c-.31-.97.43-1.72.75-2.58.84-1.5,2.75-1.5,4.22-1.5l1.38-.76c.53.22.42.76.42,1.17-.63,1.19-1.69,2.16-2.54,3.01-1.16.75-2.64.65-3.91.65ZM243.27,247.89h0c-1.91-.53-3.7-.75-4.55-2.68,1.69-1.19,3.17-.11,4.55.65l.53,1.83-.53.21ZM178.14,247.89h0l-3.38-2.79-.84-3.32c1.9-.22,2.96,1.07,4.86,1.72.74.32,1.59,1.29,1.48,2.37-.84-.32-1.9-.65-2.54,0-.32.1-.42.75-.42,1.07l.42.75.42.21ZM213.98,250.14h0l-.1-.11c3.07-1.61,5.71-3.54,9.09-5.58,1.48-.97,3.39-.12,4.55.97l-13.53,4.72ZM96.32,250.14h0l-7.18-2.47,1.16-4.51,6.03,6.98ZM141.15,250.78h-.1l2.32-4.18c.11,1.93-.85,3.11-2.22,4.18ZM43.99,250.78h0l-.21.12c-.43-.33-.43-.43-1.16-1.19-.85-1.93-1.16-4.94,0-6.65,1.59-.22,2.54-1.29,3.28-2.15,1.69,1.39,4.76.75,5.5,3.43-.11.43-.21.43-.21.43-2.54.32-2.96-2.26-4.76-3-.42.21-.52.54-.74.75l-.53,7.2-1.17,1.07ZM205.84,251.64h0l-.21-.11,5.6-6.12c.53-.33,1.27-1.08,1.91-.65l.64,2.36-7.93,4.51ZM179.52,252.29h-.32c-.53-.43-1.16-.96-1.16-1.51.74.33,1.79.33,1.79,1.19l-.31.32ZM96.64,253.15h0c-7.3-.75-14.91.42-22-2.58,7.62.76,15.44-.1,22.73,2.47l-.73.11ZM105.73,253.57h0c-6.13-2.67-12.27-8.8-15.44-14.92,1.79-.44,3.7-1.29,5.29-.11l1.69-.87c2.65,3.23,4.87,6.99,6.24,11.71.95,1.39,1.48,2.9,2.22,4.18ZM258.91,254.22h0l-.42.11c-.42-.76-.74-1.5-1.16-2.79-.32-2.36-.42-5.59,1.58-6.87,1.06-.43,2.43-.43,3.6-1.18,2-.32,4.54.32,5.7,1.61l.53,2.79c-3.38.32-5.5-2.04-7.72-3.55l-.74.43-.31.65c.64,1.08.84,1.71.84,3.22.21,2.26-.84,4.19-1.91,5.58ZM110.6,254.77h0c-2.96-1.73-4.87-4.4-6.03-7.84-.75-3.11-3.06-6.01-3.7-8.27,1.8.96,3.7,2.69,4.87,4.62,1.8,3.87,3.7,7.63,4.87,11.5ZM192.31,255.52h0l-.32-.1c.75-1.4,1.27-2.91,2.01-4.3,2.54-4.61,3.7-9.02,7.51-11.81-1.48,2.79-3.07,5.69-3.9,9.34-1.06,2.9-2.34,6.01-5.29,6.88ZM211.55,255.94h0l-8.88-.21c3.17-1.93,6.76-1.4,10.36-2.9,5.71-1.5,11.53-1.72,17.02-.32-1.48.97-3.07,1.07-4.87,2.05-4.76.86-8.99,1.39-13.64,1.39ZM176.24,256.59h-.2c-.53-1.18-.74-3.02.2-3.33.74.32,1.38.55,1.7,1.29-.53.86-.95,1.39-1.7,2.04ZM126.13,256.59h0l-.11.11c-.74-.53-1.48-1.18-1.58-1.93-.21-.54.21-1.3.84-2.04.32-.43.85-1.08,1.37-.43l-.32,3.98-.21.32ZM121.59,257.01h0c-.95-.32-1.91-.74-2.43-1.5l.21-.43c.96-.43,2.01-.11,2.43.43l.84,1.5h-1.05ZM179.52,257.77h0c-.32-.33-.42.1-.42-.43.32-.65.84-1.4,1.48-1.4h1.16c.11.65,0,.97-.21,1.4l-2.01.43ZM63.44,257.77h0v.1c-2.64-.64-3.91-2.36-5.29-4.41,2.43,0,5.5.11,6.97,1.73.11.64.42.75.54,1.07.42.32.63.43.74.74l-2.02-1.07c-.52.33-.95.75-1.06,1.07,0,.33.11.66.11.76ZM64.93,260.78h0l-.32.11c.32-.54-.21-1.5.32-1.61.63.31.74.31.95.64-.21.54-.64.54-.95.86ZM106.68,263.04h0l-.31.11-1.79-2.36h7.08l-4.97,2.26ZM166.72,264.97h0l-.42-.22c2.75-3.22-.43-7.52-.74-10.85,1.27.65,2.54,1.08,3.38,2.04.11.65.42.75,1.05,1.5,1.16,2.15-.74,4.63-1.38,6.77l-1.9.75ZM122.64,264.97h0c-2.54-1.93-5.7-3.01-8.98-2.58l-.21-1.28c4.65-.65,8.77,2.47,13.21,3.11v.43l-4.02.32ZM92.09,265.72h-.32l7.09-3.12c-.42.98.32,2.15-.42,2.79l-6.35.33ZM113.87,266.47h-.31c-.32-.65,0-1.83.53-1.93.53.21.74.43,1.06.85.43.44.32.77,0,.77l-1.27.32ZM81.74,266.47h0l-.22-.22c4.97-1.5,8.99-3.87,13.43-6.54,3.59-1.84,8.03-2.7,11.94-2.27.33.43.21.65-.21.65-9.62.44-15.75,8.07-24.94,8.38ZM55.73,266.69h-.31c.31-.86,1.27-1.4,1.9-2.36,1.26-1.51,3.38-2.68,5.61-2.47-.74.43-1.38.54-1.7.97-.21.65,0,1.18.21,1.4l.54.53-6.24,1.94ZM102.35,267.43h0l-.21-.11c-1.06-1.17-1.38-3.33-.63-4.94l.84-.31,1.47,1.82c.33,1.18.64,2.79-.42,3.54h-1.05ZM106.68,268.62h0l-.52.22c-.42-.32-.53-.65-.42-.86.32-.65.95-1.07,1.16-1.82,1.27-1.41,2.96-2.58,4.44-1.94-.1.53-.1,1.17-.1,1.94-.42,1.28-1.16,2.25-2.44,2.47l-1.37-.44c-.53.22-.63.33-.74.44ZM98.44,271.52h0c-.63-.22-1.38-.65-2.12-.75-.95-.64-2.43-1.61-2.32-2.79,1.16.11,2.32-.54,3.7-.32,1.26.53,2.32,1.72,2.64,3.12l-.42.43-1.48.33ZM103.4,271.84h-.42c-.32-.65-.74-1.4-.32-1.72h1.37l.11,1.4c-.33.32-.43.32-.74.32ZM105.2,282.26h-.32l-2.22-7.72-.52.21c-.74.64-.96,1.4-1.38,2.58-1.06,1.07-2.54,2.68-3.7,2.57v-1.5c.32-2.37,2.43-3.86,4.34-4.84l1.27.76,1.8-.32s.42-.11.74-.43c1.69-.75,1.16-2.48,1.69-3.43l.75.32c1.8.75,4.01,3.01,4.33,4.61-.53.22-1.06,0-1.8.33-2.01.76-2.64-2.04-4.24-2.36-.42.32-.63.53-.73.97,1.27,2.26,1.59,5.7.42,7.94l-.42.32ZM199.5,269.7h0c-.42,0-1.16-.43-1.16-.75l1.69-4.2.64,3.44-.85,1.4-.32.11ZM156.05,270.45h0l-.31-.11,2.53-9.02v6.87l-1.48,1.94c-.32.21-.64.32-.74.32ZM142.62,270.77h0c-4.75-1.5-9.73-3.55-14.8-1.5-2.23.11-4.12,0-5.08-1.84-.1-.42.32-.53.64-.75l14.27,1.29.22-.75-3.5-2.58c-.41-.65-.52-.86-.84-1.61-.64-2.26-.32-3.87-.21-5.7.53-.86,1.48-2.14,2.43-2.14-.52.75-.31,1.07-.64,2.14-1.26,6.88,4.55,9.68,7.83,13.43h-.32ZM202.25,272.81h0l-.1.22c-.42-.64-.74-1.83-.21-2.26l5.82-.32-.53.64c-.95,1.3-2.32,1.94-3.91,1.3-.64,0-.64.42-1.06.42ZM148.33,273.03h0l-2.54-.97v-.98c-1.16-1.71-2.32-3.43-2.32-6.11.31-1.39.31-3.86,1.47-4.41.64,2.48.64,4.73.85,7.41.31,2.15,2.11,3.87,3.28,5.05h-.74ZM125.18,273.03h0l-4.86-2.26c-.74-.86-1.06-2.15-.96-3.12.53-.32.96,0,1.05.32.21.65.43,1.29.75,1.72,4.43,4.62,11.2-1.51,16.17,1.82l-12.15,1.5ZM198.33,273.35h0c-.42.11-.42-.54-.42-.75l.42-.65c.53-.1.74-.32,1.16-.1,0,.54-.31.97-.42,1.18l-.74.32ZM168.52,273.56h0l-6.03-1.93c4.66-1.18,9.95-.43,14.07,1.5l-8.04.43ZM66.83,273.88h-.42c-.53-1.07-.11-2.04-.74-3.44.74-2.47.42-5.48.74-7.63l1.47,4.2.74-.33c.53-.75.53-2.04.53-3.11l.32,2.58s.32.43.42.86c.53,3.11-1.16,5.37-3.06,6.87ZM236.07,275.06h-.21c-2.21-1.18-2.64-3.22-2.96-5.47l1.37.86c.43-.11.64-.32.74-.43l1.06-6.45,5.5.64.21-.64-4.12-3.01,2.01-1.72.74-1.5c-.21-.65-.53-.86-1.16-1.07-1.27.43-1.9,1.4-2.75,2.26.11-.33.31-.65.74-1.08,2.32-1.93,6.23-3.64,9.51-3.22-.43.75-.74.97-1.17,2.05-1.37,1.18-2.63,2.9-4.54,2.9-.64.21-1.37.86-1.37,1.39.74,1.4,1.79,1.82,3.28,1.72,3.06.76,4.86,3.54,5.6,6.34,0,0-.32,0-.74.22-4.33.11-7.4-2.68-10.26-4.09-.53.22-.95.76-.95,1.41,1.79,2.79.42,6.12-.32,8.8l-.21.11ZM189.77,278.07h0l-.42.1-.63-.53,1.06-1.5,4.97-1.83.52-.97-.52-.75c-1.16-.75-2.64-1.72-3.49-3.32-.1-.65-1.27-2.58,0-2.8l2.54.43c2.32,1.93,1.59,5.37,2.01,8.15-1.27,2.36-3.49,3.12-6.03,3.02ZM205.1,279.9h0l-.52.11-3.49-2.36-.42-2.36,3.07.21s.31.22.74.53c1.37.65,1.05,2.48.63,3.87ZM196.54,283.44h0l-.32-.11c0-1.5-.74-3.22,0-4.94.42-.97,1.8-2.68,2.53-2.25.11,2.57.32,5.47-1.48,6.97l-.74.32ZM6.39,108.65h0c-.51,4.46,1.59,9.12,3.34,13.11l6.13,9.35-2.75,3.87-6.77-4.63c-.43,0-1.05.22-1.05.76l1.8,7.95-7.09,3.97c0,.33,0,.44.32.76l5.7,3.01c.43,2.69-.31,6.13-1.89,8.49l8.66-3.64s2.67,4.04,3.77,4.12c1.1.07,3.87-2.71,3.87-2.71l3.16,8.9s-7.4-4.99-14.92,1.61c-3.38,3.54-3.48,9.88-.84,14.5,1.59,1.62,2.22,2.91,3.8,3.54l1.06-.32c-1.06-2.04-1.06-4.72-1.79-7.09-.32-2.47.18-7.38.82-9.42,4.54,2.69,10.39,6.96,14.06,10.58,4.14,4.1,2.77,10.01,5.94,13.55l-4.13.75c-2.43-2.25-4.12-5.8-8.46-6.12-1.9-.11-3.59-1.18-5.28-1.07l-.42.64,4.75,6.12c-2.33,2.26-5.5,3.97-7.61,7.31-.84.53-1.91,1.17-2.01,2.04l.21.64c2.97-.64,6.24-.64,9.3,0,.74-.11,1.27-.11,1.8,0l.95,6.67.74.32c1.05-.75.95-2.36,1.79-3.22l2.54-1.83,1.69-3.12c-.4-.5.7-4.48.7-5.82l4.71-1.1c6.22,13.56,20.69,28.12,28.33,39.61-11.73-3.01-23.69-26.15-39.33-22.39-2.65,2.79-4.33,7.85-3.07,12.36,1.06,4.52,3.7,6.66,7.4,8.38,2.44.86,4.13,1.94,6.02,3.22.22,0,.85-.11.96-.43l.53-.53c-2.12-6.77-11.21-7.63-12.48-14.5.85-2.25,3.81-1.93,6.13-1.82,5.39,1.5,8.45,6.56,12.79,9.99-1.37,2.57-2.21,4.94-1.9,8.06l-10.05,2.58-.31.53,6.34,5.59-4.54,7.09c0,.64.1,1.07.74,1.29l4.22-.32,5.07-1.18.53.21,2.96,6.02h.74l3.91-4.19.43-2.79,5.6-.33s-.76-5.6-5.4-7.09c0,0,9.48-9.54,21.47,4.52,4.34,1.51,8.46,2.69,12.47,4.08v.43l-15.75-.64-.53.54c-.31.21-.21.86.21,1.18l12.79,4.3c0,.43.43,0,0,.64-3.07.11-6.76,2.9-9.94,2.14-2.11-3.22-6.34-5.15-10.78-5.37-1.69.55-3.49,0-4.97.97l-.11.75,8.35,6.13v.75c-5.6,1.18-7.19,6.02-10.99,9.02l-.32.75c0,.33.11.65.54.75l13.53-3.97.43,10.84c.31.87,1.47.11,1.69-.1,2.74-2.91,6.02-5.7,5.49-9.99-9.07-18.43,35.37-10.55,35.59-10.32-16.76-1.32-23.44,7.29-23.55,7.29-3.29,2.32-5.72,3.91-5.72,3.91,4.14.28,8.37-.12,12.19-1.96.21.12.31.55.31,1.08,1.48,2.36,4.02,4.82,6.66,6.12-1.47,2.46-2.33,6.55-2.12,9.67l6.24-3.33,3.49,6.56h.74c.85-2.69,2.96-5.06,2.75-8.18,1.37-1.5,4.12-.64,6.02-.64,1.17-2.04-.95-3.97-2.21-5.58-.53-.75-.74-.97-.95-1.4l.1-.75,5.62-1.5,1.26,3.33c7.51,7.63,19.13-1.07,28.33,2.47l1.26,1.07c-4.12,3.34-9.41,6.77-14.91,9.25,0,0-.1.21-.31.64l.31.54,4.97.54,2.01,1.39h.21l.31-.1c.31-3.01,2.22-5.48,4.76-6.67,2.01-1.4,3.91-2.25,5.71-3.98,4.54.98,7.61,4.51,10.89,8.06l2.01,1.3,5.08-1.3.42-.53-8.24-4.51c-.32-.32-.32-.54-.74-.97l-5.71-4.73s3.4-3.67,16,1.3c-.56-.04,3.41,1.07,9.46,0-1.53-6.45-16.59-5.01-16.59-5.01l9.2-2.75c10.51-4.88,16.27-2.02,16.27-2.02l2.03,7.08v.75l-5.39,4.72c-.21.12-.43.75-.21,1.19,2.53.75,5.07.75,7.72.65l1.9,6.35.53.31,2.85-1.93,2.43-3.76.74-.21,4.02,2.8c1.27-1.61,2.22-4.29,1.58-6.98-.32-.96-.73-1.07-.73-2.15l5.92-6.12-8.67-.23-2.42-6.63-4.76,5.15-6.23-3.66s5.14-5.1,9.49-5.54c-.39-.08,24.55,1.84,29.52,4.05,0,0,.22,8.43,1.26,8.7,1.48,2.58,2.02,6.13,5.29,7.2,1.16,0,1.59.85,2.43.43l1.47-8.7c3.81.32,8.57,3.11,12.8.97.21,0,.31-.22.31-.65l-.31-.64-1.48-.65c-1.91-2.25-3.38-6.34-6.77-7.41,1.27-2.36,4.75-4.3,5.07-7.84v-.75c-4.54-.11-10.47,1.29-13.85,4.51-1.58,1.61-2.95,3.44-5.6,3.11-2.43-1.07-4.33-.96-6.55-2.26,0,0-.22-.32,0-.65,4.65-.85,8.67-2.78,12.47-4.82.52-.55.84-.64,1.26-.97.22-.32.33-.54,0-1.07-4.33.96-8.87.96-13.32-.11,0-.53-.64,0,0-.53,3.49-1.5,7.93-4.08,12.06-3.33,2.43,1.93,5.08,4.51,8.46,3.87,3.91-.43,7.19-.11,10.78-.53l1.69,8.16c.21.32.31.55.74.76,3.28-1.93,4.44-5.59,5.81-8.91l7.72,1.18-1.27-6.77c0-.11,0-.43.21-.76,2.64-.75,4.76-2.79,6.66-5.04.32-.32.11-.86-.32-1.19-3.7.43-7.51-2.57-11.31-.64h-.74l-.85-9.35c-.1-.64-.1-1.07-.63-1.18l-.74-.21c-.95,2.47-2.33,4.51-3.6,6.45-.32,1.18-.42,2.36-1.06,3.33l-7.19-2.15c4.44-4.51,10.57-7.19,15.54-11.5,4.76-2.68,9.83-6.99,16.07-6.12.43.32.74.75.95,1.72-2.43,5.8-11.1,5.48-11.41,13.64l.1.75c0,.22.31.22.64.33,3.7-2.8,10.46-2.8,11.84-8.38,1.05-2.04.32-4.19,1.05-6.12v-.75l-1.79-5.38c-1.69-2.69-6.24-2.36-9.2-1.5-7.08,2.15-11.31,6.88-17.23,9.77-.52-.43-.21-1.51-.1-2.36,7.4-5.37,15.85-11.71,18.61-21.69l.64.32c-.43,4.94,3.06,7.73,6.02,11.5h.85l1.49-6.45c1.47-.43,3.59-.43,5.28-1.18,1.59-.11,2.12,1.07,3.28,1.07.95-3-1.69-5.37-2.96-7.95-1.17-1.28-2.22-1.81-3.07-2.47l1.27-4.4c.31-.75,1.68-.86,1.9-2.04-.1-.65-.74-1.18-1.48-1.5-4.02,0-7.72,1.61-10.04,4.73-.74,1.17-2.12,2.57-3.18,3.21-.84,0-2.01.11-2.64-.64.74-1.4,2.12-1.94,3.17-3.11,5.81-6.02,9.51-11.93,13-18.48,1.16-.32,1.8.54,2.54.86,1.27,2.58.53,5.81-.42,8.38-.64,1.62-1.38,2.47-2.12,3.54l.22.65c.21.22.53,0,.95.11,3.28-1.82,4.87-4.94,6.03-8.91.43-3.34-1.16-6.34-2.64-8.38,3.07-2.15,5.49-5.7,6.76-10.09l-.53-.22-1.79,1.29-.63-.31-.74-7.31,5.92-2.47c.85-.75,0-2.15-.64-2.91-.42-.2-.52-.41-.63-.85l-3.7-1.62c-.43-2.9,1.06-6.77-1.38-9.24l-5.39,5.16-3.28-3.87c1.37-1.18,2.54-2.68,3.6-4.29,0,0,4.21-6.45,2.46-11.76l-.42.14c-1.79,1.43-8.86,10.33-11.41,16.46-.44-1.13-1.54-13.84-3.07-16.5l2.96-2.32,3.07-2.77c.55,1.77,6.14,3.76,6.14,3.76l6.7-1.59c-.17-.29-.48-.23-.66-.62l.58-3.43-.49-.32c-.31.06-.53.11-1.02.32-1.83-.49-4.11-2.65-6.93-2.71-.18-.84.66-1.46,1.2-2.01,2.11-2.86,1.91-5.89,1.95-9.31-.01-.1-.16-.29-.69-.18-.91,2.39-4.46,3.47-6.43,5.42l-.79-.16-4-8.38c-2.26,4.21-2.15,10.45-.64,15.17.49.77.95,1.44,1.26,1.92.13.63,1.06.44,1.55,1.22l-4.31,3.11c-.65-1.59-1.71-4.69-1.93-6.31l.05-.03-.1-2.53,1.19-10.96-.79-3.26c-.1-.38-1.1-1.23-1.46-1.65-.27-.26-.57-.31-1-.18l-1.69,5.58c-.89-1.42.21-3.02-.33-4.68.21-1.22.37-2.14,1.05-3.06l2.83-1.39,2.02-3.95c-.78-.87-2.02.9-3.3-.06l-.34-4.57-.53-.52-2.12,1.52-1.31,1.55c-.83.59-1-.8-1.83-.75-1.32,1.03-1.17,3.16-.93,4.78,2.92,3.46,4.09,8.6,3.27,13.29l-3.89-4.99c-1.01-2.49-.85-5.83-.96-8.78-.75-2.24-1.09-4.39-2.76-6.16l-.63.1-1.02,5.28c-1-.17-1.66-1.13-1.88-2.23.7-3.45,1.73-7.57-.9-9.71h-.62s-2.73,3.19-2.73,3.19l-5.06-1.21-.43.67,1.73,4.92-2.33,2.11-1.58.77-.02.74c1.81,1.47,4.64,2.4,6.76,1.51,1.06-.75,2.17-.57,3.14-.81,2.57,1.29,4.8,3.89,5.48,6.53-2.69.05-5.87-2.5-7.84-4.22l-.63.09c1.4,4.45,4.67,8.82,8.63,11.61.4.07.69.23.69.23l-.07.41.65.43c2.98,1.26,5.34,3.14,7.19,5.05l1.28,3.5c-.5-.49-1.01-1.04-1.53-1.62l1.29,1.74c0,.11-.11.32-.53.32-5.93-7.51-12.9-12.24-19.88-16.43-.53,3.44,2.85,6.44,4.55,9.24,2.85,2.36,5.5,5.26,7.93,6.87-.64,1.18-2.01,1.18-3.18,2.37-1.91-2.37-3.06-5.48-6.45-6.56l-.74.22,1.05,8.06-8.56,2.46c-.1.22-.64.33-.42.76,2.01,2.36,4.86,3.76,8.35,4.08l-2.96,7.84c0,.22,0,.75.42.97l8.14-4.41c.53.43.74,1.18,1.49,1.83,1.48.32,2.64,1.5,3.17,3.11.21,0,.32.21.74.32,1.38-.65,1.58-2.68,1.8-4.3.1-.53.1-.75.74-.64.52.43,1.58,1.39,1.58,2.36-.32.43-.85.32-1.27.43l-.32.64c1.05,4.3,3.91,8.06,7.61,10.85.1,2.9,2.22,6.02,1.16,8.71-4.12-4.62-9.41-10.85-14.38-16.23-.63-.97-.63-1.5-1.16-1.82l-.63.32c2.96,13.21,15.86,19.99,16.07,35.66-.95,3.44-2.11,6.02-4.13,8.81-2.33,3.44-3.28,7.42-5.28,11.39l-.74-2.68.22-8c-.43-.62-.69-1.6-.43-2.4l8.12-3.55c0-.09.09-.27.17-.62l-.17-.62c-2.19-1.96-5.5-.18-8.29-.98-.79-.62.6-1.68.17-2.57-.26-.44-.87,0-1.4-.08-.97-2.05.44-4.7,1.48-6.21.96-.63.7-1.33,1.49-1.6,1.39,2.84.17,6.21-.88,9.13,0,.09,0,.35.35.35,1.83-1.51,1.74-4.51,2.18-6.91-.35-1.94,0-3.99-1.05-5.23l-.61.1-4.19,5.59c-1.31-2.48-2.97-5.06-5.77-6.47-.26-.36-.35-.63-.61-.71-.27-.09-.71-.09-1.14.08l2.45,11.71-7.51.8-.27.36c.95,2.04,3.57,3.9,5.58,5.31.35,0,1.13.1,1.22.63-.96,1.24-.88,3.28-2.1,4.43v.49c5.94-1.42,6.91.75,6.91.75,6.04,6.3,2.01,17.45,2.01,17.45-1.53-13.27-11.35-14.79-11.35-14.79l5.03,11.11-4.12,6.33-6.77-7.3-.74.11.43,9.88c0,.43-.11.85-.43,1.18l-7.29,2.79c1.17,2.37,4.34,3.45,6.98,4.63,0,0,3.27.66,6.11.34.32-.32,3.09,1.74,2.75,5.29-.61.17-6.15,4.59-6.15,4.59l-1.73-.04-.69-4.55-5.16,2.43c0,.21-.11.21-.53.33-1.07-.65-1.48-1.51-2.85-2.58-.64-.75-.42-1.94-.95-2.36-.33,0-.64,0-.75.32-1.48,3.76-2.64,8.38-.42,12.25,1.17,1.08,1.48,1.61,1.9,2.47-1.37,6.01-4.12,11.49-7.93,15.25l-.74.32-.64-.32-1.69-2.47c1.69-2.69,5.71-4.51,6.56-8.38l.74-.75-.11-.75-10.14,1.83-2.85-10.1h-.74l-3.92,7.95c-.84,1.61-3.38-.32-4.97-.43-1.49-.65-2.43-1.62-3.59-2.36l-.53.21c-.32,3-.21,6.44,1.27,9.45-1.82.88-3.47,1.92-5.01,3.11,0,0,.79,3.66,9.14,4.84,0,0-8.39,11.23-13.81,13.55.07.77,3.85-16.22,3.85-16.22,0,0-6.37,3.58-13.51,18.25-1.9,1.94-4.44,2.48-5.6,4.62-.43.65-1.48.32-2.01,0l-8.25,2.48c-.1,0-.32-.22-.32-.65l3.06-2.47c2.44-.64,5.61.43,7.4-1.5,1.17-1.18,2.23-2.25,2.65-3.87l-.31-1.07-3.7.32c-.84,0-.43-1.08-.1-1.51.52-.75.74-1.18,1.26-1.82,4.44,0,7.51-3,9.83-6.13.74-2.04,1.48-3.23,2.64-5.05,0-.33-.21-.65-.64-.75l-7.51,2.79-3.27-10.31c-.32-.11-.53-.11-1.06,0l-3.17,9.77c0,.86-1.05.75-1.79.54-2.33-.97-4.86-1.61-6.45-3.65l-.54.11c-.2,3.54.96,7.63,3.07,10.1.74.64,1.17.97,1.59,1.5-.84,2.25-3.8,4.41-2.22,7.3.32.65.75.76.85,1.4,0,1.19-1.16,1.93-2,2.69l-.64-.22c.21-3.11-1.17-5.79-3.6-7.41-3.06-1.28-6.44-1.5-7.82-4.51v-.96c.32-1.08,1.8-.97,2.33-1.83.21-.43,0-1.07-.21-1.18l-5.07,1.29-.42.64v3.55c3.07,3.11,7.82,4.84,8.25,10.96-.63,3.65-3.06,5.04-4.86,7.3v-5.26c-.42-2.69-.74-5.69,1.06-7.62l-.21-.54-.85-.21-2.96,2.47-5.29,15.04c-1.8.32-3.06-2.15-4.44-3.33-.84-5.16-1.16-10.1-3.38-14.4-.22-.32-.74-.53-1.28-.75l-.63.43c.63,2.47.74,5.48-.85,8.17-.1,1.39-.43,2.26-.32,3.33-1.06.97-2.43-1.83-3.49-2.58-1.47-2.04-1.38-4.62-.74-6.88,1.8-3.43,6.13-3.01,7.3-6.87.63-1.71,1.06-4.4-.54-5.59-1.37-.64-1.9-2.04-2.96-2.26l-.63.22,1.06,3-.53,2.91c-2.96,4.61-11.31,6.23-9.83,13.96-.21.32-.21.75-.74.64l-3.16-3.76c1.79-3,.63-6.45,1.27-9.88,0,0-.22-.11-.64-.21l-.63.11-4.23,4.3c-.85,0-1.17-1.19-1.17-1.94,0-.43.33-1.18.33-1.18.74-1.18,2.01-1.93,2.96-3,4.34-2.69,5.39-7.42,6.02-12.04,0-.43-.21-.64-.74-.75l-7.82,5.48-4.22-11.06c-.21,0-.31-.11-.74-.21l-.64.21-2.65,10.52c-2-.64-4.96-2.26-7.5-1.39.95,2.36,3.38,3.65,4.12,6.13,2.12,2.57,4.02,5.05,7.09,5.8.74.32,1.8,1.19,2,2.25,0,.33,0,.65-.1,1.07l-3.8,1.08c-.12.11-.64.22-.64.75,1.38,2.36,3.27,4.3,6.33,4.62h2.97c.74.43,1.27,1.39,1.91,2.15-.32,1.29-2.33-.22-3.39-.11-7.82-1.82-11.94-7.74-14.27-14.61-1.16-4.08-3.38-6.23-6.03-8.7-4.55-1.5-6.98-4.63-10.68-6.99,0-.53-.42,0-.1-.53,1.59-2.25,3.91-4.51,4.23-7.63l-9.83,2.04c-1.38-3.01-2.96-6.45-5.71-8.92h-1.05l-1.06,8.92c-1.48,1.39-4.86.75-6.55.43-.63-.22-1.05-.43-1.16-.54-1.06,1.61.53,4.18,1.16,5.69.74.64.74,1.18,1.27,1.72l2.64,1.83-1.59,2.48-.74.2c-.31-.2-.63-.64-.85-1.4-4.76-4.19-7.93-8.81-9.41-15.04,3.59-3.76,5.7-9.56,3.81-15.25-.22-.22-.74-.43-1.38-.22,0,1.52-.74,2.37-1.58,3.55l-3.81,3.12c-.11,0-.42,0-.74-.32l-.62-1.19-.23-.4h-6.58s-1.27.37-.55,1.25l1.87,1.06s1.69,3.16,1.76,3.72c0,0,6.28,4.7,4.49,3.65-.28-.17,1.02,3,.66,2.76,0,0-12.59-9.73-12.59-11.28-8.07-8.22,8.29-6.25,8.29-6.25,2.12-1.61,6.17-2.34,7.22-5.56v-.65l-8.24-1.83c.1-3.11,1.27-6.97-.32-10.2,0-.75-.1-.97-.31-1.4-.1-.31-.74-.53-1.16-.31l-5.39,5.9c-1.16,0-1.48-1.61-2.54-2.04-.42-.64-.74-1.61-.52-2.58,5.39-4.72,7.61-13.1,5.5-19.76-.54-1.73-1.38-2.47-2.12-3.66l.1-.43c2.02-.32,4.02-.97,5.19-2.68.85-1.5,1.16-2.9,1.27-4.4l-7.51-1.19c1.48-3.97,1.17-8.81.64-13.21,0-.53-.64-.75-1.05-.75l-6.03,8.27-6.77-5.37c-.84,4.4-.43,10.31,1.69,14.39-2.12,1.29-4.86,1.94-6.98.43-.43,0-.74.11-.74.75l2.53,3.76c1.9.65,3.81,2.36,6.34,2.04l-.74,4.08-4.44-2.36.1,6.87-5.39-7.63c-2.64-11.71,3.49-21.81,10.26-29.32,3.06-3.76,6.66-7.1,6.34-12.47-.1-.75-.85-.54-1.48-.64-.32-.76.21-1.4.74-1.93l4.23,3.11c1.06-.11,1.38-1.94,1.69-2.79.22-1.72-.21-3.33-.52-4.84l3.91-2.36c.21,0,.85.32,1.27,0,.64-.44.43-1.5.11-2.26-.96-2.24-4.23-1.5-6.45-2.24.32-2.37,1.38-5.92.74-8.92,0-.75-.52-.65-1.15-.43l-6.77,5.79-3.81-1.82c-.11-.11-.32-.21-.32-.75,5.93-4.4,13.43-8.59,15.86-16.98,0-.32-.1-.53-.73-.75l-5.73,3.91c1.73-2.02,3.11-4.3,3.96-6.64l-.63-.12c-2.05,1.62-5.34,4.03-8.03,3.85.8-2.61,3.16-5.1,5.77-6.28.97.3,2.07.15,3.1.95,2.07.99,4.95.2,6.83-1.19v-.73s-1.53-.84-1.53-.84l-2.24-2.23,1.96-4.84-.39-.67-5.11.97-2.58-3.32-.61-.02c-2.73,2.02-1.89,6.19-1.34,9.67-.27,1.07-.98,2-1.99,2.13l-.77-5.32-.64-.12c-1.74,1.68-2.19,3.83-3.03,6.02-.24,2.95-.23,6.29-1.36,8.73l-4.11,4.8c-.6-4.72.81-9.81,3.88-13.12.31-1.61.55-3.71-.71-4.81-.84-.1-1.07,1.28-1.87.66l-1.23-1.61-2.05-1.62-.55.49-.55,4.56c-1.32.9-2.48-.93-3.3-.1l1.85,4.04,2.76,1.53c.64.96.75,1.88.91,3.11-.62,1.65.42,3.28-.54,4.66l-1.44-5.66c-.43-.14-.73-.11-1,.13-.39.42-1.43,1.2-1.53,1.58l-.94,3.22.68,11-.1,1.24-.24.04c.12,1.4.21,2.78.25,4.17-.42,1.19,0,1.94-.53,2.8l-.73.22c-1.8-2.7-5.18-6.02-4.55-10.21,2.01-3.86,1.91-8.27.11-11.71-.85-.75-1.06-1.52-1.27-2.15l-.74-.11-.42.43-.64,4.08c-1.06.54-1.48,1.93-1.9,3.23l-8.03-2.26c-.53.21-.74.32-.95.76l4.86,8.37c-1.06,1.94-2.54,3.77-4.97,3.98,0,0,2.86,2.52,6.56,2.26l4.48,7.63,3.34,13.22-15.09-20.32ZM50.32,204.61l6.53.7-6.53-.7Z"/>
  <path class="cls-7" d="M117.04,7.79c.33.15.61.32.85.53l.62.61-.24.36-.29.35-.25.35-.28.34c-.1-.12-.3-.31-.62-.58-.81-.66-.98-.29-.33-1.25l.28-.34.24-.37ZM93.48,18.03c-1.25,1.69-3.41,1.11-4.17.93-.47-.12-.19.28,0,.52.79.94,2.04,1.22,3.11,2.39.42.46.8.81.76.75l-.23-.91c-.03-.4-.66-.63-.5-1.01.91-2.18,4.84-3.96,5.61-1.21.35,1.21.44,1.07.64.09.68-3.33-3.57-3.76-5.21-1.55M187.11,16.23c.24-2.46.41-5.2.64-7.66l.6.41c.73.48.45.17.18-.55-.42-1.12-1.15-2.93-1.28-2.92l-.75,2.11v10.35s.61-1.73.61-1.73ZM168.55,20.45l.33-.29.63-.64-.77-.66-.53-.68-.33.3-.3.32-.33.29-.29.32.52.7.76.66h0l.3-.33ZM165.99,20.33l.33-.29.62-.64-.76-.65-.53-.67-.33.3-.29.32-.34.3-.29.32.51.7.77.65.3-.33ZM239.74,57.43l.43.03c.2-.01.5-.02.89-.02-.07-.35-.11-.68-.1-1,.03-.43.05-.71.1-.86l-.45-.02-.43.02-.44-.02-.43.02c-.04.19-.08.48-.11.87-.01.32.02.67.09,1.01h0l.45-.03ZM237.52,55.32l.43.02c.19-.01.49-.02.89-.02-.07-.35-.1-.68-.09-1.01.02-.42.04-.7.09-.86l-.44-.03-.43.03-.45-.03-.43.03c-.04.2-.07.48-.11.87,0,.33.02.67.1,1.01h0l.44-.02ZM249.36,57.82s.21,0,.6-.08c.38-.08.61-.12.69-.09l-.49,1.24c-.16,1.13.9,1.61,1.65,1.2l.58-.04.06.14c-.52.39-1.12.74-1.79,1.03-1.93.89-2.34-.97-1.91-2.17-2.33.47-2.03-1.14-1.59-2.38-1.54.22-2.39-.68-2-1.57-.49-1.19.57-.81-1.29-1.41-.98-.31-.27-1.37-.44-2.34-.33-1.81-5.97.43-6.77-.27-.84-.73-4.15-4.88-3.33-4.49,1.1.55,4.61,3.52,5.54,3.17,1.23-.47.28-1.85-.55-2.96-.6-.79.83-1.6,1.77-2.11.53-.29,2.05-.62,2.34.41.32,1.12-1.16,2.18-.53,3.62.74,1.63,1.76.68,2.69,1.08.41.17-.27,1.82.04,2.57.31.77,1.69-.13,1.84-.43l3.96-3.98c.42-.43,1.35-.36,1.94-.24l6.63,2.73-1.59.47c-1.29,0-5.9-2.79-6.58-2.11-.9.92-4.45,3.82-4.23,5.13l.07-.04-.06.08.02.05-.11.1c-.36.72.29,1.79,1.13,1.41.04-.02.22,0,.6-.08.37-.08.6-.11.68-.09.07.09,0,.31-.24.64-.24.33-.22.51-.25.62-.28.82-.12,1.35.93,1.22ZM95.93,25.64c-.77-.82-1.18-1.15-2.02-1.22-.61-.05-1.03.11-1.27.42-.18.28-.19.91-.04,1.92.28.98.73,1.28,1.38.91.61-.35,1.01-.37,1.2-.03.19.33.15.47.15.58-.13,2.58-3.58,4.94-5.97,5.74-1.43.48-2.75.58-3.99-1.12-1.07-1.46-1.8-3.57-.96-.63,2.34,8.03,15.99-1.77,11.52-6.58h0M88.05,25.24l.07-.53.18-.51.07-.52.68.28.53.19c.45.08.78.1.99.08l-.08.53-.08.29-.07.26-.04.25-.11.31-.03.23-.08.21c-.2-.01-.57-.03-1.1-.12-.23-.03-.59-.19-1.08-.4l.15-.57ZM71.32,35.32l6.18,5.19c.85.75,1.68.96,2.53.64l2.3-1.8c.37-.67.1-1.45-.35-2.12l-2.8-2.12-.1.94,1.44,1.24c1.72,1.46-1.91,3.16-3.33,2.05l-6.35-5.89.48,1.86ZM67.69,35.49c-.2,2.45.22,3.68,1.27,4.02l5.43,2.12c1.85.82,1.13,2-.1,2.2l-1.19-.21c-.56-.12-.73-.09-.59.57.02.84.44,1.59-1.28,1.71-.89.06-.57.27-.55.95.04,1.04-.38,1.55-1.52,1.42-.69-.07-.71-.32-.72.45l-.02,1.45c-.89,1.93-2.06,2.24-3.5,1.61-.96-.04-.53,1.39-.53,2.09-.21,2.12-1.61,2.61-3.72.95l-5.91-5.33-1.21.1,7.42,6.79c2.46,2.52,5.46,1.24,4.46-2.51,1.68.29,3.68-.62,4.19-3.86,1.82.12,2.93-.66,2.17-2.71,1.64.33,2.71-.12,1.93-2.14,2.66.49,4.87-1.77,2.1-3.94l-6.2-2.81c-.72,0-.82-.81-1.01-2.81l1.86-5.62-.93-2.46-1.86,7.96ZM113.57,17.63c.48.82,3.23.97,4.31-.77.33,1.14,2.14,1.43,2.81.22.36.8,2.04,1.34,2.73-.33l.03-.12c.32.26.89.45,1.72.4,1.02-.04-.14-1.2,1.24-1.2.23,0,.53.2.85.68.45.7,1.5,1.06,2.28.82.81-.25,2.6-3.32,2.29-.77-.16,1.46,2.24,2.02,2.14.33-.15-2.4.73-.88,2.4-1.25.59-.13.68-1.47.39-2.21-.9-2.32-1.92-3.15-2.75-5.15l-.09-1.92,5.93-4.65.31-1.72-6.8,5.17-.03,3.43c-.01.9,3.39,4.71,2.1,5.47-.43.25-1.52.66-3.29.02l-.73-.64c-.51-.48-1.06-1.62-.87-.37.6,4.06-3.74,2.2-5.01-.51-.53-1.12-.57-.69-.51.07.14,1.94,1.12,2.37-1.38,2.69l.03-.6-.14-.03-.32.48c-.29.83-1.94.93-2.22.04-.12-.37-.23-.55-.34-.55-.07.05-.17.24-.33.59-.39.85-1.81.92-2.11-.03-.12-.37-.24-.56-.35-.56-.05.05-.17.24-.32.59-.16.35-.27.49-.29.51-1.43,1.76-2.89,1.55-4.4-1.14-.47-.85-.54,1.14-.52,1.16.39.36,1.11,3.65.78,4.26-.35,2.94-5.21,4.3-6.65,1.66-.81-1.5-.88-3.19-.67-4.98.05-.45.45-1.78.26-1.36-3.68,8.38,5.15,13.43,7.55,5.39.25-.84-.21-2.9-.02-3.14M234.91,41.67c.14-.39.21-.68.23-.89.02-.2.02-.52.02-.97-.15,0-.41.12-.77.38-.36.24-.57.42-.61.5l-.04.33-.09.38c-.1.43-.39.83-.88,1.22-.48.38-.88.61-1.19.7-.14.08-.57.18-1.3.3-.73.11-2.23-.2-4.5-.93-.41-.14-.36.18.13.93.5.74,1.03,1.32,1.57,1.71.36.19.96.24,1.79.18.82-.07,1.48-.23,1.94-.47.57-.23,1.09-.55,1.57-.95.48-.4.81-.73,1-.93l.65-.75.47-.73ZM127.17,21.05l.24-.35c.1-.18.25-.44.45-.79-.33-.11-.64-.26-.9-.43-.35-.24-.58-.41-.68-.52l-.25.38-.2.39-.25.37-.2.39.68.53c.27.18.57.33.91.44h0l.2-.4ZM124.66,21.6l.25-.36c.08-.19.24-.44.44-.79-.33-.11-.63-.26-.9-.43-.35-.23-.57-.4-.68-.51l-.25.38-.2.38-.25.37-.2.39.68.53c.26.18.58.32.91.44l.2-.4ZM100.87,27.57c-1.19-2.08-2.6-4.32-3.78-6.4l.7-.03c.84-.03.45-.12-.17-.53-.96-.64-2.55-1.65-2.64-1.57l.59,2.08,5.78,8.15-.48-1.7ZM141.23,9.8c.13-.37.79-1.36,1.68-1.39,1.14-.03,2.27-.03,3.2.04,1.06.08,1.15.39-1.1,1.51-1.62.8-3.93,3.44-3.93,5.16,0,.37-.03,1.13.07,1.55.16.62.4.26.57-.33.17-.59.04-.92.11-1.31.07-.4.3-.94.69-1.43,1.49-1.89,4.34-4.02,5.46-2.72.26.31.16.88.25,1.51.12.81.59,1.43,1.46,1.69.95.28,2,.41,2.81-.08.37-.24,1.57-1.36,1.72-.88.22.7.53,1.32,1.04,1.57.4.18.85-.12,1.55-.52.27-.16.45.28.74.67.29.39,1.26,1.14,2.23,1.53.76.31,1.27.27,2.04.33,2.12-.14,3.48-.1,4.99-.35.54-.09,1.06.02,1.07-.58v-.61c-.58-.6-1.38-.8-2.23-1.09l-1.91-.66-.12-.57c.35-.05,2.39-.29,3.17-.64,1.06-.48,1.39-1.08,1.74-.79.77.65.43,2.53,1.32,3.3.17.15.65.56,1.31.42.51-.12.84-.8,1.37-.8.43,0,.96,1.07,1.42.95.56-.13,1.21-.9,1.42-.63.58.77.77,1.62,2.72.37.97-.62,1.63,1.92,2.38,1.92,1.91,0,3.67.72,3.66-1.43l-.02-3.39-.65.42-.09,2.36-1.98-.07c-1.43-.06-2.4-1.78-2.74-3.42-.43-2.13-1.05-4.33-.78-5.65.26-1.34,3.72-2.23,6.01-2.99.71-.24,1.6-.26,1.66-.69l.18-1.35c.05-.37-1.56.3-1.91.4-2.03.61-4.87,1.73-5.13,1.86-4.26,2.15.21,9.66-1.28,10.41-.87.44-1.36.05-1.49-.36-.76-2.35-1.16.43-1.75.37-1-.1-.89-2.57-1.87-1-.48.76-1.04,1.79-2.26-.05-.22-.33-.55-1.96-.63-3.03l-.14-.52-.66-.26c-.27,1.08-.44,1.79-.84,2.08-1.2.89-2.86,1.21-4.79,1.31-.68.04-1.41.05-2.15.05l-1.06.25c1.1,1.18,2.91,1.79,4.27,2.44.28.13-1.51.15-2.45.1-1.14-.05-1.72-.02-2.65-.64-.53-.37-.9-.78-1.26-1.29-.21-.31-.31-.91-.36-1.63-.02-.43-.04-.89-.04-1.37l.04-1.93-.62.88-.13.94c-.01.32,0,.67.01,1.02.06,1.64-.46,2.11-.83,2.04-.54-.1-1.03-1.25-1.34-1.52-.45-.38-.5.26-1.88,1.21-1.8,1.25-3.72-.71-3.68-1.95.02-.7.08-.62,1.12-.78.38-.05,1.4-.15,1.65-.55l.74-1.19c.43-.69-1.5-.64-2.59-.8-.83-.12-1.67-.13-2.51-.15l-4.56-.09c-.57,0-1.67,2.54-1.46,2.84M202.35,9.22c.6.63-.18,1.25-.71,1.3-.46.05-.98.18-1.21-.16l.49-.83c.12-.39,1.07-.68,1.44-.31h0M200.27,5.32c.08.91.04,3.45-.05,3.67-.21.57-.51,1.47-1.21,1.43l-.87-.06-.14.45c.57.15,1.13.31,1.72.38.74.09,1.73.21,2.47.06,1.77-.37,2.34-3.69-.95-2.71-.31.09-.16-.03-.18-.37-.06-.54-.07-1.5-.09-1.85l-.7-1ZM218.34,37.28l.43.02c.2-.01.49-.02.89-.02-.07-.35-.11-.68-.09-1.01.02-.42.05-.7.09-.85l-.44-.02-.43.02-.45-.02-.43.02c-.05.19-.08.48-.11.88-.01.32.01.65.09,1h0l.45-.02ZM223.36,28.68l.11.56c.56.73,1.49,1.7,2.77,1.44,3.52-.72.44,1.69-.24,2.39-1.96,2.05,3.28,7.59,5.11,5.82l.81-.78c.56-.68.95-.34.87.47-.13,1.46-1.89,2.17-2.91,2.2-2.25.06-4.9-2.42-5.53-4.88-.27-1.04-.13-2.04.47-2.92.73-1.08-1.47-1.55-2.54-1.93-.34-.11-.28-.12-.51.15l-.06.07c-.41.49-.87.89-1.4,1.2-.42.3-1.03.53-1.85.68-.82.15-1.41.14-1.8-.03-.6-.39-1.21-.98-1.82-1.77-.61-.79-.7-1.13-.27-1.02,2.36.62,3.89.83,4.6.64.71-.18,1.12-.33,1.24-.43.3-.13.66-.43,1.07-.89.42-.46.64-.93.68-1.42l.03-.43-.02-.37.53-.61.7-.48c.07.49.12.85.13,1.08.02.23-.01.56-.08,1h0l-.1.24ZM224.82,24.53l.43.02c.2-.01.5-.02.89-.02-.07-.35-.11-.69-.09-1.01.02-.42.06-.7.09-.85l-.44-.02-.43.02-.44-.02-.44.02c-.04.19-.07.48-.11.87,0,.33.02.66.1,1.01h0l.45-.02ZM220.32,39.18l.43.04c.19-.01.49-.02.89-.02-.07-.35-.1-.69-.1-1.01.02-.42.05-.71.1-.85l-.45-.02-.43.02-.44-.02-.43.02c-.04.18-.08.47-.11.86-.01.32.02.66.09,1.02l.45-.04ZM201.89,31.15l.38-.21c.17-.11.42-.26.76-.46l-.58-.82c-.19-.39-.3-.65-.34-.79l-.4.21-.36.23-.4.21-.35.23c.06.18.17.45.33.81l.58.82h0l.37-.24ZM204.56,31.8l.38-.19c.16-.11.42-.26.76-.46l-.58-.84c-.19-.37-.31-.63-.34-.78l-.4.2-.36.24-.4.2-.36.25c.06.18.17.45.33.8l.58.83.38-.25ZM203.15,19.21h.43c.2.01.5,0,.89,0-.07-.35-.1-.68-.09-1.01.02-.42.04-.71.09-.85l-.45-.02-.43.02-.44-.02-.43.02c-.04.19-.09.48-.11.87,0,.32.02.66.09,1h.45ZM234.76,32.58c.35.8-.6,1.1-1.12.95-.44-.12-.98-.17-1.07-.58l.74-.59c.26-.33,1.25-.25,1.45.22h0M234.19,28.19c-.24.89-1.17,3.24-1.32,3.42-.41.45-1.01,1.19-1.63.9l-.8-.37-.29.37c.49.35.95.69,1.47.97.66.36,1.54.84,2.29.96,1.79.29,3.49-2.61.06-2.87-.33-.03-.13-.09-.04-.41.15-.53.47-1.43.58-1.77l-.32-1.19ZM209.82,28.16c1.19-2.07,2.42-4.43,3.6-6.51l.37.6c.44.72.32.33.36-.41.07-1.15.15-3.06.02-3.1l-1.49,1.56-4.11,9.13,1.23-1.27ZM55.35,54.12l.38,1.45,2.82,2.04c.67.54.79.93.84,1.8.42,6.37-6.54,6.08-8.83-.69l.47,1.84c.21.85.75,1.53,1.38,2.16,3.86,3.94,9,4.41,8.12-3.11-.13-1.02-.35-1.55-1.12-2.18l-4.07-3.3ZM61.89,47.78l.03-.45c0-.2,0-.49,0-.89-.34.07-.68.09-1,.08-.42-.02-.7-.06-.84-.1l-.03.45v.43s0,.44,0,.44v.44c.19.04.49.08.86.12.33.02.66-.01,1-.09h0l-.02-.43ZM59.99,49.51l.03-.43c-.01-.2-.01-.5,0-.9-.34.07-.68.1-1,.08-.42-.02-.69-.06-.84-.1l-.03.44.02.44-.03.45.02.43c.19.05.47.08.85.12.32.01.65-.02,1-.08l-.02-.45ZM85.42,41.26l.03-.43c-.01-.2-.01-.5-.01-.89-.34.06-.68.09-1,.08-.42-.03-.7-.06-.84-.1l-.02.44v.43s-.01.45-.01.45l.02.44c.19.04.47.08.86.12.32.01.65-.02,1-.08h0v-.45ZM83.52,43l.03-.44c-.01-.2-.01-.49,0-.89-.35.06-.68.1-1,.08-.42-.03-.7-.06-.84-.1l-.04.44.03.44-.03.45.02.43c.19.05.48.09.86.13.32.02.66,0,1-.09l-.02-.44ZM116.29,11.04l-.28.32-.52.73.86.52c.32.28.53.48.62.59l.29-.35.24-.35.28-.35.25-.36-.62-.61-.86-.53h0l-.24.38ZM118.85,10.76l-.28.34-.53.72c.32.15.61.33.86.53l.62.59.29-.34.24-.36.29-.34.24-.36-.62-.6c-.25-.21-.53-.38-.86-.54l-.24.38ZM55.86,60.28v-.44c-.13-1.16-.01-.77-1.06-.74-.42.01-.7,0-.85-.04v.45l.05.42v.45s.05.44.05.44c.19.03.48.05.87.06.32-.01.65-.07.99-.16l-.05-.44ZM167.63,23.22l.32-.29c.79-.86.58-.52-.13-1.3l-.52-.68-.34.3-.29.31-.33.3-.29.32.51.7.77.66.3-.33ZM183.22,20.98l.33-.28.63-.64-.77-.65-.52-.67-.33.28-.3.32-.32.29-.29.32.52.7.76.65h0l.3-.33ZM180.66,20.86l.32-.29.63-.63-.76-.65-.53-.68-.33.3-.29.32-.34.29-.29.33.52.69.76.66.31-.33ZM157.14,19.96l.32-.29.63-.64-.76-.65-.53-.68-.34.3-.29.32-.34.29-.29.32.52.7.76.65h0l.3-.32ZM154.58,19.83l.33-.29.62-.64-.77-.65-.52-.68-.34.3-.29.31-.34.3-.29.32.52.7.77.66.3-.33ZM154.36,5.64l.23-.36c.54-1.03.43-.64-.46-1.22-.35-.23-.58-.39-.68-.51l-.25.37-.19.39-.25.37-.2.39.68.54c.27.18.58.32.91.43l.21-.39ZM146.04,16.71l.24-.36c.53-1.03.43-.64-.47-1.21-.35-.24-.57-.41-.67-.51l-.25.37-.2.38-.25.38-.2.38.68.54c.27.18.57.32.91.43l.21-.4ZM206.2,24.42c-.05.32.29.91-.29,1.21-1.15.56-2.25-.97-1.84-2.8l-.34-.19-.21.61c-.24.66-1.29,1.1-2.18.88-.57-.15-1.17-.62-1.78-1.69-.77-1.37-.31-3.41.11-5.33.26-1.11.53-4.66.09-3.91l-.67,1.11c-.25.43-.11,1.02-.11,1.56,0,1.1-.11,2.23-.82,3.01-1.31,1.45-4.19,2.5-4.44-.26-.12-1.37.1-3.88.07-3.82l-.66,1.15c-.25.46-.21,1.13-.24,1.77-.09,2.02.41,4.3,2.26,4.42.85.05,1.9-.87,2.68-1.8l.44.46c-.67,5.22,3.02,5.64,4.17,4.63,1.97-1.76.48,1.35,1.84,1.94,1.47.62,2.81-2.03,2.88-3.53l-.96.6ZM110.13,19.19l.24-.37c.54-1.02.43-.64-.47-1.21-.34-.23-.57-.4-.68-.51l-.25.37-.2.39-.25.38-.2.38.68.54c.27.18.58.32.91.43l.21-.39Z"/>
  <path class="cls-2" d="M116.52,331.09h0v-27.55h25.89v4.66h-18.83v6.1h13.57v4.65h-13.57v7.5h19.5v4.64h-26.55ZM184.58,328.68h0c-1.7.83-4.39,1.96-6.33,2.39-1.94.44-3.94.66-5.99.66-2.19,0-4.29-.25-6.31-.74-2.02-.49-3.87-1.2-5.56-2.13-2.36-1.32-4.18-2.94-5.45-4.87-1.27-1.91-1.9-4.01-1.9-6.29,0-4.03,1.85-7.39,5.54-10.06,3.69-2.68,8.29-4,13.84-4,2.02,0,3.95.21,5.8.62,1.84.41,3.65,1.03,5.4,1.87l-2.63,3.67c-1.53-1.13-1.18-.49-2.84-1.05-1.67-.56-3.43-.85-5.29-.85-3.78,0-6.89.91-9.31,2.74-2.42,1.83-3.62,4.17-3.62,7.02s1.18,5.05,3.54,6.86c2.36,1.8,5.36,2.71,8.99,2.71,2.08,0,4.06-.33,5.95-.95,1.9-.63,1.12-.39,3.03-1.73l3.13,4.13ZM203.83,308.83h0v7.53h3.88c2.8,0,4.67-.14,5.61-.41.94-.29,1.68-.72,2.22-1.31.53-.59.8-1.28.8-2.07,0-.96-.38-1.77-1.13-2.39-.74-.62-1.7-1.02-2.85-1.18-.85-.12-2.55-.17-5.1-.17h-3.43ZM196.73,330.92h0v-26.59h11.38c4.31,0,7.12.14,8.42.4,2.01.4,3.71,1.26,5.07,2.6,1.36,1.34,2.04,3.07,2.04,5.18,0,1.63-.4,3.01-1.18,4.12-.78,1.11-1.77,1.99-2.99,2.62-1.2.63-2.42,1.06-3.67,1.26-1.7.25-4.15.38-7.36.38h-4.61v10.02h-7.1ZM81.16,325.83c1.73.54,2.63,1,4.07,1.24,1.45.25,2.82.38,4.1.38,2.21,0,3.98-.31,5.28-.97,1.3-.65,1.95-1.5,1.95-2.59,0-1.58-2.49-3.4-7.49-5.45-.59-.25-1.03-.43-1.33-.55-3.19-1.32-5.43-2.55-6.72-3.68-1.27-1.13-1.92-2.39-1.92-3.8,0-2.03,1.3-3.73,3.88-5.08,2.58-1.37,5.78-2.04,9.6-2.04,1.67,0,3.28.11,4.84.3,1.55.2,3.08.51,4.61.92l-1.55,3.38c-1.4-.49-1.21-.61-2.57-.85-1.33-.23-2.65-.36-3.96-.36-2.3,0-4.12.33-5.5,1.02-1.38.67-2.07,1.56-2.07,2.69,0,1.55,2.65,3.39,7.93,5.51.49.2.88.34,1.14.44,3.08,1.25,5.25,2.44,6.54,3.59,1.27,1.15,1.92,2.46,1.92,3.94,0,2.06-1.33,3.77-3.96,5.1-2.63,1.34-5.99,2.01-10.11,2.01-1.5,0-3.02-.11-4.57-.33-1.54-.23-4.08-1.07-5.73-1.52l1.62-3.29Z"/>
</svg>