<?xml version="1.0" encoding="UTF-8"?>
<svg id="Layer_1" data-name="Layer 1" xmlns="http://www.w3.org/2000/svg" viewBox="0 0 480.81 444.11">
  <defs>
    <style>
      .cls-1 {
        fill: #050502;
      }

      .cls-1, .cls-2, .cls-3 {
        stroke-width: 0px;
      }

      .cls-2 {
        fill: #412774;
      }

      .cls-3 {
        fill: #171617;
      }
    </style>
  </defs>
  <path class="cls-3" d="M96.71,121.85h-25.98v174.49h23.72v-77.24h6.08c34.18,0,54.58-18.43,54.58-49.29s-22.39-47.96-58.4-47.96ZM99.36,199.62h-4.91v-58.28h2.85c22.63,0,34.09,9.23,34.09,27.42,0,20.19-11.08,30.86-32.03,30.86Z"/>
  <g>
    <path class="cls-3" d="M275.87,276.85v-61.72h43.32v-19.46h-43.32v-54.34h47.38v-19.49h-72.59v174.49h75.09v-19.49h-49.87Z"/>
    <path class="cls-3" d="M401.92,203.26l-1.7-.68,1.65-.79c18.69-9.11,26.69-20.25,26.69-37.24,0-25.92-21.1-42.7-53.75-42.7h-31.33v174.49h27.27c37.94,0,62.48-19.66,62.48-50.08,0-20.28-10.52-34.74-31.3-43ZM368.68,141.34h2.97c19.84,0,31.68,9.46,31.68,25.33,0,18.66-11.73,29.8-31.36,29.8h-3.29v-55.13ZM373.53,276.85h-4.85v-60.92h5.47c20.9,0,33.86,11.93,33.86,31.12s-12.55,29.8-34.47,29.8Z"/>
  </g>
  <path class="cls-2" d="M252.21,62.45c-27.35,24.34-61.13,60.97-56.82,100.01,1.65,14.38,9.93,26.47,18.94,37.26,10.15,12.73,17.04,28.5,18.36,44.81,2.28,27.5-11.84,53.96-29.73,73.08-9.59,10.82-20.79,19.68-31.89,28.28l6.61-8.23c18.83-24.02,41.05-57.51,30.62-88.66-2.89-8.1-7.64-15.64-12.74-22.54-4-5.12-8.67-10.54-12.65-15.84-42.49-57.93,20.47-120.45,69.29-148.18h0Z"/>
  <g>
    <path class="cls-1" d="M30.62,30.77c-.61,1.15-1.6,2.09-2.94,2.82-1.35.72-3.08,1.08-5.19,1.08h-4.64v10.38h-4.2v-25.58h8.83c1.96,0,3.63.34,4.99,1.01s2.38,1.59,3.05,2.74c.68,1.15,1.01,2.44,1.01,3.87,0,1.3-.31,2.53-.92,3.68ZM26.06,30.17c.78-.72,1.18-1.75,1.18-3.07,0-2.8-1.58-4.2-4.75-4.2h-4.64v8.35h4.64c1.6,0,2.79-.36,3.57-1.08Z"/>
    <path class="cls-1" d="M92.16,39.83h-10.71l-1.84,5.23h-4.38l9.17-25.62h4.86l9.17,25.62h-4.42l-1.84-5.23ZM90.98,36.41l-4.16-11.89-4.2,11.89h8.36Z"/>
    <path class="cls-1" d="M157.68,45.05l-9.9-11.45v11.45h-4.2v-25.58h4.2v11.67l9.94-11.67h5.26l-11.11,12.81,11.3,12.77h-5.48Z"/>
    <path class="cls-1" d="M212.26,19.47v25.58h-4.2v-25.58h4.2Z"/>
    <path class="cls-1" d="M262.76,44.41c-1.37-.6-2.45-1.46-3.24-2.56-.79-1.1-1.18-2.39-1.18-3.87h4.49c.1,1.1.53,2.01,1.31,2.72.77.71,1.86,1.07,3.26,1.07s2.57-.35,3.38-1.05c.81-.7,1.22-1.6,1.22-2.7,0-.86-.25-1.56-.75-2.1-.51-.54-1.13-.96-1.88-1.25-.75-.3-1.79-.61-3.11-.96-1.67-.44-3.03-.89-4.07-1.34-1.04-.45-1.93-1.16-2.67-2.12-.73-.96-1.1-2.23-1.1-3.83,0-1.47.37-2.76,1.1-3.86.74-1.1,1.77-1.95,3.09-2.54,1.33-.59,2.86-.88,4.6-.88,2.48,0,4.51.62,6.09,1.86,1.58,1.24,2.46,2.94,2.63,5.1h-4.64c-.07-.93-.52-1.73-1.33-2.39s-1.88-.99-3.2-.99c-1.2,0-2.18.31-2.94.92-.76.61-1.14,1.5-1.14,2.65,0,.79.24,1.43.72,1.93s1.08.9,1.82,1.2c.73.3,1.74.61,3.02.96,1.69.47,3.07.93,4.14,1.4,1.07.46,1.97,1.18,2.72,2.15s1.12,2.26,1.12,3.88c0,1.3-.35,2.53-1.05,3.68-.7,1.15-1.72,2.08-3.06,2.78-1.34.7-2.91,1.05-4.73,1.05-1.72,0-3.27-.3-4.64-.9Z"/>
    <path class="cls-1" d="M338.91,19.47v3.42h-6.81v22.16h-4.2v-22.16h-6.85v-3.42h17.85Z"/>
    <path class="cls-1" d="M399.75,39.83h-10.71l-1.84,5.23h-4.38l9.16-25.62h4.86l9.16,25.62h-4.42l-1.84-5.23ZM398.57,36.41l-4.16-11.89-4.2,11.89h8.35Z"/>
    <path class="cls-1" d="M472.18,45.05h-4.2l-12.62-19.1v19.1h-4.2v-25.62h4.2l12.62,19.07v-19.07h4.2v25.62Z"/>
  </g>
  <g>
    <path class="cls-1" d="M18.08,391.82c-1.38-.6-2.46-1.45-3.24-2.56s-1.18-2.4-1.18-3.87h4.5c.1,1.11.53,2.02,1.31,2.73.77.72,1.86,1.07,3.26,1.07s2.58-.35,3.39-1.05c.81-.7,1.22-1.6,1.22-2.71,0-.86-.25-1.56-.76-2.1-.5-.54-1.13-.96-1.88-1.25-.75-.29-1.79-.61-3.12-.96-1.67-.44-3.03-.89-4.07-1.35-1.05-.45-1.94-1.16-2.67-2.12-.74-.96-1.11-2.23-1.11-3.83,0-1.47.37-2.77,1.11-3.87s1.77-1.96,3.1-2.54c1.33-.59,2.86-.89,4.61-.89,2.48,0,4.52.62,6.1,1.86s2.46,2.94,2.64,5.11h-4.65c-.07-.93-.52-1.73-1.33-2.39-.81-.66-1.88-1-3.21-1-1.2,0-2.19.31-2.95.92s-1.14,1.5-1.14,2.65c0,.79.24,1.43.72,1.94.48.5,1.09.9,1.83,1.2.74.3,1.75.62,3.02.96,1.7.47,3.08.93,4.15,1.4,1.07.47,1.98,1.19,2.73,2.16.75.97,1.13,2.27,1.13,3.89,0,1.31-.35,2.53-1.05,3.69-.7,1.16-1.72,2.08-3.06,2.78s-2.92,1.05-4.74,1.05c-1.72,0-3.27-.3-4.65-.91Z"/>
    <path class="cls-1" d="M78.45,391.05c-2-1.12-3.59-2.68-4.76-4.68-1.17-2-1.75-4.26-1.75-6.76s.58-4.76,1.75-6.75c1.17-1.99,2.75-3.54,4.76-4.66,2-1.12,4.2-1.68,6.58-1.68s4.61.56,6.62,1.68,3.58,2.67,4.74,4.66c1.15,1.99,1.73,4.24,1.73,6.75s-.58,4.76-1.73,6.76c-1.16,2-2.73,3.57-4.74,4.68s-4.21,1.68-6.62,1.68-4.58-.56-6.58-1.68ZM89.57,387.91c1.33-.77,2.36-1.88,3.12-3.32s1.13-3.1,1.13-5-.38-3.55-1.13-4.98-1.79-2.52-3.12-3.28c-1.33-.76-2.84-1.14-4.54-1.14s-3.21.38-4.54,1.14c-1.33.76-2.36,1.86-3.12,3.28s-1.12,3.08-1.12,4.98.37,3.56,1.12,5c.75,1.44,1.79,2.54,3.12,3.32,1.33.77,2.84,1.16,4.54,1.16s3.21-.39,4.54-1.16Z"/>
    <path class="cls-1" d="M154.13,366.84v3.43h-10.88v7.56h8.48v3.43h-8.48v11.21h-4.2v-25.63h15.08Z"/>
    <path class="cls-1" d="M211.38,366.84v3.43h-6.82v22.2h-4.2v-22.2h-6.86v-3.43h17.88Z"/>
    <path class="cls-1" d="M285.79,366.84l-7.6,25.63h-4.76l-5.38-19.39-5.71,19.39-4.72.04-7.26-25.66h4.46l5.31,20.87,5.75-20.87h4.72l5.35,20.76,5.34-20.76h4.5Z"/>
    <path class="cls-1" d="M341.5,387.23h-10.73l-1.84,5.24h-4.39l9.18-25.66h4.87l9.18,25.66h-4.42l-1.84-5.24ZM340.32,383.8l-4.17-11.91-4.2,11.91h8.37Z"/>
    <path class="cls-1" d="M401.85,392.47l-5.9-10.25h-3.21v10.25h-4.2v-25.63h8.85c1.97,0,3.63.35,4.99,1.03,1.37.69,2.38,1.61,3.06,2.77.68,1.16,1.01,2.45,1.01,3.87,0,1.67-.49,3.19-1.45,4.55-.97,1.37-2.46,2.29-4.48,2.78l6.34,10.62h-5.01ZM392.75,378.86h4.65c1.57,0,2.76-.39,3.56-1.18.8-.78,1.2-1.84,1.2-3.17s-.39-2.36-1.18-3.11c-.79-.75-1.98-1.12-3.58-1.12h-4.65v8.59Z"/>
    <path class="cls-1" d="M452.85,370.24v7.52h8.85v3.43h-8.85v7.85h9.95v3.43h-14.16v-25.66h14.16v3.43h-9.95Z"/>
  </g>
  <g>
    <path class="cls-1" d="M17.79,405.79v7.4h8.7v3.37h-8.7v7.73h9.79v3.37h-13.93v-25.24h13.93v3.37h-9.79Z"/>
    <path class="cls-1" d="M60.8,415.08l7.83,12.58h-4.64l-5.69-9.14-5.33,9.14h-4.61l7.83-12.58-7.87-12.62h4.64l5.73,9.21,5.37-9.21h4.61l-7.87,12.62Z"/>
    <path class="cls-1" d="M106.46,413.59c-.61,1.14-1.57,2.06-2.9,2.78-1.33.71-3.03,1.07-5.11,1.07h-4.57v10.23h-4.13v-25.2h8.7c1.93,0,3.57.33,4.91,1,1.34.66,2.34,1.57,3.01,2.7.67,1.14,1,2.41,1,3.81,0,1.28-.3,2.49-.91,3.63ZM101.96,412.99c.77-.71,1.16-1.72,1.16-3.03,0-2.76-1.56-4.13-4.68-4.13h-4.57v8.23h4.57c1.57,0,2.74-.36,3.52-1.07Z"/>
    <path class="cls-1" d="M132.91,426.27c-1.97-1.1-3.53-2.64-4.68-4.61-1.15-1.97-1.72-4.19-1.72-6.65s.57-4.68,1.72-6.64c1.15-1.96,2.71-3.49,4.68-4.59,1.97-1.1,4.13-1.65,6.47-1.65s4.54.55,6.51,1.65c1.97,1.1,3.52,2.63,4.66,4.59,1.14,1.96,1.7,4.17,1.7,6.64s-.57,4.68-1.7,6.65c-1.14,1.97-2.69,3.51-4.66,4.61-1.97,1.1-4.14,1.65-6.51,1.65s-4.5-.55-6.47-1.65ZM143.85,423.18c1.31-.76,2.33-1.85,3.06-3.26.74-1.41,1.11-3.05,1.11-4.91s-.37-3.5-1.11-4.9c-.74-1.4-1.76-2.48-3.06-3.23s-2.79-1.13-4.46-1.13-3.15.38-4.46,1.13c-1.31.75-2.33,1.83-3.06,3.23-.74,1.4-1.11,3.03-1.11,4.9s.37,3.5,1.11,4.91,1.76,2.5,3.06,3.26c1.31.76,2.79,1.14,4.46,1.14s3.16-.38,4.46-1.14Z"/>
    <path class="cls-1" d="M185.99,427.66l-5.8-10.08h-3.15v10.08h-4.13v-25.2h8.7c1.93,0,3.57.34,4.91,1.02,1.34.68,2.34,1.59,3.01,2.72.66,1.14,1,2.41,1,3.81,0,1.64-.48,3.14-1.43,4.48-.95,1.34-2.42,2.25-4.41,2.74l6.24,10.44h-4.93ZM177.03,414.28h4.57c1.55,0,2.71-.39,3.5-1.16.79-.77,1.18-1.81,1.18-3.12s-.39-2.33-1.16-3.07c-.77-.74-1.95-1.11-3.52-1.11h-4.57v8.45Z"/>
    <path class="cls-1" d="M228.67,402.46v3.37h-6.71v21.83h-4.13v-21.83h-6.75v-3.37h17.59Z"/>
    <path class="cls-1" d="M292.35,416.86c.94,1.18,1.41,2.53,1.41,4.02,0,1.28-.33,2.44-1,3.46s-1.63,1.84-2.88,2.43c-1.26.59-2.72.89-4.39.89h-10.08v-25.2h9.61c1.72,0,3.19.29,4.43.87,1.23.58,2.16,1.36,2.79,2.34.63.98.94,2.08.94,3.28,0,1.45-.39,2.66-1.16,3.63-.77.97-1.81,1.68-3.12,2.14,1.35.24,2.5.96,3.45,2.14ZM279.55,413.05h5.11c1.35,0,2.41-.31,3.17-.92s1.14-1.5,1.14-2.67-.38-2.02-1.14-2.66-1.82-.96-3.17-.96h-5.11v7.22ZM288.44,423.28c.8-.68,1.2-1.62,1.2-2.83s-.42-2.21-1.27-2.94c-.85-.72-1.97-1.09-3.37-1.09h-5.44v7.87h5.59c1.4,0,2.5-.34,3.3-1.02Z"/>
    <path class="cls-1" d="M319.86,426.27c-1.97-1.1-3.53-2.64-4.68-4.61-1.15-1.97-1.73-4.19-1.73-6.65s.57-4.68,1.73-6.64c1.15-1.96,2.71-3.49,4.68-4.59,1.97-1.1,4.13-1.65,6.47-1.65s4.54.55,6.51,1.65c1.97,1.1,3.52,2.63,4.66,4.59,1.14,1.96,1.71,4.17,1.71,6.64s-.57,4.68-1.71,6.65c-1.14,1.97-2.69,3.51-4.66,4.61-1.97,1.1-4.14,1.65-6.51,1.65s-4.5-.55-6.47-1.65ZM330.79,423.18c1.31-.76,2.33-1.85,3.07-3.26.74-1.41,1.11-3.05,1.11-4.91s-.37-3.5-1.11-4.9c-.74-1.4-1.76-2.48-3.07-3.23-1.3-.75-2.79-1.13-4.46-1.13s-3.16.38-4.46,1.13c-1.31.75-2.33,1.83-3.07,3.23-.74,1.4-1.11,3.03-1.11,4.9s.37,3.5,1.11,4.91,1.76,2.5,3.07,3.26c1.3.76,2.79,1.14,4.46,1.14s3.16-.38,4.46-1.14Z"/>
    <path class="cls-1" d="M375.04,422.51h-10.55l-1.81,5.15h-4.32l9.03-25.24h4.79l9.03,25.24h-4.35l-1.81-5.15ZM373.88,419.14l-4.1-11.72-4.13,11.72h8.23Z"/>
    <path class="cls-1" d="M414.78,427.66l-5.8-10.08h-3.15v10.08h-4.13v-25.2h8.7c1.93,0,3.57.34,4.91,1.02,1.34.68,2.34,1.59,3.01,2.72.66,1.14,1,2.41,1,3.81,0,1.64-.48,3.14-1.43,4.48-.96,1.34-2.42,2.25-4.41,2.74l6.24,10.44h-4.93ZM405.83,414.28h4.57c1.55,0,2.71-.39,3.5-1.16.79-.77,1.18-1.81,1.18-3.12s-.39-2.33-1.16-3.07c-.77-.74-1.95-1.11-3.52-1.11h-4.57v8.45Z"/>
    <path class="cls-1" d="M456.47,404c2.02,1.03,3.58,2.5,4.68,4.43,1.1,1.92,1.65,4.17,1.65,6.73s-.55,4.79-1.65,6.67c-1.1,1.88-2.66,3.33-4.68,4.33-2.02,1-4.37,1.5-7.05,1.5h-8.23v-25.2h8.23c2.68,0,5.03.51,7.05,1.54ZM456.2,421.89c1.57-1.59,2.36-3.84,2.36-6.74s-.79-5.21-2.36-6.85c-1.57-1.64-3.83-2.47-6.78-2.47h-4.1v18.46h4.1c2.95,0,5.21-.8,6.78-2.4Z"/>
  </g>
  <rect class="cls-2" width="480.81" height="5.74"/>
  <rect class="cls-2" y="57.45" width="234.14" height="5.74"/>
  <rect class="cls-2" x="263.58" y="57.45" width="217.23" height="5.74"/>
  <rect class="cls-2" x="181.77" y="347.56" width="299.04" height="5.74" transform="translate(662.58 700.86) rotate(180)"/>
  <rect class="cls-2" y="438.38" width="480.81" height="5.74" transform="translate(480.81 882.49) rotate(180)"/>
  <rect class="cls-2" y="347.56" width="161.27" height="5.74" transform="translate(161.27 700.86) rotate(180)"/>
</svg>