<svg width="1200" height="680" viewBox="0 0 1200 680" fill="none" xmlns="http://www.w3.org/2000/svg">
<rect width="1200" height="680" rx="10" fill="#388ECA"/>
<path d="M487.5 490.75H712.5C760.75 490.75 800 461.312 800 425.125C800 388.938 760.75 359.5 712.5 359.5H500C500 338.781 477.625 322 450 322C422.375 322 400 338.781 400 359.5C400 380.219 422.375 397 450 397C468.45 397 484.4 389.406 493.075 378.25H712.5C746.95 378.25 775 399.287 775 425.125C775 450.962 746.95 472 712.5 472H487.5C439.25 472 400 501.438 400 537.625C400 573.812 439.25 603.25 487.5 603.25H706.925C715.575 614.406 731.525 622 750 622C777.625 622 800 605.219 800 584.5C800 563.781 777.625 547 750 547C722.375 547 700 563.781 700 584.5H487.5C453.05 584.5 425 563.462 425 537.625C425 511.788 453.05 490.75 487.5 490.75Z" fill="white" fill-opacity="0.51"/>
</svg>
