<svg width="40" height="40" viewBox="0 0 40 40" fill="none" xmlns="http://www.w3.org/2000/svg">
<g clip-path="url(#clip0_263_2494)">
<path d="M38.75 19.375C38.75 17.91 38.1175 16.5944 37.1131 15.68C37.3619 15.0856 37.5 14.4344 37.5 13.75C37.5 11.2 35.5913 9.09625 33.125 8.78875L33.08 9.50437C32.8631 7.875 31.6125 6.57312 30.0012 6.30188L29.9919 6.41687C29.9931 6.36063 30 6.30625 30 6.25C30 3.48875 27.7613 1.25 25 1.25C22.2387 1.25 20 3.48875 20 6.25V34.375C20 36.7912 21.9588 38.75 24.375 38.75C26.1306 38.75 27.6406 37.7131 28.3375 36.2206C28.4744 36.2337 28.61 36.25 28.75 36.25C31.1663 36.25 33.125 34.2912 33.125 31.875V31.6112C34.1025 31.1838 34.8175 30.2719 34.9681 29.1781L35 29.1937C36.8069 28.6556 38.125 26.9819 38.125 25C38.125 24.1581 37.8831 23.3744 37.4706 22.7069C38.2638 21.8219 38.75 20.6569 38.75 19.375ZM27.5 25.625L27.565 25.6562C27.4444 25.8081 27.4081 25.8194 27.5 25.625Z" fill="#388ECA"/>
<path d="M20 29.375C14.8306 29.375 10.625 25.1694 10.625 20C10.625 14.8306 14.8306 10.625 20 10.625V11.875C15.52 11.875 11.875 15.52 11.875 20C11.875 24.48 15.52 28.125 20 28.125V29.375Z" fill="#1E1E1E"/>
<path d="M18.0268 32.3302C14.745 31.8089 11.7512 29.9527 9.81372 27.2389L10.8312 26.5127C12.5756 28.9558 15.2693 30.6264 18.2225 31.0958L18.0268 32.3302Z" fill="#1E1E1E"/>
<path d="M8.99188 25.9205C8.01562 24.1143 7.5 22.0668 7.5 19.9999C7.5 13.8255 11.9269 8.63992 18.0269 7.66992L18.2231 8.9043C12.7344 9.77742 8.75 14.4437 8.75 19.9999C8.75 21.8605 9.21375 23.7018 10.0912 25.3255L8.99188 25.9205Z" fill="#1E1E1E"/>
<path d="M39.375 19.375C39.375 17.9338 38.8181 16.5556 37.8369 15.5156C38.0213 14.96 38.125 14.3669 38.125 13.75C38.125 10.9725 36.0875 8.61562 33.3612 8.19562C32.8456 7.05062 31.8506 6.16438 30.6019 5.8025C30.3731 2.91 27.9506 0.625 25 0.625C23.2337 0.625 21.6569 1.445 20.625 2.7225V0.625H15.7619L14.7644 4.61375C14.1075 4.8375 13.4575 5.10813 12.825 5.42063L9.29625 3.30312L3.3025 9.29625L5.42 12.825C5.10687 13.4594 4.83625 14.1094 4.61313 14.765L0.625 15.7625V24.2375L4.61375 25.235C4.87437 25.9994 5.19875 26.7562 5.57938 27.4881L6.68813 26.9119C6.28438 26.1362 5.95062 25.3325 5.69562 24.5244L5.59062 24.1906L1.875 23.2619V16.7381L5.59062 15.8094L5.69562 15.4756C5.95125 14.6675 6.285 13.8638 6.68813 13.0881L6.84937 12.7781L4.87625 9.49063L9.48938 4.87687L12.7775 6.85L13.0881 6.68813C13.8606 6.28562 14.6638 5.95188 15.475 5.69625L15.8088 5.59062L16.7381 1.875H19.375V38.125H16.7381L15.8094 34.4094L15.4756 34.3037C14.665 34.0481 13.8612 33.7144 13.0887 33.3119L12.7781 33.15L9.49 35.1231L4.53187 30.1644L3.64812 31.0481L9.29688 36.6963L12.8256 34.5788C13.4581 34.8913 14.1081 35.1619 14.765 35.3856L15.7619 39.375H20.625V37.6712C21.5419 38.7131 22.8813 39.375 24.375 39.375C26.2225 39.375 27.835 38.3656 28.7006 36.8713C28.7169 36.8719 28.7337 36.875 28.75 36.875C31.4662 36.875 33.6788 34.6969 33.7438 31.9963C34.6106 31.495 35.2569 30.6588 35.5075 29.6638C37.4287 28.9375 38.75 27.0769 38.75 25C38.75 24.2275 38.5694 23.4669 38.2238 22.7756C38.9694 21.7981 39.375 20.6069 39.375 19.375ZM36.9394 23.035C37.3056 23.6294 37.5 24.3088 37.5 25C37.5 26.3619 36.7406 27.5994 35.5888 28.255C35.345 26.4212 33.775 25 31.875 25V26.25C33.2537 26.25 34.375 27.3713 34.375 28.75C34.375 30.1287 33.2537 31.25 31.875 31.25C30.4963 31.25 29.375 30.1287 29.375 28.75H28.125C28.125 30.8181 29.8069 32.5 31.875 32.5C32.0713 32.5 32.2625 32.48 32.4513 32.4513C32.1963 34.0931 30.8756 35.3844 29.2188 35.5925C29.3169 35.2019 29.375 34.7956 29.375 34.375C29.375 31.6181 27.1319 29.375 24.375 29.375V30.625C26.4431 30.625 28.125 32.3069 28.125 34.375C28.125 36.4431 26.4431 38.125 24.375 38.125C22.3069 38.125 20.625 36.4431 20.625 34.375V6.25C20.625 3.83812 22.5875 1.875 25 1.875C27.4125 1.875 29.375 3.83812 29.375 6.25C29.375 8.66187 27.4125 10.625 25 10.625V11.875C27.8081 11.875 30.135 9.805 30.5519 7.11187C31.7094 7.58 32.5 8.70187 32.5 10C32.5 11.7231 31.0981 13.125 29.375 13.125V14.375C31.7875 14.375 33.75 12.4119 33.75 10C33.75 9.84875 33.7406 9.7 33.7256 9.5525C35.5606 10.0869 36.875 11.7825 36.875 13.75C36.875 16.1619 34.9125 18.125 32.5 18.125V19.375C34.4975 19.375 36.2506 18.3256 37.2487 16.7519C37.8119 17.5025 38.125 18.4212 38.125 19.375C38.125 20.4487 37.7275 21.4838 37.005 22.29L36.6931 22.6381L36.9394 23.035Z" fill="#1E1E1E"/>
<path d="M24.375 33.75H23.125V35H24.375V33.75Z" fill="#1E1E1E"/>
<path d="M27.5 19.375H26.25V20.625H27.5V19.375Z" fill="#1E1E1E"/>
<path d="M23.75 5.625H22.5V6.875H23.75V5.625Z" fill="#1E1E1E"/>
<path d="M34.375 15H33.125V16.25H34.375V15Z" fill="#1E1E1E"/>
<path d="M23.125 23.75H21.875V25H23.125V23.75Z" fill="#1E1E1E"/>
<path d="M35 22.5H33.75V23.75H35V22.5Z" fill="#1E1E1E"/>
</g>
<defs>
<clipPath id="clip0_263_2494">
<rect width="40" height="40" fill="white"/>
</clipPath>
</defs>
</svg>
