<svg width="40" height="40" viewBox="0 0 40 40" fill="none" xmlns="http://www.w3.org/2000/svg">
<path d="M5.00049 2.5C3.6263 2.5 2.50049 3.62576 2.50049 5V19.9988H37.4993V5C37.4993 3.62576 36.3722 2.5 34.9981 2.5H5.00049ZM18.7505 4.38965H21.2517C21.5973 4.38833 21.8785 4.66779 21.8792 5.01343L21.8804 6.29517C21.9759 6.33197 22.0935 6.38351 22.1868 6.42577L23.0962 5.52001C23.3449 5.27278 23.7338 5.27765 23.9776 5.52001L25.7439 7.2827C25.9895 7.52706 25.9895 7.92458 25.7439 8.16893L24.8394 9.07592C24.8807 9.1687 24.9304 9.28731 24.9663 9.38231H26.2517C26.5969 9.38369 26.8756 9.66459 26.8743 10.0098V12.5049C26.8736 12.8486 26.5955 13.1273 26.2517 13.1287H24.9688C24.9329 13.2237 24.8832 13.3435 24.8418 13.4363L25.7488 14.3494C25.9938 14.5936 25.9899 14.9877 25.745 15.2319L23.9787 16.9946C23.7349 17.237 23.3411 17.237 23.0973 16.9946L22.1903 16.0901C22.0971 16.1323 21.9745 16.1802 21.8791 16.217V17.4975C21.8804 17.8446 21.5987 18.1263 21.2516 18.125H18.7504C18.4052 18.1236 18.1265 17.8427 18.1278 17.4975V16.2146C18.0327 16.1786 17.9106 16.1291 17.8178 16.0876L16.9096 16.9946C16.6653 17.2394 16.2688 17.2394 16.0246 16.9946L14.257 15.2319C14.0122 14.9877 14.0122 14.5911 14.257 14.3469L15.1664 13.4387C15.1241 13.3456 15.0714 13.224 15.0346 13.1287H13.7541C13.4084 13.13 13.1273 12.8505 13.1266 12.5049V10.0098C13.1253 9.66269 13.407 9.38101 13.7541 9.38232H15.037C15.0739 9.28758 15.1219 9.16843 15.164 9.07593L14.257 8.16894C14.0114 7.92459 14.0114 7.52707 14.257 7.28271L16.0246 5.52002C16.2688 5.27522 16.6653 5.27522 16.9096 5.52002L17.8202 6.42578C17.9129 6.38444 18.0329 6.33356 18.1278 6.29761V5.01343C18.1285 4.66969 18.4068 4.39103 18.7505 4.38965ZM19.3792 5.64087V6.75171C19.378 7.03291 19.1891 7.27869 18.9177 7.35229C18.5977 7.44015 18.2925 7.56803 18.0034 7.73071C17.7586 7.87034 17.4506 7.82884 17.2515 7.6294L16.4678 6.84448L15.5864 7.72583L16.3701 8.51441C16.5695 8.71354 16.611 9.02153 16.4714 9.26636C16.3065 9.55412 16.1794 9.86159 16.0894 10.1807C16.0121 10.4482 15.7672 10.6324 15.4888 10.6323H14.3767V11.8774H15.4888C15.7689 11.8782 16.0145 12.0653 16.0894 12.3352C16.1794 12.6543 16.3066 12.9605 16.4714 13.2483C16.611 13.4931 16.5695 13.8011 16.3701 14.0002L15.5864 14.7888L16.4678 15.6702L17.2515 14.8865C17.4494 14.6854 17.7575 14.6419 18.0034 14.7803C18.2925 14.943 18.5977 15.0708 18.9177 15.1587C19.1904 15.2326 19.3796 15.4804 19.3792 15.7629V16.875H20.6291V15.7678C20.6297 15.488 20.8162 15.2427 21.0857 15.1672C21.4056 15.0773 21.7103 14.9499 21.9988 14.7852C22.2426 14.6443 22.5504 14.6837 22.7507 14.8816L23.5405 15.6702L24.4219 14.7888L23.637 14.0051C23.44 13.8068 23.3986 13.5017 23.5357 13.258C23.6986 12.969 23.8262 12.6587 23.9141 12.3389C23.9876 12.0679 24.2327 11.8792 24.5134 11.8774H25.6304V10.6323H24.5134C24.2341 10.6312 23.9894 10.4448 23.9141 10.1758C23.8263 9.85592 23.6986 9.54687 23.5357 9.2578C23.3979 9.01385 23.4392 8.70805 23.637 8.50951L24.4219 7.72582L23.5405 6.84447L22.7507 7.62938C22.5516 7.82882 22.2436 7.87033 21.9988 7.7307C21.7103 7.56589 21.4056 7.43733 21.0857 7.3474C20.8167 7.27209 20.6303 7.0274 20.6291 6.74803V5.64085L19.3792 5.64087ZM20.0017 8.75976C21.375 8.75976 22.5017 9.88659 22.5017 11.2598C22.5017 12.6329 21.375 13.761 20.0017 13.761C18.6284 13.761 17.5005 12.6329 17.5005 11.2598C17.5005 9.88659 18.6284 8.75976 20.0017 8.75976ZM20.0017 10.0098C19.3039 10.0098 18.7505 10.5623 18.7505 11.2598C18.7505 11.9573 19.3039 12.5098 20.0017 12.5098C20.6995 12.5098 21.2517 11.9573 21.2517 11.2598C21.2517 10.5623 20.6995 10.0098 20.0017 10.0098ZM2.50049 21.25V22.5012C2.50049 23.8755 3.6263 25.0012 5.00049 25.0012H34.9981C36.3722 25.0012 37.4993 23.8755 37.4993 22.5012V21.25H2.50049ZM16.1455 26.2524C15.974 28.4848 14.9875 31.681 14.5586 33.1262H25.4412C25.0122 31.681 24.0268 28.4848 23.8555 26.2524H16.1455ZM11.2505 34.375C10.9042 34.375 10.6255 34.6537 10.6255 35V36.875C10.6255 37.2213 10.9042 37.5 11.2505 37.5H28.7493C29.0955 37.5 29.3743 37.2213 29.3743 36.875V35C29.3743 34.6537 29.0955 34.375 28.7493 34.375H11.2505Z" fill="#388ECA"/>
</svg>
