<svg width="40" height="40" viewBox="0 0 40 40" fill="none" xmlns="http://www.w3.org/2000/svg">
<g clip-path="url(#clip0_263_2489)">
<path d="M35.2697 35.9242C35.6104 35.9242 35.8866 35.648 35.8866 35.3073C35.8866 34.9666 35.6104 34.6904 35.2697 34.6904C34.929 34.6904 34.6528 34.9666 34.6528 35.3073C34.6528 35.648 34.929 35.9242 35.2697 35.9242Z" fill="#388ECA"/>
<path d="M38.7416 32.889L29.6923 23.8398C30.212 22.8576 30.6112 21.8119 30.8774 20.703L34.9521 19.9235V14.9807L30.8774 14.2012C30.5351 12.8071 29.9902 11.4953 29.2551 10.2976L31.5935 6.85664L28.0954 3.36495L24.6544 5.69696C23.4567 4.96819 22.145 4.41052 20.7445 4.07469L19.965 0H15.0222L14.2427 4.07469C12.8486 4.41687 11.5305 4.96819 10.3391 5.69696L6.89814 3.36494L3.40014 6.85664L5.7385 10.2976C5.00339 11.4953 4.45841 12.807 4.11623 14.2012L0.0415039 14.9807V19.9235L4.11623 20.703C4.45207 22.1098 5.00339 23.4215 5.7385 24.6129L3.40014 28.0539L6.89814 31.5519L10.3391 29.2199C11.5305 29.9487 12.8486 30.4936 14.2427 30.8358L15.0222 34.9168H19.965L20.7445 30.8358C21.8091 30.5824 22.8294 30.2021 23.7799 29.7079L32.8482 38.7761C34.4792 40.4071 37.1088 40.4088 38.7416 38.7761C40.3638 37.1538 40.3638 34.5113 38.7416 32.889ZM10.1237 17.4584C10.1237 13.3837 13.4252 10.0821 17.4936 10.0821C19.6672 10.0821 21.619 11.0201 22.9751 12.5156C20.7797 11.865 19.2352 12.2988 18.4062 12.3255L22.4935 16.4191L21.2261 21.267L16.3783 22.5344L12.2909 18.4407C12.2574 19.2984 11.8681 20.8126 12.4304 22.8132C11.0108 21.4698 10.1237 19.5687 10.1237 17.4584ZM37.8417 37.8826C36.7089 39.0155 34.8805 39.0151 33.748 37.8826C31.2434 35.378 25.6471 29.7816 23.1462 27.2808L22.7723 27.3948C18.3839 28.8325 13.9338 25.8155 13.4379 21.381L15.9981 23.9412L22.2654 22.3062L23.9067 16.0326L21.3465 13.4725C25.8187 14.0002 28.7775 18.4436 27.3603 22.8132L27.2399 23.1808C29.4859 25.4268 35.3168 31.2576 37.8417 33.7825C38.9697 34.9169 38.9697 36.7483 37.8417 37.8826Z" fill="#388ECA"/>
<path d="M20.2165 20.2535L21.1328 16.8336L18.6293 14.3301L15.2093 15.2464L14.293 18.6663L16.7965 21.1699L20.2165 20.2535Z" fill="#388ECA"/>
</g>
<defs>
<clipPath id="clip0_263_2489">
<rect width="40" height="40" fill="white"/>
</clipPath>
</defs>
</svg>
