<svg width="40" height="40" viewBox="0 0 40 40" fill="none" xmlns="http://www.w3.org/2000/svg">
<path d="M19.2931 10.7474C19.343 10.6974 19.3672 10.6322 19.3692 10.5667C19.3715 10.4953 19.3468 10.4109 19.2924 10.3563L17.659 8.71072H17.6588L14.1406 5.20502C11.1524 2.21674 6.29135 2.22299 3.30237 5.21018C3.27471 5.23783 3.24713 5.27033 3.21948 5.29807C0.291741 8.31658 0.411194 13.1612 3.38518 16.1351L8.45463 21.2055C8.50205 21.2528 8.56369 21.2763 8.62612 21.2806C8.64471 21.2818 8.66244 21.2796 8.68088 21.2771C8.7369 21.2694 8.79151 21.2488 8.83424 21.2061L10.9992 19.0411C11.061 18.9793 11.0817 18.8957 11.0707 18.8156C11.0678 18.7935 11.0664 18.7713 11.0579 18.75C11.0448 18.718 11.0253 18.6878 10.9992 18.6617L9.36588 17.0282L5.84783 13.5103C4.27877 11.9413 4.26276 9.40026 5.79869 7.81073L5.84783 7.7619C7.43463 6.17682 10.062 6.2258 11.6541 7.81807L15.1151 11.2791L15.1148 11.2794L16.7482 12.9128C16.8182 12.983 16.9168 13.0018 17.0063 12.978C17.0503 12.9664 17.0928 12.9476 17.1273 12.9133L19.2931 10.7474Z" fill="#388ECA"/>
<path d="M22.0202 16.1422C22.1148 16.2369 22.2387 16.2843 22.3625 16.2843C22.4861 16.2843 22.6097 16.2371 22.704 16.1429C22.8929 15.9545 22.8934 15.6484 22.7048 15.4594L22.0839 14.8372C21.8952 14.6483 21.5892 14.6479 21.4003 14.8366C21.2113 15.0251 21.2109 15.3312 21.3995 15.5201L22.0202 16.1422Z" fill="#388ECA"/>
<path d="M20.282 14.4002C20.3766 14.4948 20.5003 14.542 20.6242 14.542C20.7477 14.542 20.8713 14.495 20.9657 14.4007C21.1546 14.2123 21.1549 13.9062 20.9665 13.7173L20.3456 13.095C20.1569 12.9061 19.8509 12.9058 19.662 13.0944C19.473 13.2828 19.4727 13.5889 19.6613 13.778L20.282 14.4002Z" fill="#388ECA"/>
<path d="M23.7585 17.8845C23.8528 17.9791 23.9769 18.0264 24.1006 18.0264C24.2242 18.0264 24.3478 17.9794 24.4421 17.8851C24.6312 17.6966 24.6315 17.3905 24.4429 17.2016L23.8222 16.5795C23.6336 16.3904 23.3275 16.3901 23.1386 16.5787C22.9495 16.7672 22.9492 17.0733 23.1378 17.2623L23.7585 17.8845Z" fill="#388ECA"/>
<path d="M11.8711 21.3891C11.6824 21.2 11.3763 21.1997 11.1874 21.3883C10.9985 21.5767 10.998 21.8828 11.1866 22.0719L11.8074 22.694C11.9019 22.7886 12.0258 22.8359 12.1496 22.8359C12.2731 22.8359 12.3967 22.7888 12.491 22.6946C12.6801 22.5061 12.6804 22.2 12.4918 22.011L11.8711 21.3891Z" fill="#388ECA"/>
<path d="M13.6093 23.1311C13.4209 22.9425 13.115 22.9418 12.9256 23.1301C12.7367 23.3189 12.7364 23.625 12.9248 23.8139L13.5457 24.4361C13.6401 24.5307 13.7639 24.5782 13.8879 24.5782C14.0114 24.5782 14.1348 24.5311 14.2293 24.437C14.4183 24.2484 14.4186 23.9423 14.23 23.7532L13.6093 23.1311Z" fill="#388ECA"/>
<path d="M15.3477 24.8725C15.1589 24.6836 14.8528 24.6829 14.6639 24.8717C14.475 25.0601 14.4746 25.3662 14.6631 25.5553L15.284 26.1774C15.3785 26.272 15.5024 26.3193 15.6261 26.3193C15.7497 26.3193 15.8733 26.2722 15.9676 26.1779C16.1567 25.9895 16.157 25.6834 15.9684 25.4945L15.3477 24.8725Z" fill="#388ECA"/>
<path d="M28.8256 24.2109C30.268 24.2109 31.4373 23.0416 31.4373 21.599C31.4373 20.1568 30.268 18.9873 28.8256 18.9873C27.3832 18.9873 26.2139 20.1568 26.2139 21.599C26.2139 23.0416 27.3832 24.2109 28.8256 24.2109ZM27.8079 21.1321H28.3982V20.5814C28.3982 20.3146 28.561 20.098 28.8279 20.098C29.0947 20.098 29.2575 20.3145 29.2575 20.5814V21.1321H29.8432C30.1102 21.1321 30.3266 21.3731 30.3266 21.64C30.3266 21.9068 30.1102 22.1478 29.8432 22.1478H29.2575V22.6167C29.2575 22.8836 29.0947 23.1001 28.8279 23.1001C28.561 23.1001 28.3982 22.8836 28.3982 22.6167V22.1478H27.8079C27.5411 22.1478 27.3245 21.9068 27.3245 21.64C27.3245 21.3731 27.5411 21.1321 27.8079 21.1321Z" fill="#388ECA"/>
<path d="M20.875 27.0096C20.875 28.2541 21.8839 29.263 23.1286 29.263C24.3731 29.263 25.3822 28.2541 25.3822 27.0096C25.3822 25.7648 24.3731 24.7559 23.1286 24.7559C21.8839 24.7559 20.875 25.7648 20.875 27.0096Z" fill="#388ECA"/>
<path d="M26.1318 31.3428C25.3478 30.5854 24.2641 30.1396 23.0899 30.1396C20.6799 30.1396 18.7104 32.1109 18.7104 34.5193V35.4139C18.7104 35.5896 18.886 35.6638 19.0601 35.6638H23.5038C23.5847 33.945 24.6218 32.2289 26.1318 31.3428Z" fill="#388ECA"/>
<path d="M34.5832 29.263C35.8278 29.263 36.8368 28.2541 36.8368 27.0095C36.8368 25.7648 35.8278 24.7559 34.5832 24.7559C33.3386 24.7559 32.3296 25.7648 32.3296 27.0095C32.3296 28.2541 33.3386 29.263 34.5832 29.263Z" fill="#388ECA"/>
<path d="M33.1806 35.6641C33.0962 34.1016 32.177 32.8073 30.8849 32.1062C30.8841 32.1073 30.8835 32.1159 30.8828 32.1172C30.2698 31.7887 29.5695 31.6055 28.8255 31.6055C28.0874 31.6055 27.3927 31.7914 26.783 32.1149C26.7821 32.1134 26.7814 32.098 26.7803 32.0965C25.4813 32.7963 24.555 34.1016 24.4707 35.6641H24.4728C24.467 35.8204 24.4917 35.878 24.4917 35.9715V36.867C24.4917 37.0414 24.6046 37.0705 24.7792 37.0705H32.8716C33.0462 37.0705 33.1636 37.0415 33.1636 36.867V35.9715C33.1636 35.8781 33.1838 35.8204 33.178 35.6641H33.1806V35.6641Z" fill="#388ECA"/>
<path d="M37.658 31.434C36.8687 30.643 35.7718 30.1562 34.5659 30.1562C33.3899 30.1562 32.3185 30.5888 31.5327 31.3483C33.0374 32.2377 34.0665 33.945 34.1474 35.6638H38.6069C38.7827 35.6638 38.9449 35.5896 38.9449 35.4138V34.5192C38.9449 33.315 38.4472 32.2234 37.658 31.434Z" fill="#388ECA"/>
<path d="M28.8473 26.2109H28.8472C27.6027 26.2109 26.5938 27.2319 26.5938 28.4766C26.5938 29.7211 27.6027 30.7422 28.8472 30.7422H28.8473C30.0919 30.7422 31.1008 29.7211 31.1008 28.4766C31.1008 27.2319 30.0919 26.2109 28.8473 26.2109Z" fill="#388ECA"/>
</svg>
