<svg width="40" height="40" viewBox="0 0 40 40" fill="none" xmlns="http://www.w3.org/2000/svg">
<path d="M6.76795 24.7089H30.8064C32.3273 24.7089 33.5629 23.4734 33.5629 21.9525V19.9246C33.5629 19.0382 32.8381 18.3135 31.9518 18.3135H25.9544C25.1394 18.3135 24.4785 18.9782 24.4785 19.7893C24.4785 20.1874 24.1555 20.5141 23.7537 20.5141H13.8206C13.4226 20.5141 13.0958 20.1874 13.0958 19.7893C13.0958 18.9782 12.4349 18.3135 11.6237 18.3135H5.62248C4.73615 18.3135 4.01514 19.0382 4.01514 19.9246V21.9525C4.01521 23.4734 5.25068 24.7089 6.76795 24.7089Z" fill="#388ECA"/>
<path d="M6.46374 4.13992C6.46374 3.63297 6.87687 3.21984 7.38382 3.21984H15.1801C15.2965 2.9532 15.443 2.70156 15.6157 2.46875H7.38382C6.46374 2.46875 5.71265 3.21984 5.71265 4.13992V17.5618H6.46374V4.13992Z" fill="#388ECA"/>
<path d="M31.1179 12.5146V17.5619H31.869V12.6273C31.6174 12.6086 31.3658 12.571 31.1179 12.5146Z" fill="#388ECA"/>
<path d="M26.6979 3.21984C26.833 2.9607 26.9832 2.70914 27.156 2.46875H21.9697C22.1425 2.70156 22.2889 2.9532 22.4054 3.21984H26.6979Z" fill="#388ECA"/>
<path d="M21.5454 10.0439H16.0362C13.7867 10.0439 11.9541 11.8766 11.9541 14.1261V15.8574H10.9251C10.7148 15.8574 10.5496 16.0264 10.5496 16.2329C10.5496 16.4395 10.7148 16.6085 10.9251 16.6085H26.6565C26.8668 16.6085 27.0321 16.4395 27.0321 16.2329C27.0321 16.0264 26.8668 15.8574 26.6565 15.8574H25.6275V14.1261C25.6276 11.8766 23.795 10.0439 21.5454 10.0439ZM18.9279 13.7093C18.8903 13.7806 18.8265 13.7919 18.7927 13.7919C18.7551 13.7919 18.6913 13.7807 18.6537 13.7055L17.2003 10.795H20.385L18.9279 13.7093Z" fill="#388ECA"/>
<path d="M18.7928 9.03773C20.6442 9.03773 21.9886 6.51031 21.9886 4.80914C21.9886 3.04781 20.554 1.61328 18.7928 1.61328C17.0315 1.61328 15.5969 3.04789 15.5969 4.80914C15.597 6.51031 16.9376 9.03773 18.7928 9.03773Z" fill="#388ECA"/>
<path d="M36.7287 2.3977C35.6659 1.20349 34.2088 0.51997 32.6165 0.471142C31.0205 0.426064 29.5295 1.01942 28.4029 2.14606C27.633 2.91591 27.1035 3.87731 26.8707 4.93255L24.302 5.75122C24.0279 5.83763 23.8477 6.08919 23.8477 6.37466C23.8477 6.66013 24.0279 6.91169 24.302 6.99802L26.9759 7.85427C27.2462 8.74809 27.7382 9.56677 28.4029 10.2315C29.4732 11.3018 30.9378 11.9064 32.4513 11.9064C32.5113 11.9064 32.5714 11.9064 32.6352 11.9026C34.2312 11.85 35.6959 11.159 36.7512 9.94981C38.6477 7.79427 38.6364 4.54583 36.7287 2.3977ZM32.1734 8.12099H30.5097C30.3031 8.12099 30.1341 7.952 30.1341 7.74544C30.1341 7.53888 30.3031 7.36989 30.5097 7.36989H32.1734C32.3799 7.36989 32.5489 7.53888 32.5489 7.74544C32.5488 7.952 32.3799 8.12099 32.1734 8.12099ZM34.4716 6.06677H30.5097C30.3031 6.06677 30.1341 5.90153 30.1341 5.69122C30.1341 5.48466 30.3031 5.31567 30.5097 5.31567H34.4716C34.6782 5.31567 34.8472 5.48466 34.8472 5.69122C34.8472 5.89778 34.6782 6.06677 34.4716 6.06677Z" fill="#388ECA"/>
<path d="M31.257 26.3418C29.6535 26.3418 28.354 27.6449 28.354 29.2448C28.354 30.8446 29.6534 32.1477 31.257 32.1477C32.853 32.1477 34.1562 30.8446 34.1562 29.2448C34.1561 27.645 32.853 26.3418 31.257 26.3418Z" fill="#388ECA"/>
<path d="M32.0343 33.4551H30.472C28.1925 33.4551 26.3335 35.314 26.3335 37.5936C26.3335 38.6639 27.2047 39.5314 28.2751 39.5314H34.2349C35.3052 39.5314 36.1727 38.6639 36.1727 37.5936C36.1727 35.314 34.3176 33.4551 32.0343 33.4551Z" fill="#388ECA"/>
<path d="M6.75673 32.1477C8.35657 32.1477 9.65595 30.8446 9.65595 29.2448C9.65595 27.645 8.35657 26.3418 6.75673 26.3418C5.15688 26.3418 3.85376 27.6449 3.85376 29.2448C3.85384 30.8446 5.15696 32.1477 6.75673 32.1477Z" fill="#388ECA"/>
<path d="M7.53403 33.4551H5.97552C3.69224 33.4551 1.83325 35.314 1.83325 37.5936C1.83325 38.6639 2.7045 39.5314 3.77481 39.5314H9.73466C10.805 39.5314 11.6725 38.6639 11.6725 37.5936C11.6725 35.314 9.81731 33.4551 7.53403 33.4551Z" fill="#388ECA"/>
<path d="M19.7843 33.4551H18.2258C15.9425 33.4551 14.0835 35.314 14.0835 37.5936C14.0835 38.6639 14.9547 39.5314 16.0251 39.5314H21.9849C23.0552 39.5314 23.9227 38.6639 23.9227 37.5936C23.9227 35.314 22.0676 33.4551 19.7843 33.4551Z" fill="#388ECA"/>
<path d="M16.1038 29.2448C16.1038 30.8446 17.4031 32.1477 19.0067 32.1477C20.6066 32.1477 21.9059 30.8446 21.9059 29.2448C21.9059 27.645 20.6066 26.3418 19.0067 26.3418C17.4031 26.3418 16.1038 27.645 16.1038 29.2448Z" fill="#388ECA"/>
</svg>
