<svg width="40" height="40" viewBox="0 0 40 40" fill="none" xmlns="http://www.w3.org/2000/svg">
<path d="M19.5167 18.8165C18.8667 18.1665 17.8167 18.1665 17.1667 18.8165C16.5167 19.4665 16.5167 20.5165 17.1667 21.1665L18.8334 22.8332C19.1334 23.1665 19.5667 23.3332 20 23.3332C20.0334 23.3332 20.0834 23.3332 20.1167 23.3332C20.6 23.2998 21.05 23.0498 21.3334 22.6665L26.3334 15.9998C26.8834 15.2665 26.7334 14.2165 26 13.6665C25.2667 13.1165 24.2167 13.2665 23.6667 13.9998L19.8167 19.1332L19.5167 18.8165Z" fill="#388ECA"/>
<path d="M24.9998 20.0003C24.9998 22.7503 22.7498 25.0003 19.9998 25.0003C17.2498 25.0003 14.9998 22.7503 14.9998 20.0003C14.9998 17.2503 17.2498 15.0003 19.9998 15.0003C20.9165 15.0003 21.6665 14.2503 21.6665 13.3337C21.6665 12.417 20.9165 11.667 19.9998 11.667C15.3998 11.667 11.6665 15.4003 11.6665 20.0003C11.6665 24.6003 15.3998 28.3337 19.9998 28.3337C24.5998 28.3337 28.3332 24.6003 28.3332 20.0003C28.3332 19.0837 27.5832 18.3337 26.6665 18.3337C25.7498 18.3337 24.9998 19.0837 24.9998 20.0003Z" fill="#388ECA"/>
<path d="M35.8335 18.333H33.9168C33.5168 18.333 33.1835 18.033 33.1168 17.633C32.7668 15.7163 32.0168 13.933 30.9502 12.3997C30.7168 12.0663 30.7502 11.6163 31.0335 11.333L32.2502 10.1163C32.7168 9.64967 32.7168 9.11634 32.3835 8.79967L31.2002 7.61634C30.8668 7.28301 30.3502 7.28301 30.0168 7.61634L28.6668 8.98301C28.3835 9.26634 27.9335 9.29967 27.6002 9.06634C26.0668 7.99967 24.2835 7.23301 22.3668 6.89967C21.9668 6.81634 21.6668 6.48301 21.6668 6.08301V4.36634C21.6668 3.69967 21.3002 3.33301 20.8335 3.33301H19.1668C18.7002 3.33301 18.3335 3.69967 18.3335 4.16634V6.08301C18.3335 6.48301 18.0335 6.81634 17.6335 6.88301C15.7168 7.23301 13.9335 7.98301 12.4002 9.04967C12.0668 9.29967 11.6335 9.26634 11.3335 8.98301L9.9835 7.63301C9.65016 7.29967 9.1335 7.29967 8.80016 7.63301L7.6335 8.79967C7.30016 9.13301 7.30016 9.64967 7.6335 9.98301L8.9835 11.333C9.26683 11.6163 9.30016 12.0663 9.06683 12.3997C8.00016 13.933 7.2335 15.7163 6.90016 17.633C6.81683 18.033 6.4835 18.333 6.0835 18.333H4.16683C3.70016 18.333 3.3335 18.6997 3.3335 19.1663V20.833C3.3335 21.2997 3.70016 21.6663 4.16683 21.6663H6.0835C6.4835 21.6663 6.81683 21.9663 6.8835 22.3663C7.2335 24.283 7.9835 26.0663 9.05016 27.5997C9.2835 27.933 9.25016 28.383 8.96683 28.6663L7.61683 30.0163C7.2835 30.3497 7.2835 30.8663 7.61683 31.1997L8.80016 32.383C9.1335 32.7163 9.65016 32.7163 9.9835 32.383L11.3335 31.033C11.6168 30.7497 12.0668 30.7163 12.4002 30.9497C13.9335 32.0163 15.7168 32.783 17.6335 33.1163C18.0335 33.183 18.3335 33.5163 18.3335 33.9163V35.833C18.3335 36.2997 18.7002 36.6663 19.1668 36.6663H20.8335C21.3002 36.6663 21.6668 36.2997 21.6668 35.833V33.9163C21.6668 33.5163 21.9668 33.183 22.3668 33.1163C24.2835 32.7663 26.0668 32.0163 27.6002 30.9497C27.9335 30.7163 28.3835 30.7497 28.6668 31.033L30.0168 32.383C30.3502 32.7163 30.8668 32.7163 31.2002 32.383L32.3835 31.1997C32.7168 30.8663 32.7168 30.3497 32.3835 30.0163L31.0335 28.6663C30.7502 28.383 30.7168 27.933 30.9502 27.5997C32.0168 26.0663 32.7835 24.283 33.1168 22.3663C33.1835 21.9663 33.5168 21.6663 33.9168 21.6663H35.8335C36.3002 21.6663 36.6668 21.2997 36.6668 20.833V19.1663C36.6668 18.6997 36.3002 18.333 35.8335 18.333ZM29.7502 22.283C28.9335 25.9497 25.9668 28.9163 22.3002 29.733C15.0002 31.3663 8.6335 24.9997 10.2502 17.7163C11.0668 14.0497 14.0335 11.083 17.7002 10.2663C25.0002 8.63301 31.3668 14.9997 29.7502 22.283Z" fill="#388ECA"/>
</svg>
