<svg width="101" height="100" viewBox="0 0 101 100" fill="none" xmlns="http://www.w3.org/2000/svg">
<g id="reactjs">
<g id="reactjs_2">
<path id="Vector" d="M50.8885 58.8163C55.7576 58.8163 59.7047 54.8691 59.7047 50.0001C59.7047 45.131 55.7576 41.1838 50.8885 41.1838C46.0194 41.1838 42.0723 45.131 42.0723 50.0001C42.0723 54.8691 46.0194 58.8163 50.8885 58.8163Z" fill="#61DAFB"/>
<path id="Vector_2" d="M50.8886 68.0626C77.0154 68.0626 98.1953 59.9757 98.1953 50C98.1953 40.0244 77.0154 31.9375 50.8886 31.9375C24.7619 31.9375 3.58203 40.0244 3.58203 50C3.58203 59.9757 24.7619 68.0626 50.8886 68.0626Z" stroke="#61DAFB" stroke-width="5"/>
<path id="Vector_3" d="M35.246 59.0313C48.3094 81.6577 65.9028 95.9566 74.5419 90.9687C83.1811 85.9809 79.5946 63.5951 66.5312 40.9687C53.4679 18.3423 35.8745 4.04343 27.2353 9.03126C18.5961 14.0191 22.1827 36.4049 35.246 59.0313Z" stroke="#61DAFB" stroke-width="5"/>
<path id="Vector_4" d="M35.246 40.9687C22.1827 63.5951 18.5962 85.9809 27.2353 90.9687C35.8745 95.9565 53.4679 81.6576 66.5313 59.0312C79.5946 36.4048 83.1811 14.0191 74.542 9.03124C65.9028 4.04341 48.3094 18.3423 35.246 40.9687Z" stroke="#61DAFB" stroke-width="5"/>
</g>
</g>
</svg>
