<svg width="101" height="100" viewBox="0 0 101 100" fill="none" xmlns="http://www.w3.org/2000/svg">
<g id="mongodb">
<g id="mongodb_2">
<path id="Vector" d="M50.4365 0.273071L53.1051 5.2852C53.705 6.21013 54.355 7.02882 55.1206 7.79126C57.365 10.0077 59.4572 12.3734 61.3826 14.872C65.9042 20.809 68.954 27.4023 71.1319 34.533C72.4381 38.8889 73.1474 43.3574 73.2005 47.8758C73.4193 61.3841 68.7883 72.9833 59.4515 82.6232C57.9328 84.1519 56.292 85.5543 54.5456 86.8166C53.6207 86.8166 53.1832 86.1073 52.802 85.4542C52.1077 84.2432 51.6457 82.9132 51.4396 81.5326C51.1115 79.8984 50.8959 78.2641 51.0021 76.5768V75.8143C50.9271 75.6518 50.1115 0.657418 50.4365 0.273071Z" fill="#599636"/>
<path id="Vector_2" d="M50.4365 0.107501C50.3272 -0.111232 50.2178 0.0543804 50.1084 0.160623C50.1615 1.25429 49.7803 2.22922 49.1835 3.1604C48.5273 4.08533 47.6586 4.79466 46.7868 5.5571C41.9434 9.75054 38.1312 14.8158 35.0783 20.481C31.0161 28.1054 28.9225 36.2767 28.3288 44.8792C28.0569 47.9821 29.3099 58.9313 30.288 62.0904C32.9565 70.4773 37.7499 77.5049 43.9589 83.6045C45.4838 85.0731 47.1149 86.4355 48.8023 87.7448C49.2929 87.7448 49.346 87.3073 49.4585 86.9823C49.6736 86.287 49.8375 85.5768 49.9491 84.8575L51.0427 76.6893L50.4365 0.107501Z" fill="#6CAC48"/>
<path id="Vector_3" d="M53.1051 90.1352C53.2144 88.8853 53.8144 87.8479 54.4675 86.8136C53.8113 86.5417 53.3238 86.0012 52.9426 85.3981C52.6139 84.8271 52.3417 84.2253 52.1301 83.6013C51.3677 81.314 51.2052 78.9142 50.9865 76.5769V75.1614C50.7146 75.3801 50.6584 77.23 50.6584 77.5049C50.4994 79.9753 50.1715 82.4319 49.6772 84.8575C49.5147 85.8387 49.4053 86.8167 48.8022 87.6885C48.8022 87.7979 48.8022 87.9072 48.8554 88.0697C49.8365 90.957 50.1053 93.8974 50.2709 96.894V97.9877C50.2709 99.2938 50.2178 99.0189 51.3021 99.4563C51.7395 99.6188 52.227 99.6751 52.6645 100C52.9926 100 53.0457 99.7282 53.0457 99.5095L52.8832 97.7127V92.7006C52.8301 91.8257 52.9926 90.957 53.1019 90.1383L53.1051 90.1352Z" fill="#C2BFBF"/>
</g>
</g>
</svg>
