<svg width="101" height="100" viewBox="0 0 101 100" fill="none" xmlns="http://www.w3.org/2000/svg">
<g id="docker">
<g id="docker_2">
<path id="Vector" d="M99.5958 41.0887C99.3246 40.8733 96.7927 38.9616 91.4534 38.9616C90.0435 38.9678 88.6366 39.0887 87.2463 39.3232C86.2129 32.2401 80.3569 28.7867 80.0943 28.6318L78.6605 27.8049L77.7176 29.1657C76.5367 30.9936 75.6746 33.0086 75.1685 35.125C74.2125 39.1683 74.7939 42.966 76.8478 46.2127C74.3676 47.5948 70.3889 47.9351 69.5838 47.9651H3.71229C1.99175 47.9675 0.595609 49.3579 0.586232 51.0783C0.5094 56.849 1.48709 62.5853 3.47116 68.0047C5.74031 73.9555 9.11618 78.3389 13.5082 81.0215C18.4299 84.0356 26.4259 85.7579 35.4898 85.7579C39.5844 85.7708 43.6714 85.4002 47.697 84.6513C53.2931 83.6238 58.6779 81.6679 63.6288 78.8641C67.7082 76.5018 71.3796 73.4965 74.5012 69.9639C79.72 64.0562 82.8289 57.4767 85.1411 51.6295H86.0625C91.7764 51.6295 95.2901 49.343 97.2277 47.4269C98.5154 46.2049 99.5206 44.7162 100.173 43.0651L100.582 41.8681L99.5958 41.0887Z" fill="#2496ED"/>
<path id="Vector_2" d="M9.81807 46.0362H18.6451C19.0709 46.0362 19.4158 45.6911 19.4158 45.2655V37.4028C19.4182 36.9771 19.0751 36.6302 18.6495 36.6278C18.6481 36.6278 18.6465 36.6278 18.6451 36.6278H9.81807C9.39234 36.6278 9.04736 36.9729 9.04736 37.3985V37.4028V45.2654C9.04736 45.6911 9.39234 46.0362 9.81807 46.0362Z" fill="#2496ED"/>
<path id="Vector_3" d="M21.9822 46.0362H30.8093C31.235 46.0362 31.58 45.6911 31.58 45.2655V37.4028C31.5824 36.9771 31.2392 36.6302 30.8135 36.6278C30.8121 36.6278 30.8105 36.6278 30.8091 36.6278H21.9821C21.554 36.6278 21.207 36.9747 21.207 37.4028V45.2654C21.2096 45.6918 21.5558 46.0362 21.9822 46.0362Z" fill="#2496ED"/>
<path id="Vector_4" d="M34.3314 46.0362H43.1585C43.5842 46.0362 43.9292 45.6911 43.9292 45.2655V37.4028C43.9315 36.9771 43.5884 36.6302 43.1627 36.6278C43.1613 36.6278 43.1597 36.6278 43.1583 36.6278H34.3312C33.9055 36.6278 33.5605 36.9729 33.5605 37.3985V37.4028V45.2654C33.5607 45.6911 33.9058 46.0362 34.3314 46.0362Z" fill="#2496ED"/>
<path id="Vector_5" d="M46.5344 46.0362H55.3614C55.7879 46.0362 56.1341 45.6919 56.1365 45.2655V37.4028C56.1365 36.9747 55.7895 36.6278 55.3614 36.6278H46.5344C46.1086 36.6278 45.7637 36.9729 45.7637 37.3985V37.4028V45.2654C45.7637 45.6911 46.1088 46.0362 46.5344 46.0362Z" fill="#2496ED"/>
<path id="Vector_6" d="M21.9821 34.7247H30.8091C31.2354 34.7223 31.5798 34.3759 31.5798 33.9496V26.0871C31.5798 25.6614 31.2347 25.3164 30.8091 25.3164H21.9821C21.5558 25.3164 21.2094 25.6607 21.207 26.0871V33.9496C21.2094 34.3768 21.5549 34.7223 21.9821 34.7247Z" fill="#2496ED"/>
<path id="Vector_7" d="M34.3313 34.7247H43.1583C43.5846 34.7223 43.929 34.3759 43.929 33.9496V26.0871C43.929 25.6614 43.5839 25.3164 43.1583 25.3164H34.3313C33.9055 25.3164 33.5605 25.6615 33.5605 26.0871V33.9496C33.5605 34.3759 33.905 34.7223 34.3313 34.7247Z" fill="#2496ED"/>
<path id="Vector_8" d="M46.5344 34.7247H55.3614C55.7886 34.7223 56.1341 34.3768 56.1365 33.9496V26.0871C56.1341 25.6607 55.7879 25.3164 55.3614 25.3164H46.5344C46.1086 25.3164 45.7637 25.6615 45.7637 26.0871V33.9496C45.7637 34.3759 46.1081 34.7223 46.5344 34.7247Z" fill="#2496ED"/>
<path id="Vector_9" d="M46.5344 23.4089H55.3614C55.7879 23.4089 56.1341 23.0645 56.1365 22.6382V14.7712C56.1341 14.3448 55.7879 14.0005 55.3614 14.0005H46.5344C46.1086 14.0005 45.7637 14.3455 45.7637 14.7712V22.6381C45.7637 23.0638 46.1088 23.4089 46.5344 23.4089Z" fill="#2496ED"/>
<path id="Vector_10" d="M58.8449 46.0362H67.672C68.0984 46.0362 68.4447 45.6919 68.447 45.2655V37.4028C68.447 36.9747 68.1001 36.6278 67.672 36.6278H58.8449C58.4193 36.6278 58.0742 36.9729 58.0742 37.3985V37.4028V45.2654C58.0742 45.6911 58.4193 46.0362 58.8449 46.0362Z" fill="#2496ED"/>
</g>
</g>
</svg>
