<svg width="106" height="103" viewBox="0 0 106 103" fill="none" xmlns="http://www.w3.org/2000/svg">
<g id="kubernetes">
<g id="kubernetes_2">
<path id="Vector" d="M94.5429 24.4978C93.9711 22.6681 92.5989 21.1815 90.8836 20.2667L56.0055 3.57092C55.0906 3.1135 54.0614 2.99915 53.1466 2.99915C52.2318 2.99915 51.2026 2.99915 50.2878 3.22785L15.4097 20.038C13.6943 20.8384 12.4364 22.325 11.979 24.2691L3.40244 61.8917C3.05937 63.8357 3.51679 65.7797 4.66034 67.3807L28.7891 97.2272C30.1614 98.5994 32.1054 99.5143 34.0494 99.6286H72.4725C74.5309 99.8573 76.4749 98.9425 77.7328 97.2272L101.862 67.3807C103.005 65.7797 103.463 63.8357 103.234 61.8917L94.5429 24.4978Z" fill="white" stroke="white" stroke-width="5" stroke-miterlimit="10"/>
<path id="Vector_2" d="M94.5429 24.4978C93.9711 22.6681 92.5989 21.1815 90.8836 20.2667L56.0055 3.57092C55.0906 3.1135 54.0614 2.99915 53.1466 2.99915C52.2318 2.99915 51.2026 2.99915 50.2878 3.22785L15.4097 20.038C13.6943 20.8384 12.4364 22.325 11.979 24.2691L3.40244 61.8917C3.05937 63.8357 3.51679 65.7797 4.66034 67.3807L28.7891 97.2272C30.1614 98.5994 32.1054 99.5143 34.0494 99.6286H72.4725C74.5309 99.8573 76.4749 98.9425 77.7328 97.2272L101.862 67.3807C103.005 65.7797 103.463 63.8357 103.234 61.8917L94.5429 24.4978Z" fill="#326DE6"/>
<path id="Vector_3" d="M89.1682 60.405C89.0539 60.405 88.9395 60.405 88.9395 60.2907C88.9395 60.1763 88.7108 60.1763 88.4821 60.1763C88.0247 60.062 87.5673 60.062 87.1099 60.062C86.8811 60.062 86.6524 60.062 86.4237 59.9476H86.3094C85.0515 59.8333 83.6792 59.6046 82.4213 59.2615C82.0783 59.1471 81.7352 58.8041 81.6208 58.461L80.706 58.2323C81.1634 54.916 80.9347 51.4854 80.2486 48.1691C79.4481 44.8528 78.0759 41.6509 76.2462 38.7921L76.9323 38.1059V37.9916C76.9323 37.6485 77.0467 37.1911 77.2754 36.9624C78.3046 36.0475 79.3338 35.3614 80.4773 34.6753C80.706 34.5609 80.9347 34.4466 81.1634 34.3322C81.6208 34.1035 81.9639 33.8748 82.4213 33.6461C82.5357 33.5317 82.65 33.5318 82.7644 33.4174C82.8787 33.303 82.7644 33.303 82.7644 33.1887C83.7936 32.3882 84.0223 31.016 83.2218 29.9868C82.8787 29.5293 82.1926 29.1863 81.6208 29.1863C81.0491 29.1863 80.4773 29.415 80.0199 29.7581L79.9055 29.8724C79.7912 29.9868 79.6768 30.1011 79.5625 30.1011C79.2194 30.4442 78.8763 30.7872 78.6476 31.1303C78.5333 31.359 78.3046 31.4734 78.1902 31.5877C77.3897 32.5026 76.3605 33.4174 75.3314 34.1035C75.1026 34.2179 74.8739 34.3322 74.6452 34.3322C74.5309 34.3322 74.3022 34.3322 74.1878 34.2179H74.0735L73.1586 34.7896C72.2438 33.8748 71.2146 32.96 70.2998 32.0451C66.0686 28.7289 60.8083 26.6705 55.4337 26.0987L55.3193 25.1839V25.2982C54.9763 25.0695 54.8619 24.7265 54.7476 24.3834C54.7476 23.1255 54.7476 21.8676 54.9763 20.4953V20.381C54.9763 20.1523 55.0906 19.9236 55.0906 19.6949C55.205 19.2375 55.205 18.78 55.3193 18.3226V17.6365C55.4337 16.4929 54.5189 15.3494 53.3753 15.235C52.6892 15.1207 52.0031 15.4638 51.4313 16.0355C50.9739 16.4929 50.7452 17.0647 50.7452 17.6365V18.2083C50.7452 18.6657 50.8595 19.1231 50.9739 19.5805C51.0882 19.8092 51.0882 20.0379 51.0882 20.2666V20.381C51.3169 21.6389 51.3169 22.8968 51.3169 24.269C51.2026 24.6121 51.0882 24.9552 50.7452 25.1839V25.4126L50.6308 26.3274C49.3729 26.4418 48.115 26.6705 46.7428 26.8992C41.3681 28.0427 36.4509 30.9016 32.6772 34.904L31.991 34.4466H31.8767C31.7623 34.4466 31.648 34.5609 31.4193 34.5609C31.1906 34.5609 30.9618 34.4466 30.7331 34.3322C29.7039 33.5317 28.6748 32.6169 27.8743 31.7021C27.7599 31.4734 27.5312 31.359 27.4169 31.2447C27.0738 30.9016 26.8451 30.5585 26.502 30.2155C26.3877 30.1011 26.2733 30.1011 26.159 29.9868C26.0446 29.8724 26.0446 29.8724 26.0446 29.8724C25.5872 29.5293 25.0154 29.3006 24.4436 29.3006C23.7575 29.3006 23.1857 29.5293 22.8427 30.1011C22.1566 31.1303 22.3853 32.5026 23.3001 33.303C23.4145 33.303 23.4145 33.4174 23.4145 33.4174C23.4145 33.4174 23.6432 33.6461 23.7575 33.6461C24.1006 33.8748 24.558 34.1035 25.0154 34.3322C25.2441 34.4466 25.4728 34.5609 25.7015 34.6753C26.8451 35.3614 27.9886 36.0475 28.9035 36.9624C29.1322 37.1911 29.3609 37.6485 29.2465 37.9916V37.8772L29.9327 38.5633C29.8183 38.7921 29.7039 38.9064 29.5896 39.1351C26.0446 44.7385 24.558 51.371 25.5872 57.8892L24.6724 58.118C24.6724 58.2323 24.558 58.2323 24.558 58.2323C24.4436 58.5754 24.1006 58.8041 23.7575 59.0328C22.4996 59.3758 21.2417 59.6046 19.8695 59.7189C19.6408 59.7189 19.412 59.7189 19.1833 59.8333C18.7259 59.8333 18.2685 59.9476 17.8111 59.9476C17.6967 59.9476 17.5824 60.062 17.3537 60.062C17.2393 60.062 17.2393 60.062 17.125 60.1763C15.8671 60.405 15.0666 61.5486 15.2953 62.8065C15.524 63.8357 16.5532 64.5218 17.5824 64.4074C17.8111 64.4074 17.9254 64.4074 18.1541 64.2931C18.2685 64.2931 18.2685 64.2931 18.2685 64.1787C18.2685 64.0644 18.6116 64.1787 18.7259 64.1787C19.1833 64.0644 19.6408 63.8357 19.9838 63.7213C20.2125 63.607 20.4412 63.4926 20.6699 63.4926H20.7843C22.0422 63.0352 23.1857 62.6921 24.558 62.4634H24.6724C25.0154 62.4634 25.3585 62.5778 25.5872 62.8065C25.7015 62.8065 25.7015 62.9208 25.7015 62.9208L26.7307 62.8065C28.446 68.0668 31.648 72.7553 36.1078 76.1859C37.137 76.9864 38.0518 77.6726 39.1954 78.2443L38.6236 79.0448C38.6236 79.1592 38.7379 79.1592 38.7379 79.1592C38.9667 79.5022 38.9667 79.9596 38.8523 80.3027C38.3949 81.4462 37.7088 82.5898 37.0226 83.619V83.7333C36.9083 83.962 36.7939 84.0764 36.5652 84.3051C36.3365 84.5338 36.1078 84.9912 35.7647 85.4486C35.6504 85.563 35.6504 85.6774 35.536 85.7917C35.536 85.7917 35.536 85.9061 35.4217 85.9061C34.8499 87.0496 35.3073 88.4219 36.3365 88.9936C36.5652 89.108 36.9083 89.2224 37.137 89.2224C38.0518 89.2224 38.8523 88.6506 39.3097 87.8501C39.3097 87.8501 39.3097 87.7357 39.4241 87.7357C39.4241 87.6214 39.5384 87.507 39.6528 87.3927C39.7671 86.9353 39.9958 86.5922 40.1102 86.1348L40.3389 85.4486C40.682 84.1908 41.2537 83.0472 41.8255 81.9037C42.0542 81.5606 42.3973 81.3319 42.7403 81.2175C42.8547 81.2175 42.8547 81.2175 42.8547 81.1032L43.3121 80.1883C46.514 81.4463 49.8303 82.018 53.261 82.018C55.3193 82.018 57.3777 81.7893 59.4361 81.2175C60.694 80.9888 61.9519 80.5314 63.0954 80.1883L63.5528 80.9888C63.6672 80.9888 63.6672 80.9888 63.6672 81.1032C64.0103 81.2175 64.3533 81.4463 64.582 81.7893C65.1538 82.9329 65.7256 84.0764 66.0686 85.3343V85.4486L66.2974 86.1348C66.4117 86.5922 66.5261 87.0496 66.7548 87.3927C66.8691 87.507 66.8691 87.6214 66.9835 87.7357C66.9835 87.7357 66.9835 87.8501 67.0978 87.8501C67.5553 88.6506 68.3557 89.2224 69.2706 89.2224C69.6136 89.2224 69.8423 89.108 70.1854 88.9936C70.6428 88.7649 71.1002 88.3075 71.2146 87.7357C71.329 87.164 71.3289 86.5922 71.1002 86.0204C71.1002 85.9061 70.9859 85.9061 70.9859 85.9061C70.9859 85.7917 70.8715 85.6774 70.7572 85.563C70.5285 85.1056 70.2998 84.7625 69.9567 84.4195C69.8423 84.1908 69.728 84.0764 69.4993 83.8477V83.619C68.6988 82.5898 68.127 81.4462 67.6696 80.3027C67.5553 79.9596 67.5553 79.5022 67.784 79.1592C67.784 79.0448 67.8983 79.0448 67.8983 79.0448L67.5553 78.13C73.3873 74.585 77.8471 69.096 79.9055 62.5778L80.8204 62.6921C80.9347 62.6921 80.9347 62.5778 80.9347 62.5778C81.1634 62.3491 81.5065 62.2347 81.8495 62.2347H81.9639C83.2218 62.4634 84.4797 62.8065 85.6233 63.2639H85.7376C85.9663 63.3783 86.195 63.4926 86.4237 63.4926C86.8811 63.7213 87.2242 63.95 87.6816 64.0644C87.796 64.0644 87.9103 64.1787 88.139 64.1787C88.2534 64.1787 88.2534 64.1787 88.3678 64.2931C88.5965 64.4074 88.7108 64.4074 88.9395 64.4074C89.9687 64.4074 90.8836 63.7213 91.2266 62.8065C91.1123 61.5486 90.1974 60.6337 89.1682 60.405ZM56.1198 56.86L53.0322 58.3467L49.9447 56.86L49.1442 53.5438L51.3169 50.7993H54.7476L56.9203 53.5438L56.1198 56.86ZM74.7596 49.427C75.3314 51.8285 75.4457 54.2299 75.217 56.6313L64.3533 53.5438C63.3241 53.3151 62.7524 52.2859 62.9811 51.2567C63.0954 50.9136 63.2098 50.6849 63.4385 50.4562L72.0151 42.6801C73.273 44.7385 74.1878 47.0256 74.7596 49.427ZM68.5844 38.449L59.2074 45.0815C58.4069 45.539 57.2634 45.4246 56.6916 44.6241C56.4629 44.3954 56.3485 44.1667 56.3485 43.8236L55.6624 32.2739C60.694 32.8456 65.1538 35.0184 68.5844 38.449ZM47.8863 32.6169L50.1734 32.1595L49.6016 43.5949C49.6016 44.6241 48.6868 45.4246 47.6576 45.4246C47.3145 45.4246 47.0858 45.3103 46.7428 45.1959L37.2513 38.449C40.2246 35.5901 43.8839 33.5317 47.8863 32.6169ZM33.9351 42.6801L42.3973 50.2275C43.1978 50.9136 43.3121 52.0572 42.626 52.8576C42.3973 53.2007 42.1686 53.3151 41.7112 53.4294L30.6188 56.6313C30.2757 51.8285 31.4193 46.9112 33.9351 42.6801ZM31.991 62.006L43.3121 60.062C44.227 60.062 45.1418 60.6337 45.2561 61.5486C45.3705 61.8916 45.3705 62.3491 45.1418 62.6921L40.7963 73.2127C36.7939 70.5826 33.592 66.5802 31.991 62.006ZM57.9495 76.1859C56.3485 76.529 54.7476 76.7577 53.0322 76.7577C50.6308 76.7577 48.115 76.3003 45.8279 75.6142L51.4313 65.4366C52.0031 64.7505 52.9179 64.5218 53.7184 64.9792C54.0614 65.2079 54.2901 65.4366 54.6332 65.7797L60.1222 75.7285C59.4361 75.8429 58.75 75.9572 57.9495 76.1859ZM71.9007 66.2371C70.1854 68.9816 67.784 71.3831 65.0395 73.0984L60.5796 62.3491C60.3509 61.4342 60.8083 60.5194 61.6088 60.1763C61.9519 60.062 62.295 59.9476 62.638 59.9476L74.0735 61.8916C73.5017 63.4926 72.8156 64.9792 71.9007 66.2371Z" fill="white"/>
</g>
</g>
</svg>
