<svg width="101" height="100" viewBox="0 0 101 100" fill="none" xmlns="http://www.w3.org/2000/svg">
<g id="nodejs">
<g id="nodejs_2">
<path id="Vector" d="M46.8605 1.06735C49.3401 -0.351924 52.5697 -0.358335 55.0471 1.06735C67.5107 8.10993 79.9782 15.1415 92.4396 22.1883C94.7835 23.5086 96.3513 26.1171 96.3274 28.8178V71.1886C96.3449 74.0012 94.6221 76.672 92.1494 77.9623C79.7267 84.9661 67.3105 91.9784 54.89 98.9821C52.3592 100.429 49.0648 100.318 46.613 98.7521C42.8887 96.5931 39.158 94.4447 35.4333 92.2879C34.6722 91.8341 33.8143 91.473 33.2768 90.735C33.7519 90.0947 34.6014 90.0149 35.2916 89.7353C36.8462 89.241 38.274 88.4475 39.7022 87.6775C40.0633 87.4303 40.5043 87.525 40.8504 87.7462C44.0352 89.5722 47.1918 91.4513 50.3872 93.2598C51.0688 93.6534 51.7591 93.1309 52.3417 92.8061C64.5322 85.9163 76.7375 79.0525 88.9258 72.1606C89.3774 71.9433 89.6271 71.4639 89.5904 70.9692C89.599 56.992 89.5925 43.0123 89.5947 29.035C89.6463 28.4737 89.3215 27.9576 88.814 27.7279C76.4345 20.7562 64.0613 13.7738 51.6839 6.80035C51.4695 6.65292 51.2154 6.57382 50.9552 6.57344C50.695 6.57306 50.4407 6.65141 50.2258 6.79821C37.8484 13.7738 25.4774 20.7626 13.1 27.734C12.5943 27.9641 12.2549 28.4716 12.3151 29.035C12.3172 43.0123 12.3151 56.992 12.3151 70.9714C12.2936 71.2127 12.3466 71.4549 12.467 71.6652C12.5873 71.8756 12.7692 72.044 12.9882 72.1478C16.2912 74.0208 19.5984 75.8806 22.9035 77.7472C24.7655 78.7494 27.0516 79.3449 29.1031 78.577C30.9134 77.9278 32.1824 76.0804 32.1478 74.1582C32.1649 60.2626 32.1393 46.3647 32.1607 32.4712C32.1154 31.8543 32.7006 31.3447 33.3003 31.4027C34.8874 31.392 36.4765 31.3814 38.0635 31.407C38.726 31.392 39.1819 32.0563 39.0999 32.6778C39.0935 46.6614 39.117 60.6454 39.0893 74.6291C39.0935 78.3559 37.5624 82.411 34.1152 84.2345C29.8684 86.4345 24.6195 85.9679 20.424 83.8584C16.7919 82.0456 13.3258 79.9062 9.75824 77.9641C7.27905 76.6809 5.56489 73.9994 5.58234 71.189V28.8178C5.55634 26.0611 7.18645 23.4053 9.60331 22.1043C22.0238 15.0948 34.4422 8.08001 46.8605 1.06735Z" fill="#8CC84B"/>
<path id="Vector_2" d="M57.6961 30.4179C63.1132 30.0692 68.9125 30.2113 73.7871 32.88C77.5613 34.925 79.6537 39.217 79.7203 43.41C79.6149 43.9756 79.0237 44.2876 78.4837 44.2488C76.912 44.2466 75.34 44.2701 73.7683 44.2381C73.1015 44.2637 72.7141 43.649 72.6304 43.0596C72.1788 41.0534 71.0847 39.0664 69.1963 38.0987C66.2976 36.6474 62.9366 36.7204 59.7757 36.7507C57.4682 36.8732 54.9869 37.073 53.0319 38.4299C51.5311 39.4578 51.0752 41.5327 51.6109 43.2038C52.1159 44.4037 53.501 44.7908 54.6343 45.1477C61.1626 46.8551 68.0805 46.6852 74.4841 48.9322C77.1353 49.8482 79.7289 51.629 80.6363 54.4048C81.8234 58.1252 81.3031 62.5721 78.6561 65.5589C76.5096 68.0167 73.3833 69.3544 70.2651 70.0809C66.117 71.0059 61.8122 71.0294 57.5996 70.6187C53.6385 70.1671 49.5164 69.1264 46.4584 66.4275C43.8435 64.157 42.5664 60.6194 42.6932 57.2049C42.7234 56.6283 43.2976 56.2262 43.85 56.2736C45.4327 56.2608 47.0154 56.2565 48.5982 56.2757C49.2304 56.2305 49.6991 56.7768 49.7315 57.3727C50.0235 59.2841 50.7419 61.2903 52.4087 62.4236C55.6255 64.4989 59.6617 64.3568 63.3451 64.4149C66.3966 64.2795 69.8221 64.2386 72.3123 62.2217C73.6262 61.0713 74.0154 59.1467 73.6604 57.4909C73.2757 56.093 71.8133 55.4416 70.5575 55.0156C64.1129 52.977 57.1177 53.7167 50.7355 51.4114C48.1445 50.4957 45.6389 48.7644 44.6435 46.1025C43.2545 42.3351 43.8909 37.6752 46.8153 34.7893C49.6666 31.9187 53.7827 30.8132 57.6961 30.4175V30.4179Z" fill="#8CC84B"/>
</g>
</g>
</svg>
