<svg width="101" height="100" viewBox="0 0 101 100" fill="none" xmlns="http://www.w3.org/2000/svg">
<g id="github">
<g id="github_2">
<path id="Vector" d="M50.5822 1.00049C22.9714 1.00049 0.582031 23.386 0.582031 51.0007C0.582031 73.0924 14.9086 91.8345 34.7753 98.4461C37.2741 98.9088 38.1917 97.3614 38.1917 96.0406C38.1917 94.8485 38.145 90.9095 38.1238 86.7316C24.2134 89.7562 21.2782 80.8322 21.2782 80.8322C19.0037 75.0528 15.7266 73.5163 15.7266 73.5163C11.1903 70.4129 16.0685 70.4765 16.0685 70.4765C21.0895 70.8294 23.7334 75.6292 23.7334 75.6292C28.1928 83.2733 35.4302 81.0631 38.2834 79.7859C38.7321 76.5539 40.0281 74.3485 41.4578 73.0999C30.3524 71.8352 18.6775 67.5479 18.6775 48.3894C18.6775 42.9308 20.6307 38.4701 23.8294 34.9687C23.3102 33.7091 21.5989 28.6238 24.3137 21.7366C24.3137 21.7366 28.5124 20.3927 38.0674 26.8619C42.0555 25.7537 46.333 25.1985 50.5822 25.1796C54.8315 25.1985 59.1121 25.7537 63.1081 26.8619C72.6516 20.3927 76.8444 21.7366 76.8444 21.7366C79.5659 28.6238 77.8538 33.7091 77.3346 34.9687C80.5404 38.4701 82.4803 42.9304 82.4803 48.3894C82.4803 67.5934 70.7835 71.8223 59.6497 73.0599C61.443 74.6116 63.041 77.6546 63.041 82.3192C63.041 89.0091 62.983 94.3936 62.983 96.0406C62.983 97.3712 63.8829 98.9304 66.4177 98.4394C86.2735 91.8204 100.582 73.085 100.582 51.0007C100.582 23.386 78.1958 1.00049 50.5822 1.00049Z" fill="#161614"/>
<path id="Vector_2" d="M19.3089 72.227C19.1991 72.4752 18.8078 72.5498 18.4521 72.3796C18.0894 72.2164 17.8854 71.8776 18.0031 71.6282C18.1109 71.3725 18.5023 71.3012 18.8642 71.4729C19.2277 71.6357 19.4348 71.9776 19.3089 72.227ZM21.7684 74.4215C21.53 74.6426 21.0638 74.5399 20.7473 74.1905C20.4203 73.8419 20.3591 73.376 20.601 73.1513C20.8469 72.9305 21.299 73.0337 21.6269 73.3827C21.9539 73.7352 22.0175 74.1983 21.7681 74.4218L21.7684 74.4215ZM23.4558 77.2292C23.1492 77.4421 22.648 77.2425 22.3386 76.7978C22.0324 76.3535 22.0324 75.8202 22.3453 75.6065C22.6559 75.3928 23.1492 75.5849 23.4629 76.0261C23.7688 76.4782 23.7688 77.0116 23.4554 77.2296L23.4558 77.2292ZM26.3091 80.4812C26.035 80.7832 25.4515 80.7024 25.024 80.2899C24.5872 79.8868 24.4652 79.3146 24.7401 79.0123C25.0174 78.7095 25.6044 78.7946 26.035 79.2036C26.4691 79.606 26.6016 80.1824 26.3095 80.4812H26.3091ZM29.9968 81.5792C29.8764 81.9706 29.3141 82.1486 28.7478 81.9824C28.1823 81.811 27.8122 81.3522 27.9263 80.9565C28.0439 80.5624 28.6086 80.3769 29.1792 80.555C29.7439 80.7255 30.1148 81.1808 29.9972 81.5792H29.9968ZM34.1943 82.0447C34.2084 82.4573 33.728 82.7992 33.1336 82.8067C32.5355 82.8196 32.052 82.4859 32.0457 82.0804C32.0457 81.6639 32.5151 81.3251 33.1128 81.3153C33.7073 81.3036 34.1943 81.6349 34.1943 82.0447ZM38.3173 81.8867C38.3887 82.289 37.9753 82.7023 37.3852 82.8121C36.8048 82.918 36.2676 82.6698 36.1934 82.271C36.1213 81.8584 36.5425 81.4455 37.1217 81.3385C37.713 81.2357 38.242 81.4777 38.3173 81.8867Z" fill="#161614"/>
</g>
</g>
</svg>
