<svg width="101" height="100" viewBox="0 0 101 100" fill="none" xmlns="http://www.w3.org/2000/svg">
<path d="M100.582 0H0.582031V100H100.582V0Z" fill="#F7DF1E"/>
<path d="M67.7566 78.1254C69.7708 81.4143 72.3915 83.8318 77.0264 83.8318C80.92 83.8318 83.4073 81.8857 83.4073 79.1969C83.4073 75.9746 80.8518 74.8334 76.5661 72.9588L74.2169 71.9508C67.4359 69.0619 62.9312 65.4429 62.9312 57.7921C62.9312 50.7445 68.301 45.3794 76.6931 45.3794C82.6677 45.3794 86.9629 47.4588 90.0581 52.9032L82.7407 57.6016C81.1296 54.7127 79.3915 53.5746 76.6931 53.5746C73.9407 53.5746 72.1962 55.3207 72.1962 57.6016C72.1962 60.4207 73.9423 61.5619 77.974 63.308L80.3232 64.3143C88.3073 67.7381 92.8153 71.2286 92.8153 79.0762C92.8153 87.5365 86.1693 92.1715 77.2439 92.1715C68.5169 92.1715 62.8788 88.0127 60.12 82.5619L67.7566 78.1254ZM34.5613 78.9397C36.0375 81.5588 37.3804 83.773 40.6089 83.773C43.6962 83.773 45.6439 82.5651 45.6439 77.8683V45.9159H55.0407V77.9953C55.0407 87.7254 49.3359 92.154 41.0089 92.154C33.4851 92.154 29.128 88.2603 26.9121 83.5707L34.5613 78.9397Z" fill="black"/>
</svg>
