<svg width="101" height="100" viewBox="0 0 101 100" fill="none" xmlns="http://www.w3.org/2000/svg">
<g id="aws">
<g id="aws_2">
<path id="Vector" d="M28.472 41.7181C28.472 42.9487 28.6051 43.9465 28.8379 44.6782C29.1039 45.4099 29.4365 46.2081 29.9022 47.0728C30.0685 47.3389 30.135 47.605 30.135 47.8378C30.135 48.1704 29.9354 48.503 29.503 48.8355L27.4077 50.2324C27.1084 50.432 26.8091 50.5317 26.543 50.5317C26.2104 50.5317 25.8778 50.3655 25.5452 50.0661C25.0796 49.5672 24.6805 49.0351 24.3479 48.503C24.0153 47.9375 23.6827 47.3056 23.3169 46.5407C20.7227 49.6005 17.4633 51.1304 13.5387 51.1304C10.745 51.1304 8.51663 50.3322 6.88695 48.7358C5.25726 47.1393 4.42578 45.0108 4.42578 42.35C4.42578 39.523 5.42355 37.2282 7.45235 35.4987C9.48115 33.7692 12.1751 32.9045 15.6008 32.9045C16.7316 32.9045 17.8957 33.0043 19.1262 33.1706C20.3568 33.3369 21.6207 33.6029 22.951 33.9023V31.4743C22.951 28.9467 22.4189 27.1839 21.3879 26.1529C20.3236 25.1219 18.5276 24.623 15.9666 24.623C14.8026 24.623 13.6053 24.756 12.3747 25.0554C11.1441 25.3547 9.94677 25.7205 8.78271 26.1862C8.25056 26.419 7.85146 26.552 7.61864 26.6185C7.38583 26.6851 7.21954 26.7183 7.0865 26.7183C6.62087 26.7183 6.38806 26.3857 6.38806 25.6873V24.0576C6.38806 23.5255 6.45458 23.1263 6.62087 22.8935C6.78717 22.6607 7.0865 22.4279 7.55212 22.1951C8.71619 21.5964 10.1131 21.0975 11.7428 20.6984C13.3724 20.2661 15.1019 20.0665 16.9312 20.0665C20.889 20.0665 23.7825 20.9645 25.645 22.7605C27.4743 24.5565 28.4055 27.2837 28.4055 30.9422V41.7181H28.472ZM14.9689 46.7735C16.0664 46.7735 17.1972 46.5739 18.3946 46.1748C19.5919 45.7757 20.6562 45.044 21.5542 44.0462C22.0863 43.4143 22.4854 42.7159 22.685 41.9177C22.8845 41.1195 23.0175 40.1549 23.0175 39.0241V37.6273C22.053 37.3944 21.022 37.1949 19.9577 37.0619C18.8934 36.9288 17.8624 36.8623 16.8314 36.8623C14.603 36.8623 12.9733 37.2947 11.8758 38.1927C10.7782 39.0907 10.2461 40.3545 10.2461 42.0174C10.2461 43.5806 10.6452 44.7447 11.4767 45.5429C12.2749 46.3744 13.439 46.7735 14.9689 46.7735ZM41.6758 50.3655C41.0772 50.3655 40.6781 50.2657 40.412 50.0329C40.1459 49.8333 39.9131 49.3677 39.7136 48.7358L31.8977 23.0266C31.6981 22.3614 31.5984 21.929 31.5984 21.6962C31.5984 21.1641 31.8644 20.8647 32.3966 20.8647H35.656C36.2879 20.8647 36.7202 20.9645 36.9531 21.1973C37.2191 21.3969 37.4187 21.8625 37.6182 22.4944L43.2057 44.5119L48.3941 22.4944C48.5604 21.8292 48.76 21.3969 49.0261 21.1973C49.2921 20.9978 49.7578 20.8647 50.3564 20.8647H53.0171C53.6491 20.8647 54.0814 20.9645 54.3475 21.1973C54.6136 21.3969 54.8464 21.8625 54.9794 22.4944L60.2343 44.7779L65.9881 22.4944C66.1877 21.8292 66.4205 21.3969 66.6533 21.1973C66.9194 20.9978 67.3518 20.8647 67.9504 20.8647H71.0435C71.5756 20.8647 71.875 21.1308 71.875 21.6962C71.875 21.8625 71.8417 22.0288 71.8085 22.2284C71.7752 22.4279 71.7087 22.694 71.5756 23.0598L63.5602 48.769C63.3607 49.4342 63.1279 49.8666 62.8618 50.0661C62.5957 50.2657 62.1634 50.3987 61.598 50.3987H58.7377C58.1058 50.3987 57.6734 50.2989 57.4073 50.0661C57.1413 49.8333 56.9084 49.4009 56.7754 48.7358L51.6203 27.2837L46.4984 48.7025C46.3321 49.3677 46.1325 49.8001 45.8665 50.0329C45.6004 50.2657 45.1348 50.3655 44.5361 50.3655H41.6758ZM84.4136 51.2634C82.6842 51.2634 80.9547 51.0639 79.2917 50.6648C77.6288 50.2657 76.3317 49.8333 75.4669 49.3344C74.9348 49.0351 74.569 48.7025 74.4359 48.4032C74.3029 48.1038 74.2364 47.7712 74.2364 47.4719V45.7757C74.2364 45.0773 74.5024 44.7447 75.0013 44.7447C75.2009 44.7447 75.4004 44.7779 75.6 44.8445C75.7995 44.911 76.0989 45.044 76.4315 45.1771C77.5623 45.6759 78.7928 46.075 80.09 46.3411C81.4203 46.6072 82.7174 46.7402 84.0478 46.7402C86.1431 46.7402 87.7728 46.3744 88.9036 45.6427C90.0344 44.911 90.633 43.8467 90.633 42.4831C90.633 41.5518 90.3337 40.7869 89.7351 40.1549C89.1364 39.523 88.0056 38.9576 86.3759 38.4255L81.5533 36.9288C79.1254 36.1639 77.3295 35.0331 76.2319 33.5364C75.1344 32.073 74.569 30.4433 74.569 28.7139C74.569 27.317 74.8683 26.0864 75.4669 25.0221C76.0656 23.9578 76.8638 23.0266 77.8616 22.2949C78.8594 21.5299 79.9902 20.9645 81.3205 20.5654C82.6509 20.1663 84.0478 20 85.5112 20C86.2429 20 87.0078 20.0333 87.7395 20.133C88.5045 20.2328 89.2029 20.3658 89.9013 20.4989C90.5665 20.6652 91.1984 20.8315 91.7971 21.031C92.3958 21.2306 92.8614 21.4301 93.194 21.6297C93.6596 21.8958 93.9922 22.1618 94.1917 22.4612C94.3913 22.7272 94.4911 23.0931 94.4911 23.5587V25.1219C94.4911 25.8203 94.225 26.1862 93.7261 26.1862C93.4601 26.1862 93.0277 26.0531 92.4623 25.7871C90.5665 24.9223 88.438 24.49 86.0766 24.49C84.1808 24.49 82.6842 24.7893 81.6531 25.4212C80.6221 26.0531 80.09 27.0176 80.09 28.3813C80.09 29.3125 80.4225 30.1107 81.0877 30.7427C81.7529 31.3746 82.9835 32.0065 84.7462 32.5719L89.469 34.0686C91.8636 34.8335 93.5931 35.8978 94.6241 37.2614C95.6551 38.625 96.154 40.1882 96.154 41.9177C96.154 43.3478 95.8547 44.6449 95.2893 45.7757C94.6906 46.9065 93.8924 47.9043 92.8614 48.7025C91.8304 49.534 90.5998 50.1326 89.1696 50.565C87.673 51.0306 86.1098 51.2634 84.4136 51.2634Z" fill="#252F3E"/>
<path id="Vector_2" fill-rule="evenodd" clip-rule="evenodd" d="M90.6995 67.4272C79.7573 75.5091 63.8595 79.7996 50.1901 79.7996C31.0329 79.7996 13.7715 72.7154 0.73403 60.9417C-0.296997 60.0104 0.634254 58.7466 1.86483 59.4783C15.9666 67.66 33.361 72.6156 51.3541 72.6156C63.4937 72.6156 76.8305 70.0879 89.1031 64.8995C90.9323 64.068 92.4955 66.0968 90.6995 67.4272Z" fill="#FF9900"/>
<path id="Vector_3" fill-rule="evenodd" clip-rule="evenodd" d="M95.2559 62.2388C93.859 60.4428 86.0099 61.3741 82.4513 61.8064C81.387 61.9395 81.2207 61.0082 82.1852 60.3098C88.4378 55.9196 98.7148 57.1834 99.9121 58.6468C101.109 60.1435 99.5795 70.4205 93.726 75.3428C92.828 76.1078 91.9633 75.7087 92.3624 74.7109C93.6927 71.4183 96.6527 64.0015 95.2559 62.2388Z" fill="#FF9900"/>
</g>
</g>
</svg>
