<svg width="101" height="100" viewBox="0 0 101 100" fill="none" xmlns="http://www.w3.org/2000/svg">
<g id="java">
<g id="java_2">
<path id="Vector" d="M37.0438 77.3362C37.0438 77.3362 33.2225 79.5584 39.7634 80.3103C47.6877 81.2143 51.7374 81.0848 60.4701 79.4319C60.4701 79.4319 62.7661 80.8715 65.9722 82.1185C46.3964 90.5083 21.6677 81.6324 37.0438 77.3362ZM34.6516 66.3878C34.6516 66.3878 30.3656 69.5605 36.9115 70.2375C45.3763 71.1107 52.0611 71.1822 63.6287 68.9548C63.6287 68.9548 65.2286 70.5768 67.7444 71.4639C44.0757 78.3849 17.7132 72.0097 34.6516 66.3878Z" fill="#5382A1"/>
<path id="Vector_2" d="M54.8178 47.8159C59.6414 53.3692 53.5505 58.3666 53.5505 58.3666C53.5505 58.3666 65.7981 52.044 60.1733 44.1263C54.92 36.7432 50.8911 33.0742 72.7009 20.4255C72.7009 20.4255 38.4669 28.9755 54.8178 47.8156" fill="#E76F00"/>
<path id="Vector_3" d="M80.7085 85.4344C80.7085 85.4344 83.5364 87.7643 77.594 89.567C66.2946 92.9902 30.5642 94.0238 20.6383 89.7034C17.0704 88.1514 23.7615 85.9973 25.8662 85.545C28.0611 85.069 29.3157 85.1579 29.3157 85.1579C25.3476 82.3624 3.66779 90.6467 18.3035 93.0188C58.2168 99.4917 91.0614 90.1044 80.7085 85.4344ZM38.8811 55.0441C38.8811 55.0441 20.7067 59.3611 32.4453 60.9284C37.4016 61.592 47.2819 61.442 56.4854 60.6707C64.007 60.0366 71.5595 58.6873 71.5595 58.6873C71.5595 58.6873 68.9073 59.8232 66.9886 61.1333C48.5325 65.9874 12.8785 63.7293 23.1428 58.7641C31.8234 54.5681 38.8814 55.0441 38.8814 55.0441H38.8811ZM71.4845 73.2681C90.2464 63.5188 81.5716 54.15 75.5169 55.4124C74.0327 55.721 73.3711 55.9886 73.3711 55.9886C73.3711 55.9886 73.9221 55.1258 74.9743 54.7522C86.9524 50.5409 96.1645 67.1725 71.1075 73.7595C71.1075 73.7597 71.3979 73.5003 71.4845 73.2681Z" fill="#5382A1"/>
<path id="Vector_4" d="M60.1731 0.000777813C60.1731 0.000777813 70.5636 10.3951 50.3181 26.3777C34.0836 39.1989 46.6161 46.5091 50.3115 54.8614C40.835 46.3114 33.8803 38.7846 38.5462 31.7796C45.394 21.4962 64.3652 16.5107 60.1731 0.000488281" fill="#E76F00"/>
<path id="Vector_5" d="M40.7247 99.6861C58.7335 100.839 86.3879 99.0465 87.0429 90.5253C87.0429 90.5253 85.784 93.7559 72.1596 96.3211C56.7887 99.2136 37.831 98.876 26.5869 97.0221C26.5872 97.0221 28.8887 98.9272 40.7249 99.6861" fill="#5382A1"/>
</g>
</g>
</svg>
