<svg width="101" height="100" viewBox="0 0 101 100" fill="none" xmlns="http://www.w3.org/2000/svg">
<g id="laravel">
<g id="laravel_2">
<path id="Vector" d="M99.0755 22.485C99.1113 22.6175 99.1296 22.7541 99.13 22.8914V44.2255C99.13 44.4993 99.0577 44.7683 98.9205 45.0052C98.7832 45.2422 98.5859 45.4387 98.3483 45.5749L80.4422 55.8842V76.3181C80.4422 76.8742 80.1467 77.3875 79.6645 77.6675L42.287 99.1844C42.2014 99.233 42.1081 99.2642 42.0148 99.2972C41.9798 99.3089 41.9467 99.3303 41.9098 99.34C41.6485 99.4088 41.3738 99.4088 41.1125 99.34C41.0698 99.3283 41.0309 99.305 40.9901 99.2894C40.9045 99.2583 40.8151 99.2311 40.7334 99.1844L3.36369 77.6675C3.12629 77.5312 2.92903 77.3346 2.7918 77.0977C2.65457 76.8608 2.58222 76.5919 2.58203 76.3181V12.3157C2.58203 12.1757 2.60148 12.0396 2.63647 11.9074C2.64814 11.8626 2.67536 11.8218 2.69092 11.7771C2.72008 11.6954 2.74731 11.6118 2.79008 11.536C2.81925 11.4854 2.86203 11.4446 2.89703 11.3979C2.94175 11.3357 2.98258 11.2715 3.03508 11.2171C3.0798 11.1724 3.13813 11.1393 3.18869 11.1004C3.24508 11.0538 3.29563 11.0032 3.3598 10.9663H3.36174L22.0476 0.207802C22.2842 0.0716552 22.5524 0 22.8253 0C23.0983 0 23.3665 0.0716552 23.6031 0.207802L42.2889 10.9663H42.2928C42.355 11.0051 42.4075 11.0538 42.4639 11.0985C42.5145 11.1374 42.5709 11.1724 42.6156 11.2151C42.67 11.2715 42.7089 11.3357 42.7556 11.3979C42.7886 11.4446 42.8334 11.4854 42.8606 11.536C42.9053 11.6138 42.9306 11.6954 42.9617 11.7771C42.9772 11.8218 43.0045 11.8626 43.0161 11.9093C43.0519 12.0418 43.0702 12.1784 43.0706 12.3157V52.2909L58.6414 43.3252V22.8894C58.6414 22.7533 58.6609 22.6153 58.6959 22.485C58.7095 22.4383 58.7348 22.3975 58.7503 22.3528C58.7814 22.2711 58.8087 22.1875 58.8514 22.1117C58.8806 22.0611 58.9234 22.0203 58.9564 21.9736C59.0031 21.9114 59.042 21.8472 59.0964 21.7928C59.1412 21.7481 59.1975 21.715 59.2481 21.6761C59.3064 21.6294 59.357 21.5789 59.4192 21.5419H59.4212L78.1089 10.7835C78.3455 10.6471 78.6137 10.5754 78.8867 10.5754C79.1597 10.5754 79.4279 10.6471 79.6645 10.7835L98.3503 21.5419C98.4164 21.5808 98.4669 21.6294 98.5253 21.6742C98.5739 21.7131 98.6303 21.748 98.675 21.7908C98.7294 21.8472 98.7683 21.9114 98.815 21.9736C98.85 22.0203 98.8928 22.0611 98.92 22.1117C98.9647 22.1875 98.99 22.2711 99.0211 22.3528C99.0386 22.3975 99.0639 22.4383 99.0755 22.485ZM96.015 43.3252V25.5844L89.476 29.3488L80.4422 34.5501V52.2909L96.017 43.3252H96.015ZM77.3292 75.4178V57.6653L68.4432 62.7402L43.0686 77.2223V95.142L77.3292 75.4178ZM5.69698 15.0087V75.4178L39.9537 95.1401V77.2242L22.0573 67.0957L22.0515 67.0918L22.0437 67.088C21.9834 67.053 21.9328 67.0024 21.8765 66.9596C21.8278 66.9207 21.7715 66.8896 21.7287 66.8468L21.7248 66.841C21.6742 66.7924 21.6392 66.7321 21.5965 66.6777C21.5576 66.6252 21.5109 66.5805 21.4798 66.526L21.4779 66.5202C21.4429 66.4619 21.4215 66.3919 21.3962 66.3257C21.3709 66.2674 21.3379 66.213 21.3223 66.1507V66.1488C21.3029 66.0749 21.299 65.9971 21.2912 65.9213C21.2834 65.863 21.2679 65.8046 21.2679 65.7463V23.9744L12.236 18.7711L5.69698 15.0106V15.0087ZM22.8273 3.35387L7.25835 12.3157L22.8234 21.2775L38.3904 12.3137L22.8234 3.35387H22.8273ZM30.9238 59.2831L39.9556 54.0837V15.0087L33.4166 18.7731L24.3828 23.9744V63.0494L30.9238 59.2831ZM78.8867 13.9296L63.3197 22.8914L78.8867 31.8532L94.4517 22.8894L78.8867 13.9296ZM77.3292 34.5501L68.2955 29.3488L61.7564 25.5844V43.3252L70.7882 48.5246L77.3292 52.2909V34.5501ZM41.5092 74.5292L64.3425 61.4939L75.7562 54.9801L60.2009 46.0241L42.2909 56.3353L25.9675 65.7327L41.5092 74.5292Z" fill="#FF2D20"/>
</g>
</g>
</svg>
