<svg width="101" height="100" viewBox="0 0 101 100" fill="none" xmlns="http://www.w3.org/2000/svg">
<g id="figma">
<g id="figma_2">
<path id="Vector" d="M33.9152 100.001C43.1152 100.001 50.5819 92.5339 50.5819 83.3339V66.6672H33.9152C24.7152 66.6672 17.2485 74.1339 17.2485 83.3339C17.2485 92.5339 24.7152 100.001 33.9152 100.001Z" fill="#0ACF83"/>
<path id="Vector_2" d="M17.2485 50.0004C17.2485 40.8004 24.7152 33.3337 33.9152 33.3337H50.5819V66.667H33.9152C24.7152 66.667 17.2485 59.2004 17.2485 50.0004Z" fill="#A259FF"/>
<path id="Vector_3" d="M17.2485 16.6671C17.2485 7.46715 24.7152 0.000488281 33.9152 0.000488281H50.5819V33.3338H33.9152C24.7152 33.3338 17.2485 25.8671 17.2485 16.6671Z" fill="#F24E1E"/>
<path id="Vector_4" d="M50.582 0.000488281H67.2487C76.4487 0.000488281 83.9154 7.46715 83.9154 16.6671C83.9154 25.8671 76.4487 33.3338 67.2487 33.3338H50.582V0.000488281Z" fill="#FF7262"/>
<path id="Vector_5" d="M83.9154 50.0004C83.9154 59.2004 76.4487 66.667 67.2487 66.667C58.0487 66.667 50.582 59.2004 50.582 50.0004C50.582 40.8004 58.0487 33.3337 67.2487 33.3337C76.4487 33.3337 83.9154 40.8004 83.9154 50.0004Z" fill="#1ABCFE"/>
</g>
</g>
</svg>
