<svg width="80" height="80" viewBox="0 0 80 80" fill="none" xmlns="http://www.w3.org/2000/svg">
<path d="M0 56.6636C0 56.6636 1.5942 56.6636 6.95652 56.6636C12.3188 56.6636 15 56.5479 20.8696 38.1469L27.8261 30.7402C33.6005 53.1554 35.8695 56.6636 40 56.6636C44.1304 56.6636 51.416 56.6668 55.6552 56.6668C59.8943 56.6668 64.2391 53.5389 80 23.3335C80 23.3335 73.8043 23.3335 66.087 23.3335C58.3696 23.3335 55.3261 37.5682 52.1739 49.2569C46.7391 28.4256 45.6522 23.3335 38.2609 23.3335C30.8696 23.3335 29.6739 23.3335 22.6087 23.3335C15.5435 23.3335 7.71739 29.0042 0 56.6636Z" fill="#0A99D6"/>
<path opacity="0.2" d="M22.6086 24.1668C29.6739 24.1668 30.8695 24.1668 38.2609 24.1668C45.6523 24.1668 46.7391 29.2588 52.1739 50.0903C55.3261 38.4014 58.3695 24.1668 66.087 24.1668C72.6503 24.1668 78.0735 24.1668 79.5603 24.1668C79.7115 23.8779 79.8466 23.6275 80 23.3335C80 23.3335 73.8043 23.3335 66.087 23.3335C58.3695 23.3335 55.3261 37.5681 52.1739 49.257C46.7391 28.4255 45.6523 23.3335 38.2609 23.3335C30.8695 23.3335 29.6739 23.3335 22.6086 23.3335C15.5434 23.3335 7.71749 29.0043 0 56.6636C0 56.6636 3.59475 45.9002 5.26792 41.887C11.235 27.575 17.149 24.1668 22.6086 24.1668Z" fill="white"/>
<path opacity="0.1" d="M55.6551 55.8335C51.416 55.8335 44.1305 55.8302 40 55.8302C35.8695 55.8302 33.6005 52.3219 27.8261 29.9068L20.8695 37.3136C15 55.7145 12.3189 55.8302 6.95658 55.8302C2.70203 55.8302 0.841064 55.8302 0.244751 55.8302C0.163167 56.1175 0.0815837 56.3714 0 56.6636C0 56.6636 1.59424 56.6636 6.95658 56.6636C12.3189 56.6636 15 56.5478 20.8695 38.1469L27.8261 30.7401C33.6005 53.1553 35.8695 56.6636 40 56.6636C44.1305 56.6636 51.416 56.6668 55.6551 56.6668C59.8944 56.6668 64.2391 53.5388 80 23.3335C80 23.3335 77.2004 27.8089 76.1185 29.8124C63.4909 53.1964 59.5218 55.8335 55.6551 55.8335Z" fill="#010101"/>
<path d="M0 56.6636C0 56.6636 1.5942 56.6636 6.95652 56.6636C12.3188 56.6636 15 56.5479 20.8696 38.1469L27.8261 30.7402C33.6005 53.1554 35.8695 56.6636 40 56.6636C44.1304 56.6636 51.416 56.6668 55.6552 56.6668C59.8943 56.6668 64.2391 53.5389 80 23.3335C80 23.3335 73.8043 23.3335 66.087 23.3335C58.3696 23.3335 55.3261 37.5682 52.1739 49.2569C46.7391 28.4256 45.6522 23.3335 38.2609 23.3335C30.8696 23.3335 29.6739 23.3335 22.6087 23.3335C15.5435 23.3335 7.71739 29.0042 0 56.6636Z" fill="url(#paint0_linear_263_1504)"/>
<defs>
<linearGradient id="paint0_linear_263_1504" x1="11.8019" y1="26.8496" x2="66.4727" y2="52.343" gradientUnits="userSpaceOnUse">
<stop stop-color="white" stop-opacity="0.2"/>
<stop offset="1" stop-color="white" stop-opacity="0"/>
</linearGradient>
</defs>
</svg>
