<svg width="40" height="40" viewBox="0 0 40 40" fill="none" xmlns="http://www.w3.org/2000/svg">
<g clip-path="url(#clip0_263_1812)">
<path fill-rule="evenodd" clip-rule="evenodd" d="M8.6202 20.0001C8.6202 18.7011 8.83582 17.4554 9.22113 16.2873L2.48051 11.1401C1.16676 13.8073 0.426758 16.8129 0.426758 20.0001C0.426758 23.1848 1.16613 26.1883 2.4777 28.8539L9.21457 23.6967C8.83301 22.5339 8.6202 21.2929 8.6202 20.0001Z" fill="#FBBC05"/>
<path fill-rule="evenodd" clip-rule="evenodd" d="M20.4552 8.18188C23.2773 8.18188 25.8264 9.18188 27.8292 10.8181L33.6555 5C30.1052 1.90906 25.5533 0 20.4552 0C12.5402 0 5.73766 4.52625 2.48047 11.14L9.22078 16.2872C10.7739 11.5728 15.2011 8.18188 20.4552 8.18188Z" fill="#EA4335"/>
<path fill-rule="evenodd" clip-rule="evenodd" d="M20.4552 31.8182C15.2014 31.8182 10.7742 28.4273 9.22109 23.7129L2.48047 28.8591C5.73766 35.4738 12.5402 40.0001 20.4552 40.0001C25.3402 40.0001 30.0042 38.2654 33.5045 35.0154L27.1064 30.0691C25.3011 31.2063 23.0277 31.8182 20.4552 31.8182Z" fill="#34A853"/>
<path fill-rule="evenodd" clip-rule="evenodd" d="M39.5729 20C39.5729 18.8181 39.3907 17.5453 39.1176 16.3638H20.4551V24.091H31.1976C30.6604 26.7256 29.1985 28.751 27.1063 30.0691L33.5045 35.0153C37.1813 31.6028 39.5729 26.5191 39.5729 20Z" fill="white"/>
</g>
<defs>
<clipPath id="clip0_263_1812">
<rect width="40" height="40" fill="white"/>
</clipPath>
</defs>
</svg>
