<svg width="80" height="80" viewBox="0 0 80 80" fill="none" xmlns="http://www.w3.org/2000/svg">
<path d="M48.2601 49.6095C45.7537 49.8538 43.2288 49.394 40.9693 48.282C40.4575 47.8725 40.035 47.3624 39.728 46.7832C39.421 46.2041 39.236 45.5681 39.1844 44.9147C39.1833 44.8169 39.1629 44.7203 39.1243 44.6305C39.0856 44.5406 39.0296 44.4593 38.9593 44.3913C38.8891 44.3233 38.806 44.2699 38.715 44.2342C38.624 44.1985 38.5267 44.1812 38.429 44.1833C37.3737 44.1704 36.3186 44.1733 35.2635 44.1818C35.0791 44.163 34.8947 44.2177 34.7503 44.3339C34.6059 44.4501 34.5132 44.6186 34.4922 44.8028C34.432 45.9492 34.6258 47.0948 35.0598 48.1577C35.4937 49.2206 36.157 50.1745 37.0024 50.9512C39.1364 52.6165 41.7275 53.5912 44.4299 53.7452C47.2458 54.0718 50.0955 53.9509 52.8735 53.3867C55.0067 52.9888 56.9623 51.9349 58.4676 50.372C59.2998 49.346 59.8575 48.1253 60.0884 46.8246C60.3193 45.5239 60.2158 44.1858 59.7876 42.9361C59.428 42.0551 58.8714 41.2683 58.1605 40.6358C57.4495 40.0034 56.6032 39.5422 55.6863 39.2876C51.4171 37.7896 46.8053 37.9029 42.453 36.7646C41.6974 36.5268 40.7741 36.2686 40.4374 35.4687C40.2428 34.9057 40.2295 34.296 40.3994 33.7251C40.5693 33.1542 40.9139 32.6509 41.3847 32.2861C42.7512 31.5051 44.3073 31.1177 45.8805 31.1667C48.0156 30.9657 50.168 31.2737 52.161 32.0653C52.7598 32.4174 53.2747 32.8957 53.67 33.4668C54.0653 34.0379 54.3316 34.6883 54.4503 35.3726C54.456 35.5746 54.537 35.7671 54.6773 35.9125C54.8177 36.0578 55.0073 36.1454 55.2089 36.1581C56.2567 36.1795 57.3049 36.1638 58.3526 36.1653C58.5343 36.187 58.7178 36.1424 58.8693 36.0397C59.0207 35.937 59.13 35.7831 59.177 35.6062C59.1864 34.1929 58.8263 32.8017 58.1325 31.5704C57.4387 30.3391 56.4352 29.3104 55.2215 28.5862C51.8716 27.0402 48.1532 26.4712 44.4942 26.9448C41.8134 27.0547 39.252 28.0836 37.2404 29.8591C36.3169 30.8545 35.6915 32.0892 35.4355 33.4227C35.1795 34.7561 35.3032 36.1347 35.7924 37.4012C36.1733 38.2497 36.7336 39.0055 37.4347 39.6165C38.1358 40.2275 38.9611 40.6792 39.8537 40.9405C44.1087 42.4773 48.7722 41.9842 53.0684 43.3432C53.9056 43.6272 54.8806 44.0616 55.1371 44.9934C55.2749 45.5519 55.2645 46.1366 55.1069 46.6898C54.9492 47.243 54.6498 47.7454 54.2383 48.1473C52.4514 49.2573 50.3576 49.7694 48.2601 49.6095ZM67.6565 21.4582C59.349 16.7605 51.0396 12.0669 42.7283 7.37764C41.8944 6.91134 40.9549 6.6665 39.9994 6.6665C39.044 6.6665 38.1045 6.91134 37.2705 7.37764C28.9916 12.0528 20.7122 16.7276 12.4324 21.4023C11.6269 21.8413 10.9535 22.4879 10.4822 23.2749C10.0108 24.0619 9.75861 24.9607 9.75171 25.878V54.1255C9.76497 55.0595 10.0308 55.9725 10.5209 56.7677C11.011 57.5629 11.7073 58.2106 12.5357 58.6421C14.9141 59.9367 17.2248 61.3631 19.6463 62.5716C21.0439 63.3188 22.5962 63.7304 24.1804 63.7739C25.7646 63.8175 27.3372 63.4917 28.7737 62.8224C29.8486 62.1491 30.7232 61.1998 31.3065 60.0735C31.8897 58.9472 32.1602 57.6851 32.0898 56.4186C32.1083 47.0963 32.0926 37.7736 32.0969 28.4511C32.1131 28.3492 32.1076 28.245 32.0808 28.1453C32.0539 28.0457 32.0063 27.9528 31.9411 27.8728C31.8759 27.7929 31.7945 27.7276 31.7023 27.6812C31.61 27.6349 31.5091 27.6085 31.406 27.6039C30.348 27.5868 29.2884 27.5939 28.2305 27.6011C28.1326 27.5923 28.0338 27.6043 27.9409 27.6364C27.8479 27.6684 27.7627 27.7197 27.6909 27.787C27.6192 27.8542 27.5624 27.9359 27.5245 28.0266C27.4865 28.1173 27.4681 28.2151 27.4705 28.3134C27.4563 37.5759 27.4734 46.841 27.462 56.1049C27.4644 56.7443 27.2712 57.3692 26.9084 57.8958C26.5455 58.4223 26.0304 58.8253 25.432 59.0507C24.7429 59.2544 24.0186 59.3104 23.3064 59.215C22.5942 59.1197 21.9101 58.8752 21.2989 58.4975C19.0955 57.2531 16.8922 56.0088 14.6889 54.7646C14.5429 54.6954 14.4216 54.5831 14.3414 54.4429C14.2611 54.3026 14.2258 54.1412 14.2401 53.9803C14.2401 44.6606 14.2401 35.3415 14.2401 26.0227C14.2248 25.8415 14.2671 25.66 14.3611 25.5042C14.4551 25.3484 14.5959 25.2264 14.7634 25.1554C23.0152 20.5079 31.2654 15.8555 39.5141 11.1982C39.6573 11.1004 39.8269 11.0482 40.0003 11.0484C40.1738 11.0487 40.3432 11.1014 40.4862 11.1997C48.7377 15.8487 56.9888 20.4993 65.2396 25.1515C65.4063 25.2244 65.5461 25.3476 65.6394 25.5038C65.7327 25.66 65.7749 25.8415 65.76 26.0229C65.7586 35.3408 65.7576 44.6595 65.7572 53.979C65.7718 54.1406 65.7373 54.3028 65.6582 54.4445C65.5792 54.5862 65.4592 54.7008 65.314 54.7733C57.1886 59.3678 49.0589 63.9557 40.9248 68.5369C40.5362 68.7534 40.0762 69.1017 39.6217 68.8394C37.4914 67.6336 35.3871 66.3809 33.2639 65.1637C33.1553 65.0807 33.0245 65.032 32.8881 65.0238C32.7517 65.0156 32.616 65.0483 32.4983 65.1177C31.5631 65.6657 30.5787 66.125 29.558 66.4898C29.0978 66.6761 28.5316 66.7292 28.2148 67.1561C28.6186 67.5954 29.1078 67.9477 29.6524 68.1914C32.1355 69.6292 34.62 71.0657 37.1057 72.5009C37.9279 73.0172 38.8734 73.3038 39.8438 73.3307C40.8142 73.3577 41.7742 73.1241 42.6237 72.6543C50.9039 67.9854 59.1838 63.3144 67.4632 58.6412C68.291 58.2089 68.9867 57.5612 69.4769 56.7664C69.9672 55.9715 70.2338 55.0591 70.2486 54.1254V25.878C70.2417 24.9788 69.9986 24.0972 69.5437 23.3215C69.0887 22.5458 68.4379 21.9033 67.6565 21.4582Z" fill="#6563FF"/>
</svg>
