<svg width="80" height="80" viewBox="0 0 80 80" fill="none" xmlns="http://www.w3.org/2000/svg">
<path d="M39.9333 46.6401C43.6299 46.6401 46.6267 43.6434 46.6267 39.9468C46.6267 36.2501 43.6299 33.2534 39.9333 33.2534C36.2367 33.2534 33.24 36.2501 33.24 39.9468C33.24 43.6434 36.2367 46.6401 39.9333 46.6401Z" fill="#00D8FF"/>
<path d="M39.9332 55.2799C30.5332 55.2799 22.3199 54.1732 16.1732 52.0666C12.1866 50.7066 8.79989 48.8932 6.38655 46.8266C3.82655 44.6399 2.46655 42.2532 2.46655 39.9466C2.46655 35.5199 7.31989 31.1866 15.4666 28.3599C22.1332 26.0399 30.8266 24.7466 39.9199 24.7466C48.8532 24.7466 57.4265 25.9999 64.0532 28.2932C67.9332 29.6266 71.1999 31.3599 73.5199 33.2799C76.0399 35.3866 77.3732 37.6932 77.3732 39.9466C77.3732 44.5466 71.9465 49.1999 63.1999 52.0932C57.0132 54.1466 48.7466 55.2799 39.9332 55.2799ZM39.9332 27.9466C31.3066 27.9466 22.7732 29.1999 16.5332 31.3732C9.03989 33.9866 5.67989 37.5599 5.67989 39.9466C5.67989 42.4266 9.29322 46.3332 17.2132 49.0399C23.0266 51.0266 30.8932 52.0799 39.9332 52.0799C48.4132 52.0799 56.3199 51.0132 62.1999 49.0532C70.4266 46.3199 74.1866 42.4132 74.1866 39.9466C74.1866 38.6799 73.2265 37.1866 71.4799 35.7332C69.4665 34.0532 66.5332 32.5199 63.0266 31.3066C56.7199 29.1466 48.5199 27.9466 39.9332 27.9466Z" fill="#00D8FF"/>
<path d="M24.7467 73.3065C23.3867 73.3065 22.1867 73.0132 21.1734 72.4265C17.3467 70.2132 16.0134 63.8398 17.6267 55.3732C18.9467 48.4265 22.1734 40.2665 26.72 32.3865C31.1867 24.6532 36.5467 17.8532 41.84 13.2532C44.9334 10.5598 48.0667 8.5865 50.8934 7.5465C53.9734 6.41316 56.64 6.41317 58.5867 7.53316C62.5734 9.8265 63.8934 16.8665 62.0267 25.8798C60.7067 32.2798 57.56 39.9998 53.16 47.6398C48.4667 55.7732 43.4 62.3332 38.5067 66.6132C35.3334 69.3865 32.0667 71.4132 29.08 72.4665C27.52 73.0265 26.0534 73.3065 24.7467 73.3065ZM28.0934 33.1865L29.48 33.9865C25.1734 41.4532 21.9867 49.4665 20.76 55.9732C19.28 63.7732 20.7067 68.4665 22.76 69.6532C23.2667 69.9465 23.9334 70.1065 24.7467 70.1065C27.4 70.1065 31.5734 68.4265 36.4 64.2132C41.0267 60.1732 45.8667 53.8798 50.3867 46.0532C54.6267 38.7065 57.64 31.3198 58.8934 25.2532C60.64 16.7598 59.1334 11.5598 56.9867 10.3198C55.8934 9.69317 54.12 9.77316 51.9867 10.5598C49.52 11.4665 46.7334 13.2398 43.9334 15.6798C38.9067 20.0532 33.7734 26.5598 29.48 33.9998L28.0934 33.1865Z" fill="#00D8FF"/>
<path d="M55.12 73.3465C51.4933 73.3465 46.8933 71.1598 42.0933 67.0265C36.7333 62.4131 31.28 55.5465 26.72 47.6665C22.24 39.9331 19.04 31.8931 17.6933 24.9998C16.9067 20.9731 16.76 17.2798 17.2667 14.3065C17.8267 11.0665 19.1467 8.7598 21.1067 7.62647C25.08 5.3198 31.84 7.69313 38.72 13.8131C43.6 18.1465 48.72 24.7331 53.1333 32.3598C57.84 40.4931 61 48.1598 62.2533 54.5331C63.0667 58.6665 63.2 62.5065 62.6267 65.6265C62.0133 68.9465 60.6267 71.3065 58.6267 72.4665C57.6267 73.0531 56.44 73.3465 55.12 73.3465ZM29.4933 46.0665C33.8133 53.5331 39.1733 60.2931 44.1867 64.5998C50.2 69.7731 54.9733 70.8931 57.04 69.6931C59.1867 68.4531 60.76 63.3731 59.1333 55.1598C57.9333 49.1331 54.9067 41.7998 50.3733 33.9731C46.12 26.6265 41.2267 20.3198 36.6 16.2131C30.12 10.4531 24.8667 9.1598 22.72 10.3998C21.6267 11.0265 20.8133 12.6131 20.4267 14.8531C19.9867 17.4398 20.12 20.7465 20.84 24.3865C22.12 30.9331 25.1867 38.6265 29.4933 46.0665Z" fill="#00D8FF"/>
</svg>
